<?xml version="1.0" encoding="UTF-8" standalone="no"?>
<!-- Generator: Adobe Illustrator 13.0.2, SVG Export Plug-In . SVG Version: 6.00 Build 14948)  -->
<svg
   xmlns:dc="http://purl.org/dc/elements/1.1/"
   xmlns:cc="http://creativecommons.org/ns#"
   xmlns:rdf="http://www.w3.org/1999/02/22-rdf-syntax-ns#"
   xmlns:svg="http://www.w3.org/2000/svg"
   xmlns="http://www.w3.org/2000/svg"
   xmlns:sodipodi="http://sodipodi.sourceforge.net/DTD/sodipodi-0.dtd"
   xmlns:inkscape="http://www.inkscape.org/namespaces/inkscape"
   version="1.1"
   x="0px"
   y="0px"
   width="212px"
   height="227.176px"
   viewBox="0 0 212 227.176"
   enable-background="new 0 0 212 227.176"
   xml:space="preserve"
   id="svg2"
   sodipodi:version="0.32"
   inkscape:version="0.46"
   inkscape:output_extension="org.inkscape.output.svg.inkscape"
   sodipodi:docname="webserver_groupresource_a.svg"><metadata
   id="metadata132"><rdf:RDF><cc:Work
       rdf:about=""><dc:format>image/svg+xml</dc:format><dc:type
         rdf:resource="http://purl.org/dc/dcmitype/StillImage" /></cc:Work></rdf:RDF></metadata><defs
   id="defs130"><inkscape:perspective
     sodipodi:type="inkscape:persp3d"
     inkscape:vp_x="0 : 113.588 : 1"
     inkscape:vp_y="0 : 1000 : 0"
     inkscape:vp_z="212 : 113.588 : 1"
     inkscape:persp3d-origin="106 : 75.725332 : 1"
     id="perspective134" /></defs><sodipodi:namedview
   inkscape:window-height="743"
   inkscape:window-width="640"
   inkscape:pageshadow="2"
   inkscape:pageopacity="0.0"
   guidetolerance="10.0"
   gridtolerance="10.0"
   objecttolerance="10.0"
   borderopacity="1.0"
   bordercolor="#666666"
   pagecolor="#ffffff"
   id="namedview128"
   showgrid="false"
   inkscape:zoom="2.332993"
   inkscape:cx="106"
   inkscape:cy="113.588"
   inkscape:window-x="0"
   inkscape:window-y="222"
   inkscape:current-layer="svg2" />
<g
   id="base">
	<path
   fill="#D2D3D4"
   d="M170,66.897c0,2.485-2.015,4.5-4.5,4.5h-113c-2.485,0-4.5-2.015-4.5-4.5V4.5C48,2.015,50.015,0,52.5,0h113   c2.485,0,4.5,2.015,4.5,4.5V66.897z"
   id="path5" />
	<g
   id="g7">
		<g
   id="g9">
			<circle
   fill="#629E1F"
   cx="71.286"
   cy="48.108"
   r="14.358"
   id="circle11" />
		</g>
	</g>
	<g
   id="g13">
		<path
   fill="#FFFFFF"
   d="M63.181,50.898l-0.744,1.908h-1.86l3.528-9.288h1.368l3.432,9.288h-1.884l-0.696-1.908H63.181z     M64.705,46.17h-0.024l-0.996,3.288h2.148L64.705,46.17z"
   id="path15" />
		<path
   fill="#FFFFFF"
   d="M71.641,52.807h-1.764v-9.048h2.399c1.896,0,3.132,0.756,3.132,2.808c0,1.921-1.044,2.856-2.892,2.856    h-0.876V52.807z M71.641,47.959h0.36c1.044,0,1.607-0.229,1.607-1.404c0-1.164-0.672-1.332-1.656-1.332h-0.312V47.959z"
   id="path17" />
		<path
   fill="#FFFFFF"
   d="M78.408,52.807h-1.764v-9.048h2.399c1.896,0,3.132,0.756,3.132,2.808c0,1.921-1.044,2.856-2.892,2.856    h-0.876V52.807z M78.408,47.959h0.36c1.044,0,1.607-0.229,1.607-1.404c0-1.164-0.672-1.332-1.656-1.332h-0.312V47.959z"
   id="path19" />
	</g>
	<g
   id="g21">
		<g
   id="g23">
			<g
   id="g25">
				<g
   id="g27">
					<circle
   fill="#E67814"
   cx="109.001"
   cy="48.108"
   r="14.358"
   id="circle29" />
				</g>
			</g>
		</g>
	</g>
	<g
   id="g31">
		<path
   fill="#FFFFFF"
   d="M100.896,50.898l-0.744,1.908h-1.86l3.528-9.288h1.368l3.432,9.288h-1.884l-0.696-1.908H100.896z     M102.421,46.17h-0.024l-0.996,3.288h2.148L102.421,46.17z"
   id="path33" />
		<path
   fill="#FFFFFF"
   d="M109.356,52.807h-1.764v-9.048h2.399c1.896,0,3.132,0.756,3.132,2.808c0,1.921-1.044,2.856-2.892,2.856    h-0.876V52.807z M109.356,47.958h0.36c1.044,0,1.607-0.228,1.607-1.404c0-1.164-0.672-1.332-1.656-1.332h-0.312V47.958z"
   id="path35" />
		<path
   fill="#FFFFFF"
   d="M116.124,52.807h-1.764v-9.048h2.399c1.896,0,3.132,0.756,3.132,2.808c0,1.921-1.044,2.856-2.892,2.856    h-0.876V52.807z M116.124,47.958h0.36c1.044,0,1.607-0.228,1.607-1.404c0-1.164-0.672-1.332-1.656-1.332h-0.312V47.958z"
   id="path37" />
	</g>
	<g
   id="g39">
		<g
   id="g41">
			<circle
   fill="#1C82B9"
   cx="146.717"
   cy="48.108"
   r="14.358"
   id="circle43" />
		</g>
	</g>
	<g
   id="g45">
		<path
   fill="#FFFFFF"
   d="M138.612,50.898l-0.744,1.908h-1.86l3.528-9.288h1.368l3.432,9.288h-1.884l-0.696-1.908H138.612z     M140.137,46.17h-0.024l-0.996,3.288h2.148L140.137,46.17z"
   id="path47" />
		<path
   fill="#FFFFFF"
   d="M147.072,52.807h-1.764v-9.048h2.399c1.896,0,3.132,0.756,3.132,2.808c0,1.92-1.044,2.856-2.892,2.856    h-0.876V52.807z M147.072,47.958h0.36c1.044,0,1.607-0.228,1.607-1.404c0-1.164-0.672-1.332-1.656-1.332h-0.312V47.958z"
   id="path49" />
		<path
   fill="#FFFFFF"
   d="M153.84,52.807h-1.764v-9.048h2.399c1.896,0,3.132,0.756,3.132,2.808c0,1.92-1.044,2.856-2.892,2.856    h-0.876V52.807z M153.84,47.958h0.36c1.044,0,1.607-0.228,1.607-1.404c0-1.164-0.672-1.332-1.656-1.332h-0.312V47.958z"
   id="path51" />
	</g>
	<path
   opacity="0.5"
   fill="#629E1F"
   d="M158.5,118.397c0,2.485-2.015,4.5-4.5,4.5H64c-2.485,0-4.5-2.015-4.5-4.5v-24.5   c0-2.485,2.015-4.5,4.5-4.5h90c2.485,0,4.5,2.015,4.5,4.5V118.397z"
   id="path53" />
	<line
   fill="none"
   stroke="#666666"
   stroke-width="2"
   x1="12"
   y1="106.147"
   x2="47.338"
   y2="106.147"
   id="line55" />
	<polygon
   fill="#666666"
   points="44.174,102.984 44.174,109.31 50.5,106.147  "
   id="polygon57" />
</g>
<g
   id="text">
	<text
   transform="matrix(1 0 0 1 87.8828 15.75)"
   id="text60"><tspan
     x="0"
     y="0"
     font-family="'ArialMT'"
     font-size="8"
     id="tspan62">Web Server</tspan><tspan
     x="-8.23"
     y="9.5"
     font-family="'ArialMT'"
     font-size="8"
     id="tspan64">Group Resource</tspan></text>

	<text
   transform="matrix(1 0 0 1 89.4355 104.1475)"
   id="text66"><tspan
     x="0"
     y="0"
     font-family="'ArialMT'"
     font-size="8"
     id="tspan68">IP Address</tspan><tspan
     x="-9.791"
     y="9.5"
     font-family="'ArialMT'"
     font-size="8"
     id="tspan70">(192.168.1.180)</tspan></text>

	<path
   opacity="0.5"
   fill="#E67814"
   d="M158.5,169.897c0,2.485-2.015,4.5-4.5,4.5H64c-2.485,0-4.5-2.015-4.5-4.5v-24.5   c0-2.485,2.015-4.5,4.5-4.5h90c2.485,0,4.5,2.015,4.5,4.5V169.897z"
   id="path72" />
	<text
   transform="matrix(1 0 0 1 88.1074 155.6475)"
   id="text74"><tspan
     x="0"
     y="0"
     font-family="'ArialMT'"
     font-size="8"
     id="tspan76">File System</tspan><tspan
     x="6.67"
     y="9.5"
     font-family="'ArialMT'"
     font-size="8"
     id="tspan78">(XFS)</tspan></text>

	<path
   opacity="0.5"
   fill="#1C82B9"
   d="M158.5,221.397c0,2.485-2.015,4.499-4.5,4.499H64c-2.485,0-4.5-2.014-4.5-4.499v-24.5   c0-2.485,2.015-4.5,4.5-4.5h90c2.485,0,4.5,2.015,4.5,4.5V221.397z"
   id="path80" />
	<text
   transform="matrix(1 0 0 1 70.9863 207.1475)"
   id="text82"><tspan
     x="0"
     y="0"
     font-family="'ArialMT'"
     font-size="8"
     id="tspan84">Web Server Software</tspan><tspan
     x="21.783"
     y="9.5"
     font-family="'ArialMT'"
     font-size="8"
     id="tspan86">(Apache)</tspan></text>

	<path
   fill="#666666"
   d="M6,89.175c3.314,0,6,2.687,6,6v126c0,3.312-2.686,6-6,6l0,0c-3.314,0-6-2.688-6-6v-126   C0,91.862,2.686,89.175,6,89.175L6,89.175z"
   id="path88" />
	<text
   transform="matrix(0 -1 1 0 8.75 180.3828)"
   fill="#FFFFFF"
   font-family="'Arial-BoldMT'"
   font-size="8"
   id="text90">Load Order</text>

	<circle
   fill="#629E1F"
   cx="59.5"
   cy="106.147"
   r="6"
   id="circle92" />
	<text
   transform="matrix(1 0 0 1 57.0254 108.8975)"
   fill="#FFFFFF"
   font-family="'Arial-BoldMT'"
   font-size="8"
   id="text94">1</text>

	<line
   fill="none"
   stroke="#666666"
   stroke-width="2"
   x1="12"
   y1="157.647"
   x2="47.338"
   y2="157.647"
   id="line96" />
	<polygon
   fill="#666666"
   points="44.174,154.484 44.174,160.81 50.5,157.647  "
   id="polygon98" />
	<circle
   fill="#E67814"
   cx="59.5"
   cy="157.647"
   r="6"
   id="circle100" />
	<text
   transform="matrix(1 0 0 1 57.2754 160.3975)"
   fill="#FFFFFF"
   font-family="'Arial-BoldMT'"
   font-size="8"
   id="text102">2</text>

	<line
   fill="none"
   stroke="#666666"
   stroke-width="2"
   x1="12"
   y1="209.147"
   x2="47.338"
   y2="209.147"
   id="line104" />
	<polygon
   fill="#666666"
   points="44.174,205.984 44.174,212.31 50.5,209.147  "
   id="polygon106" />
	<circle
   fill="#1C82B9"
   cx="59.5"
   cy="209.147"
   r="6"
   id="circle108" />
	<text
   transform="matrix(1 0 0 1 57.2754 211.8975)"
   fill="#FFFFFF"
   font-family="'Arial-BoldMT'"
   font-size="8"
   id="text110">3</text>

	<line
   fill="none"
   stroke="#666666"
   stroke-width="2"
   x1="200"
   y1="106.147"
   x2="164.662"
   y2="106.147"
   id="line112" />
	<polygon
   fill="#666666"
   points="167.826,102.984 167.826,109.31 161.5,106.147  "
   id="polygon114" />
	<path
   fill="#666666"
   d="M206,89.175c3.314,0,6,2.687,6,6v126c0,3.312-2.686,6-6,6l0,0c-3.314,0-6-2.688-6-6v-126   C200,91.862,202.686,89.175,206,89.175L206,89.175z"
   id="path116" />
	<text
   transform="matrix(0 -1 1 0 208.75 197.4824)"
   fill="#FFFFFF"
   font-family="'Arial-BoldMT'"
   font-size="8"
   id="text118">Individual Resource</text>

	<line
   fill="none"
   stroke="#666666"
   stroke-width="2"
   x1="200"
   y1="157.647"
   x2="164.662"
   y2="157.647"
   id="line120" />
	<polygon
   fill="#666666"
   points="167.826,154.484 167.826,160.81 161.5,157.647  "
   id="polygon122" />
	<line
   fill="none"
   stroke="#666666"
   stroke-width="2"
   x1="200"
   y1="209.147"
   x2="164.662"
   y2="209.147"
   id="line124" />
	<polygon
   fill="#666666"
   points="167.826,205.984 167.826,212.31 161.5,209.147  "
   id="polygon126" />
</g>
</svg>
