<?xml version="1.0" encoding="UTF-8" standalone="no"?>
<!-- Generator: Adobe Illustrator 13.0.2, SVG Export Plug-In . SVG Version: 6.00 Build 14948)  -->
<svg
   xmlns:dc="http://purl.org/dc/elements/1.1/"
   xmlns:cc="http://creativecommons.org/ns#"
   xmlns:rdf="http://www.w3.org/1999/02/22-rdf-syntax-ns#"
   xmlns:svg="http://www.w3.org/2000/svg"
   xmlns="http://www.w3.org/2000/svg"
   xmlns:sodipodi="http://sodipodi.sourceforge.net/DTD/sodipodi-0.dtd"
   xmlns:inkscape="http://www.inkscape.org/namespaces/inkscape"
   version="1.1"
   x="0px"
   y="0px"
   width="320.016px"
   height="188.505px"
   viewBox="0 0 320.016 188.505"
   enable-background="new 0 0 320.016 188.505"
   xml:space="preserve"
   id="svg7498"
   sodipodi:version="0.32"
   inkscape:version="0.46"
   inkscape:output_extension="org.inkscape.output.svg.inkscape"
   sodipodi:docname="ha_cluster_example2.svg"><metadata
   id="metadata8334"><rdf:RDF><cc:Work
       rdf:about=""><dc:format>image/svg+xml</dc:format><dc:type
         rdf:resource="http://purl.org/dc/dcmitype/StillImage" /></cc:Work></rdf:RDF></metadata><defs
   id="defs8332"><inkscape:perspective
     sodipodi:type="inkscape:persp3d"
     inkscape:vp_x="0 : 94.252502 : 1"
     inkscape:vp_y="0 : 1000 : 0"
     inkscape:vp_z="320.01599 : 94.252502 : 1"
     inkscape:persp3d-origin="160.008 : 62.835002 : 1"
     id="perspective8336" /></defs><sodipodi:namedview
   inkscape:window-height="743"
   inkscape:window-width="640"
   inkscape:pageshadow="2"
   inkscape:pageopacity="0.0"
   guidetolerance="10.0"
   gridtolerance="10.0"
   objecttolerance="10.0"
   borderopacity="1.0"
   bordercolor="#666666"
   pagecolor="#ffffff"
   id="base"
   showgrid="false"
   inkscape:zoom="1.6905405"
   inkscape:cx="160.008"
   inkscape:cy="94.252501"
   inkscape:window-x="68"
   inkscape:window-y="95"
   inkscape:current-layer="svg7498" />
<g
   id="Layer_1">
	
		<radialGradient
   id="SVGID_1_"
   cx="15.5854"
   cy="19.332"
   r="32.14"
   fx="14.9737"
   fy="14.1323"
   gradientTransform="matrix(0.6983 0 0 0.6983 13.4567 15.2146)"
   gradientUnits="userSpaceOnUse">
		<stop
   offset="0.19"
   style="stop-color:#FFF200"
   id="stop7502" />
		<stop
   offset="0.4782"
   style="stop-color:#FFCE17"
   id="stop7504" />
		<stop
   offset="1"
   style="stop-color:#F68B33"
   id="stop7506" />
	</radialGradient>
	<path
   fill="url(#SVGID_1_)"
   d="M12.332,41.423c7.306-2.856,6.406-1.238,1.318,4.615c7.036-6.183,9.895-8.404,2.078,6.167   c4.914-5.033,9.068-11.617,6.885-2.737c2.578-5.272,2.907-3.325,3.876,2.932c0,0-0.676-9.822,4.536-3.998   c0,0-2.058-9.884,2.864-1.895c-0.967-2.841-0.37-6.968,4.296-2.881c-3.158-5.643-4.107-8.27,1.073-6.264   c-3.761-3.928,4.211-1.357,6.382-0.855c-6.132-2.655-8.555-3.657-8.638-5.413c-0.045-0.932,0.752-2.255,8.389-0.938   c-0.031-0.284-6.606-2.194-6.634-3.239c-0.032-1.234,1.755-0.668,5.13-0.438c0.296,0.02-3.804-0.555-3.876-1.651   c-0.084-1.254,1.838-1.421,4.262-2.59c-1.838,0.25-3.187,0.7-3.76-0.25c-0.531-0.879,0.835-3.26,3.76-8.022   c-6.185,6.936-7.352,6.931-7.823,6.247c-1.344-1.949,0.19-7.933,0.351-8.293c-2.167,4.366-2.569,1.926-2.354,1.115   c-5.945,9.228-2.996-1.904-2.996-1.904c-5.314,5.365-5.016-4.85-5.016-4.85c-1.047,3.676-1.214,7.352-5.226-1.088   c2.758,10.196,1.089,10.434-3.656,5.256c2.845,7.581,3.521,11.062-6.094,0.425c8.253,13.341,4.467,11.518-3.292,8.97   c3.9,2.379-1.163,1.33-4.967-0.078c4.326,2.121,15.698,7.313,5.133,8.92c9.707,2.221,10.24,2.658-4.191,7.413   c6.37-0.412,15.581-2.634,7.071,2.519C17.924,36.697,14.886,39.877,12.332,41.423z"
   id="path7508" />
	<rect
   x="201.185"
   y="145.854"
   fill="#00A651"
   width="0.629"
   height="0.629"
   id="rect7510" />
	<rect
   x="201.185"
   y="147.406"
   fill="#00A651"
   width="0.629"
   height="0.629"
   id="rect7512" />
	<line
   fill="none"
   stroke="#000000"
   x1="202.482"
   y1="146.933"
   x2="262.482"
   y2="146.933"
   id="line7514" />
	<g
   id="g7516">
		<g
   id="g7518">
			<g
   id="g7520">
				<polygon
   fill="#2182B9"
   points="17.05,47.689 14.353,47.016 14.353,45.377 17.05,46.055     "
   id="polygon7522" />
				<polygon
   fill="#2182B9"
   points="24.646,49.516 21.945,48.844 21.945,47.203 24.646,47.879     "
   id="polygon7524" />
				<polygon
   fill="#CDCCCD"
   points="25.468,48.277 24.667,49.42 24.667,47.779 25.468,46.641     "
   id="polygon7526" />
				<polygon
   fill="#CDCCCD"
   points="17.88,46.461 17.079,47.604 17.079,45.967 17.88,44.828     "
   id="polygon7528" />
				<polyline
   fill="#2182B9"
   points="13.229,20.607 13.229,45.072 25.793,48.266 25.793,23.799 13.229,20.607     "
   id="polyline7530" />
				<polygon
   fill="#CDCCCD"
   points="25.793,23.799 25.793,48.266 35.679,38.379 35.679,13.92     "
   id="polygon7532" />
				<path
   fill="#CDCCCD"
   d="M23.183,40.678c0,0.039-0.026,0.064-0.065,0.055l-2.946-0.746c-0.037-0.01-0.068-0.051-0.068-0.09      v-0.842c0-0.039,0.031-0.064,0.068-0.053l2.946,0.748c0.039,0.006,0.065,0.047,0.065,0.084V40.678"
   id="path7534" />
				<path
   fill="#FFFFFF"
   d="M20.988,26.951c0,0.039-0.029,0.066-0.068,0.055l-2.944-0.748c-0.039-0.008-0.068-0.047-0.068-0.088      v-0.842c0-0.037,0.029-0.061,0.068-0.049l2.944,0.744c0.039,0.008,0.068,0.047,0.068,0.086V26.951"
   id="path7536" />
				<path
   fill="#FFFFFF"
   d="M23.183,42.582c0,0.035-0.026,0.064-0.065,0.055l-2.946-0.746c-0.037-0.012-0.068-0.051-0.068-0.088      v-0.842c0-0.039,0.031-0.064,0.068-0.053l2.946,0.742c0.039,0.014,0.065,0.053,0.065,0.09V42.582"
   id="path7538" />
				<path
   fill="#FFFFFF"
   d="M18.718,38.881c0-0.037-0.031-0.078-0.07-0.092l-2.942-0.742c-0.039-0.012-0.071,0.014-0.071,0.053      v0.844c0,0.035,0.032,0.076,0.071,0.086l2.942,0.744c0.039,0.012,0.07-0.014,0.07-0.051V38.881"
   id="path7540" />
				<path
   fill="#FFFFFF"
   d="M23.183,44.521c0,0.037-0.026,0.064-0.065,0.055l-2.946-0.746c-0.037-0.008-0.068-0.051-0.068-0.088      v-0.844c0-0.037,0.031-0.062,0.068-0.053l2.946,0.748c0.039,0.008,0.065,0.047,0.065,0.084V44.521"
   id="path7542" />
				<path
   fill="#CDCCCD"
   d="M18.718,42.725c0-0.039-0.031-0.078-0.07-0.09l-2.942-0.744c-0.039-0.012-0.071,0.016-0.071,0.053v0.846      c0,0.033,0.032,0.074,0.071,0.084l2.942,0.744c0.039,0.012,0.07-0.014,0.07-0.049V42.725"
   id="path7544" />
				<path
   fill="#FFFFFF"
   d="M18.718,40.785c0-0.041-0.031-0.08-0.07-0.092l-2.942-0.746c-0.039-0.006-0.071,0.018-0.071,0.057v0.842      c0,0.039,0.032,0.078,0.071,0.088l2.942,0.742c0.039,0.01,0.07-0.01,0.07-0.049V40.785"
   id="path7546" />
			</g>
			<polygon
   fill="#FFFFFF"
   points="35.666,14.047 23.349,11.365 13.244,20.66 25.747,23.805    "
   id="polygon7548" />
		</g>
		<g
   id="g7550">
			<path
   fill="#FFFFFF"
   d="M27.897,43.793c0-0.27-0.142-0.354-0.312-0.184s-0.311,0.525-0.311,0.795s0.14,0.352,0.311,0.182     C27.756,44.418,27.897,44.062,27.897,43.793z"
   id="path7552" />
			<path
   fill="#FFFFFF"
   d="M28.794,42.914c0-0.271-0.14-0.354-0.311-0.184c-0.174,0.168-0.312,0.523-0.312,0.793     s0.139,0.354,0.312,0.184C28.654,43.539,28.794,43.184,28.794,42.914z"
   id="path7554" />
			<path
   fill="#FFFFFF"
   d="M29.692,42.031c0-0.27-0.14-0.35-0.311-0.182c-0.174,0.168-0.312,0.523-0.312,0.793     c0,0.271,0.139,0.352,0.312,0.186C29.553,42.658,29.692,42.303,29.692,42.031z"
   id="path7556" />
			<path
   fill="#FFFFFF"
   d="M30.591,41.152c0-0.27-0.14-0.352-0.312-0.182c-0.172,0.168-0.311,0.523-0.311,0.791     c0,0.273,0.139,0.354,0.311,0.186C30.451,41.777,30.591,41.422,30.591,41.152z"
   id="path7558" />
			<path
   fill="#FFFFFF"
   d="M31.489,40.273c0-0.271-0.143-0.354-0.312-0.186c-0.174,0.17-0.311,0.525-0.311,0.795     s0.137,0.352,0.311,0.182C31.347,40.898,31.489,40.543,31.489,40.273z"
   id="path7560" />
			<path
   fill="#FFFFFF"
   d="M32.385,39.393c0-0.27-0.14-0.354-0.31-0.184c-0.174,0.17-0.312,0.523-0.312,0.795     c0,0.27,0.139,0.352,0.312,0.182C32.245,40.018,32.385,39.662,32.385,39.393z"
   id="path7562" />
			<path
   fill="#FFFFFF"
   d="M33.283,38.512c0-0.268-0.14-0.352-0.312-0.184c-0.171,0.168-0.31,0.525-0.31,0.795     s0.139,0.354,0.31,0.182C33.144,39.137,33.283,38.783,33.283,38.512z"
   id="path7564" />
			<path
   fill="#FFFFFF"
   d="M34.181,37.631c0-0.268-0.141-0.35-0.312-0.182s-0.312,0.523-0.312,0.795c0,0.268,0.14,0.35,0.312,0.182     S34.181,37.902,34.181,37.631z"
   id="path7566" />
			<path
   fill="#FFFFFF"
   d="M27.897,42.5c0-0.27-0.142-0.352-0.312-0.182c-0.171,0.166-0.311,0.521-0.311,0.793     c0,0.27,0.14,0.35,0.311,0.184C27.756,43.125,27.897,42.77,27.897,42.5z"
   id="path7568" />
			<path
   fill="#FFFFFF"
   d="M28.794,41.621c0-0.271-0.14-0.354-0.311-0.184c-0.174,0.168-0.312,0.523-0.312,0.793     c0,0.271,0.139,0.352,0.312,0.184C28.654,42.246,28.794,41.891,28.794,41.621z"
   id="path7570" />
			<path
   fill="#FFFFFF"
   d="M29.692,40.738c0-0.27-0.14-0.352-0.311-0.182c-0.174,0.168-0.312,0.523-0.312,0.795     c0,0.27,0.139,0.352,0.312,0.182C29.553,41.365,29.692,41.01,29.692,40.738z"
   id="path7572" />
			<path
   fill="#FFFFFF"
   d="M30.591,39.859c0-0.27-0.14-0.352-0.312-0.184c-0.172,0.168-0.311,0.523-0.311,0.793     c0,0.271,0.139,0.352,0.311,0.184C30.451,40.484,30.591,40.131,30.591,39.859z"
   id="path7574" />
			<path
   fill="#FFFFFF"
   d="M31.489,38.979c0-0.27-0.143-0.352-0.312-0.184c-0.174,0.17-0.311,0.525-0.311,0.795     s0.137,0.352,0.311,0.184C31.347,39.605,31.489,39.248,31.489,38.979z"
   id="path7576" />
			<path
   fill="#FFFFFF"
   d="M32.385,38.1c0-0.271-0.14-0.352-0.31-0.184c-0.174,0.168-0.312,0.523-0.312,0.795     c0,0.27,0.139,0.352,0.312,0.182C32.245,38.725,32.385,38.369,32.385,38.1z"
   id="path7578" />
			<path
   fill="#FFFFFF"
   d="M33.283,37.219c0-0.27-0.14-0.354-0.312-0.182c-0.171,0.168-0.31,0.523-0.31,0.791     c0,0.271,0.139,0.354,0.31,0.184C33.144,37.846,33.283,37.488,33.283,37.219z"
   id="path7580" />
			<path
   fill="#FFFFFF"
   d="M34.181,36.34c0-0.271-0.141-0.354-0.312-0.184c-0.172,0.168-0.312,0.523-0.312,0.793     c0,0.271,0.14,0.354,0.312,0.184S34.181,36.607,34.181,36.34z"
   id="path7582" />
			<path
   fill="#FFFFFF"
   d="M27.897,41.207c0-0.27-0.142-0.352-0.312-0.184c-0.171,0.17-0.311,0.525-0.311,0.793     c0,0.27,0.14,0.354,0.311,0.186C27.756,41.832,27.897,41.477,27.897,41.207z"
   id="path7584" />
			<path
   fill="#FFFFFF"
   d="M28.794,40.328c0-0.271-0.14-0.354-0.311-0.186c-0.174,0.17-0.312,0.525-0.312,0.795     s0.139,0.352,0.312,0.184C28.654,40.951,28.794,40.598,28.794,40.328z"
   id="path7586" />
			<path
   fill="#FFFFFF"
   d="M29.692,39.447c0-0.271-0.14-0.352-0.311-0.184c-0.174,0.168-0.312,0.525-0.312,0.793     c0,0.271,0.139,0.352,0.312,0.184C29.553,40.072,29.692,39.717,29.692,39.447z"
   id="path7588" />
			<path
   fill="#FFFFFF"
   d="M30.591,38.566c0-0.271-0.14-0.352-0.312-0.184c-0.172,0.168-0.311,0.523-0.311,0.793     c0,0.271,0.139,0.354,0.311,0.184C30.451,39.191,30.591,38.836,30.591,38.566z"
   id="path7590" />
			<path
   fill="#FFFFFF"
   d="M31.489,37.686c0-0.27-0.143-0.35-0.312-0.182c-0.174,0.168-0.311,0.523-0.311,0.793     c0,0.271,0.137,0.352,0.311,0.184C31.347,38.312,31.489,37.957,31.489,37.686z"
   id="path7592" />
			<path
   fill="#FFFFFF"
   d="M32.385,36.807c0-0.271-0.14-0.352-0.31-0.186c-0.174,0.17-0.312,0.527-0.312,0.797     c0,0.268,0.139,0.352,0.312,0.184C32.245,37.432,32.385,37.076,32.385,36.807z"
   id="path7594" />
			<path
   fill="#FFFFFF"
   d="M33.283,35.926c0-0.27-0.14-0.352-0.312-0.184c-0.171,0.17-0.31,0.523-0.31,0.795     c0,0.27,0.139,0.352,0.31,0.182C33.144,36.551,33.283,36.197,33.283,35.926z"
   id="path7596" />
			<path
   fill="#FFFFFF"
   d="M34.181,35.045c0-0.27-0.141-0.352-0.312-0.182c-0.172,0.168-0.312,0.523-0.312,0.793     s0.14,0.354,0.312,0.184S34.181,35.316,34.181,35.045z"
   id="path7598" />
		</g>
	</g>
	<rect
   x="13.229"
   y="11.365"
   fill="none"
   width="22.45"
   height="38.15"
   id="rect7600" />
	<g
   id="g7602">
		<g
   id="g7604">
			<g
   id="g7606">
				<polygon
   fill="#2182B9"
   points="147.287,47.689 144.589,47.016 144.589,45.377 147.287,46.055     "
   id="polygon7608" />
				<polygon
   fill="#2182B9"
   points="154.882,49.516 152.182,48.844 152.182,47.203 154.882,47.879     "
   id="polygon7610" />
				<polygon
   fill="#CDCCCD"
   points="155.705,48.277 154.904,49.42 154.904,47.779 155.705,46.641     "
   id="polygon7612" />
				<polygon
   fill="#CDCCCD"
   points="148.117,46.461 147.316,47.604 147.316,45.967 148.117,44.828     "
   id="polygon7614" />
				<polyline
   fill="#2182B9"
   points="143.466,20.607 143.466,45.072 156.03,48.266 156.03,23.799 143.466,20.607     "
   id="polyline7616" />
				<polygon
   fill="#CDCCCD"
   points="156.03,23.799 156.03,48.266 165.916,38.379 165.916,13.92     "
   id="polygon7618" />
				<path
   fill="#CDCCCD"
   d="M153.419,40.678c0,0.039-0.026,0.064-0.065,0.055l-2.946-0.746c-0.037-0.01-0.068-0.051-0.068-0.09      v-0.842c0-0.039,0.031-0.064,0.068-0.053l2.946,0.748c0.039,0.006,0.065,0.047,0.065,0.084V40.678"
   id="path7620" />
				<path
   fill="#FFFFFF"
   d="M151.225,26.951c0,0.039-0.029,0.066-0.068,0.055l-2.944-0.748c-0.039-0.008-0.068-0.047-0.068-0.088      v-0.842c0-0.037,0.029-0.061,0.068-0.049l2.944,0.744c0.039,0.008,0.068,0.047,0.068,0.086V26.951"
   id="path7622" />
				<path
   fill="#FFFFFF"
   d="M153.419,42.582c0,0.035-0.026,0.064-0.065,0.055l-2.946-0.746c-0.037-0.012-0.068-0.051-0.068-0.088      v-0.842c0-0.039,0.031-0.064,0.068-0.053l2.946,0.742c0.039,0.014,0.065,0.053,0.065,0.09V42.582"
   id="path7624" />
				<path
   fill="#FFFFFF"
   d="M148.955,38.881c0-0.037-0.031-0.078-0.07-0.092l-2.942-0.742c-0.039-0.012-0.071,0.014-0.071,0.053      v0.844c0,0.035,0.032,0.076,0.071,0.086l2.942,0.744c0.039,0.012,0.07-0.014,0.07-0.051V38.881"
   id="path7626" />
				<path
   fill="#FFFFFF"
   d="M153.419,44.521c0,0.037-0.026,0.064-0.065,0.055l-2.946-0.746c-0.037-0.008-0.068-0.051-0.068-0.088      v-0.844c0-0.037,0.031-0.062,0.068-0.053l2.946,0.748c0.039,0.008,0.065,0.047,0.065,0.084V44.521"
   id="path7628" />
				<path
   fill="#CDCCCD"
   d="M148.955,42.725c0-0.039-0.031-0.078-0.07-0.09l-2.942-0.744c-0.039-0.012-0.071,0.016-0.071,0.053      v0.846c0,0.033,0.032,0.074,0.071,0.084l2.942,0.744c0.039,0.012,0.07-0.014,0.07-0.049V42.725"
   id="path7630" />
				<path
   fill="#FFFFFF"
   d="M148.955,40.785c0-0.041-0.031-0.08-0.07-0.092l-2.942-0.746c-0.039-0.006-0.071,0.018-0.071,0.057      v0.842c0,0.039,0.032,0.078,0.071,0.088l2.942,0.742c0.039,0.01,0.07-0.01,0.07-0.049V40.785"
   id="path7632" />
			</g>
			<polygon
   fill="#FFFFFF"
   points="165.903,14.047 153.585,11.365 143.481,20.66 155.984,23.805    "
   id="polygon7634" />
		</g>
		<g
   id="g7636">
			<path
   fill="#FFFFFF"
   d="M158.134,43.793c0-0.27-0.142-0.354-0.312-0.184s-0.311,0.525-0.311,0.795s0.14,0.352,0.311,0.182     C157.993,44.418,158.134,44.062,158.134,43.793z"
   id="path7638" />
			<path
   fill="#FFFFFF"
   d="M159.031,42.914c0-0.271-0.14-0.354-0.311-0.184c-0.174,0.168-0.312,0.523-0.312,0.793     s0.139,0.354,0.312,0.184C158.891,43.539,159.031,43.184,159.031,42.914z"
   id="path7640" />
			<path
   fill="#FFFFFF"
   d="M159.929,42.031c0-0.27-0.14-0.35-0.311-0.182c-0.174,0.168-0.312,0.523-0.312,0.793     c0,0.271,0.139,0.352,0.312,0.186C159.79,42.658,159.929,42.303,159.929,42.031z"
   id="path7642" />
			<path
   fill="#FFFFFF"
   d="M160.828,41.152c0-0.27-0.14-0.352-0.312-0.182c-0.172,0.168-0.311,0.523-0.311,0.791     c0,0.273,0.139,0.354,0.311,0.186C160.688,41.777,160.828,41.422,160.828,41.152z"
   id="path7644" />
			<path
   fill="#FFFFFF"
   d="M161.726,40.273c0-0.271-0.143-0.354-0.312-0.186c-0.174,0.17-0.311,0.525-0.311,0.795     s0.137,0.352,0.311,0.182C161.583,40.898,161.726,40.543,161.726,40.273z"
   id="path7646" />
			<path
   fill="#FFFFFF"
   d="M162.622,39.393c0-0.27-0.14-0.354-0.31-0.184c-0.174,0.17-0.312,0.523-0.312,0.795     c0,0.27,0.139,0.352,0.312,0.182C162.482,40.018,162.622,39.662,162.622,39.393z"
   id="path7648" />
			<path
   fill="#FFFFFF"
   d="M163.52,38.512c0-0.268-0.14-0.352-0.312-0.184c-0.171,0.168-0.31,0.525-0.31,0.795     s0.139,0.354,0.31,0.182C163.38,39.137,163.52,38.783,163.52,38.512z"
   id="path7650" />
			<path
   fill="#FFFFFF"
   d="M164.418,37.631c0-0.268-0.142-0.35-0.312-0.182c-0.173,0.168-0.312,0.523-0.312,0.795     c0,0.268,0.14,0.35,0.312,0.182C164.277,38.258,164.418,37.902,164.418,37.631z"
   id="path7652" />
			<path
   fill="#FFFFFF"
   d="M158.134,42.5c0-0.27-0.142-0.352-0.312-0.182c-0.171,0.166-0.311,0.521-0.311,0.793     c0,0.27,0.14,0.35,0.311,0.184C157.993,43.125,158.134,42.77,158.134,42.5z"
   id="path7654" />
			<path
   fill="#FFFFFF"
   d="M159.031,41.621c0-0.271-0.14-0.354-0.311-0.184c-0.174,0.168-0.312,0.523-0.312,0.793     c0,0.271,0.139,0.352,0.312,0.184C158.891,42.246,159.031,41.891,159.031,41.621z"
   id="path7656" />
			<path
   fill="#FFFFFF"
   d="M159.929,40.738c0-0.27-0.14-0.352-0.311-0.182c-0.174,0.168-0.312,0.523-0.312,0.795     c0,0.27,0.139,0.352,0.312,0.182C159.79,41.365,159.929,41.01,159.929,40.738z"
   id="path7658" />
			<path
   fill="#FFFFFF"
   d="M160.828,39.859c0-0.27-0.14-0.352-0.312-0.184c-0.172,0.168-0.311,0.523-0.311,0.793     c0,0.271,0.139,0.352,0.311,0.184C160.688,40.484,160.828,40.131,160.828,39.859z"
   id="path7660" />
			<path
   fill="#FFFFFF"
   d="M161.726,38.979c0-0.27-0.143-0.352-0.312-0.184c-0.174,0.17-0.311,0.525-0.311,0.795     s0.137,0.352,0.311,0.184C161.583,39.605,161.726,39.248,161.726,38.979z"
   id="path7662" />
			<path
   fill="#FFFFFF"
   d="M162.622,38.1c0-0.271-0.14-0.352-0.31-0.184c-0.174,0.168-0.312,0.523-0.312,0.795     c0,0.27,0.139,0.352,0.312,0.182C162.482,38.725,162.622,38.369,162.622,38.1z"
   id="path7664" />
			<path
   fill="#FFFFFF"
   d="M163.52,37.219c0-0.27-0.14-0.354-0.312-0.182c-0.171,0.168-0.31,0.523-0.31,0.791     c0,0.271,0.139,0.354,0.31,0.184C163.38,37.846,163.52,37.488,163.52,37.219z"
   id="path7666" />
			<path
   fill="#FFFFFF"
   d="M164.418,36.34c0-0.271-0.142-0.354-0.312-0.184c-0.173,0.168-0.312,0.523-0.312,0.793     c0,0.271,0.14,0.354,0.312,0.184C164.277,36.963,164.418,36.607,164.418,36.34z"
   id="path7668" />
			<path
   fill="#FFFFFF"
   d="M158.134,41.207c0-0.27-0.142-0.352-0.312-0.184c-0.171,0.17-0.311,0.525-0.311,0.793     c0,0.27,0.14,0.354,0.311,0.186C157.993,41.832,158.134,41.477,158.134,41.207z"
   id="path7670" />
			<path
   fill="#FFFFFF"
   d="M159.031,40.328c0-0.271-0.14-0.354-0.311-0.186c-0.174,0.17-0.312,0.525-0.312,0.795     s0.139,0.352,0.312,0.184C158.891,40.951,159.031,40.598,159.031,40.328z"
   id="path7672" />
			<path
   fill="#FFFFFF"
   d="M159.929,39.447c0-0.271-0.14-0.352-0.311-0.184c-0.174,0.168-0.312,0.525-0.312,0.793     c0,0.271,0.139,0.352,0.312,0.184C159.79,40.072,159.929,39.717,159.929,39.447z"
   id="path7674" />
			<path
   fill="#FFFFFF"
   d="M160.828,38.566c0-0.271-0.14-0.352-0.312-0.184c-0.172,0.168-0.311,0.523-0.311,0.793     c0,0.271,0.139,0.354,0.311,0.184C160.688,39.191,160.828,38.836,160.828,38.566z"
   id="path7676" />
			<path
   fill="#FFFFFF"
   d="M161.726,37.686c0-0.27-0.143-0.35-0.312-0.182c-0.174,0.168-0.311,0.523-0.311,0.793     c0,0.271,0.137,0.352,0.311,0.184C161.583,38.312,161.726,37.957,161.726,37.686z"
   id="path7678" />
			<path
   fill="#FFFFFF"
   d="M162.622,36.807c0-0.271-0.14-0.352-0.31-0.186c-0.174,0.17-0.312,0.527-0.312,0.797     c0,0.268,0.139,0.352,0.312,0.184C162.482,37.432,162.622,37.076,162.622,36.807z"
   id="path7680" />
			<path
   fill="#FFFFFF"
   d="M163.52,35.926c0-0.27-0.14-0.352-0.312-0.184c-0.171,0.17-0.31,0.523-0.31,0.795     c0,0.27,0.139,0.352,0.31,0.182C163.38,36.551,163.52,36.197,163.52,35.926z"
   id="path7682" />
			<path
   fill="#FFFFFF"
   d="M164.418,35.045c0-0.27-0.142-0.352-0.312-0.182c-0.173,0.168-0.312,0.523-0.312,0.793     s0.14,0.354,0.312,0.184C164.277,35.67,164.418,35.316,164.418,35.045z"
   id="path7684" />
		</g>
	</g>
	<rect
   x="143.466"
   y="11.365"
   fill="none"
   width="22.449"
   height="38.15"
   id="rect7686" />
	<g
   id="g7688">
		<g
   id="g7690">
			<g
   id="g7692">
				<polygon
   fill="#2182B9"
   points="288.16,47.689 285.462,47.016 285.462,45.377 288.16,46.055     "
   id="polygon7694" />
				<polygon
   fill="#2182B9"
   points="295.755,49.516 293.055,48.844 293.055,47.203 295.755,47.879     "
   id="polygon7696" />
				<polygon
   fill="#CDCCCD"
   points="296.578,48.277 295.777,49.42 295.777,47.779 296.578,46.641     "
   id="polygon7698" />
				<polygon
   fill="#CDCCCD"
   points="288.99,46.461 288.189,47.604 288.189,45.967 288.99,44.828     "
   id="polygon7700" />
				<polyline
   fill="#2182B9"
   points="284.339,20.607 284.339,45.072 296.903,48.266 296.903,23.799 284.339,20.607     "
   id="polyline7702" />
				<polygon
   fill="#CDCCCD"
   points="296.903,23.799 296.903,48.266 306.789,38.379 306.789,13.92     "
   id="polygon7704" />
				<path
   fill="#CDCCCD"
   d="M294.292,40.678c0,0.039-0.026,0.064-0.065,0.055l-2.946-0.746c-0.037-0.01-0.068-0.051-0.068-0.09      v-0.842c0-0.039,0.031-0.064,0.068-0.053l2.946,0.748c0.039,0.006,0.065,0.047,0.065,0.084V40.678"
   id="path7706" />
				<path
   fill="#FFFFFF"
   d="M292.098,26.951c0,0.039-0.029,0.066-0.068,0.055l-2.944-0.748c-0.039-0.008-0.068-0.047-0.068-0.088      v-0.842c0-0.037,0.029-0.061,0.068-0.049l2.944,0.744c0.039,0.008,0.068,0.047,0.068,0.086V26.951"
   id="path7708" />
				<path
   fill="#FFFFFF"
   d="M294.292,42.582c0,0.035-0.026,0.064-0.065,0.055l-2.946-0.746c-0.037-0.012-0.068-0.051-0.068-0.088      v-0.842c0-0.039,0.031-0.064,0.068-0.053l2.946,0.742c0.039,0.014,0.065,0.053,0.065,0.09V42.582"
   id="path7710" />
				<path
   fill="#FFFFFF"
   d="M289.828,38.881c0-0.037-0.031-0.078-0.07-0.092l-2.942-0.742c-0.039-0.012-0.071,0.014-0.071,0.053      v0.844c0,0.035,0.032,0.076,0.071,0.086l2.942,0.744c0.039,0.012,0.07-0.014,0.07-0.051V38.881"
   id="path7712" />
				<path
   fill="#FFFFFF"
   d="M294.292,44.521c0,0.037-0.026,0.064-0.065,0.055l-2.946-0.746c-0.037-0.008-0.068-0.051-0.068-0.088      v-0.844c0-0.037,0.031-0.062,0.068-0.053l2.946,0.748c0.039,0.008,0.065,0.047,0.065,0.084V44.521"
   id="path7714" />
				<path
   fill="#CDCCCD"
   d="M289.828,42.725c0-0.039-0.031-0.078-0.07-0.09l-2.942-0.744c-0.039-0.012-0.071,0.016-0.071,0.053      v0.846c0,0.033,0.032,0.074,0.071,0.084l2.942,0.744c0.039,0.012,0.07-0.014,0.07-0.049V42.725"
   id="path7716" />
				<path
   fill="#FFFFFF"
   d="M289.828,40.785c0-0.041-0.031-0.08-0.07-0.092l-2.942-0.746c-0.039-0.006-0.071,0.018-0.071,0.057      v0.842c0,0.039,0.032,0.078,0.071,0.088l2.942,0.742c0.039,0.01,0.07-0.01,0.07-0.049V40.785"
   id="path7718" />
			</g>
			<polygon
   fill="#FFFFFF"
   points="306.776,14.047 294.458,11.365 284.354,20.66 296.857,23.805    "
   id="polygon7720" />
		</g>
		<g
   id="g7722">
			<path
   fill="#FFFFFF"
   d="M299.007,43.793c0-0.27-0.142-0.354-0.312-0.184s-0.311,0.525-0.311,0.795s0.14,0.352,0.311,0.182     C298.866,44.418,299.007,44.062,299.007,43.793z"
   id="path7724" />
			<path
   fill="#FFFFFF"
   d="M299.904,42.914c0-0.271-0.14-0.354-0.311-0.184c-0.174,0.168-0.312,0.523-0.312,0.793     s0.139,0.354,0.312,0.184C299.764,43.539,299.904,43.184,299.904,42.914z"
   id="path7726" />
			<path
   fill="#FFFFFF"
   d="M300.802,42.031c0-0.27-0.14-0.35-0.311-0.182c-0.174,0.168-0.312,0.523-0.312,0.793     c0,0.271,0.139,0.352,0.312,0.186C300.663,42.658,300.802,42.303,300.802,42.031z"
   id="path7728" />
			<path
   fill="#FFFFFF"
   d="M301.701,41.152c0-0.27-0.14-0.352-0.312-0.182c-0.172,0.168-0.311,0.523-0.311,0.791     c0,0.273,0.139,0.354,0.311,0.186C301.561,41.777,301.701,41.422,301.701,41.152z"
   id="path7730" />
			<path
   fill="#FFFFFF"
   d="M302.599,40.273c0-0.271-0.143-0.354-0.312-0.186c-0.174,0.17-0.311,0.525-0.311,0.795     s0.137,0.352,0.311,0.182C302.457,40.898,302.599,40.543,302.599,40.273z"
   id="path7732" />
			<path
   fill="#FFFFFF"
   d="M303.495,39.393c0-0.27-0.14-0.354-0.31-0.184c-0.174,0.17-0.312,0.523-0.312,0.795     c0,0.27,0.139,0.352,0.312,0.182C303.355,40.018,303.495,39.662,303.495,39.393z"
   id="path7734" />
			<path
   fill="#FFFFFF"
   d="M304.393,38.512c0-0.268-0.14-0.352-0.312-0.184c-0.171,0.168-0.31,0.525-0.31,0.795     s0.139,0.354,0.31,0.182C304.253,39.137,304.393,38.783,304.393,38.512z"
   id="path7736" />
			<path
   fill="#FFFFFF"
   d="M305.292,37.631c0-0.268-0.142-0.35-0.312-0.182c-0.173,0.168-0.312,0.523-0.312,0.795     c0,0.268,0.14,0.35,0.312,0.182C305.15,38.258,305.292,37.902,305.292,37.631z"
   id="path7738" />
			<path
   fill="#FFFFFF"
   d="M299.007,42.5c0-0.27-0.142-0.352-0.312-0.182c-0.171,0.166-0.311,0.521-0.311,0.793     c0,0.27,0.14,0.35,0.311,0.184C298.866,43.125,299.007,42.77,299.007,42.5z"
   id="path7740" />
			<path
   fill="#FFFFFF"
   d="M299.904,41.621c0-0.271-0.14-0.354-0.311-0.184c-0.174,0.168-0.312,0.523-0.312,0.793     c0,0.271,0.139,0.352,0.312,0.184C299.764,42.246,299.904,41.891,299.904,41.621z"
   id="path7742" />
			<path
   fill="#FFFFFF"
   d="M300.802,40.738c0-0.27-0.14-0.352-0.311-0.182c-0.174,0.168-0.312,0.523-0.312,0.795     c0,0.27,0.139,0.352,0.312,0.182C300.663,41.365,300.802,41.01,300.802,40.738z"
   id="path7744" />
			<path
   fill="#FFFFFF"
   d="M301.701,39.859c0-0.27-0.14-0.352-0.312-0.184c-0.172,0.168-0.311,0.523-0.311,0.793     c0,0.271,0.139,0.352,0.311,0.184C301.561,40.484,301.701,40.131,301.701,39.859z"
   id="path7746" />
			<path
   fill="#FFFFFF"
   d="M302.599,38.979c0-0.27-0.143-0.352-0.312-0.184c-0.174,0.17-0.311,0.525-0.311,0.795     s0.137,0.352,0.311,0.184C302.457,39.605,302.599,39.248,302.599,38.979z"
   id="path7748" />
			<path
   fill="#FFFFFF"
   d="M303.495,38.1c0-0.271-0.14-0.352-0.31-0.184c-0.174,0.168-0.312,0.523-0.312,0.795     c0,0.27,0.139,0.352,0.312,0.182C303.355,38.725,303.495,38.369,303.495,38.1z"
   id="path7750" />
			<path
   fill="#FFFFFF"
   d="M304.393,37.219c0-0.27-0.14-0.354-0.312-0.182c-0.171,0.168-0.31,0.523-0.31,0.791     c0,0.271,0.139,0.354,0.31,0.184C304.253,37.846,304.393,37.488,304.393,37.219z"
   id="path7752" />
			<path
   fill="#FFFFFF"
   d="M305.292,36.34c0-0.271-0.142-0.354-0.312-0.184c-0.173,0.168-0.312,0.523-0.312,0.793     c0,0.271,0.14,0.354,0.312,0.184C305.15,36.963,305.292,36.607,305.292,36.34z"
   id="path7754" />
			<path
   fill="#FFFFFF"
   d="M299.007,41.207c0-0.27-0.142-0.352-0.312-0.184c-0.171,0.17-0.311,0.525-0.311,0.793     c0,0.27,0.14,0.354,0.311,0.186C298.866,41.832,299.007,41.477,299.007,41.207z"
   id="path7756" />
			<path
   fill="#FFFFFF"
   d="M299.904,40.328c0-0.271-0.14-0.354-0.311-0.186c-0.174,0.17-0.312,0.525-0.312,0.795     s0.139,0.352,0.312,0.184C299.764,40.951,299.904,40.598,299.904,40.328z"
   id="path7758" />
			<path
   fill="#FFFFFF"
   d="M300.802,39.447c0-0.271-0.14-0.352-0.311-0.184c-0.174,0.168-0.312,0.525-0.312,0.793     c0,0.271,0.139,0.352,0.312,0.184C300.663,40.072,300.802,39.717,300.802,39.447z"
   id="path7760" />
			<path
   fill="#FFFFFF"
   d="M301.701,38.566c0-0.271-0.14-0.352-0.312-0.184c-0.172,0.168-0.311,0.523-0.311,0.793     c0,0.271,0.139,0.354,0.311,0.184C301.561,39.191,301.701,38.836,301.701,38.566z"
   id="path7762" />
			<path
   fill="#FFFFFF"
   d="M302.599,37.686c0-0.27-0.143-0.35-0.312-0.182c-0.174,0.168-0.311,0.523-0.311,0.793     c0,0.271,0.137,0.352,0.311,0.184C302.457,38.312,302.599,37.957,302.599,37.686z"
   id="path7764" />
			<path
   fill="#FFFFFF"
   d="M303.495,36.807c0-0.271-0.14-0.352-0.31-0.186c-0.174,0.17-0.312,0.527-0.312,0.797     c0,0.268,0.139,0.352,0.312,0.184C303.355,37.432,303.495,37.076,303.495,36.807z"
   id="path7766" />
			<path
   fill="#FFFFFF"
   d="M304.393,35.926c0-0.27-0.14-0.352-0.312-0.184c-0.171,0.17-0.31,0.523-0.31,0.795     c0,0.27,0.139,0.352,0.31,0.182C304.253,36.551,304.393,36.197,304.393,35.926z"
   id="path7768" />
			<path
   fill="#FFFFFF"
   d="M305.292,35.045c0-0.27-0.142-0.352-0.312-0.182c-0.173,0.168-0.312,0.523-0.312,0.793     s0.14,0.354,0.312,0.184C305.15,35.67,305.292,35.316,305.292,35.045z"
   id="path7770" />
		</g>
	</g>
	<rect
   x="284.339"
   y="11.365"
   fill="none"
   width="22.449"
   height="38.15"
   id="rect7772" />
	<g
   id="g7774">
		<g
   id="g7776">
			<g
   id="g7778">
				<polygon
   fill="#2182B9"
   points="266.302,164.182 263.605,163.508 263.605,161.869 266.302,162.547     "
   id="polygon7780" />
				<polygon
   fill="#2182B9"
   points="273.898,166.008 271.198,165.336 271.198,163.695 273.898,164.371     "
   id="polygon7782" />
				<polygon
   fill="#CDCCCD"
   points="274.72,164.77 273.919,165.912 273.919,164.271 274.72,163.133     "
   id="polygon7784" />
				<polygon
   fill="#CDCCCD"
   points="267.132,162.953 266.332,164.096 266.332,162.459 267.132,161.32     "
   id="polygon7786" />
				<polyline
   fill="#2182B9"
   points="262.482,137.1 262.482,161.564 275.045,164.758 275.045,140.291 262.482,137.1     "
   id="polyline7788" />
				<polygon
   fill="#CDCCCD"
   points="275.045,140.291 275.045,164.758 284.931,154.871 284.931,130.412     "
   id="polygon7790" />
				<path
   fill="#CDCCCD"
   d="M272.435,157.17c0,0.039-0.026,0.064-0.065,0.055l-2.946-0.746c-0.037-0.01-0.068-0.051-0.068-0.09      v-0.842c0-0.039,0.031-0.064,0.068-0.053l2.946,0.748c0.039,0.006,0.065,0.047,0.065,0.084V157.17"
   id="path7792" />
				<path
   fill="#FFFFFF"
   d="M270.241,143.443c0,0.039-0.029,0.066-0.068,0.055l-2.944-0.748c-0.039-0.008-0.068-0.047-0.068-0.088      v-0.842c0-0.037,0.029-0.061,0.068-0.049l2.944,0.744c0.039,0.008,0.068,0.047,0.068,0.086V143.443"
   id="path7794" />
				<path
   fill="#FFFFFF"
   d="M272.435,159.074c0,0.035-0.026,0.064-0.065,0.055l-2.946-0.746c-0.037-0.012-0.068-0.051-0.068-0.088      v-0.842c0-0.039,0.031-0.064,0.068-0.053l2.946,0.742c0.039,0.014,0.065,0.053,0.065,0.09V159.074"
   id="path7796" />
				<path
   fill="#FFFFFF"
   d="M267.97,155.373c0-0.037-0.031-0.078-0.07-0.092l-2.942-0.742c-0.039-0.012-0.071,0.014-0.071,0.053      v0.844c0,0.035,0.032,0.076,0.071,0.086l2.942,0.744c0.039,0.012,0.07-0.014,0.07-0.051V155.373"
   id="path7798" />
				<path
   fill="#FFFFFF"
   d="M272.435,161.014c0,0.037-0.026,0.064-0.065,0.055l-2.946-0.746c-0.037-0.008-0.068-0.051-0.068-0.088      v-0.844c0-0.037,0.031-0.062,0.068-0.053l2.946,0.748c0.039,0.008,0.065,0.047,0.065,0.084V161.014"
   id="path7800" />
				<path
   fill="#CDCCCD"
   d="M267.97,159.217c0-0.039-0.031-0.078-0.07-0.09l-2.942-0.744c-0.039-0.012-0.071,0.016-0.071,0.053      v0.846c0,0.033,0.032,0.074,0.071,0.084l2.942,0.744c0.039,0.012,0.07-0.014,0.07-0.049V159.217"
   id="path7802" />
				<path
   fill="#FFFFFF"
   d="M267.97,157.277c0-0.041-0.031-0.08-0.07-0.092l-2.942-0.746c-0.039-0.006-0.071,0.018-0.071,0.057      v0.842c0,0.039,0.032,0.078,0.071,0.088l2.942,0.742c0.039,0.01,0.07-0.01,0.07-0.049V157.277"
   id="path7804" />
			</g>
			<polygon
   fill="#FFFFFF"
   points="284.918,130.539 272.601,127.857 262.497,137.152 275,140.297    "
   id="polygon7806" />
		</g>
		<g
   id="g7808">
			<path
   fill="#FFFFFF"
   d="M277.15,160.285c0-0.27-0.142-0.354-0.312-0.184s-0.311,0.525-0.311,0.795s0.14,0.352,0.311,0.182     C277.008,160.91,277.15,160.555,277.15,160.285z"
   id="path7810" />
			<path
   fill="#FFFFFF"
   d="M278.046,159.406c0-0.271-0.14-0.354-0.311-0.184c-0.174,0.168-0.312,0.523-0.312,0.793     s0.139,0.354,0.312,0.184C277.907,160.031,278.046,159.676,278.046,159.406z"
   id="path7812" />
			<path
   fill="#FFFFFF"
   d="M278.945,158.523c0-0.27-0.14-0.35-0.311-0.182c-0.174,0.168-0.312,0.523-0.312,0.793     c0,0.271,0.139,0.352,0.312,0.186C278.805,159.15,278.945,158.795,278.945,158.523z"
   id="path7814" />
			<path
   fill="#FFFFFF"
   d="M279.843,157.645c0-0.27-0.14-0.352-0.312-0.182c-0.172,0.168-0.311,0.523-0.311,0.791     c0,0.273,0.139,0.354,0.311,0.186C279.704,158.27,279.843,157.914,279.843,157.645z"
   id="path7816" />
			<path
   fill="#FFFFFF"
   d="M280.742,156.766c0-0.271-0.143-0.354-0.312-0.186c-0.174,0.17-0.311,0.525-0.311,0.795     s0.137,0.352,0.311,0.182C280.599,157.391,280.742,157.035,280.742,156.766z"
   id="path7818" />
			<path
   fill="#FFFFFF"
   d="M281.637,155.885c0-0.27-0.14-0.354-0.31-0.184c-0.174,0.17-0.312,0.523-0.312,0.795     c0,0.27,0.139,0.352,0.312,0.182C281.498,156.51,281.637,156.154,281.637,155.885z"
   id="path7820" />
			<path
   fill="#FFFFFF"
   d="M282.536,155.004c0-0.268-0.14-0.352-0.312-0.184c-0.171,0.168-0.31,0.525-0.31,0.795     s0.139,0.354,0.31,0.182C282.396,155.629,282.536,155.275,282.536,155.004z"
   id="path7822" />
			<path
   fill="#FFFFFF"
   d="M283.434,154.123c0-0.268-0.142-0.35-0.312-0.182c-0.173,0.168-0.312,0.523-0.312,0.795     c0,0.268,0.14,0.35,0.312,0.182C283.292,154.75,283.434,154.395,283.434,154.123z"
   id="path7824" />
			<path
   fill="#FFFFFF"
   d="M277.15,158.992c0-0.27-0.142-0.352-0.312-0.182c-0.171,0.166-0.311,0.521-0.311,0.793     c0,0.27,0.14,0.35,0.311,0.184C277.008,159.617,277.15,159.262,277.15,158.992z"
   id="path7826" />
			<path
   fill="#FFFFFF"
   d="M278.046,158.113c0-0.271-0.14-0.354-0.311-0.184c-0.174,0.168-0.312,0.523-0.312,0.793     c0,0.271,0.139,0.352,0.312,0.184C277.907,158.738,278.046,158.383,278.046,158.113z"
   id="path7828" />
			<path
   fill="#FFFFFF"
   d="M278.945,157.23c0-0.27-0.14-0.352-0.311-0.182c-0.174,0.168-0.312,0.523-0.312,0.795     c0,0.27,0.139,0.352,0.312,0.182C278.805,157.857,278.945,157.502,278.945,157.23z"
   id="path7830" />
			<path
   fill="#FFFFFF"
   d="M279.843,156.352c0-0.27-0.14-0.352-0.312-0.184c-0.172,0.168-0.311,0.523-0.311,0.793     c0,0.271,0.139,0.352,0.311,0.184C279.704,156.977,279.843,156.623,279.843,156.352z"
   id="path7832" />
			<path
   fill="#FFFFFF"
   d="M280.742,155.471c0-0.27-0.143-0.352-0.312-0.184c-0.174,0.17-0.311,0.525-0.311,0.795     s0.137,0.352,0.311,0.184C280.599,156.098,280.742,155.74,280.742,155.471z"
   id="path7834" />
			<path
   fill="#FFFFFF"
   d="M281.637,154.592c0-0.271-0.14-0.352-0.31-0.184c-0.174,0.168-0.312,0.523-0.312,0.795     c0,0.27,0.139,0.352,0.312,0.182C281.498,155.217,281.637,154.861,281.637,154.592z"
   id="path7836" />
			<path
   fill="#FFFFFF"
   d="M282.536,153.711c0-0.27-0.14-0.354-0.312-0.182c-0.171,0.168-0.31,0.523-0.31,0.791     c0,0.271,0.139,0.354,0.31,0.184C282.396,154.338,282.536,153.98,282.536,153.711z"
   id="path7838" />
			<path
   fill="#FFFFFF"
   d="M283.434,152.832c0-0.271-0.142-0.354-0.312-0.184c-0.173,0.168-0.312,0.523-0.312,0.793     c0,0.271,0.14,0.354,0.312,0.184C283.292,153.455,283.434,153.1,283.434,152.832z"
   id="path7840" />
			<path
   fill="#FFFFFF"
   d="M277.15,157.699c0-0.27-0.142-0.352-0.312-0.184c-0.171,0.17-0.311,0.525-0.311,0.793     c0,0.27,0.14,0.354,0.311,0.186C277.008,158.324,277.15,157.969,277.15,157.699z"
   id="path7842" />
			<path
   fill="#FFFFFF"
   d="M278.046,156.82c0-0.271-0.14-0.354-0.311-0.186c-0.174,0.17-0.312,0.525-0.312,0.795     s0.139,0.352,0.312,0.184C277.907,157.443,278.046,157.09,278.046,156.82z"
   id="path7844" />
			<path
   fill="#FFFFFF"
   d="M278.945,155.939c0-0.271-0.14-0.352-0.311-0.184c-0.174,0.168-0.312,0.525-0.312,0.793     c0,0.271,0.139,0.352,0.312,0.184C278.805,156.564,278.945,156.209,278.945,155.939z"
   id="path7846" />
			<path
   fill="#FFFFFF"
   d="M279.843,155.059c0-0.271-0.14-0.352-0.312-0.184c-0.172,0.168-0.311,0.523-0.311,0.793     c0,0.271,0.139,0.354,0.311,0.184C279.704,155.684,279.843,155.328,279.843,155.059z"
   id="path7848" />
			<path
   fill="#FFFFFF"
   d="M280.742,154.178c0-0.27-0.143-0.35-0.312-0.182c-0.174,0.168-0.311,0.523-0.311,0.793     c0,0.271,0.137,0.352,0.311,0.184C280.599,154.805,280.742,154.449,280.742,154.178z"
   id="path7850" />
			<path
   fill="#FFFFFF"
   d="M281.637,153.299c0-0.271-0.14-0.352-0.31-0.186c-0.174,0.17-0.312,0.527-0.312,0.797     c0,0.268,0.139,0.352,0.312,0.184C281.498,153.924,281.637,153.568,281.637,153.299z"
   id="path7852" />
			<path
   fill="#FFFFFF"
   d="M282.536,152.418c0-0.27-0.14-0.352-0.312-0.184c-0.171,0.17-0.31,0.523-0.31,0.795     c0,0.27,0.139,0.352,0.31,0.182C282.396,153.043,282.536,152.689,282.536,152.418z"
   id="path7854" />
			<path
   fill="#FFFFFF"
   d="M283.434,151.537c0-0.27-0.142-0.352-0.312-0.182c-0.173,0.168-0.312,0.523-0.312,0.793     s0.14,0.354,0.312,0.184C283.292,152.162,283.434,151.809,283.434,151.537z"
   id="path7856" />
		</g>
	</g>
	<rect
   x="262.482"
   y="127.857"
   fill="none"
   width="22.449"
   height="38.15"
   id="rect7858" />
	<g
   id="g7860">
		<g
   id="g7862">
			<g
   id="g7864">
				<polygon
   fill="none"
   stroke="#000000"
   stroke-width="0.5"
   stroke-linecap="round"
   stroke-linejoin="round"
   points="      35.826,31.08 35.826,32.157 38.609,32.157 38.609,31.08 39.363,31.08 39.363,32.157 43.56,32.157 43.56,31.08 43.843,31.08       43.843,31.308 44.74,31.308 44.74,23.762 29.294,23.762 29.294,31.08     "
   id="polygon7866" />
				<polygon
   fill="#00A651"
   stroke="#000000"
   stroke-width="0.5"
   stroke-linecap="round"
   stroke-linejoin="round"
   points="      35.894,31.08 35.894,32.157 38.675,32.157 38.675,31.08 39.431,31.08 39.431,32.157 43.628,32.157 43.628,31.08 43.912,31.08       43.912,31.308 44.807,31.308 44.807,23.762 29.362,23.762 29.362,31.08     "
   id="polygon7868" />
				<g
   id="g7870">
					
						<rect
   x="44.908"
   y="26.545"
   fill="#FFFFFF"
   stroke="#000000"
   stroke-width="0.25"
   stroke-linecap="round"
   stroke-linejoin="round"
   width="0.943"
   height="0.472"
   id="rect7872" />
					<path
   fill="#FFFFFF"
   stroke="#000000"
   stroke-width="0.25"
   stroke-linecap="round"
   stroke-linejoin="round"
   d="M45.279,26.781"
   id="path7874" />
				</g>
				
					<line
   stroke="#000000"
   stroke-width="0.25"
   stroke-linecap="round"
   stroke-linejoin="round"
   x1="36.257"
   y1="31.37"
   x2="36.257"
   y2="32.137"
   id="line7876" />
				
					<line
   stroke="#000000"
   stroke-width="0.25"
   stroke-linecap="round"
   stroke-linejoin="round"
   x1="36.552"
   y1="31.37"
   x2="36.552"
   y2="32.137"
   id="line7878" />
				
					<line
   stroke="#000000"
   stroke-width="0.25"
   stroke-linecap="round"
   stroke-linejoin="round"
   x1="36.847"
   y1="31.37"
   x2="36.847"
   y2="32.137"
   id="line7880" />
				
					<line
   stroke="#000000"
   stroke-width="0.25"
   stroke-linecap="round"
   stroke-linejoin="round"
   x1="37.142"
   y1="31.37"
   x2="37.142"
   y2="32.137"
   id="line7882" />
				
					<line
   stroke="#000000"
   stroke-width="0.25"
   stroke-linecap="round"
   stroke-linejoin="round"
   x1="37.437"
   y1="31.37"
   x2="37.437"
   y2="32.137"
   id="line7884" />
				
					<line
   stroke="#000000"
   stroke-width="0.25"
   stroke-linecap="round"
   stroke-linejoin="round"
   x1="37.731"
   y1="31.37"
   x2="37.731"
   y2="32.137"
   id="line7886" />
				
					<line
   stroke="#000000"
   stroke-width="0.25"
   stroke-linecap="round"
   stroke-linejoin="round"
   x1="38.025"
   y1="31.37"
   x2="38.025"
   y2="32.137"
   id="line7888" />
				
					<line
   stroke="#000000"
   stroke-width="0.25"
   stroke-linecap="round"
   stroke-linejoin="round"
   x1="38.32"
   y1="31.37"
   x2="38.32"
   y2="32.137"
   id="line7890" />
				
					<line
   stroke="#000000"
   stroke-width="0.25"
   stroke-linecap="round"
   stroke-linejoin="round"
   x1="39.794"
   y1="31.37"
   x2="39.794"
   y2="32.137"
   id="line7892" />
				
					<line
   stroke="#000000"
   stroke-width="0.25"
   stroke-linecap="round"
   stroke-linejoin="round"
   x1="40.089"
   y1="31.37"
   x2="40.089"
   y2="32.137"
   id="line7894" />
				
					<line
   stroke="#000000"
   stroke-width="0.25"
   stroke-linecap="round"
   stroke-linejoin="round"
   x1="40.384"
   y1="31.37"
   x2="40.384"
   y2="32.137"
   id="line7896" />
				
					<line
   stroke="#000000"
   stroke-width="0.25"
   stroke-linecap="round"
   stroke-linejoin="round"
   x1="40.679"
   y1="31.37"
   x2="40.679"
   y2="32.137"
   id="line7898" />
				
					<line
   stroke="#000000"
   stroke-width="0.25"
   stroke-linecap="round"
   stroke-linejoin="round"
   x1="40.974"
   y1="31.37"
   x2="40.974"
   y2="32.137"
   id="line7900" />
				
					<line
   stroke="#000000"
   stroke-width="0.25"
   stroke-linecap="round"
   stroke-linejoin="round"
   x1="41.268"
   y1="31.37"
   x2="41.268"
   y2="32.137"
   id="line7902" />
				
					<line
   stroke="#000000"
   stroke-width="0.25"
   stroke-linecap="round"
   stroke-linejoin="round"
   x1="41.562"
   y1="31.37"
   x2="41.562"
   y2="32.137"
   id="line7904" />
				
					<line
   stroke="#000000"
   stroke-width="0.25"
   stroke-linecap="round"
   stroke-linejoin="round"
   x1="41.857"
   y1="31.37"
   x2="41.857"
   y2="32.137"
   id="line7906" />
				
					<line
   stroke="#000000"
   stroke-width="0.25"
   stroke-linecap="round"
   stroke-linejoin="round"
   x1="42.152"
   y1="31.37"
   x2="42.152"
   y2="32.137"
   id="line7908" />
				
					<line
   stroke="#000000"
   stroke-width="0.25"
   stroke-linecap="round"
   stroke-linejoin="round"
   x1="42.447"
   y1="31.37"
   x2="42.447"
   y2="32.137"
   id="line7910" />
				
					<line
   stroke="#000000"
   stroke-width="0.25"
   stroke-linecap="round"
   stroke-linejoin="round"
   x1="42.742"
   y1="31.37"
   x2="42.742"
   y2="32.137"
   id="line7912" />
				
					<line
   stroke="#000000"
   stroke-width="0.25"
   stroke-linecap="round"
   stroke-linejoin="round"
   x1="43.037"
   y1="31.37"
   x2="43.037"
   y2="32.137"
   id="line7914" />
				
					<line
   stroke="#000000"
   stroke-width="0.25"
   stroke-linecap="round"
   stroke-linejoin="round"
   x1="43.332"
   y1="31.37"
   x2="43.332"
   y2="32.137"
   id="line7916" />
				<polyline
   fill="none"
   stroke="#FFFFFF"
   stroke-width="0.5"
   points="29.852,30.837 29.852,24.234 44.531,24.234     "
   id="polyline7918" />
				<g
   id="g7920">
					<path
   d="M43.864,26.781"
   id="path7922" />
					<rect
   x="42.921"
   y="26.309"
   width="1.886"
   height="0.943"
   id="rect7924" />
				</g>
			</g>
			<rect
   x="36.848"
   y="27.743"
   fill="none"
   stroke="#00A651"
   stroke-width="0.5"
   width="0"
   height="0"
   id="rect7926" />
		</g>
		<polyline
   fill="none"
   stroke="#006F45"
   stroke-width="0.25"
   points="42.822,28.275 38.753,28.275 38.753,29.69   "
   id="polyline7928" />
		<polyline
   fill="none"
   stroke="#006F45"
   stroke-width="0.25"
   points="38.656,25.957 38.656,25.514 39.804,25.514   "
   id="polyline7930" />
		<polyline
   fill="none"
   stroke="#006F45"
   stroke-width="0.25"
   points="40.626,25.956 40.626,25.514 41.775,25.514   "
   id="polyline7932" />
		<polyline
   fill="none"
   stroke="#006F45"
   stroke-width="0.25"
   points="38.656,26.79 38.656,26.348 39.804,26.348   "
   id="polyline7934" />
		<polyline
   fill="none"
   stroke="#006F45"
   stroke-width="0.25"
   points="40.626,26.79 40.626,26.348 41.775,26.348   "
   id="polyline7936" />
		<path
   fill="none"
   stroke="#00A651"
   stroke-width="0.25"
   d="M34.529,27.656"
   id="path7938" />
		<polyline
   fill="none"
   stroke="#006F45"
   stroke-width="0.25"
   points="35.904,26.753 34.685,26.753 34.412,26.988 34.175,26.753     32.917,26.753 32.917,27.342   "
   id="polyline7940" />
		<polyline
   fill="none"
   stroke="#006F45"
   stroke-width="0.25"
   points="35.904,25.73 34.685,25.73 34.412,25.966 34.175,25.73     32.917,25.73 32.917,26.32   "
   id="polyline7942" />
		<polyline
   fill="none"
   stroke="#006F45"
   stroke-width="0.25"
   points="33.035,29.425 33.035,29.189 33.35,29.189   "
   id="polyline7944" />
		<polyline
   fill="none"
   stroke="#006F45"
   stroke-width="0.25"
   points="33.798,29.425 33.798,29.189 34.113,29.189   "
   id="polyline7946" />
		<polyline
   fill="none"
   stroke="#006F45"
   stroke-width="0.25"
   points="34.568,29.425 34.568,29.189 34.882,29.189   "
   id="polyline7948" />
		<polyline
   fill="none"
   stroke="#006F45"
   stroke-width="0.25"
   points="35.371,29.425 35.371,29.189 35.685,29.189   "
   id="polyline7950" />
		<polyline
   fill="none"
   stroke="#006F45"
   stroke-width="0.25"
   points="33.035,28.678 33.035,28.442 33.35,28.442   "
   id="polyline7952" />
		<polyline
   fill="none"
   stroke="#006F45"
   stroke-width="0.25"
   points="33.798,28.678 33.798,28.442 34.113,28.442   "
   id="polyline7954" />
		<polyline
   fill="none"
   stroke="#006F45"
   stroke-width="0.25"
   points="31.218,26.753 31.218,26.517 31.532,26.517   "
   id="polyline7956" />
		<polyline
   fill="none"
   stroke="#006F45"
   stroke-width="0.25"
   points="31.981,26.753 31.981,26.517 32.295,26.517   "
   id="polyline7958" />
		<polyline
   fill="none"
   stroke="#006F45"
   stroke-width="0.25"
   points="31.218,26.006 31.218,25.77 31.532,25.77   "
   id="polyline7960" />
		<polyline
   fill="none"
   stroke="#006F45"
   stroke-width="0.25"
   points="31.981,26.006 31.981,25.77 32.295,25.77   "
   id="polyline7962" />
		<polyline
   fill="none"
   stroke="#006F45"
   stroke-width="0.25"
   points="34.568,28.678 34.568,28.442 34.882,28.442   "
   id="polyline7964" />
		<polyline
   fill="none"
   stroke="#006F45"
   stroke-width="0.25"
   points="35.371,28.678 35.371,28.442 35.685,28.442   "
   id="polyline7966" />
	</g>
	<g
   id="g7968">
		<g
   id="g7970">
			<g
   id="g7972">
				<polygon
   fill="none"
   stroke="#000000"
   stroke-width="0.5"
   stroke-linecap="round"
   stroke-linejoin="round"
   points="      165.55,31.08 165.55,32.157 168.333,32.157 168.333,31.08 169.087,31.08 169.087,32.157 173.286,32.157 173.286,31.08       173.568,31.08 173.568,31.308 174.464,31.308 174.464,23.762 159.019,23.762 159.019,31.08     "
   id="polygon7974" />
				<polygon
   fill="#00A651"
   stroke="#000000"
   stroke-width="0.5"
   stroke-linecap="round"
   stroke-linejoin="round"
   points="      165.618,31.08 165.618,32.157 168.401,32.157 168.401,31.08 169.155,31.08 169.155,32.157 173.352,32.157 173.352,31.08       173.635,31.08 173.635,31.308 174.532,31.308 174.532,23.762 159.086,23.762 159.086,31.08     "
   id="polygon7976" />
				<g
   id="g7978">
					
						<rect
   x="174.632"
   y="26.545"
   fill="#FFFFFF"
   stroke="#000000"
   stroke-width="0.25"
   stroke-linecap="round"
   stroke-linejoin="round"
   width="0.943"
   height="0.472"
   id="rect7980" />
					<path
   fill="#FFFFFF"
   stroke="#000000"
   stroke-width="0.25"
   stroke-linecap="round"
   stroke-linejoin="round"
   d="M175.003,26.781       "
   id="path7982" />
				</g>
				
					<line
   stroke="#000000"
   stroke-width="0.25"
   stroke-linecap="round"
   stroke-linejoin="round"
   x1="165.982"
   y1="31.37"
   x2="165.982"
   y2="32.137"
   id="line7984" />
				
					<line
   stroke="#000000"
   stroke-width="0.25"
   stroke-linecap="round"
   stroke-linejoin="round"
   x1="166.276"
   y1="31.37"
   x2="166.276"
   y2="32.137"
   id="line7986" />
				
					<line
   stroke="#000000"
   stroke-width="0.25"
   stroke-linecap="round"
   stroke-linejoin="round"
   x1="166.571"
   y1="31.37"
   x2="166.571"
   y2="32.137"
   id="line7988" />
				
					<line
   stroke="#000000"
   stroke-width="0.25"
   stroke-linecap="round"
   stroke-linejoin="round"
   x1="166.866"
   y1="31.37"
   x2="166.866"
   y2="32.137"
   id="line7990" />
				
					<line
   stroke="#000000"
   stroke-width="0.25"
   stroke-linecap="round"
   stroke-linejoin="round"
   x1="167.161"
   y1="31.37"
   x2="167.161"
   y2="32.137"
   id="line7992" />
				
					<line
   stroke="#000000"
   stroke-width="0.25"
   stroke-linecap="round"
   stroke-linejoin="round"
   x1="167.456"
   y1="31.37"
   x2="167.456"
   y2="32.137"
   id="line7994" />
				
					<line
   stroke="#000000"
   stroke-width="0.25"
   stroke-linecap="round"
   stroke-linejoin="round"
   x1="167.75"
   y1="31.37"
   x2="167.75"
   y2="32.137"
   id="line7996" />
				
					<line
   stroke="#000000"
   stroke-width="0.25"
   stroke-linecap="round"
   stroke-linejoin="round"
   x1="168.045"
   y1="31.37"
   x2="168.045"
   y2="32.137"
   id="line7998" />
				
					<line
   stroke="#000000"
   stroke-width="0.25"
   stroke-linecap="round"
   stroke-linejoin="round"
   x1="169.519"
   y1="31.37"
   x2="169.519"
   y2="32.137"
   id="line8000" />
				
					<line
   stroke="#000000"
   stroke-width="0.25"
   stroke-linecap="round"
   stroke-linejoin="round"
   x1="169.813"
   y1="31.37"
   x2="169.813"
   y2="32.137"
   id="line8002" />
				
					<line
   stroke="#000000"
   stroke-width="0.25"
   stroke-linecap="round"
   stroke-linejoin="round"
   x1="170.108"
   y1="31.37"
   x2="170.108"
   y2="32.137"
   id="line8004" />
				
					<line
   stroke="#000000"
   stroke-width="0.25"
   stroke-linecap="round"
   stroke-linejoin="round"
   x1="170.403"
   y1="31.37"
   x2="170.403"
   y2="32.137"
   id="line8006" />
				
					<line
   stroke="#000000"
   stroke-width="0.25"
   stroke-linecap="round"
   stroke-linejoin="round"
   x1="170.698"
   y1="31.37"
   x2="170.698"
   y2="32.137"
   id="line8008" />
				
					<line
   stroke="#000000"
   stroke-width="0.25"
   stroke-linecap="round"
   stroke-linejoin="round"
   x1="170.993"
   y1="31.37"
   x2="170.993"
   y2="32.137"
   id="line8010" />
				
					<line
   stroke="#000000"
   stroke-width="0.25"
   stroke-linecap="round"
   stroke-linejoin="round"
   x1="171.288"
   y1="31.37"
   x2="171.288"
   y2="32.137"
   id="line8012" />
				
					<line
   stroke="#000000"
   stroke-width="0.25"
   stroke-linecap="round"
   stroke-linejoin="round"
   x1="171.583"
   y1="31.37"
   x2="171.583"
   y2="32.137"
   id="line8014" />
				
					<line
   stroke="#000000"
   stroke-width="0.25"
   stroke-linecap="round"
   stroke-linejoin="round"
   x1="171.876"
   y1="31.37"
   x2="171.876"
   y2="32.137"
   id="line8016" />
				
					<line
   stroke="#000000"
   stroke-width="0.25"
   stroke-linecap="round"
   stroke-linejoin="round"
   x1="172.171"
   y1="31.37"
   x2="172.171"
   y2="32.137"
   id="line8018" />
				
					<line
   stroke="#000000"
   stroke-width="0.25"
   stroke-linecap="round"
   stroke-linejoin="round"
   x1="172.466"
   y1="31.37"
   x2="172.466"
   y2="32.137"
   id="line8020" />
				
					<line
   stroke="#000000"
   stroke-width="0.25"
   stroke-linecap="round"
   stroke-linejoin="round"
   x1="172.761"
   y1="31.37"
   x2="172.761"
   y2="32.137"
   id="line8022" />
				
					<line
   stroke="#000000"
   stroke-width="0.25"
   stroke-linecap="round"
   stroke-linejoin="round"
   x1="173.055"
   y1="31.37"
   x2="173.055"
   y2="32.137"
   id="line8024" />
				<polyline
   fill="none"
   stroke="#FFFFFF"
   stroke-width="0.5"
   points="159.577,30.837 159.577,24.234 174.255,24.234     "
   id="polyline8026" />
				<g
   id="g8028">
					<path
   d="M173.588,26.781"
   id="path8030" />
					<rect
   x="172.645"
   y="26.309"
   width="1.887"
   height="0.943"
   id="rect8032" />
				</g>
			</g>
			<rect
   x="166.573"
   y="27.743"
   fill="none"
   stroke="#00A651"
   stroke-width="0.5"
   width="0"
   height="0"
   id="rect8034" />
		</g>
		<polyline
   fill="none"
   stroke="#006F45"
   stroke-width="0.25"
   points="172.545,28.275 168.478,28.275 168.478,29.69   "
   id="polyline8036" />
		<polyline
   fill="none"
   stroke="#006F45"
   stroke-width="0.25"
   points="168.379,25.957 168.379,25.514 169.53,25.514   "
   id="polyline8038" />
		<polyline
   fill="none"
   stroke="#006F45"
   stroke-width="0.25"
   points="170.35,25.956 170.35,25.514 171.5,25.514   "
   id="polyline8040" />
		<polyline
   fill="none"
   stroke="#006F45"
   stroke-width="0.25"
   points="168.379,26.79 168.379,26.348 169.53,26.348   "
   id="polyline8042" />
		<polyline
   fill="none"
   stroke="#006F45"
   stroke-width="0.25"
   points="170.35,26.79 170.35,26.348 171.5,26.348   "
   id="polyline8044" />
		<path
   fill="none"
   stroke="#00A651"
   stroke-width="0.25"
   d="M164.253,27.656"
   id="path8046" />
		<polyline
   fill="none"
   stroke="#006F45"
   stroke-width="0.25"
   points="165.629,26.753 164.411,26.753 164.135,26.988     163.899,26.753 162.641,26.753 162.641,27.342   "
   id="polyline8048" />
		<polyline
   fill="none"
   stroke="#006F45"
   stroke-width="0.25"
   points="165.629,25.73 164.411,25.73 164.135,25.966 163.899,25.73     162.641,25.73 162.641,26.32   "
   id="polyline8050" />
		<polyline
   fill="none"
   stroke="#006F45"
   stroke-width="0.25"
   points="162.759,29.425 162.759,29.189 163.074,29.189   "
   id="polyline8052" />
		<polyline
   fill="none"
   stroke="#006F45"
   stroke-width="0.25"
   points="163.523,29.425 163.523,29.189 163.837,29.189   "
   id="polyline8054" />
		<polyline
   fill="none"
   stroke="#006F45"
   stroke-width="0.25"
   points="164.292,29.425 164.292,29.189 164.607,29.189   "
   id="polyline8056" />
		<polyline
   fill="none"
   stroke="#006F45"
   stroke-width="0.25"
   points="165.095,29.425 165.095,29.189 165.41,29.189   "
   id="polyline8058" />
		<polyline
   fill="none"
   stroke="#006F45"
   stroke-width="0.25"
   points="162.759,28.678 162.759,28.442 163.074,28.442   "
   id="polyline8060" />
		<polyline
   fill="none"
   stroke="#006F45"
   stroke-width="0.25"
   points="163.523,28.678 163.523,28.442 163.837,28.442   "
   id="polyline8062" />
		<polyline
   fill="none"
   stroke="#006F45"
   stroke-width="0.25"
   points="160.942,26.753 160.942,26.517 161.256,26.517   "
   id="polyline8064" />
		<polyline
   fill="none"
   stroke="#006F45"
   stroke-width="0.25"
   points="161.706,26.753 161.706,26.517 162.02,26.517   "
   id="polyline8066" />
		<polyline
   fill="none"
   stroke="#006F45"
   stroke-width="0.25"
   points="160.942,26.006 160.942,25.77 161.256,25.77   "
   id="polyline8068" />
		<polyline
   fill="none"
   stroke="#006F45"
   stroke-width="0.25"
   points="161.706,26.006 161.706,25.77 162.02,25.77   "
   id="polyline8070" />
		<polyline
   fill="none"
   stroke="#006F45"
   stroke-width="0.25"
   points="164.292,28.678 164.292,28.442 164.607,28.442   "
   id="polyline8072" />
		<polyline
   fill="none"
   stroke="#006F45"
   stroke-width="0.25"
   points="165.095,28.678 165.095,28.442 165.41,28.442   "
   id="polyline8074" />
	</g>
	<g
   id="g8076">
		<g
   id="g8078">
			<g
   id="g8080">
				<polygon
   fill="none"
   stroke="#000000"
   stroke-width="0.5"
   stroke-linecap="round"
   stroke-linejoin="round"
   points="      306.155,31.08 306.155,32.157 308.938,32.157 308.938,31.08 309.692,31.08 309.692,32.157 313.889,32.157 313.889,31.08       314.172,31.08 314.172,31.308 315.069,31.308 315.069,23.762 299.624,23.762 299.624,31.08     "
   id="polygon8082" />
				<polygon
   fill="#00A651"
   stroke="#000000"
   stroke-width="0.5"
   stroke-linecap="round"
   stroke-linejoin="round"
   points="      306.222,31.08 306.222,32.157 309.005,32.157 309.005,31.08 309.759,31.08 309.759,32.157 313.957,32.157 313.957,31.08       314.24,31.08 314.24,31.308 315.136,31.308 315.136,23.762 299.691,23.762 299.691,31.08     "
   id="polygon8084" />
				<g
   id="g8086">
					
						<rect
   x="315.237"
   y="26.545"
   fill="#FFFFFF"
   stroke="#000000"
   stroke-width="0.25"
   stroke-linecap="round"
   stroke-linejoin="round"
   width="0.943"
   height="0.472"
   id="rect8088" />
					<path
   fill="#FFFFFF"
   stroke="#000000"
   stroke-width="0.25"
   stroke-linecap="round"
   stroke-linejoin="round"
   d="M315.608,26.781       "
   id="path8090" />
				</g>
				
					<line
   stroke="#000000"
   stroke-width="0.25"
   stroke-linecap="round"
   stroke-linejoin="round"
   x1="306.586"
   y1="31.37"
   x2="306.586"
   y2="32.137"
   id="line8092" />
				
					<line
   stroke="#000000"
   stroke-width="0.25"
   stroke-linecap="round"
   stroke-linejoin="round"
   x1="306.88"
   y1="31.37"
   x2="306.88"
   y2="32.137"
   id="line8094" />
				
					<line
   stroke="#000000"
   stroke-width="0.25"
   stroke-linecap="round"
   stroke-linejoin="round"
   x1="307.175"
   y1="31.37"
   x2="307.175"
   y2="32.137"
   id="line8096" />
				
					<line
   stroke="#000000"
   stroke-width="0.25"
   stroke-linecap="round"
   stroke-linejoin="round"
   x1="307.47"
   y1="31.37"
   x2="307.47"
   y2="32.137"
   id="line8098" />
				
					<line
   stroke="#000000"
   stroke-width="0.25"
   stroke-linecap="round"
   stroke-linejoin="round"
   x1="307.765"
   y1="31.37"
   x2="307.765"
   y2="32.137"
   id="line8100" />
				
					<line
   stroke="#000000"
   stroke-width="0.25"
   stroke-linecap="round"
   stroke-linejoin="round"
   x1="308.06"
   y1="31.37"
   x2="308.06"
   y2="32.137"
   id="line8102" />
				
					<line
   stroke="#000000"
   stroke-width="0.25"
   stroke-linecap="round"
   stroke-linejoin="round"
   x1="308.355"
   y1="31.37"
   x2="308.355"
   y2="32.137"
   id="line8104" />
				
					<line
   stroke="#000000"
   stroke-width="0.25"
   stroke-linecap="round"
   stroke-linejoin="round"
   x1="308.649"
   y1="31.37"
   x2="308.649"
   y2="32.137"
   id="line8106" />
				
					<line
   stroke="#000000"
   stroke-width="0.25"
   stroke-linecap="round"
   stroke-linejoin="round"
   x1="310.124"
   y1="31.37"
   x2="310.124"
   y2="32.137"
   id="line8108" />
				
					<line
   stroke="#000000"
   stroke-width="0.25"
   stroke-linecap="round"
   stroke-linejoin="round"
   x1="310.417"
   y1="31.37"
   x2="310.417"
   y2="32.137"
   id="line8110" />
				
					<line
   stroke="#000000"
   stroke-width="0.25"
   stroke-linecap="round"
   stroke-linejoin="round"
   x1="310.712"
   y1="31.37"
   x2="310.712"
   y2="32.137"
   id="line8112" />
				
					<line
   stroke="#000000"
   stroke-width="0.25"
   stroke-linecap="round"
   stroke-linejoin="round"
   x1="311.007"
   y1="31.37"
   x2="311.007"
   y2="32.137"
   id="line8114" />
				
					<line
   stroke="#000000"
   stroke-width="0.25"
   stroke-linecap="round"
   stroke-linejoin="round"
   x1="311.302"
   y1="31.37"
   x2="311.302"
   y2="32.137"
   id="line8116" />
				
					<line
   stroke="#000000"
   stroke-width="0.25"
   stroke-linecap="round"
   stroke-linejoin="round"
   x1="311.597"
   y1="31.37"
   x2="311.597"
   y2="32.137"
   id="line8118" />
				
					<line
   stroke="#000000"
   stroke-width="0.25"
   stroke-linecap="round"
   stroke-linejoin="round"
   x1="311.892"
   y1="31.37"
   x2="311.892"
   y2="32.137"
   id="line8120" />
				
					<line
   stroke="#000000"
   stroke-width="0.25"
   stroke-linecap="round"
   stroke-linejoin="round"
   x1="312.186"
   y1="31.37"
   x2="312.186"
   y2="32.137"
   id="line8122" />
				
					<line
   stroke="#000000"
   stroke-width="0.25"
   stroke-linecap="round"
   stroke-linejoin="round"
   x1="312.481"
   y1="31.37"
   x2="312.481"
   y2="32.137"
   id="line8124" />
				
					<line
   stroke="#000000"
   stroke-width="0.25"
   stroke-linecap="round"
   stroke-linejoin="round"
   x1="312.776"
   y1="31.37"
   x2="312.776"
   y2="32.137"
   id="line8126" />
				
					<line
   stroke="#000000"
   stroke-width="0.25"
   stroke-linecap="round"
   stroke-linejoin="round"
   x1="313.071"
   y1="31.37"
   x2="313.071"
   y2="32.137"
   id="line8128" />
				
					<line
   stroke="#000000"
   stroke-width="0.25"
   stroke-linecap="round"
   stroke-linejoin="round"
   x1="313.366"
   y1="31.37"
   x2="313.366"
   y2="32.137"
   id="line8130" />
				
					<line
   stroke="#000000"
   stroke-width="0.25"
   stroke-linecap="round"
   stroke-linejoin="round"
   x1="313.661"
   y1="31.37"
   x2="313.661"
   y2="32.137"
   id="line8132" />
				<polyline
   fill="none"
   stroke="#FFFFFF"
   stroke-width="0.5"
   points="300.181,30.837 300.181,24.234 314.86,24.234     "
   id="polyline8134" />
				<g
   id="g8136">
					<path
   d="M314.193,26.781"
   id="path8138" />
					<rect
   x="313.25"
   y="26.309"
   width="1.887"
   height="0.943"
   id="rect8140" />
				</g>
			</g>
			<rect
   x="307.177"
   y="27.743"
   fill="none"
   stroke="#00A651"
   stroke-width="0.5"
   width="0"
   height="0"
   id="rect8142" />
		</g>
		<polyline
   fill="none"
   stroke="#006F45"
   stroke-width="0.25"
   points="313.15,28.275 309.083,28.275 309.083,29.69   "
   id="polyline8144" />
		<polyline
   fill="none"
   stroke="#006F45"
   stroke-width="0.25"
   points="308.984,25.957 308.984,25.514 310.133,25.514   "
   id="polyline8146" />
		<polyline
   fill="none"
   stroke="#006F45"
   stroke-width="0.25"
   points="310.955,25.956 310.955,25.514 312.105,25.514   "
   id="polyline8148" />
		<polyline
   fill="none"
   stroke="#006F45"
   stroke-width="0.25"
   points="308.984,26.79 308.984,26.348 310.133,26.348   "
   id="polyline8150" />
		<polyline
   fill="none"
   stroke="#006F45"
   stroke-width="0.25"
   points="310.955,26.79 310.955,26.348 312.105,26.348   "
   id="polyline8152" />
		<path
   fill="none"
   stroke="#00A651"
   stroke-width="0.25"
   d="M304.858,27.656"
   id="path8154" />
		<polyline
   fill="none"
   stroke="#006F45"
   stroke-width="0.25"
   points="306.233,26.753 305.015,26.753 304.74,26.988 304.503,26.753     303.247,26.753 303.247,27.342   "
   id="polyline8156" />
		<polyline
   fill="none"
   stroke="#006F45"
   stroke-width="0.25"
   points="306.233,25.73 305.015,25.73 304.74,25.966 304.503,25.73     303.247,25.73 303.247,26.32   "
   id="polyline8158" />
		<polyline
   fill="none"
   stroke="#006F45"
   stroke-width="0.25"
   points="303.365,29.425 303.365,29.189 303.678,29.189   "
   id="polyline8160" />
		<polyline
   fill="none"
   stroke="#006F45"
   stroke-width="0.25"
   points="304.127,29.425 304.127,29.189 304.442,29.189   "
   id="polyline8162" />
		<polyline
   fill="none"
   stroke="#006F45"
   stroke-width="0.25"
   points="304.897,29.425 304.897,29.189 305.211,29.189   "
   id="polyline8164" />
		<polyline
   fill="none"
   stroke="#006F45"
   stroke-width="0.25"
   points="305.7,29.425 305.7,29.189 306.014,29.189   "
   id="polyline8166" />
		<polyline
   fill="none"
   stroke="#006F45"
   stroke-width="0.25"
   points="303.364,28.678 303.364,28.442 303.678,28.442   "
   id="polyline8168" />
		<polyline
   fill="none"
   stroke="#006F45"
   stroke-width="0.25"
   points="304.127,28.678 304.127,28.442 304.442,28.442   "
   id="polyline8170" />
		<polyline
   fill="none"
   stroke="#006F45"
   stroke-width="0.25"
   points="301.546,26.753 301.546,26.517 301.861,26.517   "
   id="polyline8172" />
		<polyline
   fill="none"
   stroke="#006F45"
   stroke-width="0.25"
   points="302.31,26.753 302.31,26.517 302.625,26.517   "
   id="polyline8174" />
		<polyline
   fill="none"
   stroke="#006F45"
   stroke-width="0.25"
   points="301.546,26.006 301.546,25.77 301.861,25.77   "
   id="polyline8176" />
		<polyline
   fill="none"
   stroke="#006F45"
   stroke-width="0.25"
   points="302.31,26.006 302.31,25.77 302.625,25.77   "
   id="polyline8178" />
		<polyline
   fill="none"
   stroke="#006F45"
   stroke-width="0.25"
   points="304.897,28.678 304.897,28.442 305.211,28.442   "
   id="polyline8180" />
		<polyline
   fill="none"
   stroke="#006F45"
   stroke-width="0.25"
   points="305.7,28.678 305.7,28.442 306.014,28.442   "
   id="polyline8182" />
	</g>
	<g
   id="g8184">
		<polyline
   fill="none"
   stroke="#000000"
   points="197.422,146.712 197.422,117.265 318.903,117.265 318.903,26.838 316.18,26.838       "
   id="polyline8186" />
	</g>
	<polyline
   fill="none"
   stroke="#000000"
   points="183.932,146.712 183.867,26.838 175.333,26.838  "
   id="polyline8188" />
	<g
   id="g8190">
		<polyline
   fill="none"
   stroke="#000000"
   points="170.421,146.712 170.421,117.234 48.902,117.234 48.902,26.838 45.851,26.838       "
   id="polyline8192" />
	</g>
	<g
   id="g8194">
		<g
   id="g8196">
			<polygon
   fill="#3D3D3D"
   points="201.022,151.051 199.518,150.761 199.977,150.12 201.022,149.952    "
   id="polygon8198" />
			<polygon
   fill="#3D3D42"
   points="194.567,155.714 192.84,156.488 193.146,158.446 194.567,157.02    "
   id="polygon8200" />
			<polygon
   fill="#CDCCCD"
   points="193.146,158.446 189.168,157.647 189.149,156.563 193.124,157.366    "
   id="polygon8202" />
			<polygon
   fill="#3D3D42"
   points="202.238,149.798 201.022,151.051 201.022,149.952 202.238,148.7    "
   id="polygon8204" />
			<polygon
   fill="#3D3D3D"
   points="169.614,153.575 173.387,149.785 169.313,151.616    "
   id="polygon8206" />
			<polygon
   fill="#CDCCCD"
   points="169.614,153.575 165.639,152.773 165.622,151.692 169.594,152.493    "
   id="polygon8208" />
			<polygon
   fill="#3D3D3D"
   points="193.426,157.693 165.363,151.864 165.363,143.14 193.426,148.969    "
   id="polygon8210" />
			<polygon
   fill="#CDCCCD"
   points="171.151,147.114 167.047,146.262 167.047,145.281 171.151,146.131    "
   id="polygon8212" />
			<polygon
   fill="#FFFFFF"
   points="173.12,149.049 171.93,148.801 171.93,147.213 173.12,147.461    "
   id="polygon8214" />
			<polygon
   fill="#FFFFFF"
   points="175.124,149.465 173.934,149.218 173.934,147.631 175.124,147.876    "
   id="polygon8216" />
			<polygon
   fill="#FFFFFF"
   points="177.13,149.88 175.939,149.635 175.939,148.046 177.13,148.294    "
   id="polygon8218" />
			<polygon
   fill="#FFFFFF"
   points="179.135,150.297 177.946,150.052 177.946,148.464 179.135,148.71    "
   id="polygon8220" />
			<polygon
   fill="#FFFFFF"
   points="181.139,150.714 179.95,150.467 179.95,148.879 181.139,149.125    "
   id="polygon8222" />
			<polygon
   fill="#FFFFFF"
   points="183.146,151.131 181.955,150.885 181.955,149.296 183.146,149.543    "
   id="polygon8224" />
			<polygon
   fill="#FFFFFF"
   points="185.151,151.547 183.961,151.3 183.961,149.714 185.151,149.96    "
   id="polygon8226" />
			<polygon
   fill="#FFFFFF"
   points="187.157,151.964 185.968,151.718 185.968,150.129 187.157,150.376    "
   id="polygon8228" />
			<polygon
   fill="#FFFFFF"
   points="189.162,152.382 187.973,152.134 187.973,150.545 189.162,150.793    "
   id="polygon8230" />
			<polygon
   fill="#FFFFFF"
   points="191.167,152.798 189.977,152.549 189.977,150.961 191.167,151.21    "
   id="polygon8232" />
			<polygon
   fill="#FFFFFF"
   points="173.12,151.349 171.93,151.103 171.93,149.515 173.12,149.763    "
   id="polygon8234" />
			<polygon
   fill="#FFFFFF"
   points="175.124,151.767 173.934,151.518 173.934,149.932 175.124,150.179    "
   id="polygon8236" />
			<polygon
   fill="#FFFFFF"
   points="177.13,152.182 175.939,151.936 175.939,150.347 177.13,150.595    "
   id="polygon8238" />
			<polygon
   fill="#FFFFFF"
   points="179.135,152.599 177.946,152.353 177.946,150.763 179.135,151.011    "
   id="polygon8240" />
			<polygon
   fill="#FFFFFF"
   points="181.139,153.016 179.95,152.769 179.95,151.18 181.139,151.429    "
   id="polygon8242" />
			<polygon
   fill="#FFFFFF"
   points="183.146,153.433 181.955,153.186 181.955,151.598 183.146,151.844    "
   id="polygon8244" />
			<polygon
   fill="#FFFFFF"
   points="185.151,153.848 183.961,153.603 183.961,152.013 185.151,152.262    "
   id="polygon8246" />
			<polygon
   fill="#FFFFFF"
   points="187.157,154.265 185.968,154.017 185.968,152.431 187.157,152.677    "
   id="polygon8248" />
			<polygon
   fill="#FFFFFF"
   points="189.162,154.682 187.973,154.434 187.973,152.846 189.162,153.095    "
   id="polygon8250" />
			<polygon
   fill="#FFFFFF"
   points="191.167,155.099 189.977,154.852 189.977,153.263 191.167,153.51    "
   id="polygon8252" />
			<polygon
   fill="#CDCCCD"
   points="193.426,157.693 202.482,148.942 202.482,140.272 193.426,148.969    "
   id="polygon8254" />
			<g
   id="g8256">
				
					<rect
   x="198.259"
   y="142.553"
   transform="matrix(-0.6805 -0.7328 0.7328 -0.6805 225.5833 392.6737)"
   fill="#FFFFFF"
   width="0.299"
   height="9.197"
   id="rect8258" />
				
					<rect
   x="198.26"
   y="144.428"
   transform="matrix(-0.6837 -0.7297 0.7297 -0.6837 225.3128 395.7075)"
   fill="#FFFFFF"
   width="0.297"
   height="9.198"
   id="rect8260" />
				
					<rect
   x="198.258"
   y="146.253"
   transform="matrix(-0.678 -0.7351 0.7351 -0.678 222.0458 398.9734)"
   fill="#FFFFFF"
   width="0.3"
   height="9.201"
   id="rect8262" />
			</g>
			<polygon
   fill="#FFFFFF"
   points="165.363,143.14 193.426,148.969 202.482,140.272 178.295,135.752    "
   id="polygon8264" />
		</g>
		<rect
   x="165.363"
   y="135.752"
   fill="none"
   width="37.119"
   height="22.689"
   id="rect8266" />
	</g>
	<g
   id="g8268">
		<path
   fill="#F89F6D"
   d="M266.339,6.441l15,21l-15-15l0,0c0,2.486-2.014,4.5-4.499,4.5h-49.502c-2.484,0-4.498-2.014-4.498-4.5    V6.441c0-2.486,2.014-4.5,4.498-4.5h49.502C264.326,1.94,266.339,3.955,266.339,6.441L266.339,6.441z"
   id="path8270" />
	</g>
	<g
   id="g8272">
		<path
   fill="#B8DAD4"
   d="M266.339,27.441l15,2.999l-15,3l0,0c0,2.486-2.014,4.5-4.499,4.5h-49.502c-2.484,0-4.498-2.013-4.498-4.5    v-5.999c0-2.485,2.014-4.501,4.498-4.501h49.502C264.326,22.94,266.339,24.956,266.339,27.441L266.339,27.441z"
   id="path8274" />
	</g>
	<g
   id="g8276">
		<path
   fill="#B8DAD4"
   d="M266.339,48.442l15-15.001l-15,21l0,0c0,2.486-2.014,4.5-4.499,4.5h-49.502    c-2.484,0-4.498-2.014-4.498-4.5v-5.998c0-2.486,2.014-4.502,4.498-4.502h49.502C264.326,43.94,266.339,45.956,266.339,48.442    L266.339,48.442z"
   id="path8278" />
	</g>
	<g
   id="g8280">
		<path
   fill="#F89F6D"
   d="M125.466,6.441l15,21l-15-15l0,0c0,2.486-2.014,4.5-4.499,4.5H71.465c-2.484,0-4.498-2.014-4.498-4.5    V6.441c0-2.486,2.014-4.5,4.498-4.5h49.502C123.453,1.94,125.466,3.955,125.466,6.441L125.466,6.441z"
   id="path8282" />
	</g>
	<g
   id="g8284">
		<path
   fill="#B8DAD4"
   d="M125.466,27.441l15,2.999l-15,3l0,0c0,2.486-2.014,4.5-4.499,4.5H71.465c-2.484,0-4.498-2.013-4.498-4.5    v-5.999c0-2.485,2.014-4.501,4.498-4.501h49.502C123.453,22.94,125.466,24.956,125.466,27.441L125.466,27.441z"
   id="path8286" />
	</g>
	<g
   id="g8288">
		<path
   fill="#B8DAD4"
   d="M125.466,48.442l15-15.001l-15,21l0,0c0,2.486-2.014,4.5-4.499,4.5H71.465c-2.484,0-4.498-2.014-4.498-4.5    v-5.998c0-2.486,2.014-4.502,4.498-4.502h49.502C123.453,43.94,125.466,45.956,125.466,48.442L125.466,48.442z"
   id="path8290" />
	</g>
</g>
<g
   id="Text">
	<text
   transform="matrix(1 0 0 1 145.603 168.7061)"
   font-family="'ArialMT'"
   font-size="8"
   id="text8293">Fibre Channel Switch</text>


	<text
   transform="matrix(1 0 0 1 0 6.8652)"
   font-family="'ArialMT'"
   font-size="8"
   id="text8295">Web Server 1</text>


	<text
   transform="matrix(1 0 0 1 130.2368 6.8652)"
   font-family="'ArialMT'"
   font-size="8"
   id="text8297">Web Server 2</text>


	<text
   transform="matrix(1 0 0 1 271.1099 6.8652)"
   font-family="'ArialMT'"
   font-size="8"
   id="text8299">Web Server 3</text>


	<text
   transform="translate(251.9185,176.3076)"
   id="text8301"><tspan
     x="0"
     y="0"
     font-size="8"
     id="tspan8303"
     style="font-size:8px;font-family:ArialMT">Shared Storage</tspan></text>


	<g
   id="g8307">
		<text
   transform="matrix(1 0 0 1 216.7339 12.1914)"
   font-family="'ArialMT'"
   font-size="8"
   id="text8309">Web Site B</text>


	</g>
	<g
   id="g8311">
		<text
   transform="matrix(1 0 0 1 216.7339 33.1924)"
   font-family="'ArialMT'"
   font-size="8"
   id="text8313">Web Site E</text>


	</g>
	<g
   id="g8315">
		<text
   transform="matrix(1 0 0 1 217.1831 54.1924)"
   font-family="'ArialMT'"
   font-size="8"
   id="text8317">Web Site F</text>


	</g>
	<g
   id="g8319">
		<text
   transform="matrix(1 0 0 1 75.8604 12.1914)"
   font-family="'ArialMT'"
   font-size="8"
   id="text8321">Web Site A</text>


	</g>
	<g
   id="g8323">
		<text
   transform="matrix(1 0 0 1 75.4189 33.1924)"
   font-family="'ArialMT'"
   font-size="8"
   id="text8325">Web Site C</text>


	</g>
	<g
   id="g8327">
		<text
   transform="matrix(1 0 0 1 75.4189 54.1924)"
   font-family="'ArialMT'"
   font-size="8"
   id="text8329">Web Site D</text>


	</g>
</g>
</svg>