<?xml version="1.0" encoding="UTF-8" standalone="no"?>
<!-- Created with Inkscape (http://www.inkscape.org/) -->

<svg
   xmlns:dc="http://purl.org/dc/elements/1.1/"
   xmlns:cc="http://creativecommons.org/ns#"
   xmlns:rdf="http://www.w3.org/1999/02/22-rdf-syntax-ns#"
   xmlns:svg="http://www.w3.org/2000/svg"
   xmlns="http://www.w3.org/2000/svg"
   version="1.0"
   width="420"
   height="330.13046"
   viewBox="0 0 420 406.129"
   id="svg11479"
   xml:space="preserve"><metadata
     id="metadata11933"><rdf:RDF><cc:Work
         rdf:about=""><dc:format>image/svg+xml</dc:format><dc:type
           rdf:resource="http://purl.org/dc/dcmitype/StillImage" /><dc:title></dc:title></cc:Work></rdf:RDF></metadata><defs
     id="defs11931" /><path
     d="m 411.04906,349.05889 c 0,2.01962 -2.01665,3.65726 -4.50368,3.65726 l -111.09076,0 c -2.48703,0 -4.50368,-1.63764 -4.50368,-3.65726 l 0,-305.584054 c 0,-2.019618 2.01665,-3.657255 4.50368,-3.657255 l 111.09076,0 c 2.48703,0 4.50368,1.637637 4.50368,3.657255 l 0,305.584054 z"
     id="path11482"
     style="fill:none;stroke:#5a5a64;stroke-width:0.90188015" /><path
     d="m 282.04973,348.29227 c 0,2.01462 -2.01574,3.6482 -4.50165,3.6482 l -264.096163,0 c -2.485905,0 -4.5016388,-1.63358 -4.5016388,-3.6482 l 0,-304.827154 c 0,-2.014615 2.0157338,-3.648196 4.5016388,-3.648196 l 264.096163,0 c 2.48591,0 4.50165,1.633581 4.50165,3.648196 l 0,304.827154 z"
     id="path11484"
     style="fill:none;stroke:#5a5a64;stroke-width:0.90055847" /><rect
     width="420"
     height="146.5"
     x="-1.1361558e-06"
     y="120.86671"
     id="rect11486"
     style="opacity:0.75;fill:#d2d3d4" /><g
     transform="matrix(0.7036487,-0.3229298,-0.4642253,0.9883634,121.03575,81.336537)"
     id="g2805"><line
       x1="122.003"
       y1="175.33701"
       x2="122.003"
       y2="156.39101"
       id="line11488"
       style="fill:none;stroke:#000000;stroke-width:2.00076079;stroke-miterlimit:4;stroke-dasharray:none" /></g><polygon
     points="118.841,159.555 122.003,153.229 125.166,159.555 125.166,159.555 "
     transform="matrix(0.8984064,0.439165,-0.439165,0.8984064,93.613988,2.3987901)"
     id="polygon11490" /><polygon
     points="125.166,172.174 122.003,178.5 118.841,172.174 118.841,172.174 "
     transform="matrix(0.8549705,0.5186764,-0.5186764,0.8549705,112.10628,2.4909711)"
     id="polygon11492" /><rect
     width="24.063999"
     height="39.194"
     x="137.968"
     y="329.26971"
     id="rect11494"
     style="fill:none" /><g
     transform="translate(-1.1361557e-6,39.366641)"
     id="g11496"><g
       id="g11498"><circle
         cx="242.005"
         cy="135.86301"
         r="14.358"
         id="circle11500"
         style="fill:#1c82b9" /></g><g
       id="g11502"><path
         d="m 236.665,140.062 -1.843,-2.996 -1.894,2.996 -1.524,0 2.665,-4.218 -2.466,-4.007 1.503,0.007 1.739,2.771 1.754,-2.777 1.524,0 -2.518,3.989 2.651,4.235 -1.591,0 0,0 z"
         id="path11504"
         style="fill:#ffffff" /><path
         d="m 246.822,140.062 -1.416,0 -0.861,-4.422 -1.658,4.532 -0.53,0 -1.658,-4.532 -0.885,4.422 -1.415,0 1.659,-8.225 0.773,0 1.791,5.55 1.747,-5.55 0.774,0 1.679,8.225 z"
         id="path11506"
         style="fill:#ffffff" /><path
         d="m 247.697,140.062 0,-8.225 1.459,0 0,6.921 3.714,0 0,1.304 -5.173,0 z"
         id="path11508"
         style="fill:#ffffff" /></g></g><line
     style="fill:none;stroke:#000000;stroke-width:2.05850697"
     id="line11510"
     y2="174.64745"
     x2="167.6801"
     y1="174.64745"
     x1="221.92967" /><polygon
     points="205.685,139.025 199.358,135.863 205.685,132.7 205.685,132.7 "
     transform="translate(-38.000001,38.919321)"
     id="polygon11512" /><line
     style="fill:none;stroke:#000000;stroke-width:2"
     id="line11514"
     y2="191.86569"
     x2="78.632004"
     y1="225.0807"
     x1="111.846" /><polygon
     points="78.633,156.972 76.396,150.263 83.105,152.5 83.105,152.5 "
     transform="translate(-1.1361557e-6,39.366641)"
     id="polygon11516" /><rect
     width="420"
     height="72"
     x="-1.1361558e-06"
     y="272.3667"
     id="rect11518"
     style="opacity:0.75;fill:#d2d3d4" /><g
     transform="translate(-1.1361557e-6,39.366641)"
     id="g11520"><g
       id="g11522"><g
         id="g11524"><path
           d="m 76.358,135.862 c 0,7.934 -6.431,14.366 -14.358,14.366 -7.924,0 -14.353,-6.433 -14.353,-14.366 0,-7.931 6.429,-14.362 14.353,-14.362 7.928,0 14.358,6.432 14.358,14.362 z"
           id="path11526"
           style="fill:#629e1f" /></g></g><g
       id="g11528"><g
         id="g11530"><path
           d="m 65.76,141.062 -0.002,-0.002 c -0.031,0.022 -0.061,0.045 0.002,0.002 z m 6.162,-5.198 c 0,-0.316 -0.016,-0.629 -0.047,-0.938 l 1.266,-0.303 c -0.039,-0.346 -0.09,-0.688 -0.158,-1.022 l -1.299,0.103 c -0.137,-0.618 -0.33,-1.215 -0.579,-1.784 l 1.108,-0.677 c -0.142,-0.316 -0.301,-0.624 -0.471,-0.923 l -1.2,0.499 c -0.319,-0.541 -0.69,-1.049 -1.103,-1.517 l 0.848,-0.989 c -0.234,-0.254 -0.479,-0.499 -0.732,-0.732 l -0.992,0.848 c -0.469,-0.414 -0.974,-0.783 -1.514,-1.104 l 0.498,-1.2 c -0.297,-0.171 -0.607,-0.328 -0.922,-0.472 l -0.677,1.109 c -0.569,-0.247 -1.167,-0.441 -1.787,-0.578 l 0.104,-1.3 c -0.334,-0.069 -0.677,-0.121 -1.021,-0.159 l -0.304,1.265 c -0.308,-0.028 -0.62,-0.045 -0.938,-0.045 -0.318,0 -0.63,0.017 -0.938,0.045 l -0.3,-1.265 c -0.35,0.038 -0.689,0.09 -1.025,0.159 l 0.104,1.3 c -0.617,0.137 -1.215,0.331 -1.783,0.578 l -0.68,-1.109 c -0.313,0.144 -0.621,0.301 -0.92,0.472 l 0.497,1.2 c -0.541,0.32 -1.046,0.689 -1.515,1.104 l -0.99,-0.848 c -0.256,0.233 -0.5,0.479 -0.731,0.732 l 0.847,0.989 c -0.412,0.468 -0.783,0.976 -1.105,1.517 l -1.197,-0.499 c -0.172,0.299 -0.328,0.606 -0.473,0.923 l 1.108,0.677 c -0.245,0.569 -0.439,1.166 -0.579,1.784 L 51.023,133.6 c -0.068,0.336 -0.119,0.678 -0.158,1.023 l 1.265,0.303 c -0.029,0.309 -0.044,0.621 -0.044,0.938 0,0.315 0.015,0.629 0.044,0.937 l -1.265,0.303 c 0.037,0.347 0.09,0.688 0.158,1.022 l 1.299,-0.103 c 0.14,0.618 0.334,1.216 0.579,1.784 l -1.109,0.678 c 0.146,0.316 0.302,0.623 0.474,0.923 l 1.197,-0.499 c 0.322,0.539 0.693,1.047 1.105,1.516 l -0.847,0.99 c 0.231,0.255 0.476,0.498 0.731,0.731 l 0.99,-0.847 c 0.469,0.413 0.974,0.783 1.515,1.104 l -0.497,1.2 c 0.299,0.171 0.606,0.327 0.92,0.471 l 0.68,-1.109 c 0.569,0.247 1.166,0.441 1.783,0.578 l -0.104,1.301 c 0.336,0.068 0.676,0.12 1.022,0.158 l 0.303,-1.265 c 0.308,0.027 0.62,0.045 0.938,0.045 0.318,0 0.63,-0.018 0.938,-0.045 l 0.304,1.265 c 0.345,-0.038 0.688,-0.09 1.021,-0.158 l -0.104,-1.301 c 0.62,-0.137 1.218,-0.331 1.787,-0.578 l 0.677,1.109 c 0.314,-0.144 0.625,-0.3 0.922,-0.471 l -0.498,-1.2 c 0.54,-0.32 1.045,-0.69 1.514,-1.104 l 0.992,0.847 c 0.256,-0.233 0.498,-0.477 0.732,-0.731 l -0.848,-0.99 c 0.412,-0.469 0.783,-0.977 1.103,-1.516 l 1.2,0.498 c 0.17,-0.299 0.329,-0.606 0.471,-0.922 l -1.108,-0.678 c 0.249,-0.568 0.442,-1.166 0.579,-1.784 l 1.299,0.103 c 0.069,-0.335 0.119,-0.676 0.158,-1.022 l -1.266,-0.303 c 0.031,-0.308 0.047,-0.621 0.047,-0.937 z m -7.299,-5.845 c 1.716,0.77 3.061,2.279 3.571,4.201 L 65,134.605 c -0.263,-0.628 -0.712,-1.144 -1.269,-1.493 l 0.892,-3.093 z m -0.537,5.845 c 0,1.15 -0.934,2.082 -2.083,2.082 -1.148,0 -2.083,-0.932 -2.083,-2.082 0,-1.15 0.935,-2.082 2.083,-2.082 1.149,0 2.083,0.932 2.083,2.082 z m -3.242,-6.301 c 0.971,-0.18 1.931,-0.121 2.824,0.12 l -1.258,2.95 c -0.326,-0.043 -0.666,-0.037 -1.009,0.026 -0.336,0.061 -0.648,0.173 -0.937,0.323 l -2.217,-2.303 c 0.751,-0.543 1.624,-0.938 2.597,-1.116 z m -3.369,1.769 1.921,2.561 c -0.403,0.53 -0.645,1.179 -0.669,1.867 l -3.098,0.769 c -0.207,-1.977 0.517,-3.868 1.846,-5.197 z m -1.781,5.699 0,0 c 0,0 0.003,0.001 0.003,0.001 0,0 -0.003,0 -0.003,-0.001 z m 3.692,4.688 0,0.005 c 0.025,0.011 -0.027,-0.016 0,-0.005 -1.712,-0.771 -3.062,-2.274 -3.573,-4.195 l 3.167,-0.383 c 0.27,0.636 0.726,1.155 1.291,1.506 l -0.885,3.072 z m 6.374,-0.657 c -0.847,0.585 -1.455,0.95 -2.599,1.119 -1.093,0.16 -1.786,0.127 -2.821,-0.123 l 1.254,-2.94 c 0.322,0.039 0.653,0.032 0.988,-0.03 0.344,-0.062 0.662,-0.178 0.951,-0.334 l 2.225,2.307 c 0.031,-0.023 0.064,-0.045 0.002,0.001 z m 0.769,-0.657 0.002,0.004 c -0.019,0.021 0.018,-0.023 -0.002,-0.004 l -1.929,-2.57 c 0.395,-0.525 0.63,-1.166 0.654,-1.846 l 3.122,-0.775 0,-0.007 c 0,0.001 0,0.004 0,0.007 l 0,0 c 0.208,1.976 -0.521,3.862 -1.847,5.191 z"
           id="path11532"
           style="fill:#ffffff" /></g></g></g><g
     transform="translate(-40.000001,39.366641)"
     id="g11548"><g
       id="g11550"><g
         id="g11552"><path
           d="m 196.358,135.863 c 0,7.934 -6.431,14.365 -14.358,14.365 -7.924,0 -14.353,-6.432 -14.353,-14.365 0,-7.932 6.429,-14.363 14.353,-14.363 7.928,0 14.358,6.432 14.358,14.363 z"
           id="path11554"
           style="fill:#629e1f" /></g></g><g
       id="g11556"><g
         id="g11558"><path
           d="m 185.76,141.062 -0.002,-0.002 c -0.031,0.022 -0.061,0.045 0.002,0.002 z m 6.162,-5.197 c 0,-0.316 -0.016,-0.629 -0.047,-0.938 l 1.266,-0.303 c -0.039,-0.346 -0.09,-0.688 -0.158,-1.023 l -1.299,0.104 c -0.137,-0.619 -0.33,-1.215 -0.579,-1.785 l 1.108,-0.676 c -0.142,-0.316 -0.301,-0.625 -0.471,-0.924 l -1.2,0.5 c -0.319,-0.541 -0.69,-1.049 -1.103,-1.518 l 0.848,-0.988 c -0.234,-0.254 -0.479,-0.5 -0.732,-0.732 l -0.992,0.848 c -0.469,-0.414 -0.974,-0.783 -1.514,-1.104 l 0.498,-1.201 c -0.297,-0.17 -0.607,-0.328 -0.922,-0.471 l -0.677,1.109 c -0.569,-0.248 -1.167,-0.441 -1.787,-0.578 l 0.104,-1.301 c -0.334,-0.068 -0.677,-0.121 -1.021,-0.158 l -0.304,1.264 c -0.308,-0.027 -0.62,-0.045 -0.938,-0.045 -0.318,0 -0.63,0.018 -0.938,0.045 l -0.3,-1.264 c -0.35,0.037 -0.689,0.09 -1.025,0.158 l 0.104,1.301 c -0.617,0.137 -1.215,0.33 -1.783,0.578 l -0.68,-1.109 c -0.313,0.143 -0.621,0.301 -0.92,0.471 l 0.497,1.201 c -0.541,0.32 -1.046,0.689 -1.515,1.104 l -0.99,-0.848 c -0.256,0.232 -0.5,0.479 -0.731,0.732 l 0.847,0.988 c -0.412,0.469 -0.783,0.977 -1.105,1.518 l -1.197,-0.5 c -0.172,0.299 -0.328,0.607 -0.473,0.924 l 1.108,0.676 c -0.245,0.57 -0.439,1.166 -0.579,1.785 l -1.299,-0.104 c -0.068,0.336 -0.119,0.678 -0.158,1.023 l 1.265,0.303 c -0.029,0.309 -0.044,0.621 -0.044,0.938 0,0.314 0.015,0.629 0.044,0.936 l -1.265,0.303 c 0.037,0.348 0.09,0.688 0.158,1.023 l 1.299,-0.104 c 0.14,0.619 0.334,1.217 0.579,1.785 l -1.109,0.678 c 0.146,0.316 0.302,0.623 0.474,0.922 l 1.197,-0.498 c 0.322,0.539 0.693,1.047 1.105,1.516 l -0.847,0.99 c 0.231,0.254 0.476,0.498 0.731,0.73 l 0.99,-0.846 c 0.469,0.412 0.974,0.783 1.515,1.104 l -0.497,1.199 c 0.299,0.172 0.606,0.328 0.92,0.471 l 0.68,-1.109 c 0.569,0.248 1.166,0.441 1.783,0.578 l -0.104,1.301 c 0.336,0.068 0.676,0.121 1.022,0.158 l 0.303,-1.264 c 0.308,0.027 0.62,0.045 0.938,0.045 0.318,0 0.63,-0.018 0.938,-0.045 l 0.304,1.264 c 0.345,-0.037 0.688,-0.09 1.021,-0.158 l -0.104,-1.301 c 0.62,-0.137 1.218,-0.33 1.787,-0.578 l 0.677,1.109 c 0.314,-0.143 0.625,-0.299 0.922,-0.471 l -0.498,-1.199 c 0.54,-0.32 1.045,-0.691 1.514,-1.104 l 0.992,0.846 c 0.256,-0.232 0.498,-0.477 0.732,-0.73 l -0.848,-0.99 c 0.412,-0.469 0.783,-0.977 1.103,-1.516 l 1.2,0.498 c 0.17,-0.299 0.329,-0.607 0.471,-0.922 l -1.108,-0.678 c 0.249,-0.568 0.442,-1.166 0.579,-1.785 l 1.299,0.104 c 0.069,-0.336 0.119,-0.676 0.158,-1.023 l -1.266,-0.303 c 0.031,-0.307 0.047,-0.621 0.047,-0.936 z m -7.299,-5.845 c 1.716,0.77 3.061,2.279 3.571,4.201 L 185,134.605 c -0.263,-0.627 -0.712,-1.143 -1.269,-1.492 l 0.892,-3.093 z m -0.537,5.845 c 0,1.15 -0.934,2.082 -2.083,2.082 -1.148,0 -2.083,-0.932 -2.083,-2.082 0,-1.15 0.935,-2.082 2.083,-2.082 1.149,0 2.083,0.932 2.083,2.082 z m -3.242,-6.301 c 0.971,-0.18 1.931,-0.121 2.824,0.119 l -1.258,2.951 c -0.326,-0.043 -0.666,-0.037 -1.009,0.025 -0.336,0.061 -0.648,0.174 -0.937,0.324 l -2.217,-2.303 c 0.751,-0.543 1.624,-0.938 2.597,-1.116 z m -3.369,1.768 1.921,2.561 c -0.403,0.531 -0.645,1.18 -0.669,1.867 l -3.098,0.77 c -0.207,-1.977 0.517,-3.868 1.846,-5.198 z m -1.781,5.699 0,0 0.003,0.002 c 0,0 -0.003,0 -0.003,-0.002 z m 3.692,4.688 0,0.006 c 0.025,0.011 -0.027,-0.016 0,-0.006 -1.712,-0.77 -3.062,-2.273 -3.573,-4.195 l 3.167,-0.383 c 0.27,0.637 0.726,1.156 1.291,1.506 l -0.885,3.072 z m 6.374,-0.657 c -0.847,0.584 -1.455,0.949 -2.599,1.119 -1.093,0.16 -1.786,0.127 -2.821,-0.123 l 1.254,-2.941 c 0.322,0.039 0.653,0.033 0.988,-0.029 0.344,-0.062 0.662,-0.178 0.951,-0.334 l 2.225,2.307 c 0.031,-0.022 0.064,-0.045 0.002,0.001 z m 0.769,-0.656 0.002,0.004 c -0.019,0.02 0.018,-0.023 -0.002,-0.004 l -1.929,-2.57 c 0.395,-0.525 0.63,-1.166 0.654,-1.846 l 3.122,-0.775 0,-0.008 c 0,0.002 0,0.004 0,0.008 l 0,0 c 0.208,1.976 -0.521,3.861 -1.847,5.191 z"
           id="path11560"
           style="fill:#ffffff" /></g></g></g><g
     transform="translate(-1.1361557e-6,39.366641)"
     id="g11562"><g
       id="g11564"><circle
         cx="380.858"
         cy="135.86301"
         r="14.358"
         id="circle11566"
         style="fill:#1c82b9" /></g><g
       id="g11568"><path
         d="m 375.518,140.062 -1.843,-2.996 -1.895,2.996 -1.523,0 2.664,-4.218 -2.466,-4.007 1.503,0.007 1.739,2.771 1.755,-2.777 1.523,0 -2.518,3.989 2.651,4.235 -1.59,0 0,0 z"
         id="path11570"
         style="fill:#ffffff" /><path
         d="m 385.675,140.062 -1.416,0 -0.861,-4.422 -1.658,4.532 -0.531,0 -1.657,-4.532 -0.886,4.422 -1.414,0 1.658,-8.225 0.773,0 1.791,5.55 1.746,-5.55 0.775,0 1.68,8.225 z"
         id="path11572"
         style="fill:#ffffff" /><path
         d="m 386.55,140.062 0,-8.225 1.459,0 0,6.921 3.713,0 0,1.304 -5.172,0 z"
         id="path11574"
         style="fill:#ffffff" /></g></g><g
     transform="translate(-1.1361557e-6,39.366641)"
     id="g11576"><g
       id="g11578"><g
         id="g11580"><path
           d="m 335.5,135.863 c 0,7.934 -6.431,14.365 -14.358,14.365 -7.924,0 -14.353,-6.432 -14.353,-14.365 0,-7.932 6.429,-14.363 14.353,-14.363 7.927,0 14.358,6.432 14.358,14.363 z"
           id="path11582"
           style="fill:#629e1f" /></g></g><g
       id="g11584"><g
         id="g11586"><path
           d="m 324.901,141.062 -0.002,-0.002 c -0.031,0.022 -0.06,0.045 0.002,0.002 z m 6.162,-5.197 c 0,-0.316 -0.016,-0.629 -0.047,-0.938 l 1.266,-0.303 c -0.039,-0.346 -0.09,-0.688 -0.158,-1.023 l -1.299,0.104 c -0.137,-0.619 -0.33,-1.215 -0.579,-1.785 l 1.108,-0.676 c -0.142,-0.316 -0.301,-0.625 -0.471,-0.924 l -1.2,0.5 c -0.319,-0.541 -0.69,-1.049 -1.103,-1.518 l 0.848,-0.988 c -0.234,-0.254 -0.479,-0.5 -0.732,-0.732 l -0.992,0.848 c -0.469,-0.414 -0.974,-0.783 -1.514,-1.104 l 0.498,-1.201 c -0.297,-0.17 -0.607,-0.328 -0.922,-0.471 l -0.677,1.109 c -0.569,-0.248 -1.167,-0.441 -1.787,-0.578 l 0.104,-1.301 c -0.334,-0.068 -0.677,-0.121 -1.021,-0.158 l -0.304,1.264 c -0.308,-0.027 -0.62,-0.045 -0.938,-0.045 -0.318,0 -0.63,0.018 -0.938,0.045 l -0.3,-1.264 c -0.35,0.037 -0.689,0.09 -1.025,0.158 l 0.104,1.301 c -0.617,0.137 -1.215,0.33 -1.783,0.578 l -0.68,-1.109 c -0.313,0.143 -0.621,0.301 -0.92,0.471 l 0.497,1.201 c -0.541,0.32 -1.046,0.689 -1.515,1.104 l -0.99,-0.848 c -0.256,0.232 -0.5,0.479 -0.731,0.732 l 0.847,0.988 c -0.412,0.469 -0.783,0.977 -1.105,1.518 l -1.197,-0.5 c -0.172,0.299 -0.328,0.607 -0.473,0.924 l 1.108,0.676 c -0.245,0.57 -0.439,1.166 -0.579,1.785 l -1.299,-0.104 c -0.068,0.336 -0.119,0.678 -0.158,1.023 l 1.265,0.303 c -0.029,0.309 -0.044,0.621 -0.044,0.938 0,0.314 0.015,0.629 0.044,0.936 l -1.265,0.303 c 0.037,0.348 0.09,0.688 0.158,1.023 l 1.299,-0.104 c 0.14,0.619 0.334,1.217 0.579,1.785 l -1.109,0.678 c 0.146,0.316 0.302,0.623 0.474,0.922 l 1.197,-0.498 c 0.322,0.539 0.693,1.047 1.105,1.516 l -0.847,0.99 c 0.231,0.254 0.476,0.498 0.731,0.73 l 0.99,-0.846 c 0.469,0.412 0.974,0.783 1.515,1.104 l -0.497,1.199 c 0.299,0.172 0.606,0.328 0.92,0.471 l 0.68,-1.109 c 0.569,0.248 1.166,0.441 1.783,0.578 l -0.104,1.301 c 0.336,0.068 0.676,0.121 1.022,0.158 l 0.303,-1.264 c 0.308,0.027 0.62,0.045 0.938,0.045 0.318,0 0.63,-0.018 0.938,-0.045 l 0.304,1.264 c 0.345,-0.037 0.688,-0.09 1.021,-0.158 l -0.104,-1.301 c 0.62,-0.137 1.218,-0.33 1.787,-0.578 l 0.677,1.109 c 0.314,-0.143 0.625,-0.299 0.922,-0.471 l -0.498,-1.199 c 0.54,-0.32 1.045,-0.691 1.514,-1.104 l 0.992,0.846 c 0.256,-0.232 0.498,-0.477 0.732,-0.73 l -0.848,-0.99 c 0.412,-0.469 0.783,-0.977 1.103,-1.516 l 1.2,0.498 c 0.17,-0.299 0.329,-0.607 0.471,-0.922 l -1.108,-0.678 c 0.249,-0.568 0.442,-1.166 0.579,-1.785 l 1.299,0.104 c 0.069,-0.336 0.119,-0.676 0.158,-1.023 l -1.266,-0.303 c 0.032,-0.307 0.047,-0.621 0.047,-0.936 z m -7.298,-5.845 c 1.716,0.77 3.061,2.279 3.571,4.201 l -3.194,0.385 c -0.263,-0.627 -0.712,-1.143 -1.269,-1.492 l 0.892,-3.094 z m -0.537,5.845 c 0,1.15 -0.934,2.082 -2.083,2.082 -1.148,0 -2.083,-0.932 -2.083,-2.082 0,-1.15 0.935,-2.082 2.083,-2.082 1.149,0 2.083,0.932 2.083,2.082 z m -3.243,-6.301 c 0.971,-0.18 1.931,-0.121 2.824,0.119 l -1.258,2.951 c -0.326,-0.043 -0.666,-0.037 -1.009,0.025 -0.336,0.061 -0.648,0.174 -0.937,0.324 l -2.217,-2.303 c 0.752,-0.543 1.625,-0.938 2.597,-1.116 z m -3.369,1.768 1.921,2.561 c -0.403,0.531 -0.645,1.18 -0.669,1.867 l -3.098,0.77 c -0.207,-1.977 0.518,-3.868 1.846,-5.198 z m -1.78,5.699 0,0 0.003,0.002 c 0,0 -0.003,0 -0.003,-0.002 z m 3.691,4.688 0,0.006 c 0.026,0.011 -0.026,-0.016 0,-0.006 -1.712,-0.77 -3.062,-2.273 -3.573,-4.195 l 3.167,-0.383 c 0.27,0.637 0.726,1.156 1.291,1.506 l -0.885,3.072 z m 6.374,-0.657 c -0.847,0.584 -1.455,0.949 -2.599,1.119 -1.093,0.16 -1.786,0.127 -2.821,-0.123 l 1.254,-2.941 c 0.322,0.039 0.653,0.033 0.988,-0.029 0.344,-0.062 0.662,-0.178 0.951,-0.334 l 2.225,2.307 c 0.032,-0.022 0.065,-0.045 0.002,0.001 z m 0.77,-0.656 0.002,0.004 c -0.02,0.02 0.017,-0.023 -0.002,-0.004 l -1.929,-2.57 c 0.395,-0.525 0.63,-1.166 0.654,-1.846 l 3.122,-0.775 0,-0.008 c 0,0.002 0,0.004 0,0.008 l 0,0 c 0.208,1.976 -0.521,3.861 -1.847,5.191 z"
           id="path11588"
           style="fill:#ffffff" /></g></g></g><g
     transform="translate(-1.1361557e-6,39.366641)"
     id="g11590"><g
       id="g11592"><g
         id="g11594"><path
           d="m 136.358,195.863 c 0,7.934 -6.431,14.365 -14.358,14.365 -7.924,0 -14.353,-6.432 -14.353,-14.365 0,-7.932 6.429,-14.363 14.353,-14.363 7.928,0 14.358,6.432 14.358,14.363 z"
           id="path11596"
           style="fill:#629e1f" /></g></g><g
       id="g11598"><g
         id="g11600"><path
           d="m 125.76,201.062 -0.002,-0.002 c -0.031,0.022 -0.061,0.045 0.002,0.002 z m 6.162,-5.197 c 0,-0.316 -0.016,-0.629 -0.047,-0.938 l 1.266,-0.303 c -0.039,-0.346 -0.09,-0.688 -0.158,-1.023 l -1.299,0.104 c -0.137,-0.619 -0.33,-1.215 -0.579,-1.785 l 1.108,-0.676 c -0.142,-0.316 -0.301,-0.625 -0.471,-0.924 l -1.2,0.5 c -0.319,-0.541 -0.69,-1.049 -1.103,-1.518 l 0.848,-0.988 c -0.234,-0.254 -0.479,-0.5 -0.732,-0.732 l -0.992,0.848 c -0.469,-0.414 -0.974,-0.783 -1.514,-1.104 l 0.498,-1.201 c -0.297,-0.17 -0.607,-0.328 -0.922,-0.471 l -0.677,1.109 c -0.569,-0.248 -1.167,-0.441 -1.787,-0.578 l 0.104,-1.301 c -0.334,-0.068 -0.677,-0.121 -1.021,-0.158 l -0.304,1.264 c -0.308,-0.027 -0.62,-0.045 -0.938,-0.045 -0.318,0 -0.63,0.018 -0.938,0.045 l -0.3,-1.264 c -0.35,0.037 -0.689,0.09 -1.025,0.158 l 0.104,1.301 c -0.617,0.137 -1.215,0.33 -1.783,0.578 l -0.68,-1.109 c -0.313,0.143 -0.621,0.301 -0.92,0.471 l 0.497,1.201 c -0.541,0.32 -1.046,0.689 -1.515,1.104 l -0.99,-0.848 c -0.256,0.232 -0.5,0.479 -0.731,0.732 l 0.847,0.988 c -0.412,0.469 -0.783,0.977 -1.105,1.518 l -1.197,-0.5 c -0.172,0.299 -0.328,0.607 -0.473,0.924 l 1.108,0.676 c -0.245,0.57 -0.439,1.166 -0.579,1.785 l -1.299,-0.104 c -0.068,0.336 -0.119,0.678 -0.158,1.023 l 1.265,0.303 c -0.029,0.309 -0.044,0.621 -0.044,0.938 0,0.314 0.015,0.629 0.044,0.936 l -1.265,0.303 c 0.037,0.348 0.09,0.688 0.158,1.023 l 1.299,-0.104 c 0.14,0.619 0.334,1.217 0.579,1.785 l -1.109,0.678 c 0.146,0.316 0.302,0.623 0.474,0.922 l 1.197,-0.498 c 0.322,0.539 0.693,1.047 1.105,1.516 l -0.847,0.99 c 0.231,0.254 0.476,0.498 0.731,0.73 l 0.99,-0.846 c 0.469,0.412 0.974,0.783 1.515,1.104 l -0.497,1.199 c 0.299,0.172 0.606,0.328 0.92,0.471 l 0.68,-1.109 c 0.569,0.248 1.166,0.441 1.783,0.578 l -0.104,1.301 c 0.336,0.068 0.676,0.121 1.022,0.158 l 0.303,-1.264 c 0.308,0.027 0.62,0.045 0.938,0.045 0.318,0 0.63,-0.018 0.938,-0.045 l 0.304,1.264 c 0.345,-0.037 0.688,-0.09 1.021,-0.158 l -0.104,-1.301 c 0.62,-0.137 1.218,-0.33 1.787,-0.578 l 0.677,1.109 c 0.314,-0.143 0.625,-0.299 0.922,-0.471 l -0.498,-1.199 c 0.54,-0.32 1.045,-0.691 1.514,-1.104 l 0.992,0.846 c 0.256,-0.232 0.498,-0.477 0.732,-0.73 l -0.848,-0.99 c 0.412,-0.469 0.783,-0.977 1.103,-1.516 l 1.2,0.498 c 0.17,-0.299 0.329,-0.607 0.471,-0.922 l -1.108,-0.678 c 0.249,-0.568 0.442,-1.166 0.579,-1.785 l 1.299,0.104 c 0.069,-0.336 0.119,-0.676 0.158,-1.023 l -1.266,-0.303 c 0.031,-0.307 0.047,-0.621 0.047,-0.936 z m -7.299,-5.845 c 1.716,0.77 3.061,2.279 3.571,4.201 L 125,194.605 c -0.263,-0.627 -0.712,-1.143 -1.269,-1.492 l 0.892,-3.093 z m -0.537,5.845 c 0,1.15 -0.934,2.082 -2.083,2.082 -1.148,0 -2.083,-0.932 -2.083,-2.082 0,-1.15 0.935,-2.082 2.083,-2.082 1.149,0 2.083,0.932 2.083,2.082 z m -3.242,-6.301 c 0.971,-0.18 1.931,-0.121 2.824,0.119 l -1.258,2.951 c -0.326,-0.043 -0.666,-0.037 -1.009,0.025 -0.336,0.061 -0.648,0.174 -0.937,0.324 l -2.217,-2.303 c 0.751,-0.543 1.624,-0.938 2.597,-1.116 z m -3.369,1.768 1.921,2.561 c -0.403,0.531 -0.645,1.18 -0.669,1.867 l -3.098,0.77 c -0.207,-1.977 0.517,-3.868 1.846,-5.198 z m -1.781,5.699 0,0 0.003,0.002 c 0,0 -0.003,0 -0.003,-0.002 z m 3.692,4.688 0,0.006 c 0.025,0.011 -0.027,-0.016 0,-0.006 -1.712,-0.77 -3.062,-2.273 -3.573,-4.195 l 3.167,-0.383 c 0.27,0.637 0.726,1.156 1.291,1.506 l -0.885,3.072 z m 6.374,-0.657 c -0.847,0.584 -1.455,0.949 -2.599,1.119 -1.093,0.16 -1.786,0.127 -2.821,-0.123 l 1.254,-2.941 c 0.322,0.039 0.653,0.033 0.988,-0.029 0.344,-0.062 0.662,-0.178 0.951,-0.334 l 2.225,2.307 c 0.031,-0.022 0.064,-0.045 0.002,0.001 z m 0.769,-0.656 0.002,0.004 c -0.019,0.02 0.018,-0.023 -0.002,-0.004 l -1.929,-2.57 c 0.395,-0.525 0.63,-1.166 0.654,-1.846 l 3.122,-0.775 0,-0.008 c 0,0.002 0,0.004 0,0.008 l 0,0 c 0.208,1.976 -0.521,3.861 -1.847,5.191 z"
           id="path11602"
           style="fill:#ffffff" /></g></g></g><polygon
     points="238.842,159.547 242.004,153.221 245.167,159.547 245.167,159.547 "
     transform="translate(-1.1361557e-6,39.366641)"
     id="polygon11608" /><path
     d="m 136.358,235.22972 101.146,0 c 2.485,0 4.5,-2.015 4.5,-4.5 l 0,-33.534"
     id="path11610"
     style="fill:none;stroke:#000000;stroke-width:2" /><path
     d="m 331.5,329.36672 c 0,3.314 -2.687,6 -6,6 l -96,0 c -3.313,0 -6,-2.686 -6,-6 l 0,0 c 0,-3.314 2.687,-6 6,-6 l 96,0 c 3.313,0 6,2.686 6,6 l 0,0 z"
     id="path11612"
     style="fill:#666666" /><rect
     width="420"
     height="72"
     x="-1.1361558e-06"
     y="44.366638"
     id="rect11614"
     style="opacity:0.75;fill:#d2d3d4" /><path
     d="m 193,105.11665 c 0,2.48501 -2.015,4.50001 -4.5,4.50001 l -87,0 c -2.485001,0 -4.500001,-2.015 -4.500001,-4.50001 l 0,-49.50001 c 0,-2.485 2.015,-4.5 4.500001,-4.5 l 87,0 c 2.485,0 4.5,2.015 4.5,4.5 l 0,49.50001 z"
     id="path11616"
     style="fill:#d2d3d4" /><g
     transform="translate(-1.1361557e-6,39.366641)"
     id="g11618"><g
       id="g11620"><g
         id="g11622"><path
           d="m 136.358,46.885 c 0,7.934 -6.431,14.365 -14.358,14.365 -7.924,0 -14.353,-6.432 -14.353,-14.365 0,-7.932 6.429,-14.363 14.353,-14.363 7.928,-10e-4 14.358,6.431 14.358,14.363 z"
           id="path11624"
           style="fill:#629e1f" /></g></g><g
       id="g11626"><g
         id="g11628"><path
           d="m 125.76,52.084 -0.002,-0.002 c -0.031,0.022 -0.061,0.045 0.002,0.002 z m 6.162,-5.197 c 0,-0.316 -0.016,-0.629 -0.047,-0.938 l 1.266,-0.303 c -0.039,-0.346 -0.09,-0.688 -0.158,-1.023 l -1.299,0.104 c -0.137,-0.619 -0.33,-1.215 -0.579,-1.785 l 1.108,-0.676 c -0.142,-0.316 -0.301,-0.625 -0.471,-0.924 l -1.2,0.5 c -0.319,-0.541 -0.69,-1.049 -1.103,-1.518 l 0.848,-0.988 c -0.234,-0.254 -0.479,-0.5 -0.732,-0.732 l -0.992,0.848 c -0.469,-0.414 -0.974,-0.783 -1.514,-1.104 l 0.498,-1.201 c -0.297,-0.17 -0.607,-0.328 -0.922,-0.471 l -0.677,1.109 c -0.569,-0.248 -1.167,-0.441 -1.787,-0.578 l 0.104,-1.301 c -0.334,-0.068 -0.677,-0.121 -1.021,-0.158 l -0.304,1.264 c -0.308,-0.027 -0.62,-0.045 -0.938,-0.045 -0.318,0 -0.63,0.018 -0.938,0.045 l -0.3,-1.264 c -0.35,0.037 -0.689,0.09 -1.025,0.158 l 0.104,1.301 c -0.617,0.137 -1.215,0.33 -1.783,0.578 l -0.68,-1.109 c -0.313,0.143 -0.621,0.301 -0.92,0.471 l 0.497,1.201 c -0.541,0.32 -1.046,0.689 -1.515,1.104 l -0.99,-0.848 c -0.256,0.232 -0.5,0.479 -0.731,0.732 l 0.847,0.988 c -0.412,0.469 -0.783,0.977 -1.105,1.518 l -1.197,-0.5 c -0.172,0.299 -0.328,0.607 -0.473,0.924 l 1.108,0.676 c -0.245,0.57 -0.439,1.166 -0.579,1.785 l -1.299,-0.104 c -0.068,0.336 -0.119,0.678 -0.158,1.023 l 1.265,0.303 c -0.029,0.309 -0.044,0.621 -0.044,0.938 0,0.314 0.015,0.629 0.044,0.936 l -1.265,0.303 c 0.037,0.348 0.09,0.688 0.158,1.023 l 1.299,-0.104 c 0.14,0.619 0.334,1.217 0.579,1.785 l -1.109,0.678 c 0.146,0.316 0.302,0.623 0.474,0.922 l 1.197,-0.498 c 0.322,0.539 0.693,1.047 1.105,1.516 l -0.847,0.99 c 0.231,0.254 0.476,0.498 0.731,0.73 l 0.99,-0.846 c 0.469,0.412 0.974,0.783 1.515,1.104 l -0.497,1.199 c 0.299,0.172 0.606,0.328 0.92,0.471 l 0.68,-1.109 c 0.569,0.248 1.166,0.441 1.783,0.578 l -0.104,1.301 c 0.336,0.068 0.676,0.121 1.022,0.158 l 0.303,-1.264 c 0.308,0.027 0.62,0.045 0.938,0.045 0.318,0 0.63,-0.018 0.938,-0.045 l 0.304,1.264 c 0.345,-0.037 0.688,-0.09 1.021,-0.158 l -0.104,-1.301 c 0.62,-0.137 1.218,-0.33 1.787,-0.578 l 0.677,1.109 c 0.314,-0.143 0.625,-0.299 0.922,-0.471 l -0.498,-1.199 c 0.54,-0.32 1.045,-0.691 1.514,-1.104 l 0.992,0.846 c 0.256,-0.232 0.498,-0.477 0.732,-0.73 l -0.848,-0.99 c 0.412,-0.469 0.783,-0.977 1.103,-1.516 l 1.2,0.498 c 0.17,-0.299 0.329,-0.607 0.471,-0.922 l -1.108,-0.678 c 0.249,-0.568 0.442,-1.166 0.579,-1.785 l 1.299,0.104 c 0.069,-0.336 0.119,-0.676 0.158,-1.023 l -1.266,-0.303 c 0.031,-0.307 0.047,-0.622 0.047,-0.936 z m -7.299,-5.846 c 1.716,0.77 3.061,2.279 3.571,4.201 L 125,45.627 C 124.737,45 124.288,44.484 123.731,44.135 l 0.892,-3.094 z m -0.537,5.846 c 0,1.15 -0.934,2.082 -2.083,2.082 -1.148,0 -2.083,-0.932 -2.083,-2.082 0,-1.15 0.935,-2.082 2.083,-2.082 1.149,0 2.083,0.931 2.083,2.082 z m -3.242,-6.301 c 0.971,-0.18 1.931,-0.121 2.824,0.119 l -1.258,2.951 c -0.326,-0.043 -0.666,-0.037 -1.009,0.025 -0.336,0.061 -0.648,0.174 -0.937,0.324 l -2.217,-2.303 c 0.751,-0.544 1.624,-0.938 2.597,-1.116 z m -3.369,1.768 1.921,2.561 c -0.403,0.531 -0.645,1.18 -0.669,1.867 l -3.098,0.77 c -0.207,-1.978 0.517,-3.868 1.846,-5.198 z m -1.781,5.699 0,0 0.003,0.002 c 0,0 -0.003,0 -0.003,-0.002 z m 3.692,4.687 0,0.006 c 0.025,0.012 -0.027,-0.016 0,-0.006 -1.712,-0.77 -3.062,-2.273 -3.573,-4.195 l 3.167,-0.383 c 0.27,0.637 0.726,1.156 1.291,1.506 l -0.885,3.072 z m 6.374,-0.656 c -0.847,0.584 -1.455,0.949 -2.599,1.119 -1.093,0.16 -1.786,0.127 -2.821,-0.123 l 1.254,-2.941 c 0.322,0.039 0.653,0.033 0.988,-0.029 0.344,-0.062 0.662,-0.178 0.951,-0.334 l 2.225,2.307 c 0.031,-0.022 0.064,-0.046 0.002,0.001 z m 0.769,-0.656 0.002,0.004 c -0.019,0.019 0.018,-0.024 -0.002,-0.004 l -1.929,-2.57 c 0.395,-0.525 0.63,-1.166 0.654,-1.846 l 3.122,-0.775 0,-0.008 c 0,0.002 0,0.004 0,0.008 l 0,0 c 0.208,1.976 -0.521,3.861 -1.847,5.191 z"
           id="path11630"
           style="fill:#ffffff" /></g></g></g><polygon
     points="87.674,50.048 94,46.885 87.674,43.723 87.674,43.723 "
     transform="translate(-1.1361557e-6,39.366641)"
     id="polygon11632" /><polygon
     points="38.321,132.7 44.647,135.862 38.321,139.025 38.321,139.025 "
     transform="translate(-1.1361557e-6,39.366641)"
     id="polygon11634" /><path
     d="m 90.777999,86.25264 -58.739,0 c -2.485,0 -4.5,2.014 -4.5,4.5 l 0,79.97708 c 0,2.484 2.015,4.5 4.5,4.5 l 8,0"
     id="path11636"
     style="fill:none;stroke:#000000;stroke-width:2" /><path
     d="m 385.5,105.11665 c 0,2.48501 -2.015,4.50001 -4.5,4.50001 l -60,0 c -2.485,0 -4.5,-2.015 -4.5,-4.50001 l 0,-49.50001 c 0,-2.485 2.015,-4.5 4.5,-4.5 l 60,0 c 2.485,0 4.5,2.015 4.5,4.5 l 0,49.50001 z"
     id="path11638"
     style="fill:#d2d3d4" /><path
     d="m 305.98,101.36664 c 0,3.31401 -2.687,6.00001 -6,6.00001 l -45,0 c -3.313,0 -6,-2.686 -6,-6.00001 l 0,0 c 0,-3.314 2.687,-6 6,-6 l 45,0 c 3.314,0 6,2.686 6,6 l 0,0 z"
     id="path11640"
     style="fill:#666666" /><path
     d="m 322.58,252.36672 c 0,3.314 -2.686,6 -6,6 l -78,0 c -3.313,0 -6,-2.686 -6,-6 l 0,0 c 0,-3.314 2.687,-6 6,-6 l 78,0 c 3.315,0 6,2.686 6,6 l 0,0 z"
     id="path11642"
     style="fill:#666666" /><polygon
     points="347.838,79.547 351,73.221 354.163,79.547 354.163,79.547 "
     transform="translate(-1.1361557e-6,39.366641)"
     id="polygon11644" /><path
     d="m 335.5,175.22972 11,0 c 2.486,0 4.5,-2.015 4.5,-4.5 l 0,-53.53405"
     id="path11646"
     style="fill:none;stroke:#000000;stroke-width:2" /><g
     transform="translate(-1.1361557e-6,39.366641)"
     id="g11648"><g
       id="g11650"><g
         id="g11652"><path
           d="m 365.358,195.863 c 0,7.934 -6.431,14.365 -14.358,14.365 -7.924,0 -14.353,-6.432 -14.353,-14.365 0,-7.932 6.429,-14.363 14.353,-14.363 7.928,0 14.358,6.432 14.358,14.363 z"
           id="path11654"
           style="fill:#629e1f" /></g></g><g
       id="g11656"><g
         id="g11658"><path
           d="m 354.76,201.062 -0.002,-0.002 c -0.031,0.022 -0.061,0.045 0.002,0.002 z m 6.162,-5.197 c 0,-0.316 -0.016,-0.629 -0.047,-0.938 l 1.266,-0.303 c -0.039,-0.346 -0.09,-0.688 -0.158,-1.023 l -1.299,0.104 c -0.137,-0.619 -0.33,-1.215 -0.579,-1.785 l 1.108,-0.676 c -0.142,-0.316 -0.301,-0.625 -0.471,-0.924 l -1.2,0.5 c -0.319,-0.541 -0.69,-1.049 -1.103,-1.518 l 0.848,-0.988 c -0.234,-0.254 -0.479,-0.5 -0.732,-0.732 l -0.992,0.848 c -0.469,-0.414 -0.974,-0.783 -1.514,-1.104 l 0.498,-1.201 c -0.297,-0.17 -0.607,-0.328 -0.922,-0.471 l -0.677,1.109 c -0.569,-0.248 -1.167,-0.441 -1.787,-0.578 l 0.104,-1.301 c -0.334,-0.068 -0.677,-0.121 -1.021,-0.158 l -0.304,1.264 c -0.308,-0.027 -0.62,-0.045 -0.938,-0.045 -0.318,0 -0.63,0.018 -0.938,0.045 l -0.3,-1.264 c -0.35,0.037 -0.689,0.09 -1.025,0.158 l 0.104,1.301 c -0.617,0.137 -1.215,0.33 -1.783,0.578 l -0.68,-1.109 c -0.313,0.143 -0.621,0.301 -0.92,0.471 l 0.497,1.201 c -0.541,0.32 -1.046,0.689 -1.515,1.104 l -0.99,-0.848 c -0.256,0.232 -0.5,0.479 -0.731,0.732 l 0.847,0.988 c -0.412,0.469 -0.783,0.977 -1.105,1.518 l -1.197,-0.5 c -0.172,0.299 -0.328,0.607 -0.473,0.924 l 1.108,0.676 c -0.245,0.57 -0.439,1.166 -0.579,1.785 l -1.299,-0.104 c -0.068,0.336 -0.119,0.678 -0.158,1.023 l 1.265,0.303 c -0.029,0.309 -0.044,0.621 -0.044,0.938 0,0.314 0.015,0.629 0.044,0.936 l -1.265,0.303 c 0.037,0.348 0.09,0.688 0.158,1.023 l 1.299,-0.104 c 0.14,0.619 0.334,1.217 0.579,1.785 l -1.109,0.678 c 0.146,0.316 0.302,0.623 0.474,0.922 l 1.197,-0.498 c 0.322,0.539 0.693,1.047 1.105,1.516 l -0.847,0.99 c 0.231,0.254 0.476,0.498 0.731,0.73 l 0.99,-0.846 c 0.469,0.412 0.974,0.783 1.515,1.104 l -0.497,1.199 c 0.299,0.172 0.606,0.328 0.92,0.471 l 0.68,-1.109 c 0.569,0.248 1.166,0.441 1.783,0.578 l -0.104,1.301 c 0.336,0.068 0.676,0.121 1.022,0.158 l 0.303,-1.264 c 0.308,0.027 0.62,0.045 0.938,0.045 0.318,0 0.63,-0.018 0.938,-0.045 l 0.304,1.264 c 0.345,-0.037 0.688,-0.09 1.021,-0.158 l -0.104,-1.301 c 0.62,-0.137 1.218,-0.33 1.787,-0.578 l 0.677,1.109 c 0.314,-0.143 0.625,-0.299 0.922,-0.471 l -0.498,-1.199 c 0.54,-0.32 1.045,-0.691 1.514,-1.104 l 0.992,0.846 c 0.256,-0.232 0.498,-0.477 0.732,-0.73 l -0.848,-0.99 c 0.412,-0.469 0.783,-0.977 1.103,-1.516 l 1.2,0.498 c 0.17,-0.299 0.329,-0.607 0.471,-0.922 l -1.108,-0.678 c 0.249,-0.568 0.442,-1.166 0.579,-1.785 l 1.299,0.104 c 0.069,-0.336 0.119,-0.676 0.158,-1.023 l -1.266,-0.303 c 0.031,-0.307 0.047,-0.621 0.047,-0.936 z m -7.299,-5.845 c 1.716,0.77 3.061,2.279 3.571,4.201 L 354,194.605 c -0.263,-0.627 -0.712,-1.143 -1.269,-1.492 l 0.892,-3.093 z m -0.537,5.845 c 0,1.15 -0.934,2.082 -2.083,2.082 -1.148,0 -2.083,-0.932 -2.083,-2.082 0,-1.15 0.935,-2.082 2.083,-2.082 1.149,0 2.083,0.932 2.083,2.082 z m -3.242,-6.301 c 0.971,-0.18 1.931,-0.121 2.824,0.119 l -1.258,2.951 c -0.326,-0.043 -0.666,-0.037 -1.009,0.025 -0.336,0.061 -0.648,0.174 -0.937,0.324 l -2.217,-2.303 c 0.751,-0.543 1.624,-0.938 2.597,-1.116 z m -3.369,1.768 1.921,2.561 c -0.403,0.531 -0.645,1.18 -0.669,1.867 l -3.098,0.77 c -0.207,-1.977 0.517,-3.868 1.846,-5.198 z m -1.781,5.699 0,0 0.003,0.002 c 0,0 -0.003,0 -0.003,-0.002 z m 3.692,4.688 0,0.006 c 0.025,0.011 -0.027,-0.016 0,-0.006 -1.712,-0.77 -3.062,-2.273 -3.573,-4.195 l 3.167,-0.383 c 0.27,0.637 0.726,1.156 1.291,1.506 l -0.885,3.072 z m 6.374,-0.657 c -0.847,0.584 -1.455,0.949 -2.599,1.119 -1.093,0.16 -1.786,0.127 -2.821,-0.123 l 1.254,-2.941 c 0.322,0.039 0.653,0.033 0.988,-0.029 0.344,-0.062 0.662,-0.178 0.951,-0.334 l 2.225,2.307 c 0.031,-0.022 0.064,-0.045 0.002,0.001 z m 0.769,-0.656 0.002,0.004 c -0.019,0.02 0.018,-0.023 -0.002,-0.004 l -1.929,-2.57 c 0.395,-0.525 0.63,-1.166 0.654,-1.846 l 3.122,-0.775 0,-0.008 c 0,0.002 0,0.004 0,0.008 l 0,0 c 0.208,1.976 -0.521,3.861 -1.847,5.191 z"
           id="path11660"
           style="fill:#ffffff" /></g></g></g><polygon
     points="377.696,159.547 380.858,153.221 384.021,159.547 384.021,159.547 "
     transform="translate(-1.1361557e-6,39.366641)"
     id="polygon11662" /><path
     d="m 371.527,235.22972 4.831,0 c 2.486,0 4.5,-2.015 4.5,-4.5 l 0,-33.534"
     id="path11664"
     style="fill:none;stroke:#000000;stroke-width:2" /><polygon
     points="374.685,199.025 368.358,195.863 374.685,192.7 374.685,192.7 "
     transform="translate(-1.1361557e-6,39.366641)"
     id="polygon11666" /><polygon
     points="324.31,159.547 321.147,153.221 317.984,159.547 317.984,159.547 "
     transform="translate(-1.1361557e-6,39.366641)"
     id="polygon11668" /><path
     d="m 330.479,235.22972 -4.831,0 c -2.486,0 -4.5,-2.015 -4.5,-4.5 l 0,-33.534"
     id="path11670"
     style="fill:none;stroke:#000000;stroke-width:2" /><polygon
     points="327.321,199.025 333.647,195.863 327.321,192.7 327.321,192.7 "
     transform="translate(-1.1361557e-6,39.366641)"
     id="polygon11672" /><polygon
     points="354.166,219.555 351.004,213.229 347.841,219.555 347.841,219.555 "
     transform="translate(-1.1361557e-6,39.366641)"
     id="polygon11706" /><polygon
     points="354.162,316.81 351,323.136 347.837,316.81 347.837,316.81 "
     transform="translate(-1.1361557e-6,-36.63336)"
     id="polygon11708" /><line
     style="fill:none;stroke:#000000;stroke-width:2;stroke-miterlimit:4;stroke-dasharray:none"
     id="line11710"
     y2="255.09836"
     x2="121.61183"
     y1="281.58868"
     x1="121.61183" /><polygon
     points="118.838,219.555 122,213.229 125.163,219.555 125.163,219.555 "
     transform="translate(-1.1361557e-6,39.366641)"
     id="polygon11712" /><polygon
     points="125.163,316.81 122,323.136 118.838,316.81 118.838,316.81 "
     transform="translate(-1.1361557e-6,-36.63336)"
     id="polygon11714" /><path
     d="m 134.783,306.00572 1.576,-2.162 3.75,0 c 0,0 1.5,-3.235 1.5,-7.448 3.056,0 5.725,9.61 5.725,9.61 l 1.576,-2.162 3.75,0 c 0,0 1.5,-3.235 1.5,-7.448 3.056,0 5.725,9.61 5.725,9.61 l 1.576,-2.162 3.75,0 c 0,0 1.5,-3.235 1.5,-7.448 3.056,0 5.725,9.61 5.725,9.61 l 1.576,-2.162 3.75,0 c 0,0 1.5,-3.235 1.5,-7.448 3.056,0 5.725,9.61 5.725,9.61 l 1.576,-2.162 3.75,0 c 0,0 1.5,-3.235 1.5,-7.448 3.056,0 5.725,9.61 5.725,9.61 l 1.576,-2.162 3.75,0 c 0,0 1.5,-3.235 1.5,-7.448 3.056,0 5.726,9.61 5.726,9.61 l 1.576,-2.162 3.75,0 c 0,0 1.5,-3.235 1.5,-7.448 3.055,0 5.725,9.61 5.725,9.61 l 1.576,-2.162 3.75,0 c 0,0 1.5,-3.235 1.5,-7.448 3.056,0 5.725,9.61 5.725,9.61 l 1.576,-2.162 3.75,0 c 0,0 1.5,-3.235 1.5,-7.448 3.057,0 5.726,9.61 5.726,9.61 l 1.576,-2.162 3.75,0 c 0,0 1.5,-3.235 1.5,-7.448 3.056,0 5.726,9.61 5.726,9.61 l 1.576,-2.162 3.75,0 c 0,0 1.5,-3.235 1.5,-7.448 3.055,0 5.725,9.61 5.725,9.61 l 1.576,-2.162 3.75,0 c 0,0 1.5,-3.235 1.5,-7.448 3.057,0 5.725,9.61 5.725,9.61 l 1.576,-2.162 3.75,0 c 0,0 1.5,-3.235 1.5,-7.448 3.057,0 5.727,9.61 5.727,9.61 l 1.576,-2.162 3.75,0 c 0,0 1.5,-3.235 1.5,-7.448 3.055,0 5.725,9.61 5.725,9.61 l 1.576,-2.162 3.75,0 c 0,0 1.5,-3.235 1.5,-7.448 3.055,0 5.725,9.61 5.725,9.61 l 1.576,-2.162 3.75,0 c 0,0 1.5,-3.235 1.5,-7.448 3.057,0 5.725,9.61 5.725,9.61 l 1.576,-2.162"
     id="path11734"
     style="fill:none;stroke:#c11306;stroke-width:1.54999995" /><g
     transform="translate(-1.1361557e-6,-36.63336)"
     id="g11736"><g
       id="g11738"><g
         id="g11740"><path
           d="m 365.358,340.499 c 0,7.934 -6.431,14.365 -14.358,14.365 -7.924,0 -14.353,-6.432 -14.353,-14.365 0,-7.932 6.429,-14.363 14.353,-14.363 7.928,0 14.358,6.431 14.358,14.363 z"
           id="path11742"
           style="fill:#629e1f" /></g></g><g
       id="g11744"><g
         id="g11746"><path
           d="m 354.76,345.698 -0.002,-0.002 c -0.031,0.022 -0.061,0.045 0.002,0.002 z m 6.162,-5.197 c 0,-0.316 -0.016,-0.629 -0.047,-0.938 l 1.266,-0.303 c -0.039,-0.346 -0.09,-0.688 -0.158,-1.023 l -1.299,0.104 c -0.137,-0.619 -0.33,-1.215 -0.579,-1.785 l 1.108,-0.676 c -0.142,-0.316 -0.301,-0.625 -0.471,-0.924 l -1.2,0.5 c -0.319,-0.541 -0.69,-1.049 -1.103,-1.518 l 0.848,-0.988 c -0.234,-0.254 -0.479,-0.5 -0.732,-0.732 l -0.992,0.848 c -0.469,-0.414 -0.974,-0.783 -1.514,-1.104 l 0.498,-1.201 c -0.297,-0.17 -0.607,-0.328 -0.922,-0.471 l -0.677,1.109 c -0.569,-0.248 -1.167,-0.441 -1.787,-0.578 l 0.104,-1.301 c -0.334,-0.068 -0.677,-0.121 -1.021,-0.158 l -0.304,1.264 c -0.308,-0.027 -0.62,-0.045 -0.938,-0.045 -0.318,0 -0.63,0.018 -0.938,0.045 l -0.3,-1.264 c -0.35,0.037 -0.689,0.09 -1.025,0.158 l 0.104,1.301 c -0.617,0.137 -1.215,0.33 -1.783,0.578 l -0.68,-1.109 c -0.313,0.143 -0.621,0.301 -0.92,0.471 l 0.497,1.201 c -0.541,0.32 -1.046,0.689 -1.515,1.104 l -0.99,-0.848 c -0.256,0.232 -0.5,0.479 -0.731,0.732 l 0.847,0.988 c -0.412,0.469 -0.783,0.977 -1.105,1.518 l -1.197,-0.5 c -0.172,0.299 -0.328,0.607 -0.473,0.924 l 1.108,0.676 c -0.245,0.57 -0.439,1.166 -0.579,1.785 l -1.299,-0.104 c -0.068,0.336 -0.119,0.678 -0.158,1.023 l 1.265,0.303 c -0.029,0.309 -0.044,0.621 -0.044,0.938 0,0.314 0.015,0.629 0.044,0.936 l -1.265,0.303 c 0.037,0.348 0.09,0.688 0.158,1.023 l 1.299,-0.104 c 0.14,0.619 0.334,1.217 0.579,1.785 l -1.109,0.678 c 0.146,0.316 0.302,0.623 0.474,0.922 l 1.197,-0.498 c 0.322,0.539 0.693,1.047 1.105,1.516 l -0.847,0.99 c 0.231,0.254 0.476,0.498 0.731,0.73 l 0.99,-0.846 c 0.469,0.412 0.974,0.783 1.515,1.104 l -0.497,1.199 c 0.299,0.172 0.606,0.328 0.92,0.471 l 0.68,-1.109 c 0.569,0.248 1.166,0.441 1.783,0.578 l -0.104,1.301 c 0.336,0.068 0.676,0.121 1.022,0.158 l 0.303,-1.264 c 0.308,0.027 0.62,0.045 0.938,0.045 0.318,0 0.63,-0.018 0.938,-0.045 l 0.304,1.264 c 0.345,-0.037 0.688,-0.09 1.021,-0.158 l -0.104,-1.301 c 0.62,-0.137 1.218,-0.33 1.787,-0.578 l 0.677,1.109 c 0.314,-0.143 0.625,-0.299 0.922,-0.471 l -0.498,-1.199 c 0.54,-0.32 1.045,-0.691 1.514,-1.104 l 0.992,0.846 c 0.256,-0.232 0.498,-0.477 0.732,-0.73 l -0.848,-0.99 c 0.412,-0.469 0.783,-0.977 1.103,-1.516 l 1.2,0.498 c 0.17,-0.299 0.329,-0.607 0.471,-0.922 l -1.108,-0.678 c 0.249,-0.568 0.442,-1.166 0.579,-1.785 l 1.299,0.104 c 0.069,-0.336 0.119,-0.676 0.158,-1.023 l -1.266,-0.303 c 0.031,-0.307 0.047,-0.622 0.047,-0.936 z m -7.299,-5.846 c 1.716,0.77 3.061,2.279 3.571,4.201 L 354,339.241 c -0.263,-0.627 -0.712,-1.143 -1.269,-1.492 l 0.892,-3.094 z m -0.537,5.846 c 0,1.15 -0.934,2.082 -2.083,2.082 -1.148,0 -2.083,-0.932 -2.083,-2.082 0,-1.15 0.935,-2.082 2.083,-2.082 1.149,0 2.083,0.932 2.083,2.082 z m -3.242,-6.301 c 0.971,-0.18 1.931,-0.121 2.824,0.119 l -1.258,2.951 c -0.326,-0.043 -0.666,-0.037 -1.009,0.025 -0.336,0.061 -0.648,0.174 -0.937,0.324 l -2.217,-2.303 c 0.751,-0.544 1.624,-0.938 2.597,-1.116 z m -3.369,1.768 1.921,2.561 c -0.403,0.531 -0.645,1.18 -0.669,1.867 l -3.098,0.77 c -0.207,-1.978 0.517,-3.868 1.846,-5.198 z m -1.781,5.699 0,0 0.003,0.002 c 0,0 -0.003,0 -0.003,-0.002 z m 3.692,4.687 0,0.006 c 0.025,0.012 -0.027,-0.015 0,-0.006 -1.712,-0.77 -3.062,-2.273 -3.573,-4.195 l 3.167,-0.383 c 0.27,0.637 0.726,1.156 1.291,1.506 l -0.885,3.072 z m 6.374,-0.656 c -0.847,0.584 -1.455,0.949 -2.599,1.119 -1.093,0.16 -1.786,0.127 -2.821,-0.123 l 1.254,-2.941 c 0.322,0.039 0.653,0.033 0.988,-0.029 0.344,-0.062 0.662,-0.178 0.951,-0.334 l 2.225,2.307 c 0.031,-0.022 0.064,-0.046 0.002,10e-4 z m 0.769,-0.656 0.002,0.004 c -0.019,0.019 0.018,-0.024 -0.002,-0.004 l -1.929,-2.57 c 0.395,-0.525 0.63,-1.166 0.654,-1.846 l 3.122,-0.775 0,-0.008 c 0,0.002 0,0.004 0,0.008 l 0,0 c 0.208,1.976 -0.521,3.861 -1.847,5.191 z"
           id="path11748"
           style="fill:#ffffff" /></g></g></g><g
     transform="translate(-1.1361557e-6,-36.63336)"
     id="g11750"><g
       id="g11752"><g
         id="g11754"><path
           d="m 136.358,340.499 c 0,7.934 -6.431,14.365 -14.358,14.365 -7.924,0 -14.353,-6.432 -14.353,-14.365 0,-7.932 6.429,-14.363 14.353,-14.363 7.928,0 14.358,6.431 14.358,14.363 z"
           id="path11756"
           style="fill:#629e1f" /></g></g><g
       id="g11758"><g
         id="g11760"><path
           d="m 125.76,345.698 -0.002,-0.002 c -0.031,0.022 -0.061,0.045 0.002,0.002 z m 6.162,-5.197 c 0,-0.316 -0.016,-0.629 -0.047,-0.938 l 1.266,-0.303 c -0.039,-0.346 -0.09,-0.688 -0.158,-1.023 l -1.299,0.104 c -0.137,-0.619 -0.33,-1.215 -0.579,-1.785 l 1.108,-0.676 c -0.142,-0.316 -0.301,-0.625 -0.471,-0.924 l -1.2,0.5 c -0.319,-0.541 -0.69,-1.049 -1.103,-1.518 l 0.848,-0.988 c -0.234,-0.254 -0.479,-0.5 -0.732,-0.732 l -0.992,0.848 c -0.469,-0.414 -0.974,-0.783 -1.514,-1.104 l 0.498,-1.201 c -0.297,-0.17 -0.607,-0.328 -0.922,-0.471 l -0.677,1.109 c -0.569,-0.248 -1.167,-0.441 -1.787,-0.578 l 0.104,-1.301 c -0.334,-0.068 -0.677,-0.121 -1.021,-0.158 l -0.304,1.264 c -0.308,-0.027 -0.62,-0.045 -0.938,-0.045 -0.318,0 -0.63,0.018 -0.938,0.045 l -0.3,-1.264 c -0.35,0.037 -0.689,0.09 -1.025,0.158 l 0.104,1.301 c -0.617,0.137 -1.215,0.33 -1.783,0.578 l -0.68,-1.109 c -0.313,0.143 -0.621,0.301 -0.92,0.471 l 0.497,1.201 c -0.541,0.32 -1.046,0.689 -1.515,1.104 l -0.99,-0.848 c -0.256,0.232 -0.5,0.479 -0.731,0.732 l 0.847,0.988 c -0.412,0.469 -0.783,0.977 -1.105,1.518 l -1.197,-0.5 c -0.172,0.299 -0.328,0.607 -0.473,0.924 l 1.108,0.676 c -0.245,0.57 -0.439,1.166 -0.579,1.785 l -1.299,-0.104 c -0.068,0.336 -0.119,0.678 -0.158,1.023 l 1.265,0.303 c -0.029,0.309 -0.044,0.621 -0.044,0.938 0,0.314 0.015,0.629 0.044,0.936 l -1.265,0.303 c 0.037,0.348 0.09,0.688 0.158,1.023 l 1.299,-0.104 c 0.14,0.619 0.334,1.217 0.579,1.785 l -1.109,0.678 c 0.146,0.316 0.302,0.623 0.474,0.922 l 1.197,-0.498 c 0.322,0.539 0.693,1.047 1.105,1.516 l -0.847,0.99 c 0.231,0.254 0.476,0.498 0.731,0.73 l 0.99,-0.846 c 0.469,0.412 0.974,0.783 1.515,1.104 l -0.497,1.199 c 0.299,0.172 0.606,0.328 0.92,0.471 l 0.68,-1.109 c 0.569,0.248 1.166,0.441 1.783,0.578 l -0.104,1.301 c 0.336,0.068 0.676,0.121 1.022,0.158 l 0.303,-1.264 c 0.308,0.027 0.62,0.045 0.938,0.045 0.318,0 0.63,-0.018 0.938,-0.045 l 0.304,1.264 c 0.345,-0.037 0.688,-0.09 1.021,-0.158 l -0.104,-1.301 c 0.62,-0.137 1.218,-0.33 1.787,-0.578 l 0.677,1.109 c 0.314,-0.143 0.625,-0.299 0.922,-0.471 l -0.498,-1.199 c 0.54,-0.32 1.045,-0.691 1.514,-1.104 l 0.992,0.846 c 0.256,-0.232 0.498,-0.477 0.732,-0.73 l -0.848,-0.99 c 0.412,-0.469 0.783,-0.977 1.103,-1.516 l 1.2,0.498 c 0.17,-0.299 0.329,-0.607 0.471,-0.922 l -1.108,-0.678 c 0.249,-0.568 0.442,-1.166 0.579,-1.785 l 1.299,0.104 c 0.069,-0.336 0.119,-0.676 0.158,-1.023 l -1.266,-0.303 c 0.031,-0.307 0.047,-0.622 0.047,-0.936 z m -7.299,-5.846 c 1.716,0.77 3.061,2.279 3.571,4.201 L 125,339.241 c -0.263,-0.627 -0.712,-1.143 -1.269,-1.492 l 0.892,-3.094 z m -0.537,5.846 c 0,1.15 -0.934,2.082 -2.083,2.082 -1.148,0 -2.083,-0.932 -2.083,-2.082 0,-1.15 0.935,-2.082 2.083,-2.082 1.149,0 2.083,0.932 2.083,2.082 z m -3.242,-6.301 c 0.971,-0.18 1.931,-0.121 2.824,0.119 l -1.258,2.951 c -0.326,-0.043 -0.666,-0.037 -1.009,0.025 -0.336,0.061 -0.648,0.174 -0.937,0.324 l -2.217,-2.303 c 0.751,-0.544 1.624,-0.938 2.597,-1.116 z m -3.369,1.768 1.921,2.561 c -0.403,0.531 -0.645,1.18 -0.669,1.867 l -3.098,0.77 c -0.207,-1.978 0.517,-3.868 1.846,-5.198 z m -1.781,5.699 0,0 0.003,0.002 c 0,0 -0.003,0 -0.003,-0.002 z m 3.692,4.687 0,0.006 c 0.025,0.012 -0.027,-0.015 0,-0.006 -1.712,-0.77 -3.062,-2.273 -3.573,-4.195 l 3.167,-0.383 c 0.27,0.637 0.726,1.156 1.291,1.506 l -0.885,3.072 z m 6.374,-0.656 c -0.847,0.584 -1.455,0.949 -2.599,1.119 -1.093,0.16 -1.786,0.127 -2.821,-0.123 l 1.254,-2.941 c 0.322,0.039 0.653,0.033 0.988,-0.029 0.344,-0.062 0.662,-0.178 0.951,-0.334 l 2.225,2.307 c 0.031,-0.022 0.064,-0.046 0.002,10e-4 z m 0.769,-0.656 0.002,0.004 c -0.019,0.019 0.018,-0.024 -0.002,-0.004 l -1.929,-2.57 c 0.395,-0.525 0.63,-1.166 0.654,-1.846 l 3.122,-0.775 0,-0.008 c 0,0.002 0,0.004 0,0.008 l 0,0 c 0.208,1.976 -0.521,3.861 -1.847,5.191 z"
           id="path11762"
           style="fill:#ffffff" /></g></g></g><g
     transform="translate(-1.1361557e-6,-36.63336)"
     id="g11764"><path
       d="m 162.032,369.918 -13.637,-4.015 c 0,0 -9.58,9.762 -10.133,10.314 -0.215,0.215 -0.307,0.481 -0.295,0.743 l 0,4.118 0,0.644 0,2.986 0,0.645 0,2.904 0,0.645 0,3.016 0,0.645 c 0,0 0.012,0.003 0.012,0.004 l -0.012,0.014 c 0,0 0,7.216 0,7.344 0,0.499 0.494,0.842 0.658,0.902 -0.115,0.11 -0.24,0.319 -0.264,0.383 -0.125,0.323 0.174,0.663 0.682,0.812 2.338,0.688 8.975,2.641 9.877,2.909 1.096,0.326 2.078,0.225 3.008,-0.704 l 0.164,-0.165 c 1.715,-1.714 9.674,-9.854 9.674,-9.854 l -0.295,-0.794 c 0.354,-0.354 0.561,-0.562 0.561,-0.562 l 0,-8.127 -0.504,-0.138 0.504,-0.507 0,-3.014 -0.496,-0.145 0.496,-0.5 0,-2.905 -0.496,-0.146 0.496,-0.499 0,-2.985 -0.465,-0.179 0.465,-0.466 0,-3.323 z"
       id="path11766"
       style="fill:none;stroke:#c8c7c8;stroke-width:2.06130004;stroke-linecap:round;stroke-linejoin:round" /><path
       d="m 148.864,403.85 c -0.92,-0.275 -10.238,-3.023 -10.238,-3.023 0,0 -0.24,0.319 -0.264,0.383 -0.125,0.323 0.174,0.663 0.682,0.812 2.338,0.688 8.975,2.641 9.877,2.909 1.096,0.326 2.078,0.225 3.008,-0.704 l 0.164,-0.165 c 1.715,-1.714 9.674,-9.854 9.674,-9.854 l -0.297,-0.795 -9.539,9.719 c -0.946,0.946 -1.946,1.052 -3.067,0.718 z"
       id="path11768"
       style="fill:#828990" /><linearGradient
       x1="142.5088"
       y1="379.00491"
       x2="148.1227"
       y2="403.54901"
       id="SVGID_1_"
       gradientUnits="userSpaceOnUse"><stop
         id="stop11771"
         style="stop-color:#888892;stop-opacity:1"
         offset="0" /><stop
         id="stop11773"
         style="stop-color:#5a5a64;stop-opacity:1"
         offset="0.5169" /><stop
         id="stop11775"
         style="stop-color:#37373d;stop-opacity:1"
         offset="1" /></linearGradient><path
       d="m 151.661,380.468 c -0.191,0.192 -0.549,0.357 -0.98,0.462 -0.555,0.133 -1.23,0.157 -1.857,-0.027 -3.205,-0.942 -9.486,-2.793 -10.068,-2.963 -0.484,-0.143 -0.771,-0.554 -0.787,-0.979 l 0,4.119 0,0.644 0,2.986 0,0.645 0,2.904 0,0.645 0,3.016 0,0.662 c 0,0 0,7.216 0,7.344 0,0.525 0.311,0.807 0.826,0.959 2.383,0.701 9.15,2.691 10.07,2.967 1.121,0.334 2.121,0.229 3.066,-0.719 0.039,-0.036 0.1,-0.096 0.168,-0.168 l 0,-22.934 c -0.243,0.242 -0.397,0.397 -0.438,0.437 z"
       id="path11777"
       style="fill:url(#SVGID_1_)" /><path
       d="m 162.032,369.918 c 0,0 -7.561,7.738 -9.934,10.111 l 0,22.934 c 1.748,-1.748 9.934,-10.111 9.934,-10.111 l 0,-8.127 -0.504,-0.138 0.504,-0.507 0,-3.014 -0.496,-0.145 0.496,-0.5 0,-2.905 -0.496,-0.146 0.496,-0.499 0,-2.985 -0.465,-0.179 0.465,-0.466 0,-3.323 z"
       id="path11779"
       style="fill:#c8c7c8" /><path
       d="m 154.106,381.398 0,0.636 c 3.824,-3.839 7.926,-8.147 7.926,-8.147 l -0.465,-0.179 c 0,0 -3.566,3.781 -7.461,7.69 z"
       id="path11781"
       style="fill:#e0e1e2" /><polygon
       points="148.218,402.641 148.218,401.736 149.12,402.004 149.12,402.906 149.12,402.906 "
       id="polygon11783"
       style="fill:#ffffff" /><polygon
       points="146.679,402.187 146.679,401.282 147.583,401.549 147.583,402.453 147.583,402.453 "
       id="polygon11785"
       style="fill:#ffffff" /><polygon
       points="145.138,401.733 145.138,400.829 146.042,401.096 146.042,402 146.042,402 "
       id="polygon11787"
       style="fill:#ffffff" /><path
       d="m 148.396,365.903 c 0,0 -9.58,9.762 -10.133,10.314 -0.562,0.562 -0.289,1.489 0.492,1.722 0.582,0.17 6.863,2.021 10.068,2.963 1.115,0.329 2.4,0.004 2.838,-0.435 0.438,-0.439 10.371,-10.55 10.371,-10.55 l -13.636,-4.014 z"
       id="path11789"
       style="fill:#ffffff" /><path
       d="m 154.106,385.027 0,0.638 c 3.824,-3.839 7.926,-8.148 7.926,-8.148 l -0.496,-0.146 c 0,0 -3.535,3.749 -7.43,7.656 z"
       id="path11791"
       style="fill:#e0e1e2" /><path
       d="m 154.106,388.576 0,0.637 c 3.824,-3.838 7.926,-8.146 7.926,-8.146 l -0.496,-0.145 c 0,0 -3.535,3.746 -7.43,7.654 z"
       id="path11793"
       style="fill:#e0e1e2" /><path
       d="m 154.106,392.234 0,0.639 c 3.824,-3.838 7.926,-8.148 7.926,-8.148 l -0.504,-0.138 c 0,0 -3.527,3.741 -7.422,7.647 z"
       id="path11795"
       style="fill:#e0e1e2" /><line
       style="fill:none;stroke:#aab8c3;stroke-width:0.14669999"
       id="line11797"
       y2="376.021"
       x2="138.46001"
       y1="380.02899"
       x1="152.099" /><g
       id="g11799"><path
         d="m 140.411,391.615 0,-7.967 1.564,0.455 3.262,6.27 0,-5.321 1.494,0.435 0,7.969 -1.613,-0.47 -3.211,-6.132 0,5.196 -1.496,-0.435 z"
         id="path11801"
         style="fill:#ffffff" /></g></g><rect
     width="24.063999"
     height="39.194"
     x="338.96799"
     y="329.26871"
     id="rect11803"
     style="fill:none" /><g
     transform="translate(-1.1361557e-6,-36.63336)"
     id="g11805"><path
       d="m 363.032,369.917 -13.637,-4.015 c 0,0 -9.58,9.762 -10.133,10.314 -0.215,0.215 -0.307,0.481 -0.295,0.743 l 0,4.118 0,0.644 0,2.986 0,0.645 0,2.904 0,0.645 0,3.016 0,0.645 c 0,0 0.012,0.003 0.012,0.004 l -0.012,0.014 c 0,0 0,7.216 0,7.344 0,0.499 0.494,0.842 0.658,0.902 -0.115,0.11 -0.24,0.319 -0.264,0.383 -0.125,0.323 0.174,0.663 0.682,0.812 2.338,0.688 8.975,2.641 9.877,2.909 1.096,0.326 2.078,0.225 3.008,-0.704 l 0.164,-0.165 c 1.715,-1.714 9.674,-9.854 9.674,-9.854 l -0.295,-0.794 c 0.354,-0.354 0.561,-0.562 0.561,-0.562 l 0,-8.127 -0.504,-0.138 0.504,-0.507 0,-3.014 -0.496,-0.145 0.496,-0.5 0,-2.905 -0.496,-0.146 0.496,-0.499 0,-2.985 -0.465,-0.179 0.465,-0.466 0,-3.323 0,0 z"
       id="path11807"
       style="fill:none;stroke:#c8c7c8;stroke-width:2.06130004;stroke-linecap:round;stroke-linejoin:round" /><path
       d="m 349.864,403.849 c -0.92,-0.275 -10.238,-3.023 -10.238,-3.023 0,0 -0.24,0.319 -0.264,0.383 -0.125,0.323 0.174,0.663 0.682,0.812 2.338,0.688 8.975,2.641 9.877,2.909 1.096,0.326 2.078,0.225 3.008,-0.704 l 0.164,-0.165 c 1.715,-1.714 9.674,-9.854 9.674,-9.854 l -0.297,-0.795 -9.539,9.719 c -0.946,0.946 -1.946,1.052 -3.067,0.718 z"
       id="path11809"
       style="fill:#828990" /><linearGradient
       x1="343.5098"
       y1="379.00491"
       x2="349.12341"
       y2="403.54819"
       id="SVGID_2_"
       gradientUnits="userSpaceOnUse"><stop
         id="stop11812"
         style="stop-color:#888892;stop-opacity:1"
         offset="0" /><stop
         id="stop11814"
         style="stop-color:#5a5a64;stop-opacity:1"
         offset="0.5169" /><stop
         id="stop11816"
         style="stop-color:#37373d;stop-opacity:1"
         offset="1" /></linearGradient><path
       d="m 352.661,380.467 c -0.191,0.192 -0.549,0.357 -0.98,0.462 -0.555,0.133 -1.23,0.157 -1.857,-0.027 -3.205,-0.942 -9.486,-2.793 -10.068,-2.963 -0.484,-0.143 -0.771,-0.554 -0.787,-0.979 l 0,4.119 0,0.644 0,2.986 0,0.645 0,2.904 0,0.645 0,3.016 0,0.662 c 0,0 0,7.216 0,7.344 0,0.525 0.311,0.807 0.826,0.959 2.383,0.701 9.15,2.691 10.07,2.967 1.121,0.334 2.121,0.229 3.066,-0.719 0.039,-0.036 0.1,-0.096 0.168,-0.168 l 0,-22.934 c -0.243,0.242 -0.397,0.397 -0.438,0.437 z"
       id="path11818"
       style="fill:url(#SVGID_2_)" /><path
       d="m 363.032,369.917 c 0,0 -7.561,7.738 -9.934,10.111 l 0,22.934 c 1.748,-1.748 9.934,-10.111 9.934,-10.111 l 0,-8.127 -0.504,-0.138 0.504,-0.507 0,-3.014 -0.496,-0.145 0.496,-0.5 0,-2.905 -0.496,-0.146 0.496,-0.499 0,-2.985 -0.465,-0.179 0.465,-0.466 0,-3.323 z"
       id="path11820"
       style="fill:#c8c7c8" /><path
       d="m 355.106,381.397 0,0.636 c 3.824,-3.839 7.926,-8.147 7.926,-8.147 l -0.465,-0.179 c 0,0 -3.566,3.781 -7.461,7.69 z"
       id="path11822"
       style="fill:#e0e1e2" /><polygon
       points="349.218,402.64 349.218,401.735 350.12,402.003 350.12,402.905 350.12,402.905 "
       id="polygon11824"
       style="fill:#ffffff" /><polygon
       points="347.679,402.186 347.679,401.281 348.583,401.548 348.583,402.452 348.583,402.452 "
       id="polygon11826"
       style="fill:#ffffff" /><polygon
       points="346.138,401.732 346.138,400.828 347.042,401.095 347.042,401.999 347.042,401.999 "
       id="polygon11828"
       style="fill:#ffffff" /><path
       d="m 349.396,365.902 c 0,0 -9.58,9.762 -10.133,10.314 -0.562,0.562 -0.289,1.489 0.492,1.722 0.582,0.17 6.863,2.021 10.068,2.963 1.115,0.329 2.4,0.004 2.838,-0.435 0.438,-0.439 10.371,-10.55 10.371,-10.55 l -13.636,-4.014 z"
       id="path11830"
       style="fill:#ffffff" /><path
       d="m 355.106,385.026 0,0.638 c 3.824,-3.839 7.926,-8.148 7.926,-8.148 l -0.496,-0.146 c 0,0 -3.535,3.749 -7.43,7.656 z"
       id="path11832"
       style="fill:#e0e1e2" /><path
       d="m 355.106,388.575 0,0.637 c 3.824,-3.838 7.926,-8.146 7.926,-8.146 l -0.496,-0.145 c 0,0 -3.535,3.746 -7.43,7.654 z"
       id="path11834"
       style="fill:#e0e1e2" /><path
       d="m 355.106,392.233 0,0.639 c 3.824,-3.838 7.926,-8.148 7.926,-8.148 l -0.504,-0.138 c 0,0 -3.527,3.741 -7.422,7.647 z"
       id="path11836"
       style="fill:#e0e1e2" /><line
       style="fill:none;stroke:#aab8c3;stroke-width:0.14669999"
       id="line11838"
       y2="376.01999"
       x2="339.45999"
       y1="380.02802"
       x1="353.099" /><g
       id="g11840"><path
         d="m 341.411,391.614 0,-7.967 1.564,0.455 3.262,6.27 0,-5.321 1.494,0.435 0,7.969 -1.613,-0.47 -3.211,-6.132 0,5.196 -1.496,-0.435 z"
         id="path11842"
         style="fill:#ffffff" /></g></g><text
     x="52.4375"
     y="135.86671"
     id="text11845"
     style="font-size:12px"><tspan
       x="52.4375"
       y="135.86671"
       id="tspan11847"
       style="font-size:8px;font-family:ArialMT">Local</tspan><tspan
       x="44.880501"
       y="145.3667"
       id="tspan11849"
       style="font-size:8px;font-family:ArialMT">Resource</tspan><tspan
       x="46.212502"
       y="154.8667"
       id="tspan11851"
       style="font-size:8px;font-family:ArialMT">Manager</tspan></text>
<text
     x="133.33009"
     y="145.3667"
     id="text11859"
     style="font-size:12px"><tspan
       x="133.33009"
       y="145.3667"
       id="tspan11861"
       style="font-size:8px;font-family:ArialMT">Policy</tspan><tspan
       x="129.9881"
       y="154.8667"
       id="tspan11863"
       style="font-size:8px;font-family:ArialMT">Engine*</tspan></text>
<text
     x="229.33009"
     y="135.86671"
     id="text11865"
     style="font-size:12px"><tspan
       x="229.33009"
       y="135.86671"
       id="tspan11867"
       style="font-size:8px;font-family:ArialMT">Cluster</tspan><tspan
       x="221.9901"
       y="145.3667"
       id="tspan11869"
       style="font-size:8px;font-family:ArialMT">Information</tspan><tspan
       x="232.8831"
       y="154.8667"
       id="tspan11871"
       style="font-size:8px;font-family:ArialMT">Base</tspan></text>
<text
     x="312.69629"
     y="154.8667"
     id="text11873"
     style="font-size:8px;font-family:ArialMT">LRM</text>
<text
     x="374.1846"
     y="145.3667"
     id="text11875"
     style="font-size:12px"><tspan
       x="374.1846"
       y="145.3667"
       id="tspan11877"
       style="font-size:8px;font-family:ArialMT">CIB</tspan><tspan
       x="364.8486"
       y="154.8667"
       id="tspan11879"
       style="font-size:8px;font-family:ArialMT">(Replica)</tspan></text>
<text
     x="41.346699"
     y="228.23"
     id="text11881"
     style="font-size:12px"><tspan
       x="41.346699"
       y="228.23"
       id="tspan11883"
       style="font-size:8px;font-family:ArialMT">Cluster Resource</tspan><tspan
       x="71.5737"
       y="237.73"
       id="tspan11885"
       style="font-size:8px;font-family:ArialMT">Manager</tspan><tspan
       x="62.674698"
       y="247.23"
       id="tspan11887"
       style="font-size:8px;fill:#e67814;font-family:ArialMT">Designated</tspan><tspan
       x="58.2337"
       y="256.72998"
       id="tspan11889"
       style="font-size:8px;fill:#e67814;font-family:ArialMT">Coordinator*</tspan></text>
<text
     x="229.71091"
     y="332.1167"
     id="text11891"
     style="font-size:8px;fill:#ffffff;font-family:Arial-BoldMT">Messaging/Infrastructure</text>
<text
     x="106.877"
     y="65.888138"
     id="text11893"
     style="font-size:8px;font-family:ArialMT">Apache*</text>
<text
     x="146"
     y="78.116661"
     id="text11895"
     style="font-size:12px"><tspan
       x="146"
       y="78.116661"
       id="tspan11897"
       style="font-size:8px;font-family:ArialMT">Resource</tspan><tspan
       x="146"
       y="87.616676"
       id="tspan11899"
       style="font-size:8px;font-family:ArialMT">Agent</tspan></text>
<text
     x="333.88089"
     y="78.116661"
     id="text11901"
     style="font-size:12px"><tspan
       x="333.88089"
       y="78.116661"
       id="tspan11903"
       style="font-size:8px;font-family:ArialMT">Resource</tspan><tspan
       x="340.54691"
       y="87.616676"
       id="tspan11905"
       style="font-size:8px;font-family:ArialMT">Agent</tspan></text>
<text
     x="257.02539"
     y="104.1167"
     id="text11907"
     style="font-size:8px;fill:#ffffff;font-family:Arial-BoldMT">Resources</text>
<text
     x="238.9048"
     y="255.1167"
     id="text11909"
     style="font-size:8px;fill:#ffffff;font-family:Arial-BoldMT">Resource Allocation</text>
<text
     x="341.89059"
     y="214.8667"
     id="text11911"
     style="font-size:8px;font-family:ArialMT">CRM</text>
<text
     x="68.088318"
     y="305.86569"
     id="text11925"
     style="font-size:8px;font-family:ArialMT">Corosync</text>
<line
     style="fill:none;stroke:#000000;stroke-width:2;stroke-miterlimit:4;stroke-dasharray:none"
     id="line2561"
     y2="255.8802"
     x2="350.97653"
     y1="282.37051"
     x1="350.97653" /></svg>