<?xml version="1.0" encoding="UTF-8" standalone="no"?>
<!-- Generator: Adobe Illustrator 13.0.2, SVG Export Plug-In . SVG Version: 6.00 Build 14948)  -->
<svg
   xmlns:dc="http://purl.org/dc/elements/1.1/"
   xmlns:cc="http://creativecommons.org/ns#"
   xmlns:rdf="http://www.w3.org/1999/02/22-rdf-syntax-ns#"
   xmlns:svg="http://www.w3.org/2000/svg"
   xmlns="http://www.w3.org/2000/svg"
   xmlns:sodipodi="http://sodipodi.sourceforge.net/DTD/sodipodi-0.dtd"
   xmlns:inkscape="http://www.inkscape.org/namespaces/inkscape"
   version="1.1"
   x="0px"
   y="0px"
   width="383.286px"
   height="188.505px"
   viewBox="0 0 383.286 188.505"
   enable-background="new 0 0 383.286 188.505"
   xml:space="preserve"
   id="svg8338"
   sodipodi:version="0.32"
   inkscape:version="0.46"
   inkscape:output_extension="org.inkscape.output.svg.inkscape"
   sodipodi:docname="ha_cluster_example1.svg"><metadata
   id="metadata9165"><rdf:RDF><cc:Work
       rdf:about=""><dc:format>image/svg+xml</dc:format><dc:type
         rdf:resource="http://purl.org/dc/dcmitype/StillImage" /></cc:Work></rdf:RDF></metadata><defs
   id="defs9163"><inkscape:perspective
     sodipodi:type="inkscape:persp3d"
     inkscape:vp_x="0 : 94.252502 : 1"
     inkscape:vp_y="0 : 1000 : 0"
     inkscape:vp_z="383.28601 : 94.252502 : 1"
     inkscape:persp3d-origin="191.64301 : 62.835002 : 1"
     id="perspective9167" /></defs><sodipodi:namedview
   inkscape:window-height="743"
   inkscape:window-width="640"
   inkscape:pageshadow="2"
   inkscape:pageopacity="0.0"
   guidetolerance="10.0"
   gridtolerance="10.0"
   objecttolerance="10.0"
   borderopacity="1.0"
   bordercolor="#666666"
   pagecolor="#ffffff"
   id="base"
   showgrid="false"
   inkscape:zoom="1.4114786"
   inkscape:cx="195.24594"
   inkscape:cy="94.252502"
   inkscape:window-x="79"
   inkscape:window-y="222"
   inkscape:current-layer="svg8338" />
<g
   id="Layer_1">
	<rect
   x="264.455"
   y="145.854"
   fill="#00A651"
   width="0.629"
   height="0.629"
   id="rect8341" />
	<rect
   x="264.455"
   y="147.406"
   fill="#00A651"
   width="0.629"
   height="0.629"
   id="rect8343" />
	<line
   fill="none"
   stroke="#000000"
   x1="265.751"
   y1="146.933"
   x2="325.751"
   y2="146.933"
   id="line8345" />
	<g
   id="g8347">
		<g
   id="g8349">
			<g
   id="g8351">
				<polygon
   fill="#2182B9"
   points="80.319,47.689 77.622,47.016 77.622,45.377 80.319,46.055     "
   id="polygon8353" />
				<polygon
   fill="#2182B9"
   points="87.915,49.516 85.215,48.844 85.215,47.203 87.915,47.879     "
   id="polygon8355" />
				<polygon
   fill="#CDCCCD"
   points="88.737,48.277 87.937,49.42 87.937,47.779 88.737,46.641     "
   id="polygon8357" />
				<polygon
   fill="#CDCCCD"
   points="81.149,46.461 80.349,47.604 80.349,45.967 81.149,44.828     "
   id="polygon8359" />
				<polyline
   fill="#2182B9"
   points="76.499,20.607 76.499,45.072 89.062,48.266 89.062,23.799 76.499,20.607     "
   id="polyline8361" />
				<polygon
   fill="#CDCCCD"
   points="89.062,23.799 89.062,48.266 98.949,38.379 98.949,13.92     "
   id="polygon8363" />
				<path
   fill="#CDCCCD"
   d="M86.452,40.678c0,0.039-0.026,0.064-0.065,0.055l-2.946-0.746c-0.037-0.01-0.068-0.051-0.068-0.09      v-0.842c0-0.039,0.031-0.064,0.068-0.053l2.946,0.748c0.039,0.006,0.065,0.047,0.065,0.084V40.678"
   id="path8365" />
				<path
   fill="#FFFFFF"
   d="M84.258,26.951c0,0.039-0.029,0.066-0.068,0.055l-2.944-0.748c-0.039-0.008-0.068-0.047-0.068-0.088      v-0.842c0-0.037,0.029-0.061,0.068-0.049l2.944,0.744c0.039,0.008,0.068,0.047,0.068,0.086V26.951"
   id="path8367" />
				<path
   fill="#FFFFFF"
   d="M86.452,42.582c0,0.035-0.026,0.064-0.065,0.055l-2.946-0.746c-0.037-0.012-0.068-0.051-0.068-0.088      v-0.842c0-0.039,0.031-0.064,0.068-0.053l2.946,0.742c0.039,0.014,0.065,0.053,0.065,0.09V42.582"
   id="path8369" />
				<path
   fill="#FFFFFF"
   d="M81.987,38.881c0-0.037-0.031-0.078-0.07-0.092l-2.942-0.742c-0.039-0.012-0.071,0.014-0.071,0.053      v0.844c0,0.035,0.032,0.076,0.071,0.086l2.942,0.744c0.039,0.012,0.07-0.014,0.07-0.051V38.881"
   id="path8371" />
				<path
   fill="#FFFFFF"
   d="M86.452,44.521c0,0.037-0.026,0.064-0.065,0.055L83.44,43.83c-0.037-0.008-0.068-0.051-0.068-0.088      v-0.844c0-0.037,0.031-0.062,0.068-0.053l2.946,0.748c0.039,0.008,0.065,0.047,0.065,0.084V44.521"
   id="path8373" />
				<path
   fill="#CDCCCD"
   d="M81.987,42.725c0-0.039-0.031-0.078-0.07-0.09l-2.942-0.744c-0.039-0.012-0.071,0.016-0.071,0.053v0.846      c0,0.033,0.032,0.074,0.071,0.084l2.942,0.744c0.039,0.012,0.07-0.014,0.07-0.049V42.725"
   id="path8375" />
				<path
   fill="#FFFFFF"
   d="M81.987,40.785c0-0.041-0.031-0.08-0.07-0.092l-2.942-0.746c-0.039-0.006-0.071,0.018-0.071,0.057v0.842      c0,0.039,0.032,0.078,0.071,0.088l2.942,0.742c0.039,0.01,0.07-0.01,0.07-0.049V40.785"
   id="path8377" />
			</g>
			<polygon
   fill="#FFFFFF"
   points="98.935,14.047 86.618,11.365 76.514,20.66 89.017,23.805    "
   id="polygon8379" />
		</g>
		<g
   id="g8381">
			<path
   fill="#FFFFFF"
   d="M91.167,43.793c0-0.27-0.142-0.354-0.312-0.184s-0.311,0.525-0.311,0.795s0.14,0.352,0.311,0.182     C91.025,44.418,91.167,44.062,91.167,43.793z"
   id="path8383" />
			<path
   fill="#FFFFFF"
   d="M92.063,42.914c0-0.271-0.14-0.354-0.311-0.184c-0.174,0.168-0.312,0.523-0.312,0.793     s0.139,0.354,0.312,0.184C91.924,43.539,92.063,43.184,92.063,42.914z"
   id="path8385" />
			<path
   fill="#FFFFFF"
   d="M92.962,42.031c0-0.27-0.14-0.35-0.311-0.182c-0.174,0.168-0.312,0.523-0.312,0.793     c0,0.271,0.139,0.352,0.312,0.186C92.822,42.658,92.962,42.303,92.962,42.031z"
   id="path8387" />
			<path
   fill="#FFFFFF"
   d="M93.86,41.152c0-0.27-0.14-0.352-0.312-0.182c-0.172,0.168-0.311,0.523-0.311,0.791     c0,0.273,0.139,0.354,0.311,0.186C93.721,41.777,93.86,41.422,93.86,41.152z"
   id="path8389" />
			<path
   fill="#FFFFFF"
   d="M94.759,40.273c0-0.271-0.143-0.354-0.312-0.186c-0.174,0.17-0.311,0.525-0.311,0.795     s0.137,0.352,0.311,0.182C94.616,40.898,94.759,40.543,94.759,40.273z"
   id="path8391" />
			<path
   fill="#FFFFFF"
   d="M95.654,39.393c0-0.27-0.14-0.354-0.31-0.184c-0.174,0.17-0.312,0.523-0.312,0.795     c0,0.27,0.139,0.352,0.312,0.182C95.515,40.018,95.654,39.662,95.654,39.393z"
   id="path8393" />
			<path
   fill="#FFFFFF"
   d="M96.553,38.512c0-0.268-0.14-0.352-0.312-0.184c-0.171,0.168-0.31,0.525-0.31,0.795     s0.139,0.354,0.31,0.182C96.413,39.137,96.553,38.783,96.553,38.512z"
   id="path8395" />
			<path
   fill="#FFFFFF"
   d="M97.451,37.631c0-0.268-0.141-0.35-0.312-0.182s-0.312,0.523-0.312,0.795c0,0.268,0.14,0.35,0.312,0.182     S97.451,37.902,97.451,37.631z"
   id="path8397" />
			<path
   fill="#FFFFFF"
   d="M91.167,42.5c0-0.27-0.142-0.352-0.312-0.182c-0.171,0.166-0.311,0.521-0.311,0.793     c0,0.27,0.14,0.35,0.311,0.184C91.025,43.125,91.167,42.77,91.167,42.5z"
   id="path8399" />
			<path
   fill="#FFFFFF"
   d="M92.063,41.621c0-0.271-0.14-0.354-0.311-0.184c-0.174,0.168-0.312,0.523-0.312,0.793     c0,0.271,0.139,0.352,0.312,0.184C91.924,42.246,92.063,41.891,92.063,41.621z"
   id="path8401" />
			<path
   fill="#FFFFFF"
   d="M92.962,40.738c0-0.27-0.14-0.352-0.311-0.182c-0.174,0.168-0.312,0.523-0.312,0.795     c0,0.27,0.139,0.352,0.312,0.182C92.822,41.365,92.962,41.01,92.962,40.738z"
   id="path8403" />
			<path
   fill="#FFFFFF"
   d="M93.86,39.859c0-0.27-0.14-0.352-0.312-0.184c-0.172,0.168-0.311,0.523-0.311,0.793     c0,0.271,0.139,0.352,0.311,0.184C93.721,40.484,93.86,40.131,93.86,39.859z"
   id="path8405" />
			<path
   fill="#FFFFFF"
   d="M94.759,38.979c0-0.27-0.143-0.352-0.312-0.184c-0.174,0.17-0.311,0.525-0.311,0.795     s0.137,0.352,0.311,0.184C94.616,39.605,94.759,39.248,94.759,38.979z"
   id="path8407" />
			<path
   fill="#FFFFFF"
   d="M95.654,38.1c0-0.271-0.14-0.352-0.31-0.184c-0.174,0.168-0.312,0.523-0.312,0.795     c0,0.27,0.139,0.352,0.312,0.182C95.515,38.725,95.654,38.369,95.654,38.1z"
   id="path8409" />
			<path
   fill="#FFFFFF"
   d="M96.553,37.219c0-0.27-0.14-0.354-0.312-0.182c-0.171,0.168-0.31,0.523-0.31,0.791     c0,0.271,0.139,0.354,0.31,0.184C96.413,37.846,96.553,37.488,96.553,37.219z"
   id="path8411" />
			<path
   fill="#FFFFFF"
   d="M97.451,36.34c0-0.271-0.141-0.354-0.312-0.184c-0.172,0.168-0.312,0.523-0.312,0.793     c0,0.271,0.14,0.354,0.312,0.184S97.451,36.607,97.451,36.34z"
   id="path8413" />
			<path
   fill="#FFFFFF"
   d="M91.167,41.207c0-0.27-0.142-0.352-0.312-0.184c-0.171,0.17-0.311,0.525-0.311,0.793     c0,0.27,0.14,0.354,0.311,0.186C91.025,41.832,91.167,41.477,91.167,41.207z"
   id="path8415" />
			<path
   fill="#FFFFFF"
   d="M92.063,40.328c0-0.271-0.14-0.354-0.311-0.186c-0.174,0.17-0.312,0.525-0.312,0.795     s0.139,0.352,0.312,0.184C91.924,40.951,92.063,40.598,92.063,40.328z"
   id="path8417" />
			<path
   fill="#FFFFFF"
   d="M92.962,39.447c0-0.271-0.14-0.352-0.311-0.184c-0.174,0.168-0.312,0.525-0.312,0.793     c0,0.271,0.139,0.352,0.312,0.184C92.822,40.072,92.962,39.717,92.962,39.447z"
   id="path8419" />
			<path
   fill="#FFFFFF"
   d="M93.86,38.566c0-0.271-0.14-0.352-0.312-0.184c-0.172,0.168-0.311,0.523-0.311,0.793     c0,0.271,0.139,0.354,0.311,0.184C93.721,39.191,93.86,38.836,93.86,38.566z"
   id="path8421" />
			<path
   fill="#FFFFFF"
   d="M94.759,37.686c0-0.27-0.143-0.35-0.312-0.182c-0.174,0.168-0.311,0.523-0.311,0.793     c0,0.271,0.137,0.352,0.311,0.184C94.616,38.312,94.759,37.957,94.759,37.686z"
   id="path8423" />
			<path
   fill="#FFFFFF"
   d="M95.654,36.807c0-0.271-0.14-0.352-0.31-0.186c-0.174,0.17-0.312,0.527-0.312,0.797     c0,0.268,0.139,0.352,0.312,0.184C95.515,37.432,95.654,37.076,95.654,36.807z"
   id="path8425" />
			<path
   fill="#FFFFFF"
   d="M96.553,35.926c0-0.27-0.14-0.352-0.312-0.184c-0.171,0.17-0.31,0.523-0.31,0.795     c0,0.27,0.139,0.352,0.31,0.182C96.413,36.551,96.553,36.197,96.553,35.926z"
   id="path8427" />
			<path
   fill="#FFFFFF"
   d="M97.451,35.045c0-0.27-0.141-0.352-0.312-0.182c-0.172,0.168-0.312,0.523-0.312,0.793     s0.14,0.354,0.312,0.184S97.451,35.316,97.451,35.045z"
   id="path8429" />
		</g>
	</g>
	<rect
   x="76.499"
   y="11.365"
   fill="none"
   width="22.45"
   height="38.15"
   id="rect8431" />
	<g
   id="g8433">
		<g
   id="g8435">
			<g
   id="g8437">
				<polygon
   fill="#2182B9"
   points="210.556,47.689 207.859,47.016 207.859,45.377 210.556,46.055     "
   id="polygon8439" />
				<polygon
   fill="#2182B9"
   points="218.152,49.516 215.452,48.844 215.452,47.203 218.152,47.879     "
   id="polygon8441" />
				<polygon
   fill="#CDCCCD"
   points="218.974,48.277 218.173,49.42 218.173,47.779 218.974,46.641     "
   id="polygon8443" />
				<polygon
   fill="#CDCCCD"
   points="211.386,46.461 210.585,47.604 210.585,45.967 211.386,44.828     "
   id="polygon8445" />
				<polyline
   fill="#2182B9"
   points="206.736,20.607 206.736,45.072 219.299,48.266 219.299,23.799 206.736,20.607     "
   id="polyline8447" />
				<polygon
   fill="#CDCCCD"
   points="219.299,23.799 219.299,48.266 229.185,38.379 229.185,13.92     "
   id="polygon8449" />
				<path
   fill="#CDCCCD"
   d="M216.689,40.678c0,0.039-0.026,0.064-0.065,0.055l-2.946-0.746c-0.037-0.01-0.068-0.051-0.068-0.09      v-0.842c0-0.039,0.031-0.064,0.068-0.053l2.946,0.748c0.039,0.006,0.065,0.047,0.065,0.084V40.678"
   id="path8451" />
				<path
   fill="#FFFFFF"
   d="M214.495,26.951c0,0.039-0.029,0.066-0.068,0.055l-2.944-0.748c-0.039-0.008-0.068-0.047-0.068-0.088      v-0.842c0-0.037,0.029-0.061,0.068-0.049l2.944,0.744c0.039,0.008,0.068,0.047,0.068,0.086V26.951"
   id="path8453" />
				<path
   fill="#FFFFFF"
   d="M216.689,42.582c0,0.035-0.026,0.064-0.065,0.055l-2.946-0.746c-0.037-0.012-0.068-0.051-0.068-0.088      v-0.842c0-0.039,0.031-0.064,0.068-0.053l2.946,0.742c0.039,0.014,0.065,0.053,0.065,0.09V42.582"
   id="path8455" />
				<path
   fill="#FFFFFF"
   d="M212.224,38.881c0-0.037-0.031-0.078-0.07-0.092l-2.942-0.742c-0.039-0.012-0.071,0.014-0.071,0.053      v0.844c0,0.035,0.032,0.076,0.071,0.086l2.942,0.744c0.039,0.012,0.07-0.014,0.07-0.051V38.881"
   id="path8457" />
				<path
   fill="#FFFFFF"
   d="M216.689,44.521c0,0.037-0.026,0.064-0.065,0.055l-2.946-0.746c-0.037-0.008-0.068-0.051-0.068-0.088      v-0.844c0-0.037,0.031-0.062,0.068-0.053l2.946,0.748c0.039,0.008,0.065,0.047,0.065,0.084V44.521"
   id="path8459" />
				<path
   fill="#CDCCCD"
   d="M212.224,42.725c0-0.039-0.031-0.078-0.07-0.09l-2.942-0.744c-0.039-0.012-0.071,0.016-0.071,0.053      v0.846c0,0.033,0.032,0.074,0.071,0.084l2.942,0.744c0.039,0.012,0.07-0.014,0.07-0.049V42.725"
   id="path8461" />
				<path
   fill="#FFFFFF"
   d="M212.224,40.785c0-0.041-0.031-0.08-0.07-0.092l-2.942-0.746c-0.039-0.006-0.071,0.018-0.071,0.057      v0.842c0,0.039,0.032,0.078,0.071,0.088l2.942,0.742c0.039,0.01,0.07-0.01,0.07-0.049V40.785"
   id="path8463" />
			</g>
			<polygon
   fill="#FFFFFF"
   points="229.172,14.047 216.855,11.365 206.75,20.66 219.253,23.805    "
   id="polygon8465" />
		</g>
		<g
   id="g8467">
			<path
   fill="#FFFFFF"
   d="M221.404,43.793c0-0.27-0.142-0.354-0.312-0.184s-0.311,0.525-0.311,0.795s0.14,0.352,0.311,0.182     C221.262,44.418,221.404,44.062,221.404,43.793z"
   id="path8469" />
			<path
   fill="#FFFFFF"
   d="M222.3,42.914c0-0.271-0.14-0.354-0.311-0.184c-0.174,0.168-0.312,0.523-0.312,0.793     s0.139,0.354,0.312,0.184C222.161,43.539,222.3,43.184,222.3,42.914z"
   id="path8471" />
			<path
   fill="#FFFFFF"
   d="M223.199,42.031c0-0.27-0.14-0.35-0.311-0.182c-0.174,0.168-0.312,0.523-0.312,0.793     c0,0.271,0.139,0.352,0.312,0.186C223.059,42.658,223.199,42.303,223.199,42.031z"
   id="path8473" />
			<path
   fill="#FFFFFF"
   d="M224.097,41.152c0-0.27-0.14-0.352-0.312-0.182c-0.172,0.168-0.311,0.523-0.311,0.791     c0,0.273,0.139,0.354,0.311,0.186C223.958,41.777,224.097,41.422,224.097,41.152z"
   id="path8475" />
			<path
   fill="#FFFFFF"
   d="M224.996,40.273c0-0.271-0.143-0.354-0.312-0.186c-0.174,0.17-0.311,0.525-0.311,0.795     s0.137,0.352,0.311,0.182C224.853,40.898,224.996,40.543,224.996,40.273z"
   id="path8477" />
			<path
   fill="#FFFFFF"
   d="M225.891,39.393c0-0.27-0.14-0.354-0.31-0.184c-0.174,0.17-0.312,0.523-0.312,0.795     c0,0.27,0.139,0.352,0.312,0.182C225.751,40.018,225.891,39.662,225.891,39.393z"
   id="path8479" />
			<path
   fill="#FFFFFF"
   d="M226.79,38.512c0-0.268-0.14-0.352-0.312-0.184c-0.171,0.168-0.31,0.525-0.31,0.795     s0.139,0.354,0.31,0.182C226.65,39.137,226.79,38.783,226.79,38.512z"
   id="path8481" />
			<path
   fill="#FFFFFF"
   d="M227.688,37.631c0-0.268-0.142-0.35-0.312-0.182c-0.173,0.168-0.312,0.523-0.312,0.795     c0,0.268,0.14,0.35,0.312,0.182C227.546,38.258,227.688,37.902,227.688,37.631z"
   id="path8483" />
			<path
   fill="#FFFFFF"
   d="M221.404,42.5c0-0.27-0.142-0.352-0.312-0.182c-0.171,0.166-0.311,0.521-0.311,0.793     c0,0.27,0.14,0.35,0.311,0.184C221.262,43.125,221.404,42.77,221.404,42.5z"
   id="path8485" />
			<path
   fill="#FFFFFF"
   d="M222.3,41.621c0-0.271-0.14-0.354-0.311-0.184c-0.174,0.168-0.312,0.523-0.312,0.793     c0,0.271,0.139,0.352,0.312,0.184C222.161,42.246,222.3,41.891,222.3,41.621z"
   id="path8487" />
			<path
   fill="#FFFFFF"
   d="M223.199,40.738c0-0.27-0.14-0.352-0.311-0.182c-0.174,0.168-0.312,0.523-0.312,0.795     c0,0.27,0.139,0.352,0.312,0.182C223.059,41.365,223.199,41.01,223.199,40.738z"
   id="path8489" />
			<path
   fill="#FFFFFF"
   d="M224.097,39.859c0-0.27-0.14-0.352-0.312-0.184c-0.172,0.168-0.311,0.523-0.311,0.793     c0,0.271,0.139,0.352,0.311,0.184C223.958,40.484,224.097,40.131,224.097,39.859z"
   id="path8491" />
			<path
   fill="#FFFFFF"
   d="M224.996,38.979c0-0.27-0.143-0.352-0.312-0.184c-0.174,0.17-0.311,0.525-0.311,0.795     s0.137,0.352,0.311,0.184C224.853,39.605,224.996,39.248,224.996,38.979z"
   id="path8493" />
			<path
   fill="#FFFFFF"
   d="M225.891,38.1c0-0.271-0.14-0.352-0.31-0.184c-0.174,0.168-0.312,0.523-0.312,0.795     c0,0.27,0.139,0.352,0.312,0.182C225.751,38.725,225.891,38.369,225.891,38.1z"
   id="path8495" />
			<path
   fill="#FFFFFF"
   d="M226.79,37.219c0-0.27-0.14-0.354-0.312-0.182c-0.171,0.168-0.31,0.523-0.31,0.791     c0,0.271,0.139,0.354,0.31,0.184C226.65,37.846,226.79,37.488,226.79,37.219z"
   id="path8497" />
			<path
   fill="#FFFFFF"
   d="M227.688,36.34c0-0.271-0.142-0.354-0.312-0.184c-0.173,0.168-0.312,0.523-0.312,0.793     c0,0.271,0.14,0.354,0.312,0.184C227.546,36.963,227.688,36.607,227.688,36.34z"
   id="path8499" />
			<path
   fill="#FFFFFF"
   d="M221.404,41.207c0-0.27-0.142-0.352-0.312-0.184c-0.171,0.17-0.311,0.525-0.311,0.793     c0,0.27,0.14,0.354,0.311,0.186C221.262,41.832,221.404,41.477,221.404,41.207z"
   id="path8501" />
			<path
   fill="#FFFFFF"
   d="M222.3,40.328c0-0.271-0.14-0.354-0.311-0.186c-0.174,0.17-0.312,0.525-0.312,0.795     s0.139,0.352,0.312,0.184C222.161,40.951,222.3,40.598,222.3,40.328z"
   id="path8503" />
			<path
   fill="#FFFFFF"
   d="M223.199,39.447c0-0.271-0.14-0.352-0.311-0.184c-0.174,0.168-0.312,0.525-0.312,0.793     c0,0.271,0.139,0.352,0.312,0.184C223.059,40.072,223.199,39.717,223.199,39.447z"
   id="path8505" />
			<path
   fill="#FFFFFF"
   d="M224.097,38.566c0-0.271-0.14-0.352-0.312-0.184c-0.172,0.168-0.311,0.523-0.311,0.793     c0,0.271,0.139,0.354,0.311,0.184C223.958,39.191,224.097,38.836,224.097,38.566z"
   id="path8507" />
			<path
   fill="#FFFFFF"
   d="M224.996,37.686c0-0.27-0.143-0.35-0.312-0.182c-0.174,0.168-0.311,0.523-0.311,0.793     c0,0.271,0.137,0.352,0.311,0.184C224.853,38.312,224.996,37.957,224.996,37.686z"
   id="path8509" />
			<path
   fill="#FFFFFF"
   d="M225.891,36.807c0-0.271-0.14-0.352-0.31-0.186c-0.174,0.17-0.312,0.527-0.312,0.797     c0,0.268,0.139,0.352,0.312,0.184C225.751,37.432,225.891,37.076,225.891,36.807z"
   id="path8511" />
			<path
   fill="#FFFFFF"
   d="M226.79,35.926c0-0.27-0.14-0.352-0.312-0.184c-0.171,0.17-0.31,0.523-0.31,0.795     c0,0.27,0.139,0.352,0.31,0.182C226.65,36.551,226.79,36.197,226.79,35.926z"
   id="path8513" />
			<path
   fill="#FFFFFF"
   d="M227.688,35.045c0-0.27-0.142-0.352-0.312-0.182c-0.173,0.168-0.312,0.523-0.312,0.793     s0.14,0.354,0.312,0.184C227.546,35.67,227.688,35.316,227.688,35.045z"
   id="path8515" />
		</g>
	</g>
	<rect
   x="206.736"
   y="11.365"
   fill="none"
   width="22.449"
   height="38.15"
   id="rect8517" />
	<g
   id="g8519">
		<g
   id="g8521">
			<g
   id="g8523">
				<polygon
   fill="#2182B9"
   points="351.429,47.689 348.732,47.016 348.732,45.377 351.429,46.055     "
   id="polygon8525" />
				<polygon
   fill="#2182B9"
   points="359.025,49.516 356.325,48.844 356.325,47.203 359.025,47.879     "
   id="polygon8527" />
				<polygon
   fill="#CDCCCD"
   points="359.847,48.277 359.046,49.42 359.046,47.779 359.847,46.641     "
   id="polygon8529" />
				<polygon
   fill="#CDCCCD"
   points="352.259,46.461 351.458,47.604 351.458,45.967 352.259,44.828     "
   id="polygon8531" />
				<polyline
   fill="#2182B9"
   points="347.609,20.607 347.609,45.072 360.172,48.266 360.172,23.799 347.609,20.607     "
   id="polyline8533" />
				<polygon
   fill="#CDCCCD"
   points="360.172,23.799 360.172,48.266 370.058,38.379 370.058,13.92     "
   id="polygon8535" />
				<path
   fill="#CDCCCD"
   d="M357.562,40.678c0,0.039-0.026,0.064-0.065,0.055l-2.946-0.746c-0.037-0.01-0.068-0.051-0.068-0.09      v-0.842c0-0.039,0.031-0.064,0.068-0.053l2.946,0.748c0.039,0.006,0.065,0.047,0.065,0.084V40.678"
   id="path8537" />
				<path
   fill="#FFFFFF"
   d="M355.368,26.951c0,0.039-0.029,0.066-0.068,0.055l-2.944-0.748c-0.039-0.008-0.068-0.047-0.068-0.088      v-0.842c0-0.037,0.029-0.061,0.068-0.049l2.944,0.744c0.039,0.008,0.068,0.047,0.068,0.086V26.951"
   id="path8539" />
				<path
   fill="#FFFFFF"
   d="M357.562,42.582c0,0.035-0.026,0.064-0.065,0.055l-2.946-0.746c-0.037-0.012-0.068-0.051-0.068-0.088      v-0.842c0-0.039,0.031-0.064,0.068-0.053l2.946,0.742c0.039,0.014,0.065,0.053,0.065,0.09V42.582"
   id="path8541" />
				<path
   fill="#FFFFFF"
   d="M353.097,38.881c0-0.037-0.031-0.078-0.07-0.092l-2.942-0.742c-0.039-0.012-0.071,0.014-0.071,0.053      v0.844c0,0.035,0.032,0.076,0.071,0.086l2.942,0.744c0.039,0.012,0.07-0.014,0.07-0.051V38.881"
   id="path8543" />
				<path
   fill="#FFFFFF"
   d="M357.562,44.521c0,0.037-0.026,0.064-0.065,0.055l-2.946-0.746c-0.037-0.008-0.068-0.051-0.068-0.088      v-0.844c0-0.037,0.031-0.062,0.068-0.053l2.946,0.748c0.039,0.008,0.065,0.047,0.065,0.084V44.521"
   id="path8545" />
				<path
   fill="#CDCCCD"
   d="M353.097,42.725c0-0.039-0.031-0.078-0.07-0.09l-2.942-0.744c-0.039-0.012-0.071,0.016-0.071,0.053      v0.846c0,0.033,0.032,0.074,0.071,0.084l2.942,0.744c0.039,0.012,0.07-0.014,0.07-0.049V42.725"
   id="path8547" />
				<path
   fill="#FFFFFF"
   d="M353.097,40.785c0-0.041-0.031-0.08-0.07-0.092l-2.942-0.746c-0.039-0.006-0.071,0.018-0.071,0.057      v0.842c0,0.039,0.032,0.078,0.071,0.088l2.942,0.742c0.039,0.01,0.07-0.01,0.07-0.049V40.785"
   id="path8549" />
			</g>
			<polygon
   fill="#FFFFFF"
   points="370.045,14.047 357.728,11.365 347.624,20.66 360.126,23.805    "
   id="polygon8551" />
		</g>
		<g
   id="g8553">
			<path
   fill="#FFFFFF"
   d="M362.277,43.793c0-0.27-0.142-0.354-0.312-0.184s-0.311,0.525-0.311,0.795s0.14,0.352,0.311,0.182     C362.135,44.418,362.277,44.062,362.277,43.793z"
   id="path8555" />
			<path
   fill="#FFFFFF"
   d="M363.173,42.914c0-0.271-0.14-0.354-0.311-0.184c-0.174,0.168-0.312,0.523-0.312,0.793     s0.139,0.354,0.312,0.184C363.034,43.539,363.173,43.184,363.173,42.914z"
   id="path8557" />
			<path
   fill="#FFFFFF"
   d="M364.072,42.031c0-0.27-0.14-0.35-0.311-0.182c-0.174,0.168-0.312,0.523-0.312,0.793     c0,0.271,0.139,0.352,0.312,0.186C363.932,42.658,364.072,42.303,364.072,42.031z"
   id="path8559" />
			<path
   fill="#FFFFFF"
   d="M364.97,41.152c0-0.27-0.14-0.352-0.312-0.182c-0.172,0.168-0.311,0.523-0.311,0.791     c0,0.273,0.139,0.354,0.311,0.186C364.831,41.777,364.97,41.422,364.97,41.152z"
   id="path8561" />
			<path
   fill="#FFFFFF"
   d="M365.869,40.273c0-0.271-0.143-0.354-0.312-0.186c-0.174,0.17-0.311,0.525-0.311,0.795     s0.137,0.352,0.311,0.182C365.726,40.898,365.869,40.543,365.869,40.273z"
   id="path8563" />
			<path
   fill="#FFFFFF"
   d="M366.764,39.393c0-0.27-0.14-0.354-0.31-0.184c-0.174,0.17-0.312,0.523-0.312,0.795     c0,0.27,0.139,0.352,0.312,0.182C366.625,40.018,366.764,39.662,366.764,39.393z"
   id="path8565" />
			<path
   fill="#FFFFFF"
   d="M367.663,38.512c0-0.268-0.14-0.352-0.312-0.184c-0.171,0.168-0.31,0.525-0.31,0.795     s0.139,0.354,0.31,0.182C367.523,39.137,367.663,38.783,367.663,38.512z"
   id="path8567" />
			<path
   fill="#FFFFFF"
   d="M368.561,37.631c0-0.268-0.142-0.35-0.312-0.182c-0.173,0.168-0.312,0.523-0.312,0.795     c0,0.268,0.14,0.35,0.312,0.182C368.419,38.258,368.561,37.902,368.561,37.631z"
   id="path8569" />
			<path
   fill="#FFFFFF"
   d="M362.277,42.5c0-0.27-0.142-0.352-0.312-0.182c-0.171,0.166-0.311,0.521-0.311,0.793     c0,0.27,0.14,0.35,0.311,0.184C362.135,43.125,362.277,42.77,362.277,42.5z"
   id="path8571" />
			<path
   fill="#FFFFFF"
   d="M363.173,41.621c0-0.271-0.14-0.354-0.311-0.184c-0.174,0.168-0.312,0.523-0.312,0.793     c0,0.271,0.139,0.352,0.312,0.184C363.034,42.246,363.173,41.891,363.173,41.621z"
   id="path8573" />
			<path
   fill="#FFFFFF"
   d="M364.072,40.738c0-0.27-0.14-0.352-0.311-0.182c-0.174,0.168-0.312,0.523-0.312,0.795     c0,0.27,0.139,0.352,0.312,0.182C363.932,41.365,364.072,41.01,364.072,40.738z"
   id="path8575" />
			<path
   fill="#FFFFFF"
   d="M364.97,39.859c0-0.27-0.14-0.352-0.312-0.184c-0.172,0.168-0.311,0.523-0.311,0.793     c0,0.271,0.139,0.352,0.311,0.184C364.831,40.484,364.97,40.131,364.97,39.859z"
   id="path8577" />
			<path
   fill="#FFFFFF"
   d="M365.869,38.979c0-0.27-0.143-0.352-0.312-0.184c-0.174,0.17-0.311,0.525-0.311,0.795     s0.137,0.352,0.311,0.184C365.726,39.605,365.869,39.248,365.869,38.979z"
   id="path8579" />
			<path
   fill="#FFFFFF"
   d="M366.764,38.1c0-0.271-0.14-0.352-0.31-0.184c-0.174,0.168-0.312,0.523-0.312,0.795     c0,0.27,0.139,0.352,0.312,0.182C366.625,38.725,366.764,38.369,366.764,38.1z"
   id="path8581" />
			<path
   fill="#FFFFFF"
   d="M367.663,37.219c0-0.27-0.14-0.354-0.312-0.182c-0.171,0.168-0.31,0.523-0.31,0.791     c0,0.271,0.139,0.354,0.31,0.184C367.523,37.846,367.663,37.488,367.663,37.219z"
   id="path8583" />
			<path
   fill="#FFFFFF"
   d="M368.561,36.34c0-0.271-0.142-0.354-0.312-0.184c-0.173,0.168-0.312,0.523-0.312,0.793     c0,0.271,0.14,0.354,0.312,0.184C368.419,36.963,368.561,36.607,368.561,36.34z"
   id="path8585" />
			<path
   fill="#FFFFFF"
   d="M362.277,41.207c0-0.27-0.142-0.352-0.312-0.184c-0.171,0.17-0.311,0.525-0.311,0.793     c0,0.27,0.14,0.354,0.311,0.186C362.135,41.832,362.277,41.477,362.277,41.207z"
   id="path8587" />
			<path
   fill="#FFFFFF"
   d="M363.173,40.328c0-0.271-0.14-0.354-0.311-0.186c-0.174,0.17-0.312,0.525-0.312,0.795     s0.139,0.352,0.312,0.184C363.034,40.951,363.173,40.598,363.173,40.328z"
   id="path8589" />
			<path
   fill="#FFFFFF"
   d="M364.072,39.447c0-0.271-0.14-0.352-0.311-0.184c-0.174,0.168-0.312,0.525-0.312,0.793     c0,0.271,0.139,0.352,0.312,0.184C363.932,40.072,364.072,39.717,364.072,39.447z"
   id="path8591" />
			<path
   fill="#FFFFFF"
   d="M364.97,38.566c0-0.271-0.14-0.352-0.312-0.184c-0.172,0.168-0.311,0.523-0.311,0.793     c0,0.271,0.139,0.354,0.311,0.184C364.831,39.191,364.97,38.836,364.97,38.566z"
   id="path8593" />
			<path
   fill="#FFFFFF"
   d="M365.869,37.686c0-0.27-0.143-0.35-0.312-0.182c-0.174,0.168-0.311,0.523-0.311,0.793     c0,0.271,0.137,0.352,0.311,0.184C365.726,38.312,365.869,37.957,365.869,37.686z"
   id="path8595" />
			<path
   fill="#FFFFFF"
   d="M366.764,36.807c0-0.271-0.14-0.352-0.31-0.186c-0.174,0.17-0.312,0.527-0.312,0.797     c0,0.268,0.139,0.352,0.312,0.184C366.625,37.432,366.764,37.076,366.764,36.807z"
   id="path8597" />
			<path
   fill="#FFFFFF"
   d="M367.663,35.926c0-0.27-0.14-0.352-0.312-0.184c-0.171,0.17-0.31,0.523-0.31,0.795     c0,0.27,0.139,0.352,0.31,0.182C367.523,36.551,367.663,36.197,367.663,35.926z"
   id="path8599" />
			<path
   fill="#FFFFFF"
   d="M368.561,35.045c0-0.27-0.142-0.352-0.312-0.182c-0.173,0.168-0.312,0.523-0.312,0.793     s0.14,0.354,0.312,0.184C368.419,35.67,368.561,35.316,368.561,35.045z"
   id="path8601" />
		</g>
	</g>
	<rect
   x="347.609"
   y="11.365"
   fill="none"
   width="22.449"
   height="38.15"
   id="rect8603" />
	<g
   id="g8605">
		<g
   id="g8607">
			<g
   id="g8609">
				<polygon
   fill="#2182B9"
   points="329.572,164.182 326.875,163.508 326.875,161.869 329.572,162.547     "
   id="polygon8611" />
				<polygon
   fill="#2182B9"
   points="337.167,166.008 334.467,165.336 334.467,163.695 337.167,164.371     "
   id="polygon8613" />
				<polygon
   fill="#CDCCCD"
   points="337.99,164.77 337.189,165.912 337.189,164.271 337.99,163.133     "
   id="polygon8615" />
				<polygon
   fill="#CDCCCD"
   points="330.402,162.953 329.601,164.096 329.601,162.459 330.402,161.32     "
   id="polygon8617" />
				<polyline
   fill="#2182B9"
   points="325.751,137.1 325.751,161.564 338.315,164.758 338.315,140.291 325.751,137.1     "
   id="polyline8619" />
				<polygon
   fill="#CDCCCD"
   points="338.315,140.291 338.315,164.758 348.201,154.871 348.201,130.412     "
   id="polygon8621" />
				<path
   fill="#CDCCCD"
   d="M335.705,157.17c0,0.039-0.026,0.064-0.065,0.055l-2.946-0.746c-0.037-0.01-0.068-0.051-0.068-0.09      v-0.842c0-0.039,0.031-0.064,0.068-0.053l2.946,0.748c0.039,0.006,0.065,0.047,0.065,0.084V157.17"
   id="path8623" />
				<path
   fill="#FFFFFF"
   d="M333.51,143.443c0,0.039-0.029,0.066-0.068,0.055l-2.944-0.748c-0.039-0.008-0.068-0.047-0.068-0.088      v-0.842c0-0.037,0.029-0.061,0.068-0.049l2.944,0.744c0.039,0.008,0.068,0.047,0.068,0.086V143.443"
   id="path8625" />
				<path
   fill="#FFFFFF"
   d="M335.705,159.074c0,0.035-0.026,0.064-0.065,0.055l-2.946-0.746c-0.037-0.012-0.068-0.051-0.068-0.088      v-0.842c0-0.039,0.031-0.064,0.068-0.053l2.946,0.742c0.039,0.014,0.065,0.053,0.065,0.09V159.074"
   id="path8627" />
				<path
   fill="#FFFFFF"
   d="M331.24,155.373c0-0.037-0.031-0.078-0.07-0.092l-2.942-0.742c-0.039-0.012-0.071,0.014-0.071,0.053      v0.844c0,0.035,0.032,0.076,0.071,0.086l2.942,0.744c0.039,0.012,0.07-0.014,0.07-0.051V155.373"
   id="path8629" />
				<path
   fill="#FFFFFF"
   d="M335.705,161.014c0,0.037-0.026,0.064-0.065,0.055l-2.946-0.746c-0.037-0.008-0.068-0.051-0.068-0.088      v-0.844c0-0.037,0.031-0.062,0.068-0.053l2.946,0.748c0.039,0.008,0.065,0.047,0.065,0.084V161.014"
   id="path8631" />
				<path
   fill="#CDCCCD"
   d="M331.24,159.217c0-0.039-0.031-0.078-0.07-0.09l-2.942-0.744c-0.039-0.012-0.071,0.016-0.071,0.053      v0.846c0,0.033,0.032,0.074,0.071,0.084l2.942,0.744c0.039,0.012,0.07-0.014,0.07-0.049V159.217"
   id="path8633" />
				<path
   fill="#FFFFFF"
   d="M331.24,157.277c0-0.041-0.031-0.08-0.07-0.092l-2.942-0.746c-0.039-0.006-0.071,0.018-0.071,0.057      v0.842c0,0.039,0.032,0.078,0.071,0.088l2.942,0.742c0.039,0.01,0.07-0.01,0.07-0.049V157.277"
   id="path8635" />
			</g>
			<polygon
   fill="#FFFFFF"
   points="348.188,130.539 335.871,127.857 325.766,137.152 338.269,140.297    "
   id="polygon8637" />
		</g>
		<g
   id="g8639">
			<path
   fill="#FFFFFF"
   d="M340.419,160.285c0-0.27-0.142-0.354-0.312-0.184s-0.311,0.525-0.311,0.795s0.14,0.352,0.311,0.182     C340.278,160.91,340.419,160.555,340.419,160.285z"
   id="path8641" />
			<path
   fill="#FFFFFF"
   d="M341.316,159.406c0-0.271-0.14-0.354-0.311-0.184c-0.174,0.168-0.312,0.523-0.312,0.793     s0.139,0.354,0.312,0.184C341.176,160.031,341.316,159.676,341.316,159.406z"
   id="path8643" />
			<path
   fill="#FFFFFF"
   d="M342.214,158.523c0-0.27-0.14-0.35-0.311-0.182c-0.174,0.168-0.312,0.523-0.312,0.793     c0,0.271,0.139,0.352,0.312,0.186C342.075,159.15,342.214,158.795,342.214,158.523z"
   id="path8645" />
			<path
   fill="#FFFFFF"
   d="M343.113,157.645c0-0.27-0.14-0.352-0.312-0.182c-0.172,0.168-0.311,0.523-0.311,0.791     c0,0.273,0.139,0.354,0.311,0.186C342.973,158.27,343.113,157.914,343.113,157.645z"
   id="path8647" />
			<path
   fill="#FFFFFF"
   d="M344.011,156.766c0-0.271-0.143-0.354-0.312-0.186c-0.174,0.17-0.311,0.525-0.311,0.795     s0.137,0.352,0.311,0.182C343.869,157.391,344.011,157.035,344.011,156.766z"
   id="path8649" />
			<path
   fill="#FFFFFF"
   d="M344.907,155.885c0-0.27-0.14-0.354-0.31-0.184c-0.174,0.17-0.312,0.523-0.312,0.795     c0,0.27,0.139,0.352,0.312,0.182C344.767,156.51,344.907,156.154,344.907,155.885z"
   id="path8651" />
			<path
   fill="#FFFFFF"
   d="M345.805,155.004c0-0.268-0.14-0.352-0.312-0.184c-0.171,0.168-0.31,0.525-0.31,0.795     s0.139,0.354,0.31,0.182C345.666,155.629,345.805,155.275,345.805,155.004z"
   id="path8653" />
			<path
   fill="#FFFFFF"
   d="M346.704,154.123c0-0.268-0.142-0.35-0.312-0.182c-0.173,0.168-0.312,0.523-0.312,0.795     c0,0.268,0.14,0.35,0.312,0.182C346.562,154.75,346.704,154.395,346.704,154.123z"
   id="path8655" />
			<path
   fill="#FFFFFF"
   d="M340.419,158.992c0-0.27-0.142-0.352-0.312-0.182c-0.171,0.166-0.311,0.521-0.311,0.793     c0,0.27,0.14,0.35,0.311,0.184C340.278,159.617,340.419,159.262,340.419,158.992z"
   id="path8657" />
			<path
   fill="#FFFFFF"
   d="M341.316,158.113c0-0.271-0.14-0.354-0.311-0.184c-0.174,0.168-0.312,0.523-0.312,0.793     c0,0.271,0.139,0.352,0.312,0.184C341.176,158.738,341.316,158.383,341.316,158.113z"
   id="path8659" />
			<path
   fill="#FFFFFF"
   d="M342.214,157.23c0-0.27-0.14-0.352-0.311-0.182c-0.174,0.168-0.312,0.523-0.312,0.795     c0,0.27,0.139,0.352,0.312,0.182C342.075,157.857,342.214,157.502,342.214,157.23z"
   id="path8661" />
			<path
   fill="#FFFFFF"
   d="M343.113,156.352c0-0.27-0.14-0.352-0.312-0.184c-0.172,0.168-0.311,0.523-0.311,0.793     c0,0.271,0.139,0.352,0.311,0.184C342.973,156.977,343.113,156.623,343.113,156.352z"
   id="path8663" />
			<path
   fill="#FFFFFF"
   d="M344.011,155.471c0-0.27-0.143-0.352-0.312-0.184c-0.174,0.17-0.311,0.525-0.311,0.795     s0.137,0.352,0.311,0.184C343.869,156.098,344.011,155.74,344.011,155.471z"
   id="path8665" />
			<path
   fill="#FFFFFF"
   d="M344.907,154.592c0-0.271-0.14-0.352-0.31-0.184c-0.174,0.168-0.312,0.523-0.312,0.795     c0,0.27,0.139,0.352,0.312,0.182C344.767,155.217,344.907,154.861,344.907,154.592z"
   id="path8667" />
			<path
   fill="#FFFFFF"
   d="M345.805,153.711c0-0.27-0.14-0.354-0.312-0.182c-0.171,0.168-0.31,0.523-0.31,0.791     c0,0.271,0.139,0.354,0.31,0.184C345.666,154.338,345.805,153.98,345.805,153.711z"
   id="path8669" />
			<path
   fill="#FFFFFF"
   d="M346.704,152.832c0-0.271-0.142-0.354-0.312-0.184c-0.173,0.168-0.312,0.523-0.312,0.793     c0,0.271,0.14,0.354,0.312,0.184C346.562,153.455,346.704,153.1,346.704,152.832z"
   id="path8671" />
			<path
   fill="#FFFFFF"
   d="M340.419,157.699c0-0.27-0.142-0.352-0.312-0.184c-0.171,0.17-0.311,0.525-0.311,0.793     c0,0.27,0.14,0.354,0.311,0.186C340.278,158.324,340.419,157.969,340.419,157.699z"
   id="path8673" />
			<path
   fill="#FFFFFF"
   d="M341.316,156.82c0-0.271-0.14-0.354-0.311-0.186c-0.174,0.17-0.312,0.525-0.312,0.795     s0.139,0.352,0.312,0.184C341.176,157.443,341.316,157.09,341.316,156.82z"
   id="path8675" />
			<path
   fill="#FFFFFF"
   d="M342.214,155.939c0-0.271-0.14-0.352-0.311-0.184c-0.174,0.168-0.312,0.525-0.312,0.793     c0,0.271,0.139,0.352,0.312,0.184C342.075,156.564,342.214,156.209,342.214,155.939z"
   id="path8677" />
			<path
   fill="#FFFFFF"
   d="M343.113,155.059c0-0.271-0.14-0.352-0.312-0.184c-0.172,0.168-0.311,0.523-0.311,0.793     c0,0.271,0.139,0.354,0.311,0.184C342.973,155.684,343.113,155.328,343.113,155.059z"
   id="path8679" />
			<path
   fill="#FFFFFF"
   d="M344.011,154.178c0-0.27-0.143-0.35-0.312-0.182c-0.174,0.168-0.311,0.523-0.311,0.793     c0,0.271,0.137,0.352,0.311,0.184C343.869,154.805,344.011,154.449,344.011,154.178z"
   id="path8681" />
			<path
   fill="#FFFFFF"
   d="M344.907,153.299c0-0.271-0.14-0.352-0.31-0.186c-0.174,0.17-0.312,0.527-0.312,0.797     c0,0.268,0.139,0.352,0.312,0.184C344.767,153.924,344.907,153.568,344.907,153.299z"
   id="path8683" />
			<path
   fill="#FFFFFF"
   d="M345.805,152.418c0-0.27-0.14-0.352-0.312-0.184c-0.171,0.17-0.31,0.523-0.31,0.795     c0,0.27,0.139,0.352,0.31,0.182C345.666,153.043,345.805,152.689,345.805,152.418z"
   id="path8685" />
			<path
   fill="#FFFFFF"
   d="M346.704,151.537c0-0.27-0.142-0.352-0.312-0.182c-0.173,0.168-0.312,0.523-0.312,0.793     s0.14,0.354,0.312,0.184C346.562,152.162,346.704,151.809,346.704,151.537z"
   id="path8687" />
		</g>
	</g>
	<rect
   x="325.751"
   y="127.857"
   fill="none"
   width="22.449"
   height="38.15"
   id="rect8689" />
	<g
   id="g8691">
		<g
   id="g8693">
			<g
   id="g8695">
				<polygon
   fill="none"
   stroke="#000000"
   stroke-width="0.5"
   stroke-linecap="round"
   stroke-linejoin="round"
   points="      99.095,31.08 99.095,32.157 101.878,32.157 101.878,31.08 102.632,31.08 102.632,32.157 106.83,32.157 106.83,31.08       107.113,31.08 107.113,31.308 108.009,31.308 108.009,23.762 92.563,23.762 92.563,31.08     "
   id="polygon8697" />
				<polygon
   fill="#00A651"
   stroke="#000000"
   stroke-width="0.5"
   stroke-linecap="round"
   stroke-linejoin="round"
   points="      99.164,31.08 99.164,32.157 101.945,32.157 101.945,31.08 102.701,31.08 102.701,32.157 106.898,32.157 106.898,31.08       107.181,31.08 107.181,31.308 108.077,31.308 108.077,23.762 92.631,23.762 92.631,31.08     "
   id="polygon8699" />
				<g
   id="g8701">
					
						<rect
   x="108.177"
   y="26.545"
   fill="#FFFFFF"
   stroke="#000000"
   stroke-width="0.25"
   stroke-linecap="round"
   stroke-linejoin="round"
   width="0.943"
   height="0.472"
   id="rect8703" />
					<path
   fill="#FFFFFF"
   stroke="#000000"
   stroke-width="0.25"
   stroke-linecap="round"
   stroke-linejoin="round"
   d="M108.548,26.781       "
   id="path8705" />
				</g>
				
					<line
   stroke="#000000"
   stroke-width="0.25"
   stroke-linecap="round"
   stroke-linejoin="round"
   x1="99.527"
   y1="31.37"
   x2="99.527"
   y2="32.137"
   id="line8707" />
				
					<line
   stroke="#000000"
   stroke-width="0.25"
   stroke-linecap="round"
   stroke-linejoin="round"
   x1="99.822"
   y1="31.37"
   x2="99.822"
   y2="32.137"
   id="line8709" />
				
					<line
   stroke="#000000"
   stroke-width="0.25"
   stroke-linecap="round"
   stroke-linejoin="round"
   x1="100.117"
   y1="31.37"
   x2="100.117"
   y2="32.137"
   id="line8711" />
				
					<line
   stroke="#000000"
   stroke-width="0.25"
   stroke-linecap="round"
   stroke-linejoin="round"
   x1="100.412"
   y1="31.37"
   x2="100.412"
   y2="32.137"
   id="line8713" />
				
					<line
   stroke="#000000"
   stroke-width="0.25"
   stroke-linecap="round"
   stroke-linejoin="round"
   x1="100.707"
   y1="31.37"
   x2="100.707"
   y2="32.137"
   id="line8715" />
				
					<line
   stroke="#000000"
   stroke-width="0.25"
   stroke-linecap="round"
   stroke-linejoin="round"
   x1="101"
   y1="31.37"
   x2="101"
   y2="32.137"
   id="line8717" />
				
					<line
   stroke="#000000"
   stroke-width="0.25"
   stroke-linecap="round"
   stroke-linejoin="round"
   x1="101.294"
   y1="31.37"
   x2="101.294"
   y2="32.137"
   id="line8719" />
				
					<line
   stroke="#000000"
   stroke-width="0.25"
   stroke-linecap="round"
   stroke-linejoin="round"
   x1="101.589"
   y1="31.37"
   x2="101.589"
   y2="32.137"
   id="line8721" />
				
					<line
   stroke="#000000"
   stroke-width="0.25"
   stroke-linecap="round"
   stroke-linejoin="round"
   x1="103.064"
   y1="31.37"
   x2="103.064"
   y2="32.137"
   id="line8723" />
				
					<line
   stroke="#000000"
   stroke-width="0.25"
   stroke-linecap="round"
   stroke-linejoin="round"
   x1="103.359"
   y1="31.37"
   x2="103.359"
   y2="32.137"
   id="line8725" />
				
					<line
   stroke="#000000"
   stroke-width="0.25"
   stroke-linecap="round"
   stroke-linejoin="round"
   x1="103.654"
   y1="31.37"
   x2="103.654"
   y2="32.137"
   id="line8727" />
				
					<line
   stroke="#000000"
   stroke-width="0.25"
   stroke-linecap="round"
   stroke-linejoin="round"
   x1="103.949"
   y1="31.37"
   x2="103.949"
   y2="32.137"
   id="line8729" />
				
					<line
   stroke="#000000"
   stroke-width="0.25"
   stroke-linecap="round"
   stroke-linejoin="round"
   x1="104.244"
   y1="31.37"
   x2="104.244"
   y2="32.137"
   id="line8731" />
				
					<line
   stroke="#000000"
   stroke-width="0.25"
   stroke-linecap="round"
   stroke-linejoin="round"
   x1="104.538"
   y1="31.37"
   x2="104.538"
   y2="32.137"
   id="line8733" />
				
					<line
   stroke="#000000"
   stroke-width="0.25"
   stroke-linecap="round"
   stroke-linejoin="round"
   x1="104.832"
   y1="31.37"
   x2="104.832"
   y2="32.137"
   id="line8735" />
				
					<line
   stroke="#000000"
   stroke-width="0.25"
   stroke-linecap="round"
   stroke-linejoin="round"
   x1="105.126"
   y1="31.37"
   x2="105.126"
   y2="32.137"
   id="line8737" />
				
					<line
   stroke="#000000"
   stroke-width="0.25"
   stroke-linecap="round"
   stroke-linejoin="round"
   x1="105.421"
   y1="31.37"
   x2="105.421"
   y2="32.137"
   id="line8739" />
				
					<line
   stroke="#000000"
   stroke-width="0.25"
   stroke-linecap="round"
   stroke-linejoin="round"
   x1="105.716"
   y1="31.37"
   x2="105.716"
   y2="32.137"
   id="line8741" />
				
					<line
   stroke="#000000"
   stroke-width="0.25"
   stroke-linecap="round"
   stroke-linejoin="round"
   x1="106.011"
   y1="31.37"
   x2="106.011"
   y2="32.137"
   id="line8743" />
				
					<line
   stroke="#000000"
   stroke-width="0.25"
   stroke-linecap="round"
   stroke-linejoin="round"
   x1="106.306"
   y1="31.37"
   x2="106.306"
   y2="32.137"
   id="line8745" />
				
					<line
   stroke="#000000"
   stroke-width="0.25"
   stroke-linecap="round"
   stroke-linejoin="round"
   x1="106.601"
   y1="31.37"
   x2="106.601"
   y2="32.137"
   id="line8747" />
				<polyline
   fill="none"
   stroke="#FFFFFF"
   stroke-width="0.5"
   points="93.121,30.837 93.121,24.234 107.8,24.234     "
   id="polyline8749" />
				<g
   id="g8751">
					<path
   d="M107.133,26.781"
   id="path8753" />
					<rect
   x="106.191"
   y="26.309"
   width="1.886"
   height="0.943"
   id="rect8755" />
				</g>
			</g>
			<rect
   x="100.118"
   y="27.743"
   fill="none"
   stroke="#00A651"
   stroke-width="0.5"
   width="0"
   height="0"
   id="rect8757" />
		</g>
		<polyline
   fill="none"
   stroke="#006F45"
   stroke-width="0.25"
   points="106.091,28.275 102.023,28.275 102.023,29.69   "
   id="polyline8759" />
		<polyline
   fill="none"
   stroke="#006F45"
   stroke-width="0.25"
   points="101.925,25.957 101.925,25.514 103.074,25.514   "
   id="polyline8761" />
		<polyline
   fill="none"
   stroke="#006F45"
   stroke-width="0.25"
   points="103.896,25.956 103.896,25.514 105.044,25.514   "
   id="polyline8763" />
		<polyline
   fill="none"
   stroke="#006F45"
   stroke-width="0.25"
   points="101.925,26.79 101.925,26.348 103.074,26.348   "
   id="polyline8765" />
		<polyline
   fill="none"
   stroke="#006F45"
   stroke-width="0.25"
   points="103.896,26.79 103.896,26.348 105.044,26.348   "
   id="polyline8767" />
		<path
   fill="none"
   stroke="#00A651"
   stroke-width="0.25"
   d="M97.798,27.656"
   id="path8769" />
		<polyline
   fill="none"
   stroke="#006F45"
   stroke-width="0.25"
   points="99.173,26.753 97.955,26.753 97.681,26.988 97.445,26.753     96.187,26.753 96.187,27.342   "
   id="polyline8771" />
		<polyline
   fill="none"
   stroke="#006F45"
   stroke-width="0.25"
   points="99.173,25.73 97.955,25.73 97.681,25.966 97.445,25.73     96.187,25.73 96.187,26.32   "
   id="polyline8773" />
		<polyline
   fill="none"
   stroke="#006F45"
   stroke-width="0.25"
   points="96.305,29.425 96.305,29.189 96.619,29.189   "
   id="polyline8775" />
		<polyline
   fill="none"
   stroke="#006F45"
   stroke-width="0.25"
   points="97.068,29.425 97.068,29.189 97.382,29.189   "
   id="polyline8777" />
		<polyline
   fill="none"
   stroke="#006F45"
   stroke-width="0.25"
   points="97.837,29.425 97.837,29.189 98.152,29.189   "
   id="polyline8779" />
		<polyline
   fill="none"
   stroke="#006F45"
   stroke-width="0.25"
   points="98.64,29.425 98.64,29.189 98.955,29.189   "
   id="polyline8781" />
		<polyline
   fill="none"
   stroke="#006F45"
   stroke-width="0.25"
   points="96.305,28.678 96.305,28.442 96.619,28.442   "
   id="polyline8783" />
		<polyline
   fill="none"
   stroke="#006F45"
   stroke-width="0.25"
   points="97.068,28.678 97.068,28.442 97.382,28.442   "
   id="polyline8785" />
		<polyline
   fill="none"
   stroke="#006F45"
   stroke-width="0.25"
   points="94.487,26.753 94.487,26.517 94.802,26.517   "
   id="polyline8787" />
		<polyline
   fill="none"
   stroke="#006F45"
   stroke-width="0.25"
   points="95.251,26.753 95.251,26.517 95.565,26.517   "
   id="polyline8789" />
		<polyline
   fill="none"
   stroke="#006F45"
   stroke-width="0.25"
   points="94.487,26.006 94.487,25.77 94.802,25.77   "
   id="polyline8791" />
		<polyline
   fill="none"
   stroke="#006F45"
   stroke-width="0.25"
   points="95.251,26.006 95.251,25.77 95.565,25.77   "
   id="polyline8793" />
		<polyline
   fill="none"
   stroke="#006F45"
   stroke-width="0.25"
   points="97.837,28.678 97.837,28.442 98.152,28.442   "
   id="polyline8795" />
		<polyline
   fill="none"
   stroke="#006F45"
   stroke-width="0.25"
   points="98.64,28.678 98.64,28.442 98.955,28.442   "
   id="polyline8797" />
	</g>
	<g
   id="g8799">
		<g
   id="g8801">
			<g
   id="g8803">
				<polygon
   fill="none"
   stroke="#000000"
   stroke-width="0.5"
   stroke-linecap="round"
   stroke-linejoin="round"
   points="      228.82,31.08 228.82,32.157 231.603,32.157 231.603,31.08 232.357,31.08 232.357,32.157 236.555,32.157 236.555,31.08       236.837,31.08 236.837,31.308 237.734,31.308 237.734,23.762 222.289,23.762 222.289,31.08     "
   id="polygon8805" />
				<polygon
   fill="#00A651"
   stroke="#000000"
   stroke-width="0.5"
   stroke-linecap="round"
   stroke-linejoin="round"
   points="      228.887,31.08 228.887,32.157 231.67,32.157 231.67,31.08 232.424,31.08 232.424,32.157 236.622,32.157 236.622,31.08       236.905,31.08 236.905,31.308 237.801,31.308 237.801,23.762 222.356,23.762 222.356,31.08     "
   id="polygon8807" />
				<g
   id="g8809">
					
						<rect
   x="237.902"
   y="26.545"
   fill="#FFFFFF"
   stroke="#000000"
   stroke-width="0.25"
   stroke-linecap="round"
   stroke-linejoin="round"
   width="0.943"
   height="0.472"
   id="rect8811" />
					<path
   fill="#FFFFFF"
   stroke="#000000"
   stroke-width="0.25"
   stroke-linecap="round"
   stroke-linejoin="round"
   d="M238.273,26.781       "
   id="path8813" />
				</g>
				
					<line
   stroke="#000000"
   stroke-width="0.25"
   stroke-linecap="round"
   stroke-linejoin="round"
   x1="229.251"
   y1="31.37"
   x2="229.251"
   y2="32.137"
   id="line8815" />
				
					<line
   stroke="#000000"
   stroke-width="0.25"
   stroke-linecap="round"
   stroke-linejoin="round"
   x1="229.545"
   y1="31.37"
   x2="229.545"
   y2="32.137"
   id="line8817" />
				
					<line
   stroke="#000000"
   stroke-width="0.25"
   stroke-linecap="round"
   stroke-linejoin="round"
   x1="229.84"
   y1="31.37"
   x2="229.84"
   y2="32.137"
   id="line8819" />
				
					<line
   stroke="#000000"
   stroke-width="0.25"
   stroke-linecap="round"
   stroke-linejoin="round"
   x1="230.135"
   y1="31.37"
   x2="230.135"
   y2="32.137"
   id="line8821" />
				
					<line
   stroke="#000000"
   stroke-width="0.25"
   stroke-linecap="round"
   stroke-linejoin="round"
   x1="230.43"
   y1="31.37"
   x2="230.43"
   y2="32.137"
   id="line8823" />
				
					<line
   stroke="#000000"
   stroke-width="0.25"
   stroke-linecap="round"
   stroke-linejoin="round"
   x1="230.725"
   y1="31.37"
   x2="230.725"
   y2="32.137"
   id="line8825" />
				
					<line
   stroke="#000000"
   stroke-width="0.25"
   stroke-linecap="round"
   stroke-linejoin="round"
   x1="231.02"
   y1="31.37"
   x2="231.02"
   y2="32.137"
   id="line8827" />
				
					<line
   stroke="#000000"
   stroke-width="0.25"
   stroke-linecap="round"
   stroke-linejoin="round"
   x1="231.315"
   y1="31.37"
   x2="231.315"
   y2="32.137"
   id="line8829" />
				
					<line
   stroke="#000000"
   stroke-width="0.25"
   stroke-linecap="round"
   stroke-linejoin="round"
   x1="232.789"
   y1="31.37"
   x2="232.789"
   y2="32.137"
   id="line8831" />
				
					<line
   stroke="#000000"
   stroke-width="0.25"
   stroke-linecap="round"
   stroke-linejoin="round"
   x1="233.083"
   y1="31.37"
   x2="233.083"
   y2="32.137"
   id="line8833" />
				
					<line
   stroke="#000000"
   stroke-width="0.25"
   stroke-linecap="round"
   stroke-linejoin="round"
   x1="233.377"
   y1="31.37"
   x2="233.377"
   y2="32.137"
   id="line8835" />
				
					<line
   stroke="#000000"
   stroke-width="0.25"
   stroke-linecap="round"
   stroke-linejoin="round"
   x1="233.672"
   y1="31.37"
   x2="233.672"
   y2="32.137"
   id="line8837" />
				
					<line
   stroke="#000000"
   stroke-width="0.25"
   stroke-linecap="round"
   stroke-linejoin="round"
   x1="233.967"
   y1="31.37"
   x2="233.967"
   y2="32.137"
   id="line8839" />
				
					<line
   stroke="#000000"
   stroke-width="0.25"
   stroke-linecap="round"
   stroke-linejoin="round"
   x1="234.262"
   y1="31.37"
   x2="234.262"
   y2="32.137"
   id="line8841" />
				
					<line
   stroke="#000000"
   stroke-width="0.25"
   stroke-linecap="round"
   stroke-linejoin="round"
   x1="234.557"
   y1="31.37"
   x2="234.557"
   y2="32.137"
   id="line8843" />
				
					<line
   stroke="#000000"
   stroke-width="0.25"
   stroke-linecap="round"
   stroke-linejoin="round"
   x1="234.852"
   y1="31.37"
   x2="234.852"
   y2="32.137"
   id="line8845" />
				
					<line
   stroke="#000000"
   stroke-width="0.25"
   stroke-linecap="round"
   stroke-linejoin="round"
   x1="235.146"
   y1="31.37"
   x2="235.146"
   y2="32.137"
   id="line8847" />
				
					<line
   stroke="#000000"
   stroke-width="0.25"
   stroke-linecap="round"
   stroke-linejoin="round"
   x1="235.441"
   y1="31.37"
   x2="235.441"
   y2="32.137"
   id="line8849" />
				
					<line
   stroke="#000000"
   stroke-width="0.25"
   stroke-linecap="round"
   stroke-linejoin="round"
   x1="235.736"
   y1="31.37"
   x2="235.736"
   y2="32.137"
   id="line8851" />
				
					<line
   stroke="#000000"
   stroke-width="0.25"
   stroke-linecap="round"
   stroke-linejoin="round"
   x1="236.031"
   y1="31.37"
   x2="236.031"
   y2="32.137"
   id="line8853" />
				
					<line
   stroke="#000000"
   stroke-width="0.25"
   stroke-linecap="round"
   stroke-linejoin="round"
   x1="236.325"
   y1="31.37"
   x2="236.325"
   y2="32.137"
   id="line8855" />
				<polyline
   fill="none"
   stroke="#FFFFFF"
   stroke-width="0.5"
   points="222.846,30.837 222.846,24.234 237.525,24.234     "
   id="polyline8857" />
				<g
   id="g8859">
					<path
   d="M236.858,26.781"
   id="path8861" />
					<rect
   x="235.915"
   y="26.309"
   width="1.887"
   height="0.943"
   id="rect8863" />
				</g>
			</g>
			<rect
   x="229.842"
   y="27.743"
   fill="none"
   stroke="#00A651"
   stroke-width="0.5"
   width="0"
   height="0"
   id="rect8865" />
		</g>
		<polyline
   fill="none"
   stroke="#006F45"
   stroke-width="0.25"
   points="235.815,28.275 231.748,28.275 231.748,29.69   "
   id="polyline8867" />
		<polyline
   fill="none"
   stroke="#006F45"
   stroke-width="0.25"
   points="231.649,25.957 231.649,25.514 232.799,25.514   "
   id="polyline8869" />
		<polyline
   fill="none"
   stroke="#006F45"
   stroke-width="0.25"
   points="233.62,25.956 233.62,25.514 234.77,25.514   "
   id="polyline8871" />
		<polyline
   fill="none"
   stroke="#006F45"
   stroke-width="0.25"
   points="231.649,26.79 231.649,26.348 232.799,26.348   "
   id="polyline8873" />
		<polyline
   fill="none"
   stroke="#006F45"
   stroke-width="0.25"
   points="233.62,26.79 233.62,26.348 234.77,26.348   "
   id="polyline8875" />
		<path
   fill="none"
   stroke="#00A651"
   stroke-width="0.25"
   d="M227.523,27.656"
   id="path8877" />
		<polyline
   fill="none"
   stroke="#006F45"
   stroke-width="0.25"
   points="228.899,26.753 227.68,26.753 227.405,26.988 227.168,26.753     225.911,26.753 225.911,27.342   "
   id="polyline8879" />
		<polyline
   fill="none"
   stroke="#006F45"
   stroke-width="0.25"
   points="228.899,25.73 227.68,25.73 227.405,25.966 227.168,25.73     225.911,25.73 225.911,26.32   "
   id="polyline8881" />
		<polyline
   fill="none"
   stroke="#006F45"
   stroke-width="0.25"
   points="226.029,29.425 226.029,29.189 226.343,29.189   "
   id="polyline8883" />
		<polyline
   fill="none"
   stroke="#006F45"
   stroke-width="0.25"
   points="226.792,29.425 226.792,29.189 227.107,29.189   "
   id="polyline8885" />
		<polyline
   fill="none"
   stroke="#006F45"
   stroke-width="0.25"
   points="227.562,29.425 227.562,29.189 227.876,29.189   "
   id="polyline8887" />
		<polyline
   fill="none"
   stroke="#006F45"
   stroke-width="0.25"
   points="228.365,29.425 228.365,29.189 228.679,29.189   "
   id="polyline8889" />
		<polyline
   fill="none"
   stroke="#006F45"
   stroke-width="0.25"
   points="226.029,28.678 226.029,28.442 226.343,28.442   "
   id="polyline8891" />
		<polyline
   fill="none"
   stroke="#006F45"
   stroke-width="0.25"
   points="226.792,28.678 226.792,28.442 227.107,28.442   "
   id="polyline8893" />
		<polyline
   fill="none"
   stroke="#006F45"
   stroke-width="0.25"
   points="224.211,26.753 224.211,26.517 224.526,26.517   "
   id="polyline8895" />
		<polyline
   fill="none"
   stroke="#006F45"
   stroke-width="0.25"
   points="224.975,26.753 224.975,26.517 225.29,26.517   "
   id="polyline8897" />
		<polyline
   fill="none"
   stroke="#006F45"
   stroke-width="0.25"
   points="224.211,26.006 224.211,25.77 224.526,25.77   "
   id="polyline8899" />
		<polyline
   fill="none"
   stroke="#006F45"
   stroke-width="0.25"
   points="224.975,26.006 224.975,25.77 225.29,25.77   "
   id="polyline8901" />
		<polyline
   fill="none"
   stroke="#006F45"
   stroke-width="0.25"
   points="227.562,28.678 227.562,28.442 227.876,28.442   "
   id="polyline8903" />
		<polyline
   fill="none"
   stroke="#006F45"
   stroke-width="0.25"
   points="228.365,28.678 228.365,28.442 228.679,28.442   "
   id="polyline8905" />
	</g>
	<g
   id="g8907">
		<g
   id="g8909">
			<g
   id="g8911">
				<polygon
   fill="none"
   stroke="#000000"
   stroke-width="0.5"
   stroke-linecap="round"
   stroke-linejoin="round"
   points="      369.424,31.08 369.424,32.157 372.208,32.157 372.208,31.08 372.961,31.08 372.961,32.157 377.159,32.157 377.159,31.08       377.442,31.08 377.442,31.308 378.338,31.308 378.338,23.762 362.893,23.762 362.893,31.08     "
   id="polygon8913" />
				<polygon
   fill="#00A651"
   stroke="#000000"
   stroke-width="0.5"
   stroke-linecap="round"
   stroke-linejoin="round"
   points="      369.492,31.08 369.492,32.157 372.275,32.157 372.275,31.08 373.029,31.08 373.029,32.157 377.226,32.157 377.226,31.08       377.509,31.08 377.509,31.308 378.406,31.308 378.406,23.762 362.96,23.762 362.96,31.08     "
   id="polygon8915" />
				<g
   id="g8917">
					
						<rect
   x="378.506"
   y="26.545"
   fill="#FFFFFF"
   stroke="#000000"
   stroke-width="0.25"
   stroke-linecap="round"
   stroke-linejoin="round"
   width="0.943"
   height="0.472"
   id="rect8919" />
					<path
   fill="#FFFFFF"
   stroke="#000000"
   stroke-width="0.25"
   stroke-linecap="round"
   stroke-linejoin="round"
   d="M378.877,26.781       "
   id="path8921" />
				</g>
				
					<line
   stroke="#000000"
   stroke-width="0.25"
   stroke-linecap="round"
   stroke-linejoin="round"
   x1="369.856"
   y1="31.37"
   x2="369.856"
   y2="32.137"
   id="line8923" />
				
					<line
   stroke="#000000"
   stroke-width="0.25"
   stroke-linecap="round"
   stroke-linejoin="round"
   x1="370.15"
   y1="31.37"
   x2="370.15"
   y2="32.137"
   id="line8925" />
				
					<line
   stroke="#000000"
   stroke-width="0.25"
   stroke-linecap="round"
   stroke-linejoin="round"
   x1="370.445"
   y1="31.37"
   x2="370.445"
   y2="32.137"
   id="line8927" />
				
					<line
   stroke="#000000"
   stroke-width="0.25"
   stroke-linecap="round"
   stroke-linejoin="round"
   x1="370.74"
   y1="31.37"
   x2="370.74"
   y2="32.137"
   id="line8929" />
				
					<line
   stroke="#000000"
   stroke-width="0.25"
   stroke-linecap="round"
   stroke-linejoin="round"
   x1="371.035"
   y1="31.37"
   x2="371.035"
   y2="32.137"
   id="line8931" />
				
					<line
   stroke="#000000"
   stroke-width="0.25"
   stroke-linecap="round"
   stroke-linejoin="round"
   x1="371.33"
   y1="31.37"
   x2="371.33"
   y2="32.137"
   id="line8933" />
				
					<line
   stroke="#000000"
   stroke-width="0.25"
   stroke-linecap="round"
   stroke-linejoin="round"
   x1="371.625"
   y1="31.37"
   x2="371.625"
   y2="32.137"
   id="line8935" />
				
					<line
   stroke="#000000"
   stroke-width="0.25"
   stroke-linecap="round"
   stroke-linejoin="round"
   x1="371.918"
   y1="31.37"
   x2="371.918"
   y2="32.137"
   id="line8937" />
				
					<line
   stroke="#000000"
   stroke-width="0.25"
   stroke-linecap="round"
   stroke-linejoin="round"
   x1="373.393"
   y1="31.37"
   x2="373.393"
   y2="32.137"
   id="line8939" />
				
					<line
   stroke="#000000"
   stroke-width="0.25"
   stroke-linecap="round"
   stroke-linejoin="round"
   x1="373.687"
   y1="31.37"
   x2="373.687"
   y2="32.137"
   id="line8941" />
				
					<line
   stroke="#000000"
   stroke-width="0.25"
   stroke-linecap="round"
   stroke-linejoin="round"
   x1="373.982"
   y1="31.37"
   x2="373.982"
   y2="32.137"
   id="line8943" />
				
					<line
   stroke="#000000"
   stroke-width="0.25"
   stroke-linecap="round"
   stroke-linejoin="round"
   x1="374.277"
   y1="31.37"
   x2="374.277"
   y2="32.137"
   id="line8945" />
				
					<line
   stroke="#000000"
   stroke-width="0.25"
   stroke-linecap="round"
   stroke-linejoin="round"
   x1="374.572"
   y1="31.37"
   x2="374.572"
   y2="32.137"
   id="line8947" />
				
					<line
   stroke="#000000"
   stroke-width="0.25"
   stroke-linecap="round"
   stroke-linejoin="round"
   x1="374.867"
   y1="31.37"
   x2="374.867"
   y2="32.137"
   id="line8949" />
				
					<line
   stroke="#000000"
   stroke-width="0.25"
   stroke-linecap="round"
   stroke-linejoin="round"
   x1="375.162"
   y1="31.37"
   x2="375.162"
   y2="32.137"
   id="line8951" />
				
					<line
   stroke="#000000"
   stroke-width="0.25"
   stroke-linecap="round"
   stroke-linejoin="round"
   x1="375.456"
   y1="31.37"
   x2="375.456"
   y2="32.137"
   id="line8953" />
				
					<line
   stroke="#000000"
   stroke-width="0.25"
   stroke-linecap="round"
   stroke-linejoin="round"
   x1="375.75"
   y1="31.37"
   x2="375.75"
   y2="32.137"
   id="line8955" />
				
					<line
   stroke="#000000"
   stroke-width="0.25"
   stroke-linecap="round"
   stroke-linejoin="round"
   x1="376.045"
   y1="31.37"
   x2="376.045"
   y2="32.137"
   id="line8957" />
				
					<line
   stroke="#000000"
   stroke-width="0.25"
   stroke-linecap="round"
   stroke-linejoin="round"
   x1="376.34"
   y1="31.37"
   x2="376.34"
   y2="32.137"
   id="line8959" />
				
					<line
   stroke="#000000"
   stroke-width="0.25"
   stroke-linecap="round"
   stroke-linejoin="round"
   x1="376.635"
   y1="31.37"
   x2="376.635"
   y2="32.137"
   id="line8961" />
				
					<line
   stroke="#000000"
   stroke-width="0.25"
   stroke-linecap="round"
   stroke-linejoin="round"
   x1="376.93"
   y1="31.37"
   x2="376.93"
   y2="32.137"
   id="line8963" />
				<polyline
   fill="none"
   stroke="#FFFFFF"
   stroke-width="0.5"
   points="363.451,30.837 363.451,24.234 378.129,24.234     "
   id="polyline8965" />
				<g
   id="g8967">
					<path
   d="M377.462,26.781"
   id="path8969" />
					<rect
   x="376.519"
   y="26.309"
   width="1.887"
   height="0.943"
   id="rect8971" />
				</g>
			</g>
			<rect
   x="370.447"
   y="27.743"
   fill="none"
   stroke="#00A651"
   stroke-width="0.5"
   width="0"
   height="0"
   id="rect8973" />
		</g>
		<polyline
   fill="none"
   stroke="#006F45"
   stroke-width="0.25"
   points="376.419,28.275 372.352,28.275 372.352,29.69   "
   id="polyline8975" />
		<polyline
   fill="none"
   stroke="#006F45"
   stroke-width="0.25"
   points="372.253,25.957 372.253,25.514 373.403,25.514   "
   id="polyline8977" />
		<polyline
   fill="none"
   stroke="#006F45"
   stroke-width="0.25"
   points="374.224,25.956 374.224,25.514 375.375,25.514   "
   id="polyline8979" />
		<polyline
   fill="none"
   stroke="#006F45"
   stroke-width="0.25"
   points="372.253,26.79 372.253,26.348 373.403,26.348   "
   id="polyline8981" />
		<polyline
   fill="none"
   stroke="#006F45"
   stroke-width="0.25"
   points="374.224,26.79 374.224,26.348 375.375,26.348   "
   id="polyline8983" />
		<path
   fill="none"
   stroke="#00A651"
   stroke-width="0.25"
   d="M368.127,27.656"
   id="path8985" />
		<polyline
   fill="none"
   stroke="#006F45"
   stroke-width="0.25"
   points="369.502,26.753 368.285,26.753 368.009,26.988     367.773,26.753 366.516,26.753 366.516,27.342   "
   id="polyline8987" />
		<polyline
   fill="none"
   stroke="#006F45"
   stroke-width="0.25"
   points="369.502,25.73 368.285,25.73 368.009,25.966 367.773,25.73     366.516,25.73 366.516,26.32   "
   id="polyline8989" />
		<polyline
   fill="none"
   stroke="#006F45"
   stroke-width="0.25"
   points="366.634,29.425 366.634,29.189 366.948,29.189   "
   id="polyline8991" />
		<polyline
   fill="none"
   stroke="#006F45"
   stroke-width="0.25"
   points="367.397,29.425 367.397,29.189 367.711,29.189   "
   id="polyline8993" />
		<polyline
   fill="none"
   stroke="#006F45"
   stroke-width="0.25"
   points="368.167,29.425 368.167,29.189 368.481,29.189   "
   id="polyline8995" />
		<polyline
   fill="none"
   stroke="#006F45"
   stroke-width="0.25"
   points="368.969,29.425 368.969,29.189 369.284,29.189   "
   id="polyline8997" />
		<polyline
   fill="none"
   stroke="#006F45"
   stroke-width="0.25"
   points="366.633,28.678 366.633,28.442 366.948,28.442   "
   id="polyline8999" />
		<polyline
   fill="none"
   stroke="#006F45"
   stroke-width="0.25"
   points="367.397,28.678 367.397,28.442 367.711,28.442   "
   id="polyline9001" />
		<polyline
   fill="none"
   stroke="#006F45"
   stroke-width="0.25"
   points="364.816,26.753 364.816,26.517 365.13,26.517   "
   id="polyline9003" />
		<polyline
   fill="none"
   stroke="#006F45"
   stroke-width="0.25"
   points="365.58,26.753 365.58,26.517 365.894,26.517   "
   id="polyline9005" />
		<polyline
   fill="none"
   stroke="#006F45"
   stroke-width="0.25"
   points="364.816,26.006 364.816,25.77 365.13,25.77   "
   id="polyline9007" />
		<polyline
   fill="none"
   stroke="#006F45"
   stroke-width="0.25"
   points="365.58,26.006 365.58,25.77 365.894,25.77   "
   id="polyline9009" />
		<polyline
   fill="none"
   stroke="#006F45"
   stroke-width="0.25"
   points="368.167,28.678 368.167,28.442 368.481,28.442   "
   id="polyline9011" />
		<polyline
   fill="none"
   stroke="#006F45"
   stroke-width="0.25"
   points="368.969,28.678 368.969,28.442 369.284,28.442   "
   id="polyline9013" />
	</g>
	<g
   id="g9015">
		<polyline
   fill="none"
   stroke="#000000"
   points="260.692,146.712 260.692,117.265 382.172,117.265 382.172,26.838 379.45,26.838       "
   id="polyline9017" />
	</g>
	<polyline
   fill="none"
   stroke="#000000"
   points="247.202,146.712 247.136,26.838 238.602,26.838  "
   id="polyline9019" />
	<g
   id="g9021">
		<polyline
   fill="none"
   stroke="#000000"
   points="233.691,146.712 233.691,117.234 112.171,117.234 112.171,26.838 109.121,26.838       "
   id="polyline9023" />
	</g>
	<g
   id="g9025">
		<g
   id="g9027">
			<polygon
   fill="#3D3D3D"
   points="264.292,151.051 262.788,150.761 263.247,150.12 264.292,149.952    "
   id="polygon9029" />
			<polygon
   fill="#3D3D42"
   points="257.836,155.714 256.11,156.488 256.416,158.446 257.836,157.02    "
   id="polygon9031" />
			<polygon
   fill="#CDCCCD"
   points="256.416,158.446 252.438,157.647 252.418,156.563 256.393,157.366    "
   id="polygon9033" />
			<polygon
   fill="#3D3D42"
   points="265.507,149.798 264.292,151.051 264.292,149.952 265.507,148.7    "
   id="polygon9035" />
			<polygon
   fill="#3D3D3D"
   points="232.883,153.575 236.657,149.785 232.583,151.616    "
   id="polygon9037" />
			<polygon
   fill="#CDCCCD"
   points="232.883,153.575 228.909,152.773 228.891,151.692 232.864,152.493    "
   id="polygon9039" />
			<polygon
   fill="#3D3D3D"
   points="256.696,157.693 228.632,151.864 228.632,143.14 256.696,148.969    "
   id="polygon9041" />
			<polygon
   fill="#CDCCCD"
   points="234.42,147.114 230.317,146.262 230.317,145.281 234.42,146.131    "
   id="polygon9043" />
			<polygon
   fill="#FFFFFF"
   points="236.389,149.049 235.2,148.801 235.2,147.213 236.389,147.461    "
   id="polygon9045" />
			<polygon
   fill="#FFFFFF"
   points="238.393,149.465 237.204,149.218 237.204,147.631 238.393,147.876    "
   id="polygon9047" />
			<polygon
   fill="#FFFFFF"
   points="240.4,149.88 239.208,149.635 239.208,148.046 240.4,148.294    "
   id="polygon9049" />
			<polygon
   fill="#FFFFFF"
   points="242.405,150.297 241.215,150.052 241.215,148.464 242.405,148.71    "
   id="polygon9051" />
			<polygon
   fill="#FFFFFF"
   points="244.409,150.714 243.219,150.467 243.219,148.879 244.409,149.125    "
   id="polygon9053" />
			<polygon
   fill="#FFFFFF"
   points="246.416,151.131 245.224,150.885 245.224,149.296 246.416,149.543    "
   id="polygon9055" />
			<polygon
   fill="#FFFFFF"
   points="248.42,151.547 247.231,151.3 247.231,149.714 248.42,149.96    "
   id="polygon9057" />
			<polygon
   fill="#FFFFFF"
   points="250.426,151.964 249.238,151.718 249.238,150.129 250.426,150.376    "
   id="polygon9059" />
			<polygon
   fill="#FFFFFF"
   points="252.431,152.382 251.243,152.134 251.243,150.545 252.431,150.793    "
   id="polygon9061" />
			<polygon
   fill="#FFFFFF"
   points="254.436,152.798 253.247,152.549 253.247,150.961 254.436,151.21    "
   id="polygon9063" />
			<polygon
   fill="#FFFFFF"
   points="236.389,151.349 235.2,151.103 235.2,149.515 236.389,149.763    "
   id="polygon9065" />
			<polygon
   fill="#FFFFFF"
   points="238.393,151.767 237.204,151.518 237.204,149.932 238.393,150.179    "
   id="polygon9067" />
			<polygon
   fill="#FFFFFF"
   points="240.4,152.182 239.208,151.936 239.208,150.347 240.4,150.595    "
   id="polygon9069" />
			<polygon
   fill="#FFFFFF"
   points="242.405,152.599 241.215,152.353 241.215,150.763 242.405,151.011    "
   id="polygon9071" />
			<polygon
   fill="#FFFFFF"
   points="244.409,153.016 243.219,152.769 243.219,151.18 244.409,151.429    "
   id="polygon9073" />
			<polygon
   fill="#FFFFFF"
   points="246.416,153.433 245.224,153.186 245.224,151.598 246.416,151.844    "
   id="polygon9075" />
			<polygon
   fill="#FFFFFF"
   points="248.42,153.848 247.231,153.603 247.231,152.013 248.42,152.262    "
   id="polygon9077" />
			<polygon
   fill="#FFFFFF"
   points="250.426,154.265 249.238,154.017 249.238,152.431 250.426,152.677    "
   id="polygon9079" />
			<polygon
   fill="#FFFFFF"
   points="252.431,154.682 251.243,154.434 251.243,152.846 252.431,153.095    "
   id="polygon9081" />
			<polygon
   fill="#FFFFFF"
   points="254.436,155.099 253.247,154.852 253.247,153.263 254.436,153.51    "
   id="polygon9083" />
			<polygon
   fill="#CDCCCD"
   points="256.696,157.693 265.751,148.942 265.751,140.272 256.696,148.969    "
   id="polygon9085" />
			<g
   id="g9087">
				
					<rect
   x="261.528"
   y="142.553"
   transform="matrix(-0.6805 -0.7328 0.7328 -0.6805 331.9047 439.0373)"
   fill="#FFFFFF"
   width="0.299"
   height="9.197"
   id="rect9089" />
				
					<rect
   x="261.529"
   y="144.428"
   transform="matrix(-0.6837 -0.7297 0.7297 -0.6837 331.8411 441.878)"
   fill="#FFFFFF"
   width="0.297"
   height="9.198"
   id="rect9091" />
				
					<rect
   x="261.528"
   y="146.253"
   transform="matrix(-0.678 -0.7351 0.7351 -0.678 328.2127 445.4799)"
   fill="#FFFFFF"
   width="0.3"
   height="9.201"
   id="rect9093" />
			</g>
			<polygon
   fill="#FFFFFF"
   points="228.632,143.14 256.696,148.969 265.751,140.272 241.565,135.752    "
   id="polygon9095" />
		</g>
		<rect
   x="228.632"
   y="135.752"
   fill="none"
   width="37.119"
   height="22.689"
   id="rect9097" />
	</g>
	<g
   id="g9099">
		<path
   fill="#B8DAD4"
   d="M329.609,16.941l15,11.999l-15-6l0,0c0,2.486-2.014,4.5-4.499,4.5h-49.502c-2.484,0-4.498-2.013-4.498-4.5    v-5.999c0-2.485,2.014-4.501,4.498-4.501h49.502C327.595,12.44,329.609,14.456,329.609,16.941L329.609,16.941z"
   id="path9101" />
	</g>
	<g
   id="g9103">
		<path
   fill="#B8DAD4"
   d="M329.609,37.942l15-6.001l-15,12l0,0c0,2.486-2.014,4.5-4.499,4.5h-49.502c-2.484,0-4.498-2.014-4.498-4.5    v-5.998c0-2.486,2.014-4.502,4.498-4.502h49.502C327.595,33.44,329.609,35.456,329.609,37.942L329.609,37.942z"
   id="path9105" />
	</g>
	<g
   id="g9107">
		<path
   fill="#B8DAD4"
   d="M188.736,16.941l15,11.999l-15-6l0,0c0,2.486-2.014,4.5-4.499,4.5h-49.502c-2.484,0-4.498-2.013-4.498-4.5    v-5.999c0-2.485,2.014-4.501,4.498-4.501h49.502C186.722,12.44,188.736,14.456,188.736,16.941L188.736,16.941z"
   id="path9109" />
	</g>
	<g
   id="g9111">
		<path
   fill="#B8DAD4"
   d="M188.736,37.942l15-6.001l-15,12l0,0c0,2.486-2.014,4.5-4.499,4.5h-49.502c-2.484,0-4.498-2.014-4.498-4.5    v-5.998c0-2.486,2.014-4.502,4.498-4.502h49.502C186.722,33.44,188.736,35.456,188.736,37.942L188.736,37.942z"
   id="path9113" />
	</g>
	<g
   id="g9115">
		<path
   fill="#B8DAD4"
   d="M58.499,16.941l15,11.999l-15-6l0,0c0,2.486-2.014,4.5-4.499,4.5H4.498C2.014,27.44,0,25.427,0,22.94    v-5.999c0-2.485,2.014-4.501,4.498-4.501H54C56.485,12.44,58.499,14.456,58.499,16.941L58.499,16.941z"
   id="path9117" />
	</g>
	<g
   id="g9119">
		<path
   fill="#B8DAD4"
   d="M58.499,37.942l15-6.001l-15,12l0,0c0,2.486-2.014,4.5-4.499,4.5H4.498C2.014,48.44,0,46.426,0,43.94    v-5.998c0-2.486,2.014-4.502,4.498-4.502H54C56.485,33.44,58.499,35.456,58.499,37.942L58.499,37.942z"
   id="path9121" />
	</g>
</g>
<g
   id="Text">
	<text
   transform="matrix(1 0 0 1 208.8726 168.7061)"
   font-family="'ArialMT'"
   font-size="8"
   id="text9124">Fibre Channel Switch</text>


	<text
   transform="matrix(1 0 0 1 63.2695 6.8652)"
   font-family="'ArialMT'"
   font-size="8"
   id="text9126">Web Server 1</text>


	<text
   transform="matrix(1 0 0 1 193.5063 6.8652)"
   font-family="'ArialMT'"
   font-size="8"
   id="text9128">Web Server 2</text>


	<text
   transform="matrix(1 0 0 1 334.3794 6.8652)"
   font-family="'ArialMT'"
   font-size="8"
   id="text9130">Web Server 3</text>


	<text
   transform="translate(315.188,176.3076)"
   id="text9132"><tspan
     x="0"
     y="0"
     font-size="8"
     id="tspan9134"
     style="font-size:8px;font-family:ArialMT">Shared Storage</tspan></text>


	<g
   id="g9138">
		<text
   transform="matrix(1 0 0 1 280.0034 22.6924)"
   font-family="'ArialMT'"
   font-size="8"
   id="text9140">Web Site E</text>


	</g>
	<g
   id="g9142">
		<text
   transform="matrix(1 0 0 1 280.4526 43.6924)"
   font-family="'ArialMT'"
   font-size="8"
   id="text9144">Web Site F</text>


	</g>
	<g
   id="g9146">
		<text
   transform="matrix(1 0 0 1 138.6885 22.6924)"
   font-family="'ArialMT'"
   font-size="8"
   id="text9148">Web Site C</text>


	</g>
	<g
   id="g9150">
		<text
   transform="matrix(1 0 0 1 138.6885 43.6924)"
   font-family="'ArialMT'"
   font-size="8"
   id="text9152">Web Site D</text>


	</g>
	<g
   id="g9154">
		<text
   transform="matrix(1 0 0 1 8.8931 22.6924)"
   font-family="'ArialMT'"
   font-size="8"
   id="text9156">Web Site A</text>


	</g>
	<g
   id="g9158">
		<text
   transform="matrix(1 0 0 1 8.8931 43.6924)"
   font-family="'ArialMT'"
   font-size="8"
   id="text9160">Web Site B</text>


	</g>
</g>
</svg>