<?xml version="1.0" encoding="UTF-8" standalone="no"?>
<!-- Generator: Adobe Illustrator 13.0.2, SVG Export Plug-In . SVG Version: 6.00 Build 14948)  -->

<svg
   xmlns:dc="http://purl.org/dc/elements/1.1/"
   xmlns:cc="http://creativecommons.org/ns#"
   xmlns:rdf="http://www.w3.org/1999/02/22-rdf-syntax-ns#"
   xmlns:svg="http://www.w3.org/2000/svg"
   xmlns="http://www.w3.org/2000/svg"
   xmlns:sodipodi="http://sodipodi.sourceforge.net/DTD/sodipodi-0.dtd"
   xmlns:inkscape="http://www.inkscape.org/namespaces/inkscape"
   version="1.1"
   x="0px"
   y="0px"
   width="145.11496mm"
   height="67.044952mm"
   viewBox="0 0 514.18685 237.56083"
   enable-background="new 0 0 383.286 188.505"
   xml:space="preserve"
   id="svg8338"
   sodipodi:version="0.32"
   inkscape:version="0.92.2 5c3e80d, 2017-08-06"
   inkscape:output_extension="org.inkscape.output.svg.inkscape"
   sodipodi:docname="ha_cluster_example1.svg"><metadata
     id="metadata9165"><rdf:RDF><cc:Work
         rdf:about=""><dc:format>image/svg+xml</dc:format><dc:type
           rdf:resource="http://purl.org/dc/dcmitype/StillImage" /><dc:title /></cc:Work></rdf:RDF></metadata><defs
     id="defs9163"><inkscape:perspective
       sodipodi:type="inkscape:persp3d"
       inkscape:vp_x="0 : 94.252495 : 1"
       inkscape:vp_y="0 : 999.99995 : 0"
       inkscape:vp_z="383.28602 : 94.252492 : 1"
       inkscape:persp3d-origin="191.64301 : 62.834996 : 1"
       id="perspective9167" /></defs><sodipodi:namedview
     inkscape:window-height="743"
     inkscape:window-width="1669"
     inkscape:pageshadow="2"
     inkscape:pageopacity="0.0"
     guidetolerance="10.0"
     gridtolerance="10.0"
     objecttolerance="10.0"
     borderopacity="1.0"
     bordercolor="#666666"
     pagecolor="#ffffff"
     id="base"
     showgrid="false"
     inkscape:zoom="1.52"
     inkscape:cx="194.21031"
     inkscape:cy="132.87591"
     inkscape:window-x="100"
     inkscape:window-y="84"
     inkscape:current-layer="Text"
     fit-margin-top="0"
     fit-margin-left="0"
     fit-margin-right="0"
     fit-margin-bottom="0"
     inkscape:window-maximized="0"
     units="mm" /><g
     id="Layer_1"
     transform="translate(0,5.8922365)"><rect
       x="334.20685"
       y="185.82185"
       width="0.79490316"
       height="0.79490316"
       id="rect8341"
       style="fill:#00a651" /><rect
       x="334.20685"
       y="187.7832"
       width="0.79490316"
       height="0.79490316"
       id="rect8343"
       style="fill:#00a651" /><line
       x1="335.8447"
       y1="187.18544"
       x2="411.67014"
       y2="187.18544"
       id="line8345"
       style="fill:none;stroke:#000000;stroke-width:1.26375699" /><g
       id="g8347"
       transform="matrix(1.3552908,0,0,1.6159178,-7.7999658,-9.2221275)"><g
         id="g8349"><g
           id="g8351"><polygon
             points="77.622,47.016 77.622,45.377 80.319,46.055 80.319,47.689 "
             id="polygon8353"
             style="fill:#2182b9" /><polygon
             points="85.215,48.844 85.215,47.203 87.915,47.879 87.915,49.516 "
             id="polygon8355"
             style="fill:#2182b9" /><polygon
             points="87.937,49.42 87.937,47.779 88.737,46.641 88.737,48.277 "
             id="polygon8357"
             style="fill:#cdcccd" /><polygon
             points="80.349,47.604 80.349,45.967 81.149,44.828 81.149,46.461 "
             id="polygon8359"
             style="fill:#cdcccd" /><polyline
             points="76.499,20.607 76.499,45.072 89.062,48.266 89.062,23.799 76.499,20.607     "
             id="polyline8361"
             style="fill:#2182b9" /><polygon
             points="89.062,48.266 98.949,38.379 98.949,13.92 89.062,23.799 "
             id="polygon8363"
             style="fill:#cdcccd" /><path
             d="m 86.452,40.678 c 0,0.039 -0.026,0.064 -0.065,0.055 l -2.946,-0.746 c -0.037,-0.01 -0.068,-0.051 -0.068,-0.09 v -0.842 c 0,-0.039 0.031,-0.064 0.068,-0.053 l 2.946,0.748 c 0.039,0.006 0.065,0.047 0.065,0.084 v 0.844"
             id="path8365"
             inkscape:connector-curvature="0"
             style="fill:#cdcccd" /><path
             d="m 84.258,26.951 c 0,0.039 -0.029,0.066 -0.068,0.055 L 81.246,26.258 C 81.207,26.25 81.178,26.211 81.178,26.17 v -0.842 c 0,-0.037 0.029,-0.061 0.068,-0.049 l 2.944,0.744 c 0.039,0.008 0.068,0.047 0.068,0.086 v 0.842"
             id="path8367"
             inkscape:connector-curvature="0"
             style="fill:#ffffff" /><path
             d="m 86.452,42.582 c 0,0.035 -0.026,0.064 -0.065,0.055 L 83.441,41.891 C 83.404,41.879 83.373,41.84 83.373,41.803 v -0.842 c 0,-0.039 0.031,-0.064 0.068,-0.053 l 2.946,0.742 c 0.039,0.014 0.065,0.053 0.065,0.09 v 0.842"
             id="path8369"
             inkscape:connector-curvature="0"
             style="fill:#ffffff" /><path
             d="m 81.987,38.881 c 0,-0.037 -0.031,-0.078 -0.07,-0.092 l -2.942,-0.742 c -0.039,-0.012 -0.071,0.014 -0.071,0.053 v 0.844 c 0,0.035 0.032,0.076 0.071,0.086 l 2.942,0.744 c 0.039,0.012 0.07,-0.014 0.07,-0.051 v -0.842"
             id="path8371"
             inkscape:connector-curvature="0"
             style="fill:#ffffff" /><path
             d="m 86.452,44.521 c 0,0.037 -0.026,0.064 -0.065,0.055 L 83.44,43.83 c -0.037,-0.008 -0.068,-0.051 -0.068,-0.088 v -0.844 c 0,-0.037 0.031,-0.062 0.068,-0.053 l 2.946,0.748 c 0.039,0.008 0.065,0.047 0.065,0.084 v 0.844"
             id="path8373"
             inkscape:connector-curvature="0"
             style="fill:#ffffff" /><path
             d="m 81.987,42.725 c 0,-0.039 -0.031,-0.078 -0.07,-0.09 l -2.942,-0.744 c -0.039,-0.012 -0.071,0.016 -0.071,0.053 v 0.846 c 0,0.033 0.032,0.074 0.071,0.084 l 2.942,0.744 c 0.039,0.012 0.07,-0.014 0.07,-0.049 v -0.844"
             id="path8375"
             inkscape:connector-curvature="0"
             style="fill:#cdcccd" /><path
             d="m 81.987,40.785 c 0,-0.041 -0.031,-0.08 -0.07,-0.092 l -2.942,-0.746 c -0.039,-0.006 -0.071,0.018 -0.071,0.057 v 0.842 c 0,0.039 0.032,0.078 0.071,0.088 l 2.942,0.742 c 0.039,0.01 0.07,-0.01 0.07,-0.049 v -0.842"
             id="path8377"
             inkscape:connector-curvature="0"
             style="fill:#ffffff" /></g><polygon
           points="86.618,11.365 76.514,20.66 89.017,23.805 98.935,14.047 "
           id="polygon8379"
           style="fill:#ffffff" /></g><g
         id="g8381"><path
           d="m 91.167,43.793 c 0,-0.27 -0.142,-0.354 -0.312,-0.184 -0.17,0.17 -0.311,0.525 -0.311,0.795 0,0.27 0.14,0.352 0.311,0.182 0.17,-0.168 0.312,-0.524 0.312,-0.793 z"
           id="path8383"
           inkscape:connector-curvature="0"
           style="fill:#ffffff" /><path
           d="m 92.063,42.914 c 0,-0.271 -0.14,-0.354 -0.311,-0.184 -0.174,0.168 -0.312,0.523 -0.312,0.793 0,0.27 0.139,0.354 0.312,0.184 0.172,-0.168 0.311,-0.523 0.311,-0.793 z"
           id="path8385"
           inkscape:connector-curvature="0"
           style="fill:#ffffff" /><path
           d="m 92.962,42.031 c 0,-0.27 -0.14,-0.35 -0.311,-0.182 -0.174,0.168 -0.312,0.523 -0.312,0.793 0,0.271 0.139,0.352 0.312,0.186 0.171,-0.17 0.311,-0.525 0.311,-0.797 z"
           id="path8387"
           inkscape:connector-curvature="0"
           style="fill:#ffffff" /><path
           d="m 93.86,41.152 c 0,-0.27 -0.14,-0.352 -0.312,-0.182 -0.172,0.168 -0.311,0.523 -0.311,0.791 0,0.273 0.139,0.354 0.311,0.186 0.173,-0.17 0.312,-0.525 0.312,-0.795 z"
           id="path8389"
           inkscape:connector-curvature="0"
           style="fill:#ffffff" /><path
           d="m 94.759,40.273 c 0,-0.271 -0.143,-0.354 -0.312,-0.186 -0.174,0.17 -0.311,0.525 -0.311,0.795 0,0.27 0.137,0.352 0.311,0.182 0.169,-0.166 0.312,-0.521 0.312,-0.791 z"
           id="path8391"
           inkscape:connector-curvature="0"
           style="fill:#ffffff" /><path
           d="m 95.654,39.393 c 0,-0.27 -0.14,-0.354 -0.31,-0.184 -0.174,0.17 -0.312,0.523 -0.312,0.795 0,0.27 0.139,0.352 0.312,0.182 0.171,-0.168 0.31,-0.524 0.31,-0.793 z"
           id="path8393"
           inkscape:connector-curvature="0"
           style="fill:#ffffff" /><path
           d="m 96.553,38.512 c 0,-0.268 -0.14,-0.352 -0.312,-0.184 -0.171,0.168 -0.31,0.525 -0.31,0.795 0,0.27 0.139,0.354 0.31,0.182 0.172,-0.168 0.312,-0.522 0.312,-0.793 z"
           id="path8395"
           inkscape:connector-curvature="0"
           style="fill:#ffffff" /><path
           d="m 97.451,37.631 c 0,-0.268 -0.141,-0.35 -0.312,-0.182 -0.171,0.168 -0.312,0.523 -0.312,0.795 0,0.268 0.14,0.35 0.312,0.182 0.172,-0.168 0.312,-0.524 0.312,-0.795 z"
           id="path8397"
           inkscape:connector-curvature="0"
           style="fill:#ffffff" /><path
           d="m 91.167,42.5 c 0,-0.27 -0.142,-0.352 -0.312,-0.182 -0.171,0.166 -0.311,0.521 -0.311,0.793 0,0.27 0.14,0.35 0.311,0.184 0.17,-0.17 0.312,-0.525 0.312,-0.795 z"
           id="path8399"
           inkscape:connector-curvature="0"
           style="fill:#ffffff" /><path
           d="m 92.063,41.621 c 0,-0.271 -0.14,-0.354 -0.311,-0.184 -0.174,0.168 -0.312,0.523 -0.312,0.793 0,0.271 0.139,0.352 0.312,0.184 0.172,-0.168 0.311,-0.523 0.311,-0.793 z"
           id="path8401"
           inkscape:connector-curvature="0"
           style="fill:#ffffff" /><path
           d="m 92.962,40.738 c 0,-0.27 -0.14,-0.352 -0.311,-0.182 -0.174,0.168 -0.312,0.523 -0.312,0.795 0,0.27 0.139,0.352 0.312,0.182 0.171,-0.168 0.311,-0.523 0.311,-0.795 z"
           id="path8403"
           inkscape:connector-curvature="0"
           style="fill:#ffffff" /><path
           d="m 93.86,39.859 c 0,-0.27 -0.14,-0.352 -0.312,-0.184 -0.172,0.168 -0.311,0.523 -0.311,0.793 0,0.271 0.139,0.352 0.311,0.184 0.173,-0.168 0.312,-0.521 0.312,-0.793 z"
           id="path8405"
           inkscape:connector-curvature="0"
           style="fill:#ffffff" /><path
           d="m 94.759,38.979 c 0,-0.27 -0.143,-0.352 -0.312,-0.184 -0.174,0.17 -0.311,0.525 -0.311,0.795 0,0.27 0.137,0.352 0.311,0.184 0.169,-0.169 0.312,-0.526 0.312,-0.795 z"
           id="path8407"
           inkscape:connector-curvature="0"
           style="fill:#ffffff" /><path
           d="m 95.654,38.1 c 0,-0.271 -0.14,-0.352 -0.31,-0.184 -0.174,0.168 -0.312,0.523 -0.312,0.795 0,0.27 0.139,0.352 0.312,0.182 0.171,-0.168 0.31,-0.524 0.31,-0.793 z"
           id="path8409"
           inkscape:connector-curvature="0"
           style="fill:#ffffff" /><path
           d="m 96.553,37.219 c 0,-0.27 -0.14,-0.354 -0.312,-0.182 -0.171,0.168 -0.31,0.523 -0.31,0.791 0,0.271 0.139,0.354 0.31,0.184 0.172,-0.166 0.312,-0.524 0.312,-0.793 z"
           id="path8411"
           inkscape:connector-curvature="0"
           style="fill:#ffffff" /><path
           d="m 97.451,36.34 c 0,-0.271 -0.141,-0.354 -0.312,-0.184 -0.172,0.168 -0.312,0.523 -0.312,0.793 0,0.271 0.14,0.354 0.312,0.184 0.172,-0.17 0.312,-0.526 0.312,-0.793 z"
           id="path8413"
           inkscape:connector-curvature="0"
           style="fill:#ffffff" /><path
           d="m 91.167,41.207 c 0,-0.27 -0.142,-0.352 -0.312,-0.184 -0.171,0.17 -0.311,0.525 -0.311,0.793 0,0.27 0.14,0.354 0.311,0.186 0.17,-0.17 0.312,-0.525 0.312,-0.795 z"
           id="path8415"
           inkscape:connector-curvature="0"
           style="fill:#ffffff" /><path
           d="m 92.063,40.328 c 0,-0.271 -0.14,-0.354 -0.311,-0.186 -0.174,0.17 -0.312,0.525 -0.312,0.795 0,0.27 0.139,0.352 0.312,0.184 0.172,-0.17 0.311,-0.523 0.311,-0.793 z"
           id="path8417"
           inkscape:connector-curvature="0"
           style="fill:#ffffff" /><path
           d="m 92.962,39.447 c 0,-0.271 -0.14,-0.352 -0.311,-0.184 -0.174,0.168 -0.312,0.525 -0.312,0.793 0,0.271 0.139,0.352 0.312,0.184 0.171,-0.168 0.311,-0.523 0.311,-0.793 z"
           id="path8419"
           inkscape:connector-curvature="0"
           style="fill:#ffffff" /><path
           d="m 93.86,38.566 c 0,-0.271 -0.14,-0.352 -0.312,-0.184 -0.172,0.168 -0.311,0.523 -0.311,0.793 0,0.271 0.139,0.354 0.311,0.184 0.173,-0.168 0.312,-0.523 0.312,-0.793 z"
           id="path8421"
           inkscape:connector-curvature="0"
           style="fill:#ffffff" /><path
           d="m 94.759,37.686 c 0,-0.27 -0.143,-0.35 -0.312,-0.182 -0.174,0.168 -0.311,0.523 -0.311,0.793 0,0.271 0.137,0.352 0.311,0.184 0.169,-0.169 0.312,-0.524 0.312,-0.795 z"
           id="path8423"
           inkscape:connector-curvature="0"
           style="fill:#ffffff" /><path
           d="m 95.654,36.807 c 0,-0.271 -0.14,-0.352 -0.31,-0.186 -0.174,0.17 -0.312,0.527 -0.312,0.797 0,0.268 0.139,0.352 0.312,0.184 0.171,-0.17 0.31,-0.526 0.31,-0.795 z"
           id="path8425"
           inkscape:connector-curvature="0"
           style="fill:#ffffff" /><path
           d="m 96.553,35.926 c 0,-0.27 -0.14,-0.352 -0.312,-0.184 -0.171,0.17 -0.31,0.523 -0.31,0.795 0,0.27 0.139,0.352 0.31,0.182 0.172,-0.168 0.312,-0.522 0.312,-0.793 z"
           id="path8427"
           inkscape:connector-curvature="0"
           style="fill:#ffffff" /><path
           d="m 97.451,35.045 c 0,-0.27 -0.141,-0.352 -0.312,-0.182 -0.172,0.168 -0.312,0.523 -0.312,0.793 0,0.27 0.14,0.354 0.312,0.184 0.172,-0.17 0.312,-0.524 0.312,-0.795 z"
           id="path8429"
           inkscape:connector-curvature="0"
           style="fill:#ffffff" /></g></g><rect
       x="96.676147"
       y="15.860422"
       width="28.371346"
       height="48.212334"
       id="rect8431"
       style="fill:none" /><g
       id="g8433"
       transform="matrix(1.3552908,0,0,1.6159178,-20.437536,-9.2221275)"><g
         id="g8435"><g
           id="g8437"><polygon
             points="207.859,45.377 210.556,46.055 210.556,47.689 207.859,47.016 "
             id="polygon8439"
             style="fill:#2182b9" /><polygon
             points="215.452,47.203 218.152,47.879 218.152,49.516 215.452,48.844 "
             id="polygon8441"
             style="fill:#2182b9" /><polygon
             points="218.173,47.779 218.974,46.641 218.974,48.277 218.173,49.42 "
             id="polygon8443"
             style="fill:#cdcccd" /><polygon
             points="210.585,45.967 211.386,44.828 211.386,46.461 210.585,47.604 "
             id="polygon8445"
             style="fill:#cdcccd" /><polyline
             points="206.736,20.607 206.736,45.072 219.299,48.266 219.299,23.799 206.736,20.607     "
             id="polyline8447"
             style="fill:#2182b9" /><polygon
             points="229.185,38.379 229.185,13.92 219.299,23.799 219.299,48.266 "
             id="polygon8449"
             style="fill:#cdcccd" /><path
             d="m 216.689,40.678 c 0,0.039 -0.026,0.064 -0.065,0.055 l -2.946,-0.746 c -0.037,-0.01 -0.068,-0.051 -0.068,-0.09 v -0.842 c 0,-0.039 0.031,-0.064 0.068,-0.053 l 2.946,0.748 c 0.039,0.006 0.065,0.047 0.065,0.084 v 0.844"
             id="path8451"
             inkscape:connector-curvature="0"
             style="fill:#cdcccd" /><path
             d="m 214.495,26.951 c 0,0.039 -0.029,0.066 -0.068,0.055 l -2.944,-0.748 c -0.039,-0.008 -0.068,-0.047 -0.068,-0.088 v -0.842 c 0,-0.037 0.029,-0.061 0.068,-0.049 l 2.944,0.744 c 0.039,0.008 0.068,0.047 0.068,0.086 v 0.842"
             id="path8453"
             inkscape:connector-curvature="0"
             style="fill:#ffffff" /><path
             d="m 216.689,42.582 c 0,0.035 -0.026,0.064 -0.065,0.055 l -2.946,-0.746 c -0.037,-0.012 -0.068,-0.051 -0.068,-0.088 v -0.842 c 0,-0.039 0.031,-0.064 0.068,-0.053 l 2.946,0.742 c 0.039,0.014 0.065,0.053 0.065,0.09 v 0.842"
             id="path8455"
             inkscape:connector-curvature="0"
             style="fill:#ffffff" /><path
             d="m 212.224,38.881 c 0,-0.037 -0.031,-0.078 -0.07,-0.092 l -2.942,-0.742 c -0.039,-0.012 -0.071,0.014 -0.071,0.053 v 0.844 c 0,0.035 0.032,0.076 0.071,0.086 l 2.942,0.744 c 0.039,0.012 0.07,-0.014 0.07,-0.051 v -0.842"
             id="path8457"
             inkscape:connector-curvature="0"
             style="fill:#ffffff" /><path
             d="m 216.689,44.521 c 0,0.037 -0.026,0.064 -0.065,0.055 l -2.946,-0.746 c -0.037,-0.008 -0.068,-0.051 -0.068,-0.088 v -0.844 c 0,-0.037 0.031,-0.062 0.068,-0.053 l 2.946,0.748 c 0.039,0.008 0.065,0.047 0.065,0.084 v 0.844"
             id="path8459"
             inkscape:connector-curvature="0"
             style="fill:#ffffff" /><path
             d="m 212.224,42.725 c 0,-0.039 -0.031,-0.078 -0.07,-0.09 l -2.942,-0.744 c -0.039,-0.012 -0.071,0.016 -0.071,0.053 v 0.846 c 0,0.033 0.032,0.074 0.071,0.084 l 2.942,0.744 c 0.039,0.012 0.07,-0.014 0.07,-0.049 v -0.844"
             id="path8461"
             inkscape:connector-curvature="0"
             style="fill:#cdcccd" /><path
             d="m 212.224,40.785 c 0,-0.041 -0.031,-0.08 -0.07,-0.092 l -2.942,-0.746 c -0.039,-0.006 -0.071,0.018 -0.071,0.057 v 0.842 c 0,0.039 0.032,0.078 0.071,0.088 l 2.942,0.742 c 0.039,0.01 0.07,-0.01 0.07,-0.049 v -0.842"
             id="path8463"
             inkscape:connector-curvature="0"
             style="fill:#ffffff" /></g><polygon
           points="206.75,20.66 219.253,23.805 229.172,14.047 216.855,11.365 "
           id="polygon8465"
           style="fill:#ffffff" /></g><g
         id="g8467"><path
           d="m 221.404,43.793 c 0,-0.27 -0.142,-0.354 -0.312,-0.184 -0.17,0.17 -0.311,0.525 -0.311,0.795 0,0.27 0.14,0.352 0.311,0.182 0.17,-0.168 0.312,-0.524 0.312,-0.793 z"
           id="path8469"
           inkscape:connector-curvature="0"
           style="fill:#ffffff" /><path
           d="m 222.3,42.914 c 0,-0.271 -0.14,-0.354 -0.311,-0.184 -0.174,0.168 -0.312,0.523 -0.312,0.793 0,0.27 0.139,0.354 0.312,0.184 0.172,-0.168 0.311,-0.523 0.311,-0.793 z"
           id="path8471"
           inkscape:connector-curvature="0"
           style="fill:#ffffff" /><path
           d="m 223.199,42.031 c 0,-0.27 -0.14,-0.35 -0.311,-0.182 -0.174,0.168 -0.312,0.523 -0.312,0.793 0,0.271 0.139,0.352 0.312,0.186 0.171,-0.17 0.311,-0.525 0.311,-0.797 z"
           id="path8473"
           inkscape:connector-curvature="0"
           style="fill:#ffffff" /><path
           d="m 224.097,41.152 c 0,-0.27 -0.14,-0.352 -0.312,-0.182 -0.172,0.168 -0.311,0.523 -0.311,0.791 0,0.273 0.139,0.354 0.311,0.186 0.173,-0.17 0.312,-0.525 0.312,-0.795 z"
           id="path8475"
           inkscape:connector-curvature="0"
           style="fill:#ffffff" /><path
           d="m 224.996,40.273 c 0,-0.271 -0.143,-0.354 -0.312,-0.186 -0.174,0.17 -0.311,0.525 -0.311,0.795 0,0.27 0.137,0.352 0.311,0.182 0.169,-0.166 0.312,-0.521 0.312,-0.791 z"
           id="path8477"
           inkscape:connector-curvature="0"
           style="fill:#ffffff" /><path
           d="m 225.891,39.393 c 0,-0.27 -0.14,-0.354 -0.31,-0.184 -0.174,0.17 -0.312,0.523 -0.312,0.795 0,0.27 0.139,0.352 0.312,0.182 0.17,-0.168 0.31,-0.524 0.31,-0.793 z"
           id="path8479"
           inkscape:connector-curvature="0"
           style="fill:#ffffff" /><path
           d="m 226.79,38.512 c 0,-0.268 -0.14,-0.352 -0.312,-0.184 -0.171,0.168 -0.31,0.525 -0.31,0.795 0,0.27 0.139,0.354 0.31,0.182 0.172,-0.168 0.312,-0.522 0.312,-0.793 z"
           id="path8481"
           inkscape:connector-curvature="0"
           style="fill:#ffffff" /><path
           d="m 227.688,37.631 c 0,-0.268 -0.142,-0.35 -0.312,-0.182 -0.173,0.168 -0.312,0.523 -0.312,0.795 0,0.268 0.14,0.35 0.312,0.182 0.17,-0.168 0.312,-0.524 0.312,-0.795 z"
           id="path8483"
           inkscape:connector-curvature="0"
           style="fill:#ffffff" /><path
           d="m 221.404,42.5 c 0,-0.27 -0.142,-0.352 -0.312,-0.182 -0.171,0.166 -0.311,0.521 -0.311,0.793 0,0.27 0.14,0.35 0.311,0.184 0.17,-0.17 0.312,-0.525 0.312,-0.795 z"
           id="path8485"
           inkscape:connector-curvature="0"
           style="fill:#ffffff" /><path
           d="m 222.3,41.621 c 0,-0.271 -0.14,-0.354 -0.311,-0.184 -0.174,0.168 -0.312,0.523 -0.312,0.793 0,0.271 0.139,0.352 0.312,0.184 0.172,-0.168 0.311,-0.523 0.311,-0.793 z"
           id="path8487"
           inkscape:connector-curvature="0"
           style="fill:#ffffff" /><path
           d="m 223.199,40.738 c 0,-0.27 -0.14,-0.352 -0.311,-0.182 -0.174,0.168 -0.312,0.523 -0.312,0.795 0,0.27 0.139,0.352 0.312,0.182 0.171,-0.168 0.311,-0.523 0.311,-0.795 z"
           id="path8489"
           inkscape:connector-curvature="0"
           style="fill:#ffffff" /><path
           d="m 224.097,39.859 c 0,-0.27 -0.14,-0.352 -0.312,-0.184 -0.172,0.168 -0.311,0.523 -0.311,0.793 0,0.271 0.139,0.352 0.311,0.184 0.173,-0.168 0.312,-0.521 0.312,-0.793 z"
           id="path8491"
           inkscape:connector-curvature="0"
           style="fill:#ffffff" /><path
           d="m 224.996,38.979 c 0,-0.27 -0.143,-0.352 -0.312,-0.184 -0.174,0.17 -0.311,0.525 -0.311,0.795 0,0.27 0.137,0.352 0.311,0.184 0.169,-0.169 0.312,-0.526 0.312,-0.795 z"
           id="path8493"
           inkscape:connector-curvature="0"
           style="fill:#ffffff" /><path
           d="m 225.891,38.1 c 0,-0.271 -0.14,-0.352 -0.31,-0.184 -0.174,0.168 -0.312,0.523 -0.312,0.795 0,0.27 0.139,0.352 0.312,0.182 0.17,-0.168 0.31,-0.524 0.31,-0.793 z"
           id="path8495"
           inkscape:connector-curvature="0"
           style="fill:#ffffff" /><path
           d="m 226.79,37.219 c 0,-0.27 -0.14,-0.354 -0.312,-0.182 -0.171,0.168 -0.31,0.523 -0.31,0.791 0,0.271 0.139,0.354 0.31,0.184 0.172,-0.166 0.312,-0.524 0.312,-0.793 z"
           id="path8497"
           inkscape:connector-curvature="0"
           style="fill:#ffffff" /><path
           d="m 227.688,36.34 c 0,-0.271 -0.142,-0.354 -0.312,-0.184 -0.173,0.168 -0.312,0.523 -0.312,0.793 0,0.271 0.14,0.354 0.312,0.184 0.17,-0.17 0.312,-0.526 0.312,-0.793 z"
           id="path8499"
           inkscape:connector-curvature="0"
           style="fill:#ffffff" /><path
           d="m 221.404,41.207 c 0,-0.27 -0.142,-0.352 -0.312,-0.184 -0.171,0.17 -0.311,0.525 -0.311,0.793 0,0.27 0.14,0.354 0.311,0.186 0.17,-0.17 0.312,-0.525 0.312,-0.795 z"
           id="path8501"
           inkscape:connector-curvature="0"
           style="fill:#ffffff" /><path
           d="m 222.3,40.328 c 0,-0.271 -0.14,-0.354 -0.311,-0.186 -0.174,0.17 -0.312,0.525 -0.312,0.795 0,0.27 0.139,0.352 0.312,0.184 0.172,-0.17 0.311,-0.523 0.311,-0.793 z"
           id="path8503"
           inkscape:connector-curvature="0"
           style="fill:#ffffff" /><path
           d="m 223.199,39.447 c 0,-0.271 -0.14,-0.352 -0.311,-0.184 -0.174,0.168 -0.312,0.525 -0.312,0.793 0,0.271 0.139,0.352 0.312,0.184 0.171,-0.168 0.311,-0.523 0.311,-0.793 z"
           id="path8505"
           inkscape:connector-curvature="0"
           style="fill:#ffffff" /><path
           d="m 224.097,38.566 c 0,-0.271 -0.14,-0.352 -0.312,-0.184 -0.172,0.168 -0.311,0.523 -0.311,0.793 0,0.271 0.139,0.354 0.311,0.184 0.173,-0.168 0.312,-0.523 0.312,-0.793 z"
           id="path8507"
           inkscape:connector-curvature="0"
           style="fill:#ffffff" /><path
           d="m 224.996,37.686 c 0,-0.27 -0.143,-0.35 -0.312,-0.182 -0.174,0.168 -0.311,0.523 -0.311,0.793 0,0.271 0.137,0.352 0.311,0.184 0.169,-0.169 0.312,-0.524 0.312,-0.795 z"
           id="path8509"
           inkscape:connector-curvature="0"
           style="fill:#ffffff" /><path
           d="m 225.891,36.807 c 0,-0.271 -0.14,-0.352 -0.31,-0.186 -0.174,0.17 -0.312,0.527 -0.312,0.797 0,0.268 0.139,0.352 0.312,0.184 0.17,-0.17 0.31,-0.526 0.31,-0.795 z"
           id="path8511"
           inkscape:connector-curvature="0"
           style="fill:#ffffff" /><path
           d="m 226.79,35.926 c 0,-0.27 -0.14,-0.352 -0.312,-0.184 -0.171,0.17 -0.31,0.523 -0.31,0.795 0,0.27 0.139,0.352 0.31,0.182 0.172,-0.168 0.312,-0.522 0.312,-0.793 z"
           id="path8513"
           inkscape:connector-curvature="0"
           style="fill:#ffffff" /><path
           d="m 227.688,35.045 c 0,-0.27 -0.142,-0.352 -0.312,-0.182 -0.173,0.168 -0.312,0.523 -0.312,0.793 0,0.27 0.14,0.354 0.312,0.184 0.17,-0.17 0.312,-0.524 0.312,-0.795 z"
           id="path8515"
           inkscape:connector-curvature="0"
           style="fill:#ffffff" /></g></g><rect
       x="261.26407"
       y="15.860422"
       width="28.370081"
       height="48.212334"
       id="rect8517"
       style="fill:none" /><g
       id="g8519"
       transform="matrix(1.3552908,0,0,1.6159178,-33.075106,-9.2221275)"><g
         id="g8521"><g
           id="g8523"><polygon
             points="351.429,46.055 351.429,47.689 348.732,47.016 348.732,45.377 "
             id="polygon8525"
             style="fill:#2182b9" /><polygon
             points="359.025,47.879 359.025,49.516 356.325,48.844 356.325,47.203 "
             id="polygon8527"
             style="fill:#2182b9" /><polygon
             points="359.847,46.641 359.847,48.277 359.046,49.42 359.046,47.779 "
             id="polygon8529"
             style="fill:#cdcccd" /><polygon
             points="352.259,44.828 352.259,46.461 351.458,47.604 351.458,45.967 "
             id="polygon8531"
             style="fill:#cdcccd" /><polyline
             points="347.609,20.607 347.609,45.072 360.172,48.266 360.172,23.799 347.609,20.607     "
             id="polyline8533"
             style="fill:#2182b9" /><polygon
             points="370.058,13.92 360.172,23.799 360.172,48.266 370.058,38.379 "
             id="polygon8535"
             style="fill:#cdcccd" /><path
             d="m 357.562,40.678 c 0,0.039 -0.026,0.064 -0.065,0.055 l -2.946,-0.746 c -0.037,-0.01 -0.068,-0.051 -0.068,-0.09 v -0.842 c 0,-0.039 0.031,-0.064 0.068,-0.053 l 2.946,0.748 c 0.039,0.006 0.065,0.047 0.065,0.084 v 0.844"
             id="path8537"
             inkscape:connector-curvature="0"
             style="fill:#cdcccd" /><path
             d="m 355.368,26.951 c 0,0.039 -0.029,0.066 -0.068,0.055 l -2.944,-0.748 c -0.039,-0.008 -0.068,-0.047 -0.068,-0.088 v -0.842 c 0,-0.037 0.029,-0.061 0.068,-0.049 l 2.944,0.744 c 0.039,0.008 0.068,0.047 0.068,0.086 v 0.842"
             id="path8539"
             inkscape:connector-curvature="0"
             style="fill:#ffffff" /><path
             d="m 357.562,42.582 c 0,0.035 -0.026,0.064 -0.065,0.055 l -2.946,-0.746 c -0.037,-0.012 -0.068,-0.051 -0.068,-0.088 v -0.842 c 0,-0.039 0.031,-0.064 0.068,-0.053 l 2.946,0.742 c 0.039,0.014 0.065,0.053 0.065,0.09 v 0.842"
             id="path8541"
             inkscape:connector-curvature="0"
             style="fill:#ffffff" /><path
             d="m 353.097,38.881 c 0,-0.037 -0.031,-0.078 -0.07,-0.092 l -2.942,-0.742 c -0.039,-0.012 -0.071,0.014 -0.071,0.053 v 0.844 c 0,0.035 0.032,0.076 0.071,0.086 l 2.942,0.744 c 0.039,0.012 0.07,-0.014 0.07,-0.051 v -0.842"
             id="path8543"
             inkscape:connector-curvature="0"
             style="fill:#ffffff" /><path
             d="m 357.562,44.521 c 0,0.037 -0.026,0.064 -0.065,0.055 l -2.946,-0.746 c -0.037,-0.008 -0.068,-0.051 -0.068,-0.088 v -0.844 c 0,-0.037 0.031,-0.062 0.068,-0.053 l 2.946,0.748 c 0.039,0.008 0.065,0.047 0.065,0.084 v 0.844"
             id="path8545"
             inkscape:connector-curvature="0"
             style="fill:#ffffff" /><path
             d="m 353.097,42.725 c 0,-0.039 -0.031,-0.078 -0.07,-0.09 l -2.942,-0.744 c -0.039,-0.012 -0.071,0.016 -0.071,0.053 v 0.846 c 0,0.033 0.032,0.074 0.071,0.084 l 2.942,0.744 c 0.039,0.012 0.07,-0.014 0.07,-0.049 v -0.844"
             id="path8547"
             inkscape:connector-curvature="0"
             style="fill:#cdcccd" /><path
             d="m 353.097,40.785 c 0,-0.041 -0.031,-0.08 -0.07,-0.092 l -2.942,-0.746 c -0.039,-0.006 -0.071,0.018 -0.071,0.057 v 0.842 c 0,0.039 0.032,0.078 0.071,0.088 l 2.942,0.742 c 0.039,0.01 0.07,-0.01 0.07,-0.049 v -0.842"
             id="path8549"
             inkscape:connector-curvature="0"
             style="fill:#ffffff" /></g><polygon
           points="360.126,23.805 370.045,14.047 357.728,11.365 347.624,20.66 "
           id="polygon8551"
           style="fill:#ffffff" /></g><g
         id="g8553"><path
           d="m 362.277,43.793 c 0,-0.27 -0.142,-0.354 -0.312,-0.184 -0.17,0.17 -0.311,0.525 -0.311,0.795 0,0.27 0.14,0.352 0.311,0.182 0.17,-0.168 0.312,-0.524 0.312,-0.793 z"
           id="path8555"
           inkscape:connector-curvature="0"
           style="fill:#ffffff" /><path
           d="m 363.173,42.914 c 0,-0.271 -0.14,-0.354 -0.311,-0.184 -0.174,0.168 -0.312,0.523 -0.312,0.793 0,0.27 0.139,0.354 0.312,0.184 0.172,-0.168 0.311,-0.523 0.311,-0.793 z"
           id="path8557"
           inkscape:connector-curvature="0"
           style="fill:#ffffff" /><path
           d="m 364.072,42.031 c 0,-0.27 -0.14,-0.35 -0.311,-0.182 -0.174,0.168 -0.312,0.523 -0.312,0.793 0,0.271 0.139,0.352 0.312,0.186 0.171,-0.17 0.311,-0.525 0.311,-0.797 z"
           id="path8559"
           inkscape:connector-curvature="0"
           style="fill:#ffffff" /><path
           d="m 364.97,41.152 c 0,-0.27 -0.14,-0.352 -0.312,-0.182 -0.172,0.168 -0.311,0.523 -0.311,0.791 0,0.273 0.139,0.354 0.311,0.186 0.173,-0.17 0.312,-0.525 0.312,-0.795 z"
           id="path8561"
           inkscape:connector-curvature="0"
           style="fill:#ffffff" /><path
           d="m 365.869,40.273 c 0,-0.271 -0.143,-0.354 -0.312,-0.186 -0.174,0.17 -0.311,0.525 -0.311,0.795 0,0.27 0.137,0.352 0.311,0.182 0.169,-0.166 0.312,-0.521 0.312,-0.791 z"
           id="path8563"
           inkscape:connector-curvature="0"
           style="fill:#ffffff" /><path
           d="m 366.764,39.393 c 0,-0.27 -0.14,-0.354 -0.31,-0.184 -0.174,0.17 -0.312,0.523 -0.312,0.795 0,0.27 0.139,0.352 0.312,0.182 0.171,-0.168 0.31,-0.524 0.31,-0.793 z"
           id="path8565"
           inkscape:connector-curvature="0"
           style="fill:#ffffff" /><path
           d="m 367.663,38.512 c 0,-0.268 -0.14,-0.352 -0.312,-0.184 -0.171,0.168 -0.31,0.525 -0.31,0.795 0,0.27 0.139,0.354 0.31,0.182 0.172,-0.168 0.312,-0.522 0.312,-0.793 z"
           id="path8567"
           inkscape:connector-curvature="0"
           style="fill:#ffffff" /><path
           d="m 368.561,37.631 c 0,-0.268 -0.142,-0.35 -0.312,-0.182 -0.173,0.168 -0.312,0.523 -0.312,0.795 0,0.268 0.14,0.35 0.312,0.182 0.17,-0.168 0.312,-0.524 0.312,-0.795 z"
           id="path8569"
           inkscape:connector-curvature="0"
           style="fill:#ffffff" /><path
           d="m 362.277,42.5 c 0,-0.27 -0.142,-0.352 -0.312,-0.182 -0.171,0.166 -0.311,0.521 -0.311,0.793 0,0.27 0.14,0.35 0.311,0.184 0.17,-0.17 0.312,-0.525 0.312,-0.795 z"
           id="path8571"
           inkscape:connector-curvature="0"
           style="fill:#ffffff" /><path
           d="m 363.173,41.621 c 0,-0.271 -0.14,-0.354 -0.311,-0.184 -0.174,0.168 -0.312,0.523 -0.312,0.793 0,0.271 0.139,0.352 0.312,0.184 0.172,-0.168 0.311,-0.523 0.311,-0.793 z"
           id="path8573"
           inkscape:connector-curvature="0"
           style="fill:#ffffff" /><path
           d="m 364.072,40.738 c 0,-0.27 -0.14,-0.352 -0.311,-0.182 -0.174,0.168 -0.312,0.523 -0.312,0.795 0,0.27 0.139,0.352 0.312,0.182 0.171,-0.168 0.311,-0.523 0.311,-0.795 z"
           id="path8575"
           inkscape:connector-curvature="0"
           style="fill:#ffffff" /><path
           d="m 364.97,39.859 c 0,-0.27 -0.14,-0.352 -0.312,-0.184 -0.172,0.168 -0.311,0.523 -0.311,0.793 0,0.271 0.139,0.352 0.311,0.184 0.173,-0.168 0.312,-0.521 0.312,-0.793 z"
           id="path8577"
           inkscape:connector-curvature="0"
           style="fill:#ffffff" /><path
           d="m 365.869,38.979 c 0,-0.27 -0.143,-0.352 -0.312,-0.184 -0.174,0.17 -0.311,0.525 -0.311,0.795 0,0.27 0.137,0.352 0.311,0.184 0.169,-0.169 0.312,-0.526 0.312,-0.795 z"
           id="path8579"
           inkscape:connector-curvature="0"
           style="fill:#ffffff" /><path
           d="m 366.764,38.1 c 0,-0.271 -0.14,-0.352 -0.31,-0.184 -0.174,0.168 -0.312,0.523 -0.312,0.795 0,0.27 0.139,0.352 0.312,0.182 0.171,-0.168 0.31,-0.524 0.31,-0.793 z"
           id="path8581"
           inkscape:connector-curvature="0"
           style="fill:#ffffff" /><path
           d="m 367.663,37.219 c 0,-0.27 -0.14,-0.354 -0.312,-0.182 -0.171,0.168 -0.31,0.523 -0.31,0.791 0,0.271 0.139,0.354 0.31,0.184 0.172,-0.166 0.312,-0.524 0.312,-0.793 z"
           id="path8583"
           inkscape:connector-curvature="0"
           style="fill:#ffffff" /><path
           d="m 368.561,36.34 c 0,-0.271 -0.142,-0.354 -0.312,-0.184 -0.173,0.168 -0.312,0.523 -0.312,0.793 0,0.271 0.14,0.354 0.312,0.184 0.17,-0.17 0.312,-0.526 0.312,-0.793 z"
           id="path8585"
           inkscape:connector-curvature="0"
           style="fill:#ffffff" /><path
           d="m 362.277,41.207 c 0,-0.27 -0.142,-0.352 -0.312,-0.184 -0.171,0.17 -0.311,0.525 -0.311,0.793 0,0.27 0.14,0.354 0.311,0.186 0.17,-0.17 0.312,-0.525 0.312,-0.795 z"
           id="path8587"
           inkscape:connector-curvature="0"
           style="fill:#ffffff" /><path
           d="m 363.173,40.328 c 0,-0.271 -0.14,-0.354 -0.311,-0.186 -0.174,0.17 -0.312,0.525 -0.312,0.795 0,0.27 0.139,0.352 0.312,0.184 0.172,-0.17 0.311,-0.523 0.311,-0.793 z"
           id="path8589"
           inkscape:connector-curvature="0"
           style="fill:#ffffff" /><path
           d="m 364.072,39.447 c 0,-0.271 -0.14,-0.352 -0.311,-0.184 -0.174,0.168 -0.312,0.525 -0.312,0.793 0,0.271 0.139,0.352 0.312,0.184 0.171,-0.168 0.311,-0.523 0.311,-0.793 z"
           id="path8591"
           inkscape:connector-curvature="0"
           style="fill:#ffffff" /><path
           d="m 364.97,38.566 c 0,-0.271 -0.14,-0.352 -0.312,-0.184 -0.172,0.168 -0.311,0.523 -0.311,0.793 0,0.271 0.139,0.354 0.311,0.184 0.173,-0.168 0.312,-0.523 0.312,-0.793 z"
           id="path8593"
           inkscape:connector-curvature="0"
           style="fill:#ffffff" /><path
           d="m 365.869,37.686 c 0,-0.27 -0.143,-0.35 -0.312,-0.182 -0.174,0.168 -0.311,0.523 -0.311,0.793 0,0.271 0.137,0.352 0.311,0.184 0.169,-0.169 0.312,-0.524 0.312,-0.795 z"
           id="path8595"
           inkscape:connector-curvature="0"
           style="fill:#ffffff" /><path
           d="m 366.764,36.807 c 0,-0.271 -0.14,-0.352 -0.31,-0.186 -0.174,0.17 -0.312,0.527 -0.312,0.797 0,0.268 0.139,0.352 0.312,0.184 0.171,-0.17 0.31,-0.526 0.31,-0.795 z"
           id="path8597"
           inkscape:connector-curvature="0"
           style="fill:#ffffff" /><path
           d="m 367.663,35.926 c 0,-0.27 -0.14,-0.352 -0.312,-0.184 -0.171,0.17 -0.31,0.523 -0.31,0.795 0,0.27 0.139,0.352 0.31,0.182 0.172,-0.168 0.312,-0.522 0.312,-0.793 z"
           id="path8599"
           inkscape:connector-curvature="0"
           style="fill:#ffffff" /><path
           d="m 368.561,35.045 c 0,-0.27 -0.142,-0.352 -0.312,-0.182 -0.173,0.168 -0.312,0.523 -0.312,0.793 0,0.27 0.14,0.354 0.312,0.184 0.17,-0.17 0.312,-0.524 0.312,-0.795 z"
           id="path8601"
           inkscape:connector-curvature="0"
           style="fill:#ffffff" /></g></g><rect
       x="439.29333"
       y="15.860422"
       width="28.370081"
       height="48.212334"
       id="rect8603"
       style="fill:none" /><g
       id="g8605"
       transform="matrix(1.5058676,0,0,1.5058676,-79.248122,-38.686074)"><g
         id="g8607"><g
           id="g8609"><polygon
             points="329.572,162.547 329.572,164.182 326.875,163.508 326.875,161.869 "
             id="polygon8611"
             style="fill:#2182b9" /><polygon
             points="337.167,164.371 337.167,166.008 334.467,165.336 334.467,163.695 "
             id="polygon8613"
             style="fill:#2182b9" /><polygon
             points="337.99,163.133 337.99,164.77 337.189,165.912 337.189,164.271 "
             id="polygon8615"
             style="fill:#cdcccd" /><polygon
             points="330.402,161.32 330.402,162.953 329.601,164.096 329.601,162.459 "
             id="polygon8617"
             style="fill:#cdcccd" /><polyline
             points="325.751,137.1 325.751,161.564 338.315,164.758 338.315,140.291 325.751,137.1     "
             id="polyline8619"
             style="fill:#2182b9" /><polygon
             points="348.201,130.412 338.315,140.291 338.315,164.758 348.201,154.871 "
             id="polygon8621"
             style="fill:#cdcccd" /><path
             d="m 335.705,157.17 c 0,0.039 -0.026,0.064 -0.065,0.055 l -2.946,-0.746 c -0.037,-0.01 -0.068,-0.051 -0.068,-0.09 v -0.842 c 0,-0.039 0.031,-0.064 0.068,-0.053 l 2.946,0.748 c 0.039,0.006 0.065,0.047 0.065,0.084 v 0.844"
             id="path8623"
             inkscape:connector-curvature="0"
             style="fill:#cdcccd" /><path
             d="m 333.51,143.443 c 0,0.039 -0.029,0.066 -0.068,0.055 l -2.944,-0.748 c -0.039,-0.008 -0.068,-0.047 -0.068,-0.088 v -0.842 c 0,-0.037 0.029,-0.061 0.068,-0.049 l 2.944,0.744 c 0.039,0.008 0.068,0.047 0.068,0.086 v 0.842"
             id="path8625"
             inkscape:connector-curvature="0"
             style="fill:#ffffff" /><path
             d="m 335.705,159.074 c 0,0.035 -0.026,0.064 -0.065,0.055 l -2.946,-0.746 c -0.037,-0.012 -0.068,-0.051 -0.068,-0.088 v -0.842 c 0,-0.039 0.031,-0.064 0.068,-0.053 l 2.946,0.742 c 0.039,0.014 0.065,0.053 0.065,0.09 v 0.842"
             id="path8627"
             inkscape:connector-curvature="0"
             style="fill:#ffffff" /><path
             d="m 331.24,155.373 c 0,-0.037 -0.031,-0.078 -0.07,-0.092 l -2.942,-0.742 c -0.039,-0.012 -0.071,0.014 -0.071,0.053 v 0.844 c 0,0.035 0.032,0.076 0.071,0.086 l 2.942,0.744 c 0.039,0.012 0.07,-0.014 0.07,-0.051 v -0.842"
             id="path8629"
             inkscape:connector-curvature="0"
             style="fill:#ffffff" /><path
             d="m 335.705,161.014 c 0,0.037 -0.026,0.064 -0.065,0.055 l -2.946,-0.746 c -0.037,-0.008 -0.068,-0.051 -0.068,-0.088 v -0.844 c 0,-0.037 0.031,-0.062 0.068,-0.053 l 2.946,0.748 c 0.039,0.008 0.065,0.047 0.065,0.084 v 0.844"
             id="path8631"
             inkscape:connector-curvature="0"
             style="fill:#ffffff" /><path
             d="m 331.24,159.217 c 0,-0.039 -0.031,-0.078 -0.07,-0.09 l -2.942,-0.744 c -0.039,-0.012 -0.071,0.016 -0.071,0.053 v 0.846 c 0,0.033 0.032,0.074 0.071,0.084 l 2.942,0.744 c 0.039,0.012 0.07,-0.014 0.07,-0.049 v -0.844"
             id="path8633"
             inkscape:connector-curvature="0"
             style="fill:#cdcccd" /><path
             d="m 331.24,157.277 c 0,-0.041 -0.031,-0.08 -0.07,-0.092 l -2.942,-0.746 c -0.039,-0.006 -0.071,0.018 -0.071,0.057 v 0.842 c 0,0.039 0.032,0.078 0.071,0.088 l 2.942,0.742 c 0.039,0.01 0.07,-0.01 0.07,-0.049 v -0.842"
             id="path8635"
             inkscape:connector-curvature="0"
             style="fill:#ffffff" /></g><polygon
           points="338.269,140.297 348.188,130.539 335.871,127.857 325.766,137.152 "
           id="polygon8637"
           style="fill:#ffffff" /></g><g
         id="g8639"><path
           d="m 340.419,160.285 c 0,-0.27 -0.142,-0.354 -0.312,-0.184 -0.17,0.17 -0.311,0.525 -0.311,0.795 0,0.27 0.14,0.352 0.311,0.182 0.171,-0.168 0.312,-0.523 0.312,-0.793 z"
           id="path8641"
           inkscape:connector-curvature="0"
           style="fill:#ffffff" /><path
           d="m 341.316,159.406 c 0,-0.271 -0.14,-0.354 -0.311,-0.184 -0.174,0.168 -0.312,0.523 -0.312,0.793 0,0.27 0.139,0.354 0.312,0.184 0.171,-0.168 0.311,-0.523 0.311,-0.793 z"
           id="path8643"
           inkscape:connector-curvature="0"
           style="fill:#ffffff" /><path
           d="m 342.214,158.523 c 0,-0.27 -0.14,-0.35 -0.311,-0.182 -0.174,0.168 -0.312,0.523 -0.312,0.793 0,0.271 0.139,0.352 0.312,0.186 0.172,-0.17 0.311,-0.525 0.311,-0.797 z"
           id="path8645"
           inkscape:connector-curvature="0"
           style="fill:#ffffff" /><path
           d="m 343.113,157.645 c 0,-0.27 -0.14,-0.352 -0.312,-0.182 -0.172,0.168 -0.311,0.523 -0.311,0.791 0,0.273 0.139,0.354 0.311,0.186 0.172,-0.17 0.312,-0.526 0.312,-0.795 z"
           id="path8647"
           inkscape:connector-curvature="0"
           style="fill:#ffffff" /><path
           d="m 344.011,156.766 c 0,-0.271 -0.143,-0.354 -0.312,-0.186 -0.174,0.17 -0.311,0.525 -0.311,0.795 0,0.27 0.137,0.352 0.311,0.182 0.17,-0.166 0.312,-0.522 0.312,-0.791 z"
           id="path8649"
           inkscape:connector-curvature="0"
           style="fill:#ffffff" /><path
           d="m 344.907,155.885 c 0,-0.27 -0.14,-0.354 -0.31,-0.184 -0.174,0.17 -0.312,0.523 -0.312,0.795 0,0.27 0.139,0.352 0.312,0.182 0.17,-0.168 0.31,-0.524 0.31,-0.793 z"
           id="path8651"
           inkscape:connector-curvature="0"
           style="fill:#ffffff" /><path
           d="m 345.805,155.004 c 0,-0.268 -0.14,-0.352 -0.312,-0.184 -0.171,0.168 -0.31,0.525 -0.31,0.795 0,0.27 0.139,0.354 0.31,0.182 0.173,-0.168 0.312,-0.522 0.312,-0.793 z"
           id="path8653"
           inkscape:connector-curvature="0"
           style="fill:#ffffff" /><path
           d="m 346.704,154.123 c 0,-0.268 -0.142,-0.35 -0.312,-0.182 -0.173,0.168 -0.312,0.523 -0.312,0.795 0,0.268 0.14,0.35 0.312,0.182 0.17,-0.168 0.312,-0.523 0.312,-0.795 z"
           id="path8655"
           inkscape:connector-curvature="0"
           style="fill:#ffffff" /><path
           d="m 340.419,158.992 c 0,-0.27 -0.142,-0.352 -0.312,-0.182 -0.171,0.166 -0.311,0.521 -0.311,0.793 0,0.27 0.14,0.35 0.311,0.184 0.171,-0.17 0.312,-0.525 0.312,-0.795 z"
           id="path8657"
           inkscape:connector-curvature="0"
           style="fill:#ffffff" /><path
           d="m 341.316,158.113 c 0,-0.271 -0.14,-0.354 -0.311,-0.184 -0.174,0.168 -0.312,0.523 -0.312,0.793 0,0.271 0.139,0.352 0.312,0.184 0.171,-0.168 0.311,-0.523 0.311,-0.793 z"
           id="path8659"
           inkscape:connector-curvature="0"
           style="fill:#ffffff" /><path
           d="m 342.214,157.23 c 0,-0.27 -0.14,-0.352 -0.311,-0.182 -0.174,0.168 -0.312,0.523 -0.312,0.795 0,0.27 0.139,0.352 0.312,0.182 0.172,-0.168 0.311,-0.523 0.311,-0.795 z"
           id="path8661"
           inkscape:connector-curvature="0"
           style="fill:#ffffff" /><path
           d="m 343.113,156.352 c 0,-0.27 -0.14,-0.352 -0.312,-0.184 -0.172,0.168 -0.311,0.523 -0.311,0.793 0,0.271 0.139,0.352 0.311,0.184 0.172,-0.168 0.312,-0.522 0.312,-0.793 z"
           id="path8663"
           inkscape:connector-curvature="0"
           style="fill:#ffffff" /><path
           d="m 344.011,155.471 c 0,-0.27 -0.143,-0.352 -0.312,-0.184 -0.174,0.17 -0.311,0.525 -0.311,0.795 0,0.27 0.137,0.352 0.311,0.184 0.17,-0.168 0.312,-0.526 0.312,-0.795 z"
           id="path8665"
           inkscape:connector-curvature="0"
           style="fill:#ffffff" /><path
           d="m 344.907,154.592 c 0,-0.271 -0.14,-0.352 -0.31,-0.184 -0.174,0.168 -0.312,0.523 -0.312,0.795 0,0.27 0.139,0.352 0.312,0.182 0.17,-0.168 0.31,-0.524 0.31,-0.793 z"
           id="path8667"
           inkscape:connector-curvature="0"
           style="fill:#ffffff" /><path
           d="m 345.805,153.711 c 0,-0.27 -0.14,-0.354 -0.312,-0.182 -0.171,0.168 -0.31,0.523 -0.31,0.791 0,0.271 0.139,0.354 0.31,0.184 0.173,-0.166 0.312,-0.524 0.312,-0.793 z"
           id="path8669"
           inkscape:connector-curvature="0"
           style="fill:#ffffff" /><path
           d="m 346.704,152.832 c 0,-0.271 -0.142,-0.354 -0.312,-0.184 -0.173,0.168 -0.312,0.523 -0.312,0.793 0,0.271 0.14,0.354 0.312,0.184 0.17,-0.17 0.312,-0.525 0.312,-0.793 z"
           id="path8671"
           inkscape:connector-curvature="0"
           style="fill:#ffffff" /><path
           d="m 340.419,157.699 c 0,-0.27 -0.142,-0.352 -0.312,-0.184 -0.171,0.17 -0.311,0.525 -0.311,0.793 0,0.27 0.14,0.354 0.311,0.186 0.171,-0.17 0.312,-0.525 0.312,-0.795 z"
           id="path8673"
           inkscape:connector-curvature="0"
           style="fill:#ffffff" /><path
           d="m 341.316,156.82 c 0,-0.271 -0.14,-0.354 -0.311,-0.186 -0.174,0.17 -0.312,0.525 -0.312,0.795 0,0.27 0.139,0.352 0.312,0.184 0.171,-0.17 0.311,-0.523 0.311,-0.793 z"
           id="path8675"
           inkscape:connector-curvature="0"
           style="fill:#ffffff" /><path
           d="m 342.214,155.939 c 0,-0.271 -0.14,-0.352 -0.311,-0.184 -0.174,0.168 -0.312,0.525 -0.312,0.793 0,0.271 0.139,0.352 0.312,0.184 0.172,-0.168 0.311,-0.523 0.311,-0.793 z"
           id="path8677"
           inkscape:connector-curvature="0"
           style="fill:#ffffff" /><path
           d="m 343.113,155.059 c 0,-0.271 -0.14,-0.352 -0.312,-0.184 -0.172,0.168 -0.311,0.523 -0.311,0.793 0,0.271 0.139,0.354 0.311,0.184 0.172,-0.168 0.312,-0.524 0.312,-0.793 z"
           id="path8679"
           inkscape:connector-curvature="0"
           style="fill:#ffffff" /><path
           d="m 344.011,154.178 c 0,-0.27 -0.143,-0.35 -0.312,-0.182 -0.174,0.168 -0.311,0.523 -0.311,0.793 0,0.271 0.137,0.352 0.311,0.184 0.17,-0.168 0.312,-0.524 0.312,-0.795 z"
           id="path8681"
           inkscape:connector-curvature="0"
           style="fill:#ffffff" /><path
           d="m 344.907,153.299 c 0,-0.271 -0.14,-0.352 -0.31,-0.186 -0.174,0.17 -0.312,0.527 -0.312,0.797 0,0.268 0.139,0.352 0.312,0.184 0.17,-0.17 0.31,-0.526 0.31,-0.795 z"
           id="path8683"
           inkscape:connector-curvature="0"
           style="fill:#ffffff" /><path
           d="m 345.805,152.418 c 0,-0.27 -0.14,-0.352 -0.312,-0.184 -0.171,0.17 -0.31,0.523 -0.31,0.795 0,0.27 0.139,0.352 0.31,0.182 0.173,-0.168 0.312,-0.522 0.312,-0.793 z"
           id="path8685"
           inkscape:connector-curvature="0"
           style="fill:#ffffff" /><path
           d="m 346.704,151.537 c 0,-0.27 -0.142,-0.352 -0.312,-0.182 -0.173,0.168 -0.312,0.523 -0.312,0.793 0,0.27 0.14,0.354 0.312,0.184 0.17,-0.17 0.312,-0.523 0.312,-0.795 z"
           id="path8687"
           inkscape:connector-curvature="0"
           style="fill:#ffffff" /></g></g><rect
       x="411.67014"
       y="163.078"
       width="28.370081"
       height="48.212334"
       id="rect8689"
       style="fill:none" /><g
       id="g8691"
       transform="matrix(1.263757,0,0,1.263757,0,1.4978234)"><g
         id="g8693"><g
           id="g8695"><polygon
             points="107.113,31.308 108.009,31.308 108.009,23.762 92.563,23.762 92.563,31.08 99.095,31.08 99.095,32.157 101.878,32.157 101.878,31.08 102.632,31.08 102.632,32.157 106.83,32.157 106.83,31.08 107.113,31.08 "
             id="polygon8697"
             style="fill:none;stroke:#000000;stroke-width:0.5;stroke-linecap:round;stroke-linejoin:round" /><polygon
             points="107.181,31.308 108.077,31.308 108.077,23.762 92.631,23.762 92.631,31.08 99.164,31.08 99.164,32.157 101.945,32.157 101.945,31.08 102.701,31.08 102.701,32.157 106.898,32.157 106.898,31.08 107.181,31.08 "
             id="polygon8699"
             style="fill:#00a651;stroke:#000000;stroke-width:0.5;stroke-linecap:round;stroke-linejoin:round" /><g
             id="g8701"><rect
               x="108.177"
               y="26.545"
               width="0.94300002"
               height="0.472"
               id="rect8703"
               style="fill:#ffffff;stroke:#000000;stroke-width:0.25;stroke-linecap:round;stroke-linejoin:round" /><path
               d="M 108.548,26.781"
               id="path8705"
               inkscape:connector-curvature="0"
               style="fill:#ffffff;stroke:#000000;stroke-width:0.25;stroke-linecap:round;stroke-linejoin:round" /></g><line
             x1="99.527"
             y1="31.370001"
             x2="99.527"
             y2="32.137001"
             id="line8707"
             style="stroke:#000000;stroke-width:0.25;stroke-linecap:round;stroke-linejoin:round" /><line
             x1="99.821999"
             y1="31.370001"
             x2="99.821999"
             y2="32.137001"
             id="line8709"
             style="stroke:#000000;stroke-width:0.25;stroke-linecap:round;stroke-linejoin:round" /><line
             x1="100.117"
             y1="31.370001"
             x2="100.117"
             y2="32.137001"
             id="line8711"
             style="stroke:#000000;stroke-width:0.25;stroke-linecap:round;stroke-linejoin:round" /><line
             x1="100.412"
             y1="31.370001"
             x2="100.412"
             y2="32.137001"
             id="line8713"
             style="stroke:#000000;stroke-width:0.25;stroke-linecap:round;stroke-linejoin:round" /><line
             x1="100.707"
             y1="31.370001"
             x2="100.707"
             y2="32.137001"
             id="line8715"
             style="stroke:#000000;stroke-width:0.25;stroke-linecap:round;stroke-linejoin:round" /><line
             x1="101"
             y1="31.370001"
             x2="101"
             y2="32.137001"
             id="line8717"
             style="stroke:#000000;stroke-width:0.25;stroke-linecap:round;stroke-linejoin:round" /><line
             x1="101.294"
             y1="31.370001"
             x2="101.294"
             y2="32.137001"
             id="line8719"
             style="stroke:#000000;stroke-width:0.25;stroke-linecap:round;stroke-linejoin:round" /><line
             x1="101.589"
             y1="31.370001"
             x2="101.589"
             y2="32.137001"
             id="line8721"
             style="stroke:#000000;stroke-width:0.25;stroke-linecap:round;stroke-linejoin:round" /><line
             x1="103.064"
             y1="31.370001"
             x2="103.064"
             y2="32.137001"
             id="line8723"
             style="stroke:#000000;stroke-width:0.25;stroke-linecap:round;stroke-linejoin:round" /><line
             x1="103.359"
             y1="31.370001"
             x2="103.359"
             y2="32.137001"
             id="line8725"
             style="stroke:#000000;stroke-width:0.25;stroke-linecap:round;stroke-linejoin:round" /><line
             x1="103.654"
             y1="31.370001"
             x2="103.654"
             y2="32.137001"
             id="line8727"
             style="stroke:#000000;stroke-width:0.25;stroke-linecap:round;stroke-linejoin:round" /><line
             x1="103.949"
             y1="31.370001"
             x2="103.949"
             y2="32.137001"
             id="line8729"
             style="stroke:#000000;stroke-width:0.25;stroke-linecap:round;stroke-linejoin:round" /><line
             x1="104.244"
             y1="31.370001"
             x2="104.244"
             y2="32.137001"
             id="line8731"
             style="stroke:#000000;stroke-width:0.25;stroke-linecap:round;stroke-linejoin:round" /><line
             x1="104.538"
             y1="31.370001"
             x2="104.538"
             y2="32.137001"
             id="line8733"
             style="stroke:#000000;stroke-width:0.25;stroke-linecap:round;stroke-linejoin:round" /><line
             x1="104.832"
             y1="31.370001"
             x2="104.832"
             y2="32.137001"
             id="line8735"
             style="stroke:#000000;stroke-width:0.25;stroke-linecap:round;stroke-linejoin:round" /><line
             x1="105.126"
             y1="31.370001"
             x2="105.126"
             y2="32.137001"
             id="line8737"
             style="stroke:#000000;stroke-width:0.25;stroke-linecap:round;stroke-linejoin:round" /><line
             x1="105.421"
             y1="31.370001"
             x2="105.421"
             y2="32.137001"
             id="line8739"
             style="stroke:#000000;stroke-width:0.25;stroke-linecap:round;stroke-linejoin:round" /><line
             x1="105.716"
             y1="31.370001"
             x2="105.716"
             y2="32.137001"
             id="line8741"
             style="stroke:#000000;stroke-width:0.25;stroke-linecap:round;stroke-linejoin:round" /><line
             x1="106.011"
             y1="31.370001"
             x2="106.011"
             y2="32.137001"
             id="line8743"
             style="stroke:#000000;stroke-width:0.25;stroke-linecap:round;stroke-linejoin:round" /><line
             x1="106.306"
             y1="31.370001"
             x2="106.306"
             y2="32.137001"
             id="line8745"
             style="stroke:#000000;stroke-width:0.25;stroke-linecap:round;stroke-linejoin:round" /><line
             x1="106.601"
             y1="31.370001"
             x2="106.601"
             y2="32.137001"
             id="line8747"
             style="stroke:#000000;stroke-width:0.25;stroke-linecap:round;stroke-linejoin:round" /><polyline
             points="93.121,30.837 93.121,24.234 107.8,24.234     "
             id="polyline8749"
             style="fill:none;stroke:#ffffff;stroke-width:0.5" /><g
             id="g8751"><path
               d="M 107.133,26.781"
               id="path8753"
               inkscape:connector-curvature="0" /><rect
               x="106.191"
               y="26.309"
               width="1.886"
               height="0.94300002"
               id="rect8755" /></g></g><rect
           x="100.118"
           y="27.743"
           width="0"
           height="0"
           id="rect8757"
           style="fill:none;stroke:#00a651;stroke-width:0.5" /></g><polyline
         points="106.091,28.275 102.023,28.275 102.023,29.69   "
         id="polyline8759"
         style="fill:none;stroke:#006f45;stroke-width:0.25" /><polyline
         points="101.925,25.957 101.925,25.514 103.074,25.514   "
         id="polyline8761"
         style="fill:none;stroke:#006f45;stroke-width:0.25" /><polyline
         points="103.896,25.956 103.896,25.514 105.044,25.514   "
         id="polyline8763"
         style="fill:none;stroke:#006f45;stroke-width:0.25" /><polyline
         points="101.925,26.79 101.925,26.348 103.074,26.348   "
         id="polyline8765"
         style="fill:none;stroke:#006f45;stroke-width:0.25" /><polyline
         points="103.896,26.79 103.896,26.348 105.044,26.348   "
         id="polyline8767"
         style="fill:none;stroke:#006f45;stroke-width:0.25" /><path
         d="M 97.798,27.656"
         id="path8769"
         inkscape:connector-curvature="0"
         style="fill:none;stroke:#00a651;stroke-width:0.25" /><polyline
         points="99.173,26.753 97.955,26.753 97.681,26.988 97.445,26.753     96.187,26.753 96.187,27.342   "
         id="polyline8771"
         style="fill:none;stroke:#006f45;stroke-width:0.25" /><polyline
         points="99.173,25.73 97.955,25.73 97.681,25.966 97.445,25.73     96.187,25.73 96.187,26.32   "
         id="polyline8773"
         style="fill:none;stroke:#006f45;stroke-width:0.25" /><polyline
         points="96.305,29.425 96.305,29.189 96.619,29.189   "
         id="polyline8775"
         style="fill:none;stroke:#006f45;stroke-width:0.25" /><polyline
         points="97.068,29.425 97.068,29.189 97.382,29.189   "
         id="polyline8777"
         style="fill:none;stroke:#006f45;stroke-width:0.25" /><polyline
         points="97.837,29.425 97.837,29.189 98.152,29.189   "
         id="polyline8779"
         style="fill:none;stroke:#006f45;stroke-width:0.25" /><polyline
         points="98.64,29.425 98.64,29.189 98.955,29.189   "
         id="polyline8781"
         style="fill:none;stroke:#006f45;stroke-width:0.25" /><polyline
         points="96.305,28.678 96.305,28.442 96.619,28.442   "
         id="polyline8783"
         style="fill:none;stroke:#006f45;stroke-width:0.25" /><polyline
         points="97.068,28.678 97.068,28.442 97.382,28.442   "
         id="polyline8785"
         style="fill:none;stroke:#006f45;stroke-width:0.25" /><polyline
         points="94.487,26.753 94.487,26.517 94.802,26.517   "
         id="polyline8787"
         style="fill:none;stroke:#006f45;stroke-width:0.25" /><polyline
         points="95.251,26.753 95.251,26.517 95.565,26.517   "
         id="polyline8789"
         style="fill:none;stroke:#006f45;stroke-width:0.25" /><polyline
         points="94.487,26.006 94.487,25.77 94.802,25.77   "
         id="polyline8791"
         style="fill:none;stroke:#006f45;stroke-width:0.25" /><polyline
         points="95.251,26.006 95.251,25.77 95.565,25.77   "
         id="polyline8793"
         style="fill:none;stroke:#006f45;stroke-width:0.25" /><polyline
         points="97.837,28.678 97.837,28.442 98.152,28.442   "
         id="polyline8795"
         style="fill:none;stroke:#006f45;stroke-width:0.25" /><polyline
         points="98.64,28.678 98.64,28.442 98.955,28.442   "
         id="polyline8797"
         style="fill:none;stroke:#006f45;stroke-width:0.25" /></g><g
       id="g8799"
       transform="matrix(1.263757,0,0,1.263757,0,1.4978234)"><g
         id="g8801"><g
           id="g8803"><polygon
             points="236.837,31.308 237.734,31.308 237.734,23.762 222.289,23.762 222.289,31.08 228.82,31.08 228.82,32.157 231.603,32.157 231.603,31.08 232.357,31.08 232.357,32.157 236.555,32.157 236.555,31.08 236.837,31.08 "
             id="polygon8805"
             style="fill:none;stroke:#000000;stroke-width:0.5;stroke-linecap:round;stroke-linejoin:round" /><polygon
             points="236.905,31.308 237.801,31.308 237.801,23.762 222.356,23.762 222.356,31.08 228.887,31.08 228.887,32.157 231.67,32.157 231.67,31.08 232.424,31.08 232.424,32.157 236.622,32.157 236.622,31.08 236.905,31.08 "
             id="polygon8807"
             style="fill:#00a651;stroke:#000000;stroke-width:0.5;stroke-linecap:round;stroke-linejoin:round" /><g
             id="g8809"><rect
               x="237.90199"
               y="26.545"
               width="0.94300002"
               height="0.472"
               id="rect8811"
               style="fill:#ffffff;stroke:#000000;stroke-width:0.25;stroke-linecap:round;stroke-linejoin:round" /><path
               d="M 238.273,26.781"
               id="path8813"
               inkscape:connector-curvature="0"
               style="fill:#ffffff;stroke:#000000;stroke-width:0.25;stroke-linecap:round;stroke-linejoin:round" /></g><line
             x1="229.25101"
             y1="31.370001"
             x2="229.25101"
             y2="32.137001"
             id="line8815"
             style="stroke:#000000;stroke-width:0.25;stroke-linecap:round;stroke-linejoin:round" /><line
             x1="229.545"
             y1="31.370001"
             x2="229.545"
             y2="32.137001"
             id="line8817"
             style="stroke:#000000;stroke-width:0.25;stroke-linecap:round;stroke-linejoin:round" /><line
             x1="229.84"
             y1="31.370001"
             x2="229.84"
             y2="32.137001"
             id="line8819"
             style="stroke:#000000;stroke-width:0.25;stroke-linecap:round;stroke-linejoin:round" /><line
             x1="230.13499"
             y1="31.370001"
             x2="230.13499"
             y2="32.137001"
             id="line8821"
             style="stroke:#000000;stroke-width:0.25;stroke-linecap:round;stroke-linejoin:round" /><line
             x1="230.42999"
             y1="31.370001"
             x2="230.42999"
             y2="32.137001"
             id="line8823"
             style="stroke:#000000;stroke-width:0.25;stroke-linecap:round;stroke-linejoin:round" /><line
             x1="230.72501"
             y1="31.370001"
             x2="230.72501"
             y2="32.137001"
             id="line8825"
             style="stroke:#000000;stroke-width:0.25;stroke-linecap:round;stroke-linejoin:round" /><line
             x1="231.02"
             y1="31.370001"
             x2="231.02"
             y2="32.137001"
             id="line8827"
             style="stroke:#000000;stroke-width:0.25;stroke-linecap:round;stroke-linejoin:round" /><line
             x1="231.315"
             y1="31.370001"
             x2="231.315"
             y2="32.137001"
             id="line8829"
             style="stroke:#000000;stroke-width:0.25;stroke-linecap:round;stroke-linejoin:round" /><line
             x1="232.789"
             y1="31.370001"
             x2="232.789"
             y2="32.137001"
             id="line8831"
             style="stroke:#000000;stroke-width:0.25;stroke-linecap:round;stroke-linejoin:round" /><line
             x1="233.08299"
             y1="31.370001"
             x2="233.08299"
             y2="32.137001"
             id="line8833"
             style="stroke:#000000;stroke-width:0.25;stroke-linecap:round;stroke-linejoin:round" /><line
             x1="233.377"
             y1="31.370001"
             x2="233.377"
             y2="32.137001"
             id="line8835"
             style="stroke:#000000;stroke-width:0.25;stroke-linecap:round;stroke-linejoin:round" /><line
             x1="233.672"
             y1="31.370001"
             x2="233.672"
             y2="32.137001"
             id="line8837"
             style="stroke:#000000;stroke-width:0.25;stroke-linecap:round;stroke-linejoin:round" /><line
             x1="233.967"
             y1="31.370001"
             x2="233.967"
             y2="32.137001"
             id="line8839"
             style="stroke:#000000;stroke-width:0.25;stroke-linecap:round;stroke-linejoin:round" /><line
             x1="234.26199"
             y1="31.370001"
             x2="234.26199"
             y2="32.137001"
             id="line8841"
             style="stroke:#000000;stroke-width:0.25;stroke-linecap:round;stroke-linejoin:round" /><line
             x1="234.55701"
             y1="31.370001"
             x2="234.55701"
             y2="32.137001"
             id="line8843"
             style="stroke:#000000;stroke-width:0.25;stroke-linecap:round;stroke-linejoin:round" /><line
             x1="234.85201"
             y1="31.370001"
             x2="234.85201"
             y2="32.137001"
             id="line8845"
             style="stroke:#000000;stroke-width:0.25;stroke-linecap:round;stroke-linejoin:round" /><line
             x1="235.146"
             y1="31.370001"
             x2="235.146"
             y2="32.137001"
             id="line8847"
             style="stroke:#000000;stroke-width:0.25;stroke-linecap:round;stroke-linejoin:round" /><line
             x1="235.44099"
             y1="31.370001"
             x2="235.44099"
             y2="32.137001"
             id="line8849"
             style="stroke:#000000;stroke-width:0.25;stroke-linecap:round;stroke-linejoin:round" /><line
             x1="235.73599"
             y1="31.370001"
             x2="235.73599"
             y2="32.137001"
             id="line8851"
             style="stroke:#000000;stroke-width:0.25;stroke-linecap:round;stroke-linejoin:round" /><line
             x1="236.03101"
             y1="31.370001"
             x2="236.03101"
             y2="32.137001"
             id="line8853"
             style="stroke:#000000;stroke-width:0.25;stroke-linecap:round;stroke-linejoin:round" /><line
             x1="236.325"
             y1="31.370001"
             x2="236.325"
             y2="32.137001"
             id="line8855"
             style="stroke:#000000;stroke-width:0.25;stroke-linecap:round;stroke-linejoin:round" /><polyline
             points="222.846,30.837 222.846,24.234 237.525,24.234     "
             id="polyline8857"
             style="fill:none;stroke:#ffffff;stroke-width:0.5" /><g
             id="g8859"><path
               d="M 236.858,26.781"
               id="path8861"
               inkscape:connector-curvature="0" /><rect
               x="235.91499"
               y="26.309"
               width="1.887"
               height="0.94300002"
               id="rect8863" /></g></g><rect
           x="229.842"
           y="27.743"
           width="0"
           height="0"
           id="rect8865"
           style="fill:none;stroke:#00a651;stroke-width:0.5" /></g><polyline
         points="235.815,28.275 231.748,28.275 231.748,29.69   "
         id="polyline8867"
         style="fill:none;stroke:#006f45;stroke-width:0.25" /><polyline
         points="231.649,25.957 231.649,25.514 232.799,25.514   "
         id="polyline8869"
         style="fill:none;stroke:#006f45;stroke-width:0.25" /><polyline
         points="233.62,25.956 233.62,25.514 234.77,25.514   "
         id="polyline8871"
         style="fill:none;stroke:#006f45;stroke-width:0.25" /><polyline
         points="231.649,26.79 231.649,26.348 232.799,26.348   "
         id="polyline8873"
         style="fill:none;stroke:#006f45;stroke-width:0.25" /><polyline
         points="233.62,26.79 233.62,26.348 234.77,26.348   "
         id="polyline8875"
         style="fill:none;stroke:#006f45;stroke-width:0.25" /><path
         d="M 227.523,27.656"
         id="path8877"
         inkscape:connector-curvature="0"
         style="fill:none;stroke:#00a651;stroke-width:0.25" /><polyline
         points="228.899,26.753 227.68,26.753 227.405,26.988 227.168,26.753     225.911,26.753 225.911,27.342   "
         id="polyline8879"
         style="fill:none;stroke:#006f45;stroke-width:0.25" /><polyline
         points="228.899,25.73 227.68,25.73 227.405,25.966 227.168,25.73     225.911,25.73 225.911,26.32   "
         id="polyline8881"
         style="fill:none;stroke:#006f45;stroke-width:0.25" /><polyline
         points="226.029,29.425 226.029,29.189 226.343,29.189   "
         id="polyline8883"
         style="fill:none;stroke:#006f45;stroke-width:0.25" /><polyline
         points="226.792,29.425 226.792,29.189 227.107,29.189   "
         id="polyline8885"
         style="fill:none;stroke:#006f45;stroke-width:0.25" /><polyline
         points="227.562,29.425 227.562,29.189 227.876,29.189   "
         id="polyline8887"
         style="fill:none;stroke:#006f45;stroke-width:0.25" /><polyline
         points="228.365,29.425 228.365,29.189 228.679,29.189   "
         id="polyline8889"
         style="fill:none;stroke:#006f45;stroke-width:0.25" /><polyline
         points="226.029,28.678 226.029,28.442 226.343,28.442   "
         id="polyline8891"
         style="fill:none;stroke:#006f45;stroke-width:0.25" /><polyline
         points="226.792,28.678 226.792,28.442 227.107,28.442   "
         id="polyline8893"
         style="fill:none;stroke:#006f45;stroke-width:0.25" /><polyline
         points="224.211,26.753 224.211,26.517 224.526,26.517   "
         id="polyline8895"
         style="fill:none;stroke:#006f45;stroke-width:0.25" /><polyline
         points="224.975,26.753 224.975,26.517 225.29,26.517   "
         id="polyline8897"
         style="fill:none;stroke:#006f45;stroke-width:0.25" /><polyline
         points="224.211,26.006 224.211,25.77 224.526,25.77   "
         id="polyline8899"
         style="fill:none;stroke:#006f45;stroke-width:0.25" /><polyline
         points="224.975,26.006 224.975,25.77 225.29,25.77   "
         id="polyline8901"
         style="fill:none;stroke:#006f45;stroke-width:0.25" /><polyline
         points="227.562,28.678 227.562,28.442 227.876,28.442   "
         id="polyline8903"
         style="fill:none;stroke:#006f45;stroke-width:0.25" /><polyline
         points="228.365,28.678 228.365,28.442 228.679,28.442   "
         id="polyline8905"
         style="fill:none;stroke:#006f45;stroke-width:0.25" /></g><g
       id="g8907"
       transform="matrix(1.263757,0,0,1.263757,0,1.4978234)"><g
         id="g8909"><g
           id="g8911"><polygon
             points="377.442,31.308 378.338,31.308 378.338,23.762 362.893,23.762 362.893,31.08 369.424,31.08 369.424,32.157 372.208,32.157 372.208,31.08 372.961,31.08 372.961,32.157 377.159,32.157 377.159,31.08 377.442,31.08 "
             id="polygon8913"
             style="fill:none;stroke:#000000;stroke-width:0.5;stroke-linecap:round;stroke-linejoin:round" /><polygon
             points="377.509,31.308 378.406,31.308 378.406,23.762 362.96,23.762 362.96,31.08 369.492,31.08 369.492,32.157 372.275,32.157 372.275,31.08 373.029,31.08 373.029,32.157 377.226,32.157 377.226,31.08 377.509,31.08 "
             id="polygon8915"
             style="fill:#00a651;stroke:#000000;stroke-width:0.5;stroke-linecap:round;stroke-linejoin:round" /><g
             id="g8917"><rect
               x="378.50601"
               y="26.545"
               width="0.94300002"
               height="0.472"
               id="rect8919"
               style="fill:#ffffff;stroke:#000000;stroke-width:0.25;stroke-linecap:round;stroke-linejoin:round" /><path
               d="M 378.877,26.781"
               id="path8921"
               inkscape:connector-curvature="0"
               style="fill:#ffffff;stroke:#000000;stroke-width:0.25;stroke-linecap:round;stroke-linejoin:round" /></g><line
             x1="369.85599"
             y1="31.370001"
             x2="369.85599"
             y2="32.137001"
             id="line8923"
             style="stroke:#000000;stroke-width:0.25;stroke-linecap:round;stroke-linejoin:round" /><line
             x1="370.14999"
             y1="31.370001"
             x2="370.14999"
             y2="32.137001"
             id="line8925"
             style="stroke:#000000;stroke-width:0.25;stroke-linecap:round;stroke-linejoin:round" /><line
             x1="370.44501"
             y1="31.370001"
             x2="370.44501"
             y2="32.137001"
             id="line8927"
             style="stroke:#000000;stroke-width:0.25;stroke-linecap:round;stroke-linejoin:round" /><line
             x1="370.73999"
             y1="31.370001"
             x2="370.73999"
             y2="32.137001"
             id="line8929"
             style="stroke:#000000;stroke-width:0.25;stroke-linecap:round;stroke-linejoin:round" /><line
             x1="371.035"
             y1="31.370001"
             x2="371.035"
             y2="32.137001"
             id="line8931"
             style="stroke:#000000;stroke-width:0.25;stroke-linecap:round;stroke-linejoin:round" /><line
             x1="371.32999"
             y1="31.370001"
             x2="371.32999"
             y2="32.137001"
             id="line8933"
             style="stroke:#000000;stroke-width:0.25;stroke-linecap:round;stroke-linejoin:round" /><line
             x1="371.625"
             y1="31.370001"
             x2="371.625"
             y2="32.137001"
             id="line8935"
             style="stroke:#000000;stroke-width:0.25;stroke-linecap:round;stroke-linejoin:round" /><line
             x1="371.918"
             y1="31.370001"
             x2="371.918"
             y2="32.137001"
             id="line8937"
             style="stroke:#000000;stroke-width:0.25;stroke-linecap:round;stroke-linejoin:round" /><line
             x1="373.39301"
             y1="31.370001"
             x2="373.39301"
             y2="32.137001"
             id="line8939"
             style="stroke:#000000;stroke-width:0.25;stroke-linecap:round;stroke-linejoin:round" /><line
             x1="373.68701"
             y1="31.370001"
             x2="373.68701"
             y2="32.137001"
             id="line8941"
             style="stroke:#000000;stroke-width:0.25;stroke-linecap:round;stroke-linejoin:round" /><line
             x1="373.98199"
             y1="31.370001"
             x2="373.98199"
             y2="32.137001"
             id="line8943"
             style="stroke:#000000;stroke-width:0.25;stroke-linecap:round;stroke-linejoin:round" /><line
             x1="374.27701"
             y1="31.370001"
             x2="374.27701"
             y2="32.137001"
             id="line8945"
             style="stroke:#000000;stroke-width:0.25;stroke-linecap:round;stroke-linejoin:round" /><line
             x1="374.57199"
             y1="31.370001"
             x2="374.57199"
             y2="32.137001"
             id="line8947"
             style="stroke:#000000;stroke-width:0.25;stroke-linecap:round;stroke-linejoin:round" /><line
             x1="374.867"
             y1="31.370001"
             x2="374.867"
             y2="32.137001"
             id="line8949"
             style="stroke:#000000;stroke-width:0.25;stroke-linecap:round;stroke-linejoin:round" /><line
             x1="375.16199"
             y1="31.370001"
             x2="375.16199"
             y2="32.137001"
             id="line8951"
             style="stroke:#000000;stroke-width:0.25;stroke-linecap:round;stroke-linejoin:round" /><line
             x1="375.45599"
             y1="31.370001"
             x2="375.45599"
             y2="32.137001"
             id="line8953"
             style="stroke:#000000;stroke-width:0.25;stroke-linecap:round;stroke-linejoin:round" /><line
             x1="375.75"
             y1="31.370001"
             x2="375.75"
             y2="32.137001"
             id="line8955"
             style="stroke:#000000;stroke-width:0.25;stroke-linecap:round;stroke-linejoin:round" /><line
             x1="376.04501"
             y1="31.370001"
             x2="376.04501"
             y2="32.137001"
             id="line8957"
             style="stroke:#000000;stroke-width:0.25;stroke-linecap:round;stroke-linejoin:round" /><line
             x1="376.34"
             y1="31.370001"
             x2="376.34"
             y2="32.137001"
             id="line8959"
             style="stroke:#000000;stroke-width:0.25;stroke-linecap:round;stroke-linejoin:round" /><line
             x1="376.63501"
             y1="31.370001"
             x2="376.63501"
             y2="32.137001"
             id="line8961"
             style="stroke:#000000;stroke-width:0.25;stroke-linecap:round;stroke-linejoin:round" /><line
             x1="376.92999"
             y1="31.370001"
             x2="376.92999"
             y2="32.137001"
             id="line8963"
             style="stroke:#000000;stroke-width:0.25;stroke-linecap:round;stroke-linejoin:round" /><polyline
             points="363.451,30.837 363.451,24.234 378.129,24.234     "
             id="polyline8965"
             style="fill:none;stroke:#ffffff;stroke-width:0.5" /><g
             id="g8967"><path
               d="M 377.462,26.781"
               id="path8969"
               inkscape:connector-curvature="0" /><rect
               x="376.51901"
               y="26.309"
               width="1.887"
               height="0.94300002"
               id="rect8971" /></g></g><rect
           x="370.44699"
           y="27.743"
           width="0"
           height="0"
           id="rect8973"
           style="fill:none;stroke:#00a651;stroke-width:0.5" /></g><polyline
         points="376.419,28.275 372.352,28.275 372.352,29.69   "
         id="polyline8975"
         style="fill:none;stroke:#006f45;stroke-width:0.25" /><polyline
         points="372.253,25.957 372.253,25.514 373.403,25.514   "
         id="polyline8977"
         style="fill:none;stroke:#006f45;stroke-width:0.25" /><polyline
         points="374.224,25.956 374.224,25.514 375.375,25.514   "
         id="polyline8979"
         style="fill:none;stroke:#006f45;stroke-width:0.25" /><polyline
         points="372.253,26.79 372.253,26.348 373.403,26.348   "
         id="polyline8981"
         style="fill:none;stroke:#006f45;stroke-width:0.25" /><polyline
         points="374.224,26.79 374.224,26.348 375.375,26.348   "
         id="polyline8983"
         style="fill:none;stroke:#006f45;stroke-width:0.25" /><path
         d="M 368.127,27.656"
         id="path8985"
         inkscape:connector-curvature="0"
         style="fill:none;stroke:#00a651;stroke-width:0.25" /><polyline
         points="369.502,26.753 368.285,26.753 368.009,26.988     367.773,26.753 366.516,26.753 366.516,27.342   "
         id="polyline8987"
         style="fill:none;stroke:#006f45;stroke-width:0.25" /><polyline
         points="369.502,25.73 368.285,25.73 368.009,25.966 367.773,25.73     366.516,25.73 366.516,26.32   "
         id="polyline8989"
         style="fill:none;stroke:#006f45;stroke-width:0.25" /><polyline
         points="366.634,29.425 366.634,29.189 366.948,29.189   "
         id="polyline8991"
         style="fill:none;stroke:#006f45;stroke-width:0.25" /><polyline
         points="367.397,29.425 367.397,29.189 367.711,29.189   "
         id="polyline8993"
         style="fill:none;stroke:#006f45;stroke-width:0.25" /><polyline
         points="368.167,29.425 368.167,29.189 368.481,29.189   "
         id="polyline8995"
         style="fill:none;stroke:#006f45;stroke-width:0.25" /><polyline
         points="368.969,29.425 368.969,29.189 369.284,29.189   "
         id="polyline8997"
         style="fill:none;stroke:#006f45;stroke-width:0.25" /><polyline
         points="366.633,28.678 366.633,28.442 366.948,28.442   "
         id="polyline8999"
         style="fill:none;stroke:#006f45;stroke-width:0.25" /><polyline
         points="367.397,28.678 367.397,28.442 367.711,28.442   "
         id="polyline9001"
         style="fill:none;stroke:#006f45;stroke-width:0.25" /><polyline
         points="364.816,26.753 364.816,26.517 365.13,26.517   "
         id="polyline9003"
         style="fill:none;stroke:#006f45;stroke-width:0.25" /><polyline
         points="365.58,26.753 365.58,26.517 365.894,26.517   "
         id="polyline9005"
         style="fill:none;stroke:#006f45;stroke-width:0.25" /><polyline
         points="364.816,26.006 364.816,25.77 365.13,25.77   "
         id="polyline9007"
         style="fill:none;stroke:#006f45;stroke-width:0.25" /><polyline
         points="365.58,26.006 365.58,25.77 365.894,25.77   "
         id="polyline9009"
         style="fill:none;stroke:#006f45;stroke-width:0.25" /><polyline
         points="368.167,28.678 368.167,28.442 368.481,28.442   "
         id="polyline9011"
         style="fill:none;stroke:#006f45;stroke-width:0.25" /><polyline
         points="368.969,28.678 368.969,28.442 369.284,28.442   "
         id="polyline9013"
         style="fill:none;stroke:#006f45;stroke-width:0.25" /></g><g
       id="g9015"
       transform="matrix(1.263757,0,0,1.263757,0,1.4978234)"><polyline
         points="260.692,146.712 260.692,117.265 382.172,117.265 382.172,26.838 379.45,26.838       "
         id="polyline9017"
         style="fill:none;stroke:#000000" /></g><polyline
       points="247.202,146.712 247.136,26.838 238.602,26.838  "
       id="polyline9019"
       style="fill:none;stroke:#000000"
       transform="matrix(1.263757,0,0,1.263757,0,1.4978234)" /><g
       id="g9021"
       transform="matrix(1.263757,0,0,1.263757,0,1.4978234)"><polyline
         points="233.691,146.712 233.691,117.234 112.171,117.234 112.171,26.838 109.121,26.838       "
         id="polyline9023"
         style="fill:none;stroke:#000000" /></g><g
       id="g9025"
       transform="matrix(1.263757,0,0,1.263757,0,1.4978234)"><g
         id="g9027"><polygon
           points="264.292,149.952 264.292,151.051 262.788,150.761 263.247,150.12 "
           id="polygon9029"
           style="fill:#3d3d3d" /><polygon
           points="257.836,157.02 257.836,155.714 256.11,156.488 256.416,158.446 "
           id="polygon9031"
           style="fill:#3d3d42" /><polygon
           points="256.393,157.366 256.416,158.446 252.438,157.647 252.418,156.563 "
           id="polygon9033"
           style="fill:#cdcccd" /><polygon
           points="265.507,148.7 265.507,149.798 264.292,151.051 264.292,149.952 "
           id="polygon9035"
           style="fill:#3d3d42" /><polygon
           points="232.583,151.616 232.883,153.575 236.657,149.785 "
           id="polygon9037"
           style="fill:#3d3d3d" /><polygon
           points="232.864,152.493 232.883,153.575 228.909,152.773 228.891,151.692 "
           id="polygon9039"
           style="fill:#cdcccd" /><polygon
           points="256.696,148.969 256.696,157.693 228.632,151.864 228.632,143.14 "
           id="polygon9041"
           style="fill:#3d3d3d" /><polygon
           points="234.42,146.131 234.42,147.114 230.317,146.262 230.317,145.281 "
           id="polygon9043"
           style="fill:#cdcccd" /><polygon
           points="236.389,147.461 236.389,149.049 235.2,148.801 235.2,147.213 "
           id="polygon9045"
           style="fill:#ffffff" /><polygon
           points="238.393,147.876 238.393,149.465 237.204,149.218 237.204,147.631 "
           id="polygon9047"
           style="fill:#ffffff" /><polygon
           points="240.4,148.294 240.4,149.88 239.208,149.635 239.208,148.046 "
           id="polygon9049"
           style="fill:#ffffff" /><polygon
           points="242.405,148.71 242.405,150.297 241.215,150.052 241.215,148.464 "
           id="polygon9051"
           style="fill:#ffffff" /><polygon
           points="244.409,149.125 244.409,150.714 243.219,150.467 243.219,148.879 "
           id="polygon9053"
           style="fill:#ffffff" /><polygon
           points="246.416,149.543 246.416,151.131 245.224,150.885 245.224,149.296 "
           id="polygon9055"
           style="fill:#ffffff" /><polygon
           points="248.42,149.96 248.42,151.547 247.231,151.3 247.231,149.714 "
           id="polygon9057"
           style="fill:#ffffff" /><polygon
           points="250.426,150.376 250.426,151.964 249.238,151.718 249.238,150.129 "
           id="polygon9059"
           style="fill:#ffffff" /><polygon
           points="252.431,150.793 252.431,152.382 251.243,152.134 251.243,150.545 "
           id="polygon9061"
           style="fill:#ffffff" /><polygon
           points="254.436,151.21 254.436,152.798 253.247,152.549 253.247,150.961 "
           id="polygon9063"
           style="fill:#ffffff" /><polygon
           points="236.389,149.763 236.389,151.349 235.2,151.103 235.2,149.515 "
           id="polygon9065"
           style="fill:#ffffff" /><polygon
           points="238.393,150.179 238.393,151.767 237.204,151.518 237.204,149.932 "
           id="polygon9067"
           style="fill:#ffffff" /><polygon
           points="240.4,150.595 240.4,152.182 239.208,151.936 239.208,150.347 "
           id="polygon9069"
           style="fill:#ffffff" /><polygon
           points="242.405,151.011 242.405,152.599 241.215,152.353 241.215,150.763 "
           id="polygon9071"
           style="fill:#ffffff" /><polygon
           points="244.409,151.429 244.409,153.016 243.219,152.769 243.219,151.18 "
           id="polygon9073"
           style="fill:#ffffff" /><polygon
           points="246.416,151.844 246.416,153.433 245.224,153.186 245.224,151.598 "
           id="polygon9075"
           style="fill:#ffffff" /><polygon
           points="248.42,152.262 248.42,153.848 247.231,153.603 247.231,152.013 "
           id="polygon9077"
           style="fill:#ffffff" /><polygon
           points="250.426,152.677 250.426,154.265 249.238,154.017 249.238,152.431 "
           id="polygon9079"
           style="fill:#ffffff" /><polygon
           points="252.431,153.095 252.431,154.682 251.243,154.434 251.243,152.846 "
           id="polygon9081"
           style="fill:#ffffff" /><polygon
           points="254.436,153.51 254.436,155.099 253.247,154.852 253.247,153.263 "
           id="polygon9083"
           style="fill:#ffffff" /><polygon
           points="256.696,148.969 256.696,157.693 265.751,148.942 265.751,140.272 "
           id="polygon9085"
           style="fill:#cdcccd" /><g
           id="g9087"><rect
             x="261.52802"
             y="142.55299"
             transform="matrix(-0.6805,-0.7328,0.7328,-0.6805,331.9047,439.0373)"
             width="0.29899999"
             height="9.1969995"
             id="rect9089"
             style="fill:#ffffff" /><rect
             x="261.52899"
             y="144.42799"
             transform="matrix(-0.6837,-0.7297,0.7297,-0.6837,331.8411,441.878)"
             width="0.29699999"
             height="9.198"
             id="rect9091"
             style="fill:#ffffff" /><rect
             x="261.52802"
             y="146.25301"
             transform="matrix(-0.678,-0.7351,0.7351,-0.678,328.2127,445.4799)"
             width="0.30000001"
             height="9.2010002"
             id="rect9093"
             style="fill:#ffffff" /></g><polygon
           points="241.565,135.752 228.632,143.14 256.696,148.969 265.751,140.272 "
           id="polygon9095"
           style="fill:#ffffff" /></g><rect
         x="228.632"
         y="135.752"
         width="37.118999"
         height="22.688999"
         id="rect9097"
         style="fill:none" /></g><g
       id="g9099"
       transform="matrix(1.263757,0,0,1.263757,0,1.4978234)"><path
         d="m 329.609,16.941 15,11.999 -15,-6 v 0 c 0,2.486 -2.014,4.5 -4.499,4.5 h -49.502 c -2.484,0 -4.498,-2.013 -4.498,-4.5 v -5.999 c 0,-2.485 2.014,-4.501 4.498,-4.501 h 49.502 c 2.485,0 4.499,2.016 4.499,4.501 z"
         id="path9101"
         inkscape:connector-curvature="0"
         style="fill:#b8dad4" /></g><g
       id="g9103"
       transform="matrix(1.263757,0,0,1.263757,0,1.4978234)"><path
         d="m 329.609,37.942 15,-6.001 -15,12 v 0 c 0,2.486 -2.014,4.5 -4.499,4.5 h -49.502 c -2.484,0 -4.498,-2.014 -4.498,-4.5 v -5.998 c 0,-2.486 2.014,-4.502 4.498,-4.502 h 49.502 c 2.485,-0.001 4.499,2.015 4.499,4.501 z"
         id="path9105"
         inkscape:connector-curvature="0"
         style="fill:#b8dad4" /></g><g
       id="g9107"
       transform="matrix(1.263757,0,0,1.263757,0,1.4978234)"><path
         d="m 188.736,16.941 15,11.999 -15,-6 v 0 c 0,2.486 -2.014,4.5 -4.499,4.5 h -49.502 c -2.484,0 -4.498,-2.013 -4.498,-4.5 v -5.999 c 0,-2.485 2.014,-4.501 4.498,-4.501 h 49.502 c 2.485,0 4.499,2.016 4.499,4.501 z"
         id="path9109"
         inkscape:connector-curvature="0"
         style="fill:#b8dad4" /></g><g
       id="g9111"
       transform="matrix(1.263757,0,0,1.263757,0,9.0803656)"><path
         d="m 188.736,37.942 15,-6.001 -15,12 v 0 c 0,2.486 -2.014,4.5 -4.499,4.5 h -49.502 c -2.484,0 -4.498,-2.014 -4.498,-4.5 v -5.998 c 0,-2.486 2.014,-4.502 4.498,-4.502 h 49.502 c 2.485,-0.001 4.499,2.015 4.499,4.501 z"
         id="path9113"
         inkscape:connector-curvature="0"
         style="fill:#b8dad4" /></g><g
       id="g9115"
       transform="matrix(1.263757,0,0,1.263757,0,1.4978234)"><path
         d="m 58.499,16.941 15,11.999 -15,-6 v 0 c 0,2.486 -2.014,4.5 -4.499,4.5 H 4.498 C 2.014,27.44 0,25.427 0,22.94 V 16.941 C 0,14.456 2.014,12.44 4.498,12.44 H 54 c 2.485,0 4.499,2.016 4.499,4.501 z"
         id="path9117"
         inkscape:connector-curvature="0"
         style="fill:#b8dad4" /></g><g
       id="g9119"
       transform="matrix(1.263757,0,0,1.263757,0,9.0803656)"><path
         d="m 58.499,37.942 15,-6.001 -15,12 v 0 c 0,2.486 -2.014,4.5 -4.499,4.5 H 4.498 C 2.014,48.44 0,46.426 0,43.94 V 37.942 C 0,35.456 2.014,33.44 4.498,33.44 H 54 c 2.485,0 4.499,2.016 4.499,4.502 z"
         id="path9121"
         inkscape:connector-curvature="0"
         style="fill:#b8dad4" /></g></g><g
     id="Text"
     transform="matrix(1.263757,0,0,1.263757,0,7.3900599)"><text
       font-size="8"
       id="text9126"
       style="font-size:12px;line-height:0%;font-family:ArialMT"
       x="63.269501"
       y="2.8652">Web Server 1</text>
<text
       font-size="8"
       id="text9128"
       style="font-size:12px;line-height:0%;font-family:ArialMT"
       x="193.5063"
       y="2.8652">Web Server 2</text>
<text
       font-size="8"
       id="text9130"
       style="font-size:12px;line-height:0%;font-family:ArialMT"
       x="334.37939"
       y="2.8652">Web Server 3</text>
<text
       id="text9132"
       x="297.18799"
       y="176.3076"
       style="line-height:0%"><tspan
         x="297.18799"
         y="176.3076"
         font-size="8"
         id="tspan9134"
         style="font-size:12px;font-family:ArialMT">Shared Storage</tspan></text>
<g
       id="g9138"
       transform="translate(-6,1.3355482)"><text
         transform="translate(280.0034,22.6924)"
         font-size="8"
         id="text9140"
         style="font-size:12px;line-height:0%;font-family:ArialMT">Web Site E</text>
</g><g
       id="g9142"
       transform="translate(-6,0.99667773)"><text
         transform="translate(280.4526,43.6924)"
         font-size="8"
         id="text9144"
         style="font-size:12px;line-height:0%;font-family:ArialMT">Web Site F</text>
</g><g
       id="g9146"
       transform="translate(-6,0.99667773)"><text
         transform="translate(138.6885,22.6924)"
         font-size="8"
         id="text9148"
         style="font-size:12px;line-height:0%;font-family:ArialMT">Web Site C</text>
</g><g
       id="g9150"
       transform="translate(-6,6.6644518)"><text
         transform="translate(138.6885,43.6924)"
         font-size="8"
         id="text9152"
         style="font-size:12px;line-height:0%;font-family:ArialMT">Web Site D</text>
</g><g
       id="g9154"
       transform="translate(-6,0.99667773)"><text
         transform="translate(8.8931,22.6924)"
         font-size="8"
         id="text9156"
         style="font-size:12px;line-height:0%;font-family:ArialMT">Web Site A</text>
</g><g
       id="g9158"
       transform="translate(-6,6.9966777)"><text
         transform="translate(8.8931,43.6924)"
         font-size="8"
         id="text9160"
         style="font-size:12px;line-height:0%;font-family:ArialMT">Web Site B</text>
</g><g
       id="g7288"><text
         y="168.7061"
         x="202.8726"
         style="font-size:12px;line-height:0%;font-family:ArialMT"
         id="text9124"
         font-size="8">Fibre Channel</text>
<text
         y="181.97394"
         x="222.78001"
         style="font-size:12px;line-height:0%;font-family:ArialMT"
         id="text9124-3"
         font-size="8">Switch</text>
</g></g></svg>