<?xml version="1.0" encoding="UTF-8" standalone="no"?>
<!-- Generator: Adobe Illustrator 13.0.2, SVG Export Plug-In . SVG Version: 6.00 Build 14948)  -->
<svg
   xmlns:dc="http://purl.org/dc/elements/1.1/"
   xmlns:cc="http://creativecommons.org/ns#"
   xmlns:rdf="http://www.w3.org/1999/02/22-rdf-syntax-ns#"
   xmlns:svg="http://www.w3.org/2000/svg"
   xmlns="http://www.w3.org/2000/svg"
   xmlns:sodipodi="http://sodipodi.sourceforge.net/DTD/sodipodi-0.dtd"
   xmlns:inkscape="http://www.inkscape.org/namespaces/inkscape"
   version="1.0"
   x="0px"
   y="0px"
   width="420"
   height="330.13046"
   viewBox="0 0 420 406.129"
   enable-background="new 0 0 420 406.129"
   xml:space="preserve"
   id="svg11479"
   sodipodi:version="0.32"
   inkscape:version="0.46"
   inkscape:output_extension="org.inkscape.output.svg.inkscape"
   sodipodi:docname="ha_cluster_components_arch.svg"><metadata
   id="metadata11933"><rdf:RDF><cc:Work
       rdf:about=""><dc:format>image/svg+xml</dc:format><dc:type
         rdf:resource="http://purl.org/dc/dcmitype/StillImage" /></cc:Work></rdf:RDF></metadata><defs
   id="defs11931"><inkscape:perspective
   sodipodi:type="inkscape:persp3d"
   inkscape:vp_x="0 : 203.0645 : 1"
   inkscape:vp_y="0 : 1000 : 0"
   inkscape:vp_z="420 : 203.0645 : 1"
   inkscape:persp3d-origin="210 : 135.37633 : 1"
   id="perspective11935" />
	
	
	
	
	
	
	
	
	
	
	
	
	
	
	
	
	
	
	
	
	
	
	
	
	
	
	
	
	
	
	
	
	
	
	
	
	
	
	
	
	
	
	
	
	
	
	
	
	
	
	
	
	
	
	
	
	
	
	
	
	
	
	
	
	
	

	

	

	

	

	

	

	

	

	

	

	

	

	

	

	

	

	

	

</defs><sodipodi:namedview
   inkscape:window-height="955"
   inkscape:window-width="1298"
   inkscape:pageshadow="2"
   inkscape:pageopacity="0.0"
   guidetolerance="10.0"
   gridtolerance="10.0"
   objecttolerance="10.0"
   borderopacity="1.0"
   bordercolor="#666666"
   pagecolor="#ffffff"
   id="namedview11929"
   showgrid="true"
   inkscape:zoom="2.8547619"
   inkscape:cx="185.55406"
   inkscape:cy="172.62732"
   inkscape:window-x="435"
   inkscape:window-y="40"
   inkscape:current-layer="svg11479"
   showborder="true"
   borderlayer="false"
   inkscape:showpageshadow="true"
   inkscape:document-units="pt" />
<path
   style="fill:none;stroke:#5a5a64;stroke-width:0.90188015"
   id="path11482"
   d="M 411.04906,349.05889 C 411.04906,351.07851 409.03241,352.71615 406.54538,352.71615 L 295.45462,352.71615 C 292.96759,352.71615 290.95094,351.07851 290.95094,349.05889 L 290.95094,43.474836 C 290.95094,41.455218 292.96759,39.817581 295.45462,39.817581 L 406.54538,39.817581 C 409.03241,39.817581 411.04906,41.455218 411.04906,43.474836 L 411.04906,349.05889 z" /><path
   style="fill:none;stroke:#5a5a64;stroke-width:0.90055847"
   id="path11484"
   d="M 282.04973,348.29227 C 282.04973,350.30689 280.03399,351.94047 277.54808,351.94047 L 13.451917,351.94047 C 10.966012,351.94047 8.9502782,350.30689 8.9502782,348.29227 L 8.9502782,43.465116 C 8.9502782,41.450501 10.966012,39.81692 13.451917,39.81692 L 277.54808,39.81692 C 280.03399,39.81692 282.04973,41.450501 282.04973,43.465116 L 282.04973,348.29227 z" /><rect
   style="opacity:0.75;fill:#d2d3d4"
   x="-1.1361558e-06"
   id="rect11486"
   height="146.5"
   width="420"
   y="120.86671" /><g
   id="g2805"
   transform="matrix(0.7036487,-0.3229298,-0.4642253,0.9883634,121.03575,81.336537)"><line
     x1="122.003"
     y1="175.33701"
     x2="122.003"
     y2="156.39101"
     id="line11488"
     style="fill:none;stroke:#000000;stroke-width:2.00076079;stroke-miterlimit:4;stroke-dasharray:none" /></g><polygon
   id="polygon11490"
   points="125.166,159.555 118.841,159.555 122.003,153.229 125.166,159.555 "
   transform="matrix(0.8984064,0.439165,-0.439165,0.8984064,93.613988,2.3987901)" /><polygon
   id="polygon11492"
   points="118.841,172.174 125.166,172.174 122.003,178.5 118.841,172.174 "
   transform="matrix(0.8549705,0.5186764,-0.5186764,0.8549705,112.10628,2.4909711)" /><rect
   style="fill:none"
   id="rect11494"
   height="39.194"
   width="24.063999"
   y="329.26971"
   x="137.968" /><g
   id="g11496"
   transform="translate(-1.1361557e-6,39.366641)">
		<g
   id="g11498">
			<circle
   style="fill:#1c82b9"
   sodipodi:ry="14.358"
   sodipodi:rx="14.358"
   sodipodi:cy="135.86301"
   sodipodi:cx="242.005"
   id="circle11500"
   r="14.358"
   cy="135.86301"
   cx="242.005" />
		</g>
		<g
   id="g11502">
			<path
   style="fill:#ffffff"
   id="path11504"
   d="M 236.665,140.062 L 234.822,137.066 L 232.928,140.062 L 231.404,140.062 L 234.069,135.844 L 231.603,131.837 L 233.106,131.844 L 234.845,134.615 L 236.599,131.838 L 238.123,131.838 L 235.605,135.827 L 238.256,140.062 L 236.665,140.062 L 236.665,140.062 z" />
			<path
   style="fill:#ffffff"
   id="path11506"
   d="M 246.822,140.062 L 245.406,140.062 L 244.545,135.64 L 242.887,140.172 L 242.357,140.172 L 240.699,135.64 L 239.814,140.062 L 238.399,140.062 L 240.058,131.837 L 240.831,131.837 L 242.622,137.387 L 244.369,131.837 L 245.143,131.837 L 246.822,140.062 z" />
			<path
   style="fill:#ffffff"
   id="path11508"
   d="M 247.697,140.062 L 247.697,131.837 L 249.156,131.837 L 249.156,138.758 L 252.87,138.758 L 252.87,140.062 L 247.697,140.062 z" />
		</g>
	</g><line
   style="fill:none;stroke:#000000;stroke-width:2.05850697"
   id="line11510"
   y2="174.64745"
   x2="167.6801"
   y1="174.64745"
   x1="221.92967" /><polygon
   id="polygon11512"
   points="205.685,132.7 205.685,139.025 199.358,135.863 205.685,132.7 "
   transform="translate(-38.000001,38.919321)" /><line
   style="fill:none;stroke:#000000;stroke-width:2"
   id="line11514"
   y2="191.86569"
   x2="78.632004"
   y1="225.0807"
   x1="111.846" /><polygon
   id="polygon11516"
   points="83.105,152.5 78.633,156.972 76.396,150.263 83.105,152.5 "
   transform="translate(-1.1361557e-6,39.366641)" /><rect
   style="opacity:0.75;fill:#d2d3d4"
   x="-1.1361558e-06"
   id="rect11518"
   height="72"
   width="420"
   y="272.3667" /><g
   id="g11520"
   transform="translate(-1.1361557e-6,39.366641)">
		<g
   id="g11522">
			<g
   id="g11524">
				<path
   style="fill:#629e1f"
   id="path11526"
   d="M 76.358,135.862 C 76.358,143.796 69.927,150.228 62,150.228 C 54.076,150.228 47.647,143.795 47.647,135.862 C 47.647,127.931 54.076,121.5 62,121.5 C 69.928,121.5 76.358,127.932 76.358,135.862 z" />
			</g>
		</g>
		<g
   id="g11528">
			<g
   id="g11530">
				<path
   style="fill:#ffffff"
   id="path11532"
   d="M 65.76,141.062 L 65.758,141.06 C 65.727,141.082 65.697,141.105 65.76,141.062 z M 71.922,135.864 C 71.922,135.548 71.906,135.235 71.875,134.926 L 73.141,134.623 C 73.102,134.277 73.051,133.935 72.983,133.601 L 71.684,133.704 C 71.547,133.086 71.354,132.489 71.105,131.92 L 72.213,131.243 C 72.071,130.927 71.912,130.619 71.742,130.32 L 70.542,130.819 C 70.223,130.278 69.852,129.77 69.439,129.302 L 70.287,128.313 C 70.053,128.059 69.808,127.814 69.555,127.581 L 68.563,128.429 C 68.094,128.015 67.589,127.646 67.049,127.325 L 67.547,126.125 C 67.25,125.954 66.94,125.797 66.625,125.653 L 65.948,126.762 C 65.379,126.515 64.781,126.321 64.161,126.184 L 64.265,124.884 C 63.931,124.815 63.588,124.763 63.244,124.725 L 62.94,125.99 C 62.632,125.962 62.32,125.945 62.002,125.945 C 61.684,125.945 61.372,125.962 61.064,125.99 L 60.764,124.725 C 60.414,124.763 60.075,124.815 59.739,124.884 L 59.843,126.184 C 59.226,126.321 58.628,126.515 58.06,126.762 L 57.38,125.653 C 57.067,125.797 56.759,125.954 56.46,126.125 L 56.957,127.325 C 56.416,127.645 55.911,128.014 55.442,128.429 L 54.452,127.581 C 54.196,127.814 53.952,128.06 53.721,128.313 L 54.568,129.302 C 54.156,129.77 53.785,130.278 53.463,130.819 L 52.266,130.32 C 52.094,130.619 51.938,130.926 51.793,131.243 L 52.901,131.92 C 52.656,132.489 52.462,133.086 52.322,133.704 L 51.023,133.6 C 50.955,133.936 50.904,134.278 50.865,134.623 L 52.13,134.926 C 52.101,135.235 52.086,135.547 52.086,135.864 C 52.086,136.179 52.101,136.493 52.13,136.801 L 50.865,137.104 C 50.902,137.451 50.955,137.792 51.023,138.126 L 52.322,138.023 C 52.462,138.641 52.656,139.239 52.901,139.807 L 51.792,140.485 C 51.938,140.801 52.094,141.108 52.266,141.408 L 53.463,140.909 C 53.785,141.448 54.156,141.956 54.568,142.425 L 53.721,143.415 C 53.952,143.67 54.197,143.913 54.452,144.146 L 55.442,143.299 C 55.911,143.712 56.416,144.082 56.957,144.403 L 56.46,145.603 C 56.759,145.774 57.066,145.93 57.38,146.074 L 58.06,144.965 C 58.629,145.212 59.226,145.406 59.843,145.543 L 59.739,146.844 C 60.075,146.912 60.415,146.964 60.761,147.002 L 61.064,145.737 C 61.372,145.764 61.684,145.782 62.002,145.782 C 62.32,145.782 62.632,145.764 62.94,145.737 L 63.244,147.002 C 63.589,146.964 63.932,146.912 64.265,146.844 L 64.161,145.543 C 64.781,145.406 65.379,145.212 65.948,144.965 L 66.625,146.074 C 66.939,145.93 67.25,145.774 67.547,145.603 L 67.049,144.403 C 67.589,144.083 68.094,143.713 68.563,143.299 L 69.555,144.146 C 69.811,143.913 70.053,143.669 70.287,143.415 L 69.439,142.425 C 69.851,141.956 70.222,141.448 70.542,140.909 L 71.742,141.407 C 71.912,141.108 72.071,140.801 72.213,140.485 L 71.105,139.807 C 71.354,139.239 71.547,138.641 71.684,138.023 L 72.983,138.126 C 73.052,137.791 73.102,137.45 73.141,137.104 L 71.875,136.801 C 71.906,136.493 71.922,136.18 71.922,135.864 z M 64.623,130.019 C 66.339,130.789 67.684,132.298 68.194,134.22 L 65,134.605 C 64.737,133.977 64.288,133.461 63.731,133.112 L 64.623,130.019 z M 64.086,135.864 C 64.086,137.014 63.152,137.946 62.003,137.946 C 60.855,137.946 59.92,137.014 59.92,135.864 C 59.92,134.714 60.855,133.782 62.003,133.782 C 63.152,133.782 64.086,134.714 64.086,135.864 z M 60.844,129.563 C 61.815,129.383 62.775,129.442 63.668,129.683 L 62.41,132.633 C 62.084,132.59 61.744,132.596 61.401,132.659 C 61.065,132.72 60.753,132.832 60.464,132.982 L 58.247,130.679 C 58.998,130.136 59.871,129.741 60.844,129.563 z M 57.475,131.332 L 59.396,133.893 C 58.993,134.423 58.751,135.072 58.727,135.76 L 55.629,136.529 C 55.422,134.552 56.146,132.661 57.475,131.332 z M 55.694,137.031 L 55.694,137.031 C 55.694,137.031 55.697,137.032 55.697,137.032 C 55.697,137.032 55.694,137.032 55.694,137.031 z M 59.386,141.719 L 59.386,141.724 C 59.411,141.735 59.359,141.708 59.386,141.719 C 57.674,140.948 56.324,139.445 55.813,137.524 L 58.98,137.141 C 59.25,137.777 59.706,138.296 60.271,138.647 L 59.386,141.719 z M 65.76,141.062 C 64.913,141.647 64.305,142.012 63.161,142.181 C 62.068,142.341 61.375,142.308 60.34,142.058 L 61.594,139.118 C 61.916,139.157 62.247,139.15 62.582,139.088 C 62.926,139.026 63.244,138.91 63.533,138.754 L 65.758,141.061 C 65.789,141.038 65.822,141.016 65.76,141.062 z M 66.529,140.405 L 66.531,140.409 C 66.512,140.43 66.549,140.386 66.529,140.405 L 64.6,137.835 C 64.995,137.31 65.23,136.669 65.254,135.989 L 68.376,135.214 L 68.376,135.207 C 68.376,135.208 68.376,135.211 68.376,135.214 L 68.376,135.214 C 68.584,137.19 67.855,139.076 66.529,140.405 z" />
			</g>
		</g>
	</g><g
   id="g11548"
   transform="translate(-40.000001,39.366641)">
		<g
   id="g11550">
			<g
   id="g11552">
				<path
   style="fill:#629e1f"
   id="path11554"
   d="M 196.358,135.863 C 196.358,143.797 189.927,150.228 182,150.228 C 174.076,150.228 167.647,143.796 167.647,135.863 C 167.647,127.931 174.076,121.5 182,121.5 C 189.928,121.5 196.358,127.932 196.358,135.863 z" />
			</g>
		</g>
		<g
   id="g11556">
			<g
   id="g11558">
				<path
   style="fill:#ffffff"
   id="path11560"
   d="M 185.76,141.062 L 185.758,141.06 C 185.727,141.082 185.697,141.105 185.76,141.062 z M 191.922,135.865 C 191.922,135.549 191.906,135.236 191.875,134.927 L 193.141,134.624 C 193.102,134.278 193.051,133.936 192.983,133.601 L 191.684,133.705 C 191.547,133.086 191.354,132.49 191.105,131.92 L 192.213,131.244 C 192.071,130.928 191.912,130.619 191.742,130.32 L 190.542,130.82 C 190.223,130.279 189.852,129.771 189.439,129.302 L 190.287,128.314 C 190.053,128.06 189.808,127.814 189.555,127.582 L 188.563,128.43 C 188.094,128.016 187.589,127.647 187.049,127.326 L 187.547,126.125 C 187.25,125.955 186.94,125.797 186.625,125.654 L 185.948,126.763 C 185.379,126.515 184.781,126.322 184.161,126.185 L 184.265,124.884 C 183.931,124.816 183.588,124.763 183.244,124.726 L 182.94,125.99 C 182.632,125.963 182.32,125.945 182.002,125.945 C 181.684,125.945 181.372,125.963 181.064,125.99 L 180.764,124.726 C 180.414,124.763 180.075,124.816 179.739,124.884 L 179.843,126.185 C 179.226,126.322 178.628,126.515 178.06,126.763 L 177.38,125.654 C 177.067,125.797 176.759,125.955 176.46,126.125 L 176.957,127.326 C 176.416,127.646 175.911,128.015 175.442,128.43 L 174.452,127.582 C 174.196,127.814 173.952,128.061 173.721,128.314 L 174.568,129.302 C 174.156,129.771 173.785,130.279 173.463,130.82 L 172.266,130.32 C 172.094,130.619 171.938,130.927 171.793,131.244 L 172.901,131.92 C 172.656,132.49 172.462,133.086 172.322,133.705 L 171.023,133.601 C 170.955,133.937 170.904,134.279 170.865,134.624 L 172.13,134.927 C 172.101,135.236 172.086,135.548 172.086,135.865 C 172.086,136.179 172.101,136.494 172.13,136.801 L 170.865,137.104 C 170.902,137.452 170.955,137.792 171.023,138.127 L 172.322,138.023 C 172.462,138.642 172.656,139.24 172.901,139.808 L 171.792,140.486 C 171.938,140.802 172.094,141.109 172.266,141.408 L 173.463,140.91 C 173.785,141.449 174.156,141.957 174.568,142.426 L 173.721,143.416 C 173.952,143.67 174.197,143.914 174.452,144.146 L 175.442,143.3 C 175.911,143.712 176.416,144.083 176.957,144.404 L 176.46,145.603 C 176.759,145.775 177.066,145.931 177.38,146.074 L 178.06,144.965 C 178.629,145.213 179.226,145.406 179.843,145.543 L 179.739,146.844 C 180.075,146.912 180.415,146.965 180.761,147.002 L 181.064,145.738 C 181.372,145.765 181.684,145.783 182.002,145.783 C 182.32,145.783 182.632,145.765 182.94,145.738 L 183.244,147.002 C 183.589,146.965 183.932,146.912 184.265,146.844 L 184.161,145.543 C 184.781,145.406 185.379,145.213 185.948,144.965 L 186.625,146.074 C 186.939,145.931 187.25,145.775 187.547,145.603 L 187.049,144.404 C 187.589,144.084 188.094,143.713 188.563,143.3 L 189.555,144.146 C 189.811,143.914 190.053,143.669 190.287,143.416 L 189.439,142.426 C 189.851,141.957 190.222,141.449 190.542,140.91 L 191.742,141.408 C 191.912,141.109 192.071,140.801 192.213,140.486 L 191.105,139.808 C 191.354,139.24 191.547,138.642 191.684,138.023 L 192.983,138.127 C 193.052,137.791 193.102,137.451 193.141,137.104 L 191.875,136.801 C 191.906,136.494 191.922,136.18 191.922,135.865 z M 184.623,130.02 C 186.339,130.79 187.684,132.299 188.194,134.221 L 185,134.605 C 184.737,133.978 184.288,133.462 183.731,133.113 L 184.623,130.02 z M 184.086,135.865 C 184.086,137.015 183.152,137.947 182.003,137.947 C 180.855,137.947 179.92,137.015 179.92,135.865 C 179.92,134.715 180.855,133.783 182.003,133.783 C 183.152,133.783 184.086,134.715 184.086,135.865 z M 180.844,129.564 C 181.815,129.384 182.775,129.443 183.668,129.683 L 182.41,132.634 C 182.084,132.591 181.744,132.597 181.401,132.659 C 181.065,132.72 180.753,132.833 180.464,132.983 L 178.247,130.68 C 178.998,130.137 179.871,129.742 180.844,129.564 z M 177.475,131.332 L 179.396,133.893 C 178.993,134.424 178.751,135.073 178.727,135.76 L 175.629,136.53 C 175.422,134.553 176.146,132.662 177.475,131.332 z M 175.694,137.031 L 175.694,137.031 L 175.697,137.033 C 175.697,137.033 175.694,137.033 175.694,137.031 z M 179.386,141.719 L 179.386,141.725 C 179.411,141.736 179.359,141.709 179.386,141.719 C 177.674,140.949 176.324,139.446 175.813,137.524 L 178.98,137.141 C 179.25,137.778 179.706,138.297 180.271,138.647 L 179.386,141.719 z M 185.76,141.062 C 184.913,141.646 184.305,142.011 183.161,142.181 C 182.068,142.341 181.375,142.308 180.34,142.058 L 181.594,139.117 C 181.916,139.156 182.247,139.15 182.582,139.088 C 182.926,139.026 183.244,138.91 183.533,138.754 L 185.758,141.061 C 185.789,141.039 185.822,141.016 185.76,141.062 z M 186.529,140.406 L 186.531,140.41 C 186.512,140.43 186.549,140.387 186.529,140.406 L 184.6,137.836 C 184.995,137.311 185.23,136.67 185.254,135.99 L 188.376,135.215 L 188.376,135.207 C 188.376,135.209 188.376,135.211 188.376,135.215 L 188.376,135.215 C 188.584,137.191 187.855,139.076 186.529,140.406 z" />
			</g>
		</g>
	</g><g
   id="g11562"
   transform="translate(-1.1361557e-6,39.366641)">
		<g
   id="g11564">
			<circle
   style="fill:#1c82b9"
   sodipodi:ry="14.358"
   sodipodi:rx="14.358"
   sodipodi:cy="135.86301"
   sodipodi:cx="380.858"
   id="circle11566"
   r="14.358"
   cy="135.86301"
   cx="380.858" />
		</g>
		<g
   id="g11568">
			<path
   style="fill:#ffffff"
   id="path11570"
   d="M 375.518,140.062 L 373.675,137.066 L 371.78,140.062 L 370.257,140.062 L 372.921,135.844 L 370.455,131.837 L 371.958,131.844 L 373.697,134.615 L 375.452,131.838 L 376.975,131.838 L 374.457,135.827 L 377.108,140.062 L 375.518,140.062 L 375.518,140.062 z" />
			<path
   style="fill:#ffffff"
   id="path11572"
   d="M 385.675,140.062 L 384.259,140.062 L 383.398,135.64 L 381.74,140.172 L 381.209,140.172 L 379.552,135.64 L 378.666,140.062 L 377.252,140.062 L 378.91,131.837 L 379.683,131.837 L 381.474,137.387 L 383.22,131.837 L 383.995,131.837 L 385.675,140.062 z" />
			<path
   style="fill:#ffffff"
   id="path11574"
   d="M 386.55,140.062 L 386.55,131.837 L 388.009,131.837 L 388.009,138.758 L 391.722,138.758 L 391.722,140.062 L 386.55,140.062 z" />
		</g>
	</g><g
   id="g11576"
   transform="translate(-1.1361557e-6,39.366641)">
		<g
   id="g11578">
			<g
   id="g11580">
				<path
   style="fill:#629e1f"
   id="path11582"
   d="M 335.5,135.863 C 335.5,143.797 329.069,150.228 321.142,150.228 C 313.218,150.228 306.789,143.796 306.789,135.863 C 306.789,127.931 313.218,121.5 321.142,121.5 C 329.069,121.5 335.5,127.932 335.5,135.863 z" />
			</g>
		</g>
		<g
   id="g11584">
			<g
   id="g11586">
				<path
   style="fill:#ffffff"
   id="path11588"
   d="M 324.901,141.062 L 324.899,141.06 C 324.868,141.082 324.839,141.105 324.901,141.062 z M 331.063,135.865 C 331.063,135.549 331.047,135.236 331.016,134.927 L 332.282,134.624 C 332.243,134.278 332.192,133.936 332.124,133.601 L 330.825,133.705 C 330.688,133.086 330.495,132.49 330.246,131.92 L 331.354,131.244 C 331.212,130.928 331.053,130.619 330.883,130.32 L 329.683,130.82 C 329.364,130.279 328.993,129.771 328.58,129.302 L 329.428,128.314 C 329.194,128.06 328.949,127.814 328.696,127.582 L 327.704,128.43 C 327.235,128.016 326.73,127.647 326.19,127.326 L 326.688,126.125 C 326.391,125.955 326.081,125.797 325.766,125.654 L 325.089,126.763 C 324.52,126.515 323.922,126.322 323.302,126.185 L 323.406,124.884 C 323.072,124.816 322.729,124.763 322.385,124.726 L 322.081,125.99 C 321.773,125.963 321.461,125.945 321.143,125.945 C 320.825,125.945 320.513,125.963 320.205,125.99 L 319.905,124.726 C 319.555,124.763 319.216,124.816 318.88,124.884 L 318.984,126.185 C 318.367,126.322 317.769,126.515 317.201,126.763 L 316.521,125.654 C 316.208,125.797 315.9,125.955 315.601,126.125 L 316.098,127.326 C 315.557,127.646 315.052,128.015 314.583,128.43 L 313.593,127.582 C 313.337,127.814 313.093,128.061 312.862,128.314 L 313.709,129.302 C 313.297,129.771 312.926,130.279 312.604,130.82 L 311.407,130.32 C 311.235,130.619 311.079,130.927 310.934,131.244 L 312.042,131.92 C 311.797,132.49 311.603,133.086 311.463,133.705 L 310.164,133.601 C 310.096,133.937 310.045,134.279 310.006,134.624 L 311.271,134.927 C 311.242,135.236 311.227,135.548 311.227,135.865 C 311.227,136.179 311.242,136.494 311.271,136.801 L 310.006,137.104 C 310.043,137.452 310.096,137.792 310.164,138.127 L 311.463,138.023 C 311.603,138.642 311.797,139.24 312.042,139.808 L 310.933,140.486 C 311.079,140.802 311.235,141.109 311.407,141.408 L 312.604,140.91 C 312.926,141.449 313.297,141.957 313.709,142.426 L 312.862,143.416 C 313.093,143.67 313.338,143.914 313.593,144.146 L 314.583,143.3 C 315.052,143.712 315.557,144.083 316.098,144.404 L 315.601,145.603 C 315.9,145.775 316.207,145.931 316.521,146.074 L 317.201,144.965 C 317.77,145.213 318.367,145.406 318.984,145.543 L 318.88,146.844 C 319.216,146.912 319.556,146.965 319.902,147.002 L 320.205,145.738 C 320.513,145.765 320.825,145.783 321.143,145.783 C 321.461,145.783 321.773,145.765 322.081,145.738 L 322.385,147.002 C 322.73,146.965 323.073,146.912 323.406,146.844 L 323.302,145.543 C 323.922,145.406 324.52,145.213 325.089,144.965 L 325.766,146.074 C 326.08,145.931 326.391,145.775 326.688,145.603 L 326.19,144.404 C 326.73,144.084 327.235,143.713 327.704,143.3 L 328.696,144.146 C 328.952,143.914 329.194,143.669 329.428,143.416 L 328.58,142.426 C 328.992,141.957 329.363,141.449 329.683,140.91 L 330.883,141.408 C 331.053,141.109 331.212,140.801 331.354,140.486 L 330.246,139.808 C 330.495,139.24 330.688,138.642 330.825,138.023 L 332.124,138.127 C 332.193,137.791 332.243,137.451 332.282,137.104 L 331.016,136.801 C 331.048,136.494 331.063,136.18 331.063,135.865 z M 323.765,130.02 C 325.481,130.79 326.826,132.299 327.336,134.221 L 324.142,134.606 C 323.879,133.979 323.43,133.463 322.873,133.114 L 323.765,130.02 z M 323.228,135.865 C 323.228,137.015 322.294,137.947 321.145,137.947 C 319.997,137.947 319.062,137.015 319.062,135.865 C 319.062,134.715 319.997,133.783 321.145,133.783 C 322.294,133.783 323.228,134.715 323.228,135.865 z M 319.985,129.564 C 320.956,129.384 321.916,129.443 322.809,129.683 L 321.551,132.634 C 321.225,132.591 320.885,132.597 320.542,132.659 C 320.206,132.72 319.894,132.833 319.605,132.983 L 317.388,130.68 C 318.14,130.137 319.013,129.742 319.985,129.564 z M 316.616,131.332 L 318.537,133.893 C 318.134,134.424 317.892,135.073 317.868,135.76 L 314.77,136.53 C 314.563,134.553 315.288,132.662 316.616,131.332 z M 314.836,137.031 L 314.836,137.031 L 314.839,137.033 C 314.839,137.033 314.836,137.033 314.836,137.031 z M 318.527,141.719 L 318.527,141.725 C 318.553,141.736 318.501,141.709 318.527,141.719 C 316.815,140.949 315.465,139.446 314.954,137.524 L 318.121,137.141 C 318.391,137.778 318.847,138.297 319.412,138.647 L 318.527,141.719 z M 324.901,141.062 C 324.054,141.646 323.446,142.011 322.302,142.181 C 321.209,142.341 320.516,142.308 319.481,142.058 L 320.735,139.117 C 321.057,139.156 321.388,139.15 321.723,139.088 C 322.067,139.026 322.385,138.91 322.674,138.754 L 324.899,141.061 C 324.931,141.039 324.964,141.016 324.901,141.062 z M 325.671,140.406 L 325.673,140.41 C 325.653,140.43 325.69,140.387 325.671,140.406 L 323.742,137.836 C 324.137,137.311 324.372,136.67 324.396,135.99 L 327.518,135.215 L 327.518,135.207 C 327.518,135.209 327.518,135.211 327.518,135.215 L 327.518,135.215 C 327.726,137.191 326.997,139.076 325.671,140.406 z" />
			</g>
		</g>
	</g><g
   id="g11590"
   transform="translate(-1.1361557e-6,39.366641)">
		<g
   id="g11592">
			<g
   id="g11594">
				<path
   style="fill:#629e1f"
   id="path11596"
   d="M 136.358,195.863 C 136.358,203.797 129.927,210.228 122,210.228 C 114.076,210.228 107.647,203.796 107.647,195.863 C 107.647,187.931 114.076,181.5 122,181.5 C 129.928,181.5 136.358,187.932 136.358,195.863 z" />
			</g>
		</g>
		<g
   id="g11598">
			<g
   id="g11600">
				<path
   style="fill:#ffffff"
   id="path11602"
   d="M 125.76,201.062 L 125.758,201.06 C 125.727,201.082 125.697,201.105 125.76,201.062 z M 131.922,195.865 C 131.922,195.549 131.906,195.236 131.875,194.927 L 133.141,194.624 C 133.102,194.278 133.051,193.936 132.983,193.601 L 131.684,193.705 C 131.547,193.086 131.354,192.49 131.105,191.92 L 132.213,191.244 C 132.071,190.928 131.912,190.619 131.742,190.32 L 130.542,190.82 C 130.223,190.279 129.852,189.771 129.439,189.302 L 130.287,188.314 C 130.053,188.06 129.808,187.814 129.555,187.582 L 128.563,188.43 C 128.094,188.016 127.589,187.647 127.049,187.326 L 127.547,186.125 C 127.25,185.955 126.94,185.797 126.625,185.654 L 125.948,186.763 C 125.379,186.515 124.781,186.322 124.161,186.185 L 124.265,184.884 C 123.931,184.816 123.588,184.763 123.244,184.726 L 122.94,185.99 C 122.632,185.963 122.32,185.945 122.002,185.945 C 121.684,185.945 121.372,185.963 121.064,185.99 L 120.764,184.726 C 120.414,184.763 120.075,184.816 119.739,184.884 L 119.843,186.185 C 119.226,186.322 118.628,186.515 118.06,186.763 L 117.38,185.654 C 117.067,185.797 116.759,185.955 116.46,186.125 L 116.957,187.326 C 116.416,187.646 115.911,188.015 115.442,188.43 L 114.452,187.582 C 114.196,187.814 113.952,188.061 113.721,188.314 L 114.568,189.302 C 114.156,189.771 113.785,190.279 113.463,190.82 L 112.266,190.32 C 112.094,190.619 111.938,190.927 111.793,191.244 L 112.901,191.92 C 112.656,192.49 112.462,193.086 112.322,193.705 L 111.023,193.601 C 110.955,193.937 110.904,194.279 110.865,194.624 L 112.13,194.927 C 112.101,195.236 112.086,195.548 112.086,195.865 C 112.086,196.179 112.101,196.494 112.13,196.801 L 110.865,197.104 C 110.902,197.452 110.955,197.792 111.023,198.127 L 112.322,198.023 C 112.462,198.642 112.656,199.24 112.901,199.808 L 111.792,200.486 C 111.938,200.802 112.094,201.109 112.266,201.408 L 113.463,200.91 C 113.785,201.449 114.156,201.957 114.568,202.426 L 113.721,203.416 C 113.952,203.67 114.197,203.914 114.452,204.146 L 115.442,203.3 C 115.911,203.712 116.416,204.083 116.957,204.404 L 116.46,205.603 C 116.759,205.775 117.066,205.931 117.38,206.074 L 118.06,204.965 C 118.629,205.213 119.226,205.406 119.843,205.543 L 119.739,206.844 C 120.075,206.912 120.415,206.965 120.761,207.002 L 121.064,205.738 C 121.372,205.765 121.684,205.783 122.002,205.783 C 122.32,205.783 122.632,205.765 122.94,205.738 L 123.244,207.002 C 123.589,206.965 123.932,206.912 124.265,206.844 L 124.161,205.543 C 124.781,205.406 125.379,205.213 125.948,204.965 L 126.625,206.074 C 126.939,205.931 127.25,205.775 127.547,205.603 L 127.049,204.404 C 127.589,204.084 128.094,203.713 128.563,203.3 L 129.555,204.146 C 129.811,203.914 130.053,203.669 130.287,203.416 L 129.439,202.426 C 129.851,201.957 130.222,201.449 130.542,200.91 L 131.742,201.408 C 131.912,201.109 132.071,200.801 132.213,200.486 L 131.105,199.808 C 131.354,199.24 131.547,198.642 131.684,198.023 L 132.983,198.127 C 133.052,197.791 133.102,197.451 133.141,197.104 L 131.875,196.801 C 131.906,196.494 131.922,196.18 131.922,195.865 z M 124.623,190.02 C 126.339,190.79 127.684,192.299 128.194,194.221 L 125,194.605 C 124.737,193.978 124.288,193.462 123.731,193.113 L 124.623,190.02 z M 124.086,195.865 C 124.086,197.015 123.152,197.947 122.003,197.947 C 120.855,197.947 119.92,197.015 119.92,195.865 C 119.92,194.715 120.855,193.783 122.003,193.783 C 123.152,193.783 124.086,194.715 124.086,195.865 z M 120.844,189.564 C 121.815,189.384 122.775,189.443 123.668,189.683 L 122.41,192.634 C 122.084,192.591 121.744,192.597 121.401,192.659 C 121.065,192.72 120.753,192.833 120.464,192.983 L 118.247,190.68 C 118.998,190.137 119.871,189.742 120.844,189.564 z M 117.475,191.332 L 119.396,193.893 C 118.993,194.424 118.751,195.073 118.727,195.76 L 115.629,196.53 C 115.422,194.553 116.146,192.662 117.475,191.332 z M 115.694,197.031 L 115.694,197.031 L 115.697,197.033 C 115.697,197.033 115.694,197.033 115.694,197.031 z M 119.386,201.719 L 119.386,201.725 C 119.411,201.736 119.359,201.709 119.386,201.719 C 117.674,200.949 116.324,199.446 115.813,197.524 L 118.98,197.141 C 119.25,197.778 119.706,198.297 120.271,198.647 L 119.386,201.719 z M 125.76,201.062 C 124.913,201.646 124.305,202.011 123.161,202.181 C 122.068,202.341 121.375,202.308 120.34,202.058 L 121.594,199.117 C 121.916,199.156 122.247,199.15 122.582,199.088 C 122.926,199.026 123.244,198.91 123.533,198.754 L 125.758,201.061 C 125.789,201.039 125.822,201.016 125.76,201.062 z M 126.529,200.406 L 126.531,200.41 C 126.512,200.43 126.549,200.387 126.529,200.406 L 124.6,197.836 C 124.995,197.311 125.23,196.67 125.254,195.99 L 128.376,195.215 L 128.376,195.207 C 128.376,195.209 128.376,195.211 128.376,195.215 L 128.376,195.215 C 128.584,197.191 127.855,199.076 126.529,200.406 z" />
			</g>
		</g>
	</g><polygon
   id="polygon11608"
   points="245.167,159.547 238.842,159.547 242.004,153.221 245.167,159.547 "
   transform="translate(-1.1361557e-6,39.366641)" /><path
   style="fill:none;stroke:#000000;stroke-width:2"
   id="path11610"
   d="M 136.358,235.22972 L 237.504,235.22972 C 239.989,235.22972 242.004,233.21472 242.004,230.72972 L 242.004,197.19572" /><path
   style="fill:#666666"
   id="path11612"
   d="M 331.5,329.36672 C 331.5,332.68072 328.813,335.36672 325.5,335.36672 L 229.5,335.36672 C 226.187,335.36672 223.5,332.68072 223.5,329.36672 L 223.5,329.36672 C 223.5,326.05272 226.187,323.36672 229.5,323.36672 L 325.5,323.36672 C 328.813,323.36672 331.5,326.05272 331.5,329.36672 L 331.5,329.36672 z" /><rect
   style="opacity:0.75;fill:#d2d3d4"
   x="-1.1361558e-06"
   id="rect11614"
   height="72"
   width="420"
   y="44.366638" /><path
   style="fill:#d2d3d4"
   id="path11616"
   d="M 193,105.11665 C 193,107.60166 190.985,109.61666 188.5,109.61666 L 101.5,109.61666 C 99.014999,109.61666 96.999999,107.60166 96.999999,105.11665 L 96.999999,55.61664 C 96.999999,53.13164 99.014999,51.11664 101.5,51.11664 L 188.5,51.11664 C 190.985,51.11664 193,53.13164 193,55.61664 L 193,105.11665 z" /><g
   id="g11618"
   transform="translate(-1.1361557e-6,39.366641)">
		<g
   id="g11620">
			<g
   id="g11622">
				<path
   style="fill:#629e1f"
   id="path11624"
   d="M 136.358,46.885 C 136.358,54.819 129.927,61.25 122,61.25 C 114.076,61.25 107.647,54.818 107.647,46.885 C 107.647,38.953 114.076,32.522 122,32.522 C 129.928,32.521 136.358,38.953 136.358,46.885 z" />
			</g>
		</g>
		<g
   id="g11626">
			<g
   id="g11628">
				<path
   style="fill:#ffffff"
   id="path11630"
   d="M 125.76,52.084 L 125.758,52.082 C 125.727,52.104 125.697,52.127 125.76,52.084 z M 131.922,46.887 C 131.922,46.571 131.906,46.258 131.875,45.949 L 133.141,45.646 C 133.102,45.3 133.051,44.958 132.983,44.623 L 131.684,44.727 C 131.547,44.108 131.354,43.512 131.105,42.942 L 132.213,42.266 C 132.071,41.95 131.912,41.641 131.742,41.342 L 130.542,41.842 C 130.223,41.301 129.852,40.793 129.439,40.324 L 130.287,39.336 C 130.053,39.082 129.808,38.836 129.555,38.604 L 128.563,39.452 C 128.094,39.038 127.589,38.669 127.049,38.348 L 127.547,37.147 C 127.25,36.977 126.94,36.819 126.625,36.676 L 125.948,37.785 C 125.379,37.537 124.781,37.344 124.161,37.207 L 124.265,35.906 C 123.931,35.838 123.588,35.785 123.244,35.748 L 122.94,37.012 C 122.632,36.985 122.32,36.967 122.002,36.967 C 121.684,36.967 121.372,36.985 121.064,37.012 L 120.764,35.748 C 120.414,35.785 120.075,35.838 119.739,35.906 L 119.843,37.207 C 119.226,37.344 118.628,37.537 118.06,37.785 L 117.38,36.676 C 117.067,36.819 116.759,36.977 116.46,37.147 L 116.957,38.348 C 116.416,38.668 115.911,39.037 115.442,39.452 L 114.452,38.604 C 114.196,38.836 113.952,39.083 113.721,39.336 L 114.568,40.324 C 114.156,40.793 113.785,41.301 113.463,41.842 L 112.266,41.342 C 112.094,41.641 111.938,41.949 111.793,42.266 L 112.901,42.942 C 112.656,43.512 112.462,44.108 112.322,44.727 L 111.023,44.623 C 110.955,44.959 110.904,45.301 110.865,45.646 L 112.13,45.949 C 112.101,46.258 112.086,46.57 112.086,46.887 C 112.086,47.201 112.101,47.516 112.13,47.823 L 110.865,48.126 C 110.902,48.474 110.955,48.814 111.023,49.149 L 112.322,49.045 C 112.462,49.664 112.656,50.262 112.901,50.83 L 111.792,51.508 C 111.938,51.824 112.094,52.131 112.266,52.43 L 113.463,51.932 C 113.785,52.471 114.156,52.979 114.568,53.448 L 113.721,54.438 C 113.952,54.692 114.197,54.936 114.452,55.168 L 115.442,54.322 C 115.911,54.734 116.416,55.105 116.957,55.426 L 116.46,56.625 C 116.759,56.797 117.066,56.953 117.38,57.096 L 118.06,55.987 C 118.629,56.235 119.226,56.428 119.843,56.565 L 119.739,57.866 C 120.075,57.934 120.415,57.987 120.761,58.024 L 121.064,56.76 C 121.372,56.787 121.684,56.805 122.002,56.805 C 122.32,56.805 122.632,56.787 122.94,56.76 L 123.244,58.024 C 123.589,57.987 123.932,57.934 124.265,57.866 L 124.161,56.565 C 124.781,56.428 125.379,56.235 125.948,55.987 L 126.625,57.096 C 126.939,56.953 127.25,56.797 127.547,56.625 L 127.049,55.426 C 127.589,55.106 128.094,54.735 128.563,54.322 L 129.555,55.168 C 129.811,54.936 130.053,54.691 130.287,54.438 L 129.439,53.448 C 129.851,52.979 130.222,52.471 130.542,51.932 L 131.742,52.43 C 131.912,52.131 132.071,51.823 132.213,51.508 L 131.105,50.83 C 131.354,50.262 131.547,49.664 131.684,49.045 L 132.983,49.149 C 133.052,48.813 133.102,48.473 133.141,48.126 L 131.875,47.823 C 131.906,47.516 131.922,47.201 131.922,46.887 z M 124.623,41.041 C 126.339,41.811 127.684,43.32 128.194,45.242 L 125,45.627 C 124.737,45 124.288,44.484 123.731,44.135 L 124.623,41.041 z M 124.086,46.887 C 124.086,48.037 123.152,48.969 122.003,48.969 C 120.855,48.969 119.92,48.037 119.92,46.887 C 119.92,45.737 120.855,44.805 122.003,44.805 C 123.152,44.805 124.086,45.736 124.086,46.887 z M 120.844,40.586 C 121.815,40.406 122.775,40.465 123.668,40.705 L 122.41,43.656 C 122.084,43.613 121.744,43.619 121.401,43.681 C 121.065,43.742 120.753,43.855 120.464,44.005 L 118.247,41.702 C 118.998,41.158 119.871,40.764 120.844,40.586 z M 117.475,42.354 L 119.396,44.915 C 118.993,45.446 118.751,46.095 118.727,46.782 L 115.629,47.552 C 115.422,45.574 116.146,43.684 117.475,42.354 z M 115.694,48.053 L 115.694,48.053 L 115.697,48.055 C 115.697,48.055 115.694,48.055 115.694,48.053 z M 119.386,52.74 L 119.386,52.746 C 119.411,52.758 119.359,52.73 119.386,52.74 C 117.674,51.97 116.324,50.467 115.813,48.545 L 118.98,48.162 C 119.25,48.799 119.706,49.318 120.271,49.668 L 119.386,52.74 z M 125.76,52.084 C 124.913,52.668 124.305,53.033 123.161,53.203 C 122.068,53.363 121.375,53.33 120.34,53.08 L 121.594,50.139 C 121.916,50.178 122.247,50.172 122.582,50.11 C 122.926,50.048 123.244,49.932 123.533,49.776 L 125.758,52.083 C 125.789,52.061 125.822,52.037 125.76,52.084 z M 126.529,51.428 L 126.531,51.432 C 126.512,51.451 126.549,51.408 126.529,51.428 L 124.6,48.858 C 124.995,48.333 125.23,47.692 125.254,47.012 L 128.376,46.237 L 128.376,46.229 C 128.376,46.231 128.376,46.233 128.376,46.237 L 128.376,46.237 C 128.584,48.213 127.855,50.098 126.529,51.428 z" />
			</g>
		</g>
	</g><polygon
   id="polygon11632"
   points="87.674,43.723 87.674,50.048 94,46.885 87.674,43.723 "
   transform="translate(-1.1361557e-6,39.366641)" /><polygon
   id="polygon11634"
   points="38.321,139.025 38.321,132.7 44.647,135.862 38.321,139.025 "
   transform="translate(-1.1361557e-6,39.366641)" /><path
   style="fill:none;stroke:#000000;stroke-width:2"
   id="path11636"
   d="M 90.777999,86.25264 L 32.038999,86.25264 C 29.553999,86.25264 27.538999,88.26664 27.538999,90.75264 L 27.538999,170.72972 C 27.538999,173.21372 29.553999,175.22972 32.038999,175.22972 L 40.038999,175.22972" /><path
   style="fill:#d2d3d4"
   id="path11638"
   d="M 385.5,105.11665 C 385.5,107.60166 383.485,109.61666 381,109.61666 L 321,109.61666 C 318.515,109.61666 316.5,107.60166 316.5,105.11665 L 316.5,55.61664 C 316.5,53.13164 318.515,51.11664 321,51.11664 L 381,51.11664 C 383.485,51.11664 385.5,53.13164 385.5,55.61664 L 385.5,105.11665 z" /><path
   style="fill:#666666"
   id="path11640"
   d="M 305.98,101.36664 C 305.98,104.68065 303.293,107.36665 299.98,107.36665 L 254.98,107.36665 C 251.667,107.36665 248.98,104.68065 248.98,101.36664 L 248.98,101.36664 C 248.98,98.05264 251.667,95.36664 254.98,95.36664 L 299.98,95.36664 C 303.294,95.36664 305.98,98.05264 305.98,101.36664 L 305.98,101.36664 z" /><path
   style="fill:#666666"
   id="path11642"
   d="M 322.58,252.36672 C 322.58,255.68072 319.894,258.36672 316.58,258.36672 L 238.58,258.36672 C 235.267,258.36672 232.58,255.68072 232.58,252.36672 L 232.58,252.36672 C 232.58,249.05272 235.267,246.36672 238.58,246.36672 L 316.58,246.36672 C 319.895,246.36672 322.58,249.05272 322.58,252.36672 L 322.58,252.36672 z" /><polygon
   id="polygon11644"
   points="354.163,79.547 347.838,79.547 351,73.221 354.163,79.547 "
   transform="translate(-1.1361557e-6,39.366641)" /><path
   style="fill:none;stroke:#000000;stroke-width:2"
   id="path11646"
   d="M 335.5,175.22972 L 346.5,175.22972 C 348.986,175.22972 351,173.21472 351,170.72972 L 351,117.19567" /><g
   id="g11648"
   transform="translate(-1.1361557e-6,39.366641)">
		<g
   id="g11650">
			<g
   id="g11652">
				<path
   style="fill:#629e1f"
   id="path11654"
   d="M 365.358,195.863 C 365.358,203.797 358.927,210.228 351,210.228 C 343.076,210.228 336.647,203.796 336.647,195.863 C 336.647,187.931 343.076,181.5 351,181.5 C 358.928,181.5 365.358,187.932 365.358,195.863 z" />
			</g>
		</g>
		<g
   id="g11656">
			<g
   id="g11658">
				<path
   style="fill:#ffffff"
   id="path11660"
   d="M 354.76,201.062 L 354.758,201.06 C 354.727,201.082 354.697,201.105 354.76,201.062 z M 360.922,195.865 C 360.922,195.549 360.906,195.236 360.875,194.927 L 362.141,194.624 C 362.102,194.278 362.051,193.936 361.983,193.601 L 360.684,193.705 C 360.547,193.086 360.354,192.49 360.105,191.92 L 361.213,191.244 C 361.071,190.928 360.912,190.619 360.742,190.32 L 359.542,190.82 C 359.223,190.279 358.852,189.771 358.439,189.302 L 359.287,188.314 C 359.053,188.06 358.808,187.814 358.555,187.582 L 357.563,188.43 C 357.094,188.016 356.589,187.647 356.049,187.326 L 356.547,186.125 C 356.25,185.955 355.94,185.797 355.625,185.654 L 354.948,186.763 C 354.379,186.515 353.781,186.322 353.161,186.185 L 353.265,184.884 C 352.931,184.816 352.588,184.763 352.244,184.726 L 351.94,185.99 C 351.632,185.963 351.32,185.945 351.002,185.945 C 350.684,185.945 350.372,185.963 350.064,185.99 L 349.764,184.726 C 349.414,184.763 349.075,184.816 348.739,184.884 L 348.843,186.185 C 348.226,186.322 347.628,186.515 347.06,186.763 L 346.38,185.654 C 346.067,185.797 345.759,185.955 345.46,186.125 L 345.957,187.326 C 345.416,187.646 344.911,188.015 344.442,188.43 L 343.452,187.582 C 343.196,187.814 342.952,188.061 342.721,188.314 L 343.568,189.302 C 343.156,189.771 342.785,190.279 342.463,190.82 L 341.266,190.32 C 341.094,190.619 340.938,190.927 340.793,191.244 L 341.901,191.92 C 341.656,192.49 341.462,193.086 341.322,193.705 L 340.023,193.601 C 339.955,193.937 339.904,194.279 339.865,194.624 L 341.13,194.927 C 341.101,195.236 341.086,195.548 341.086,195.865 C 341.086,196.179 341.101,196.494 341.13,196.801 L 339.865,197.104 C 339.902,197.452 339.955,197.792 340.023,198.127 L 341.322,198.023 C 341.462,198.642 341.656,199.24 341.901,199.808 L 340.792,200.486 C 340.938,200.802 341.094,201.109 341.266,201.408 L 342.463,200.91 C 342.785,201.449 343.156,201.957 343.568,202.426 L 342.721,203.416 C 342.952,203.67 343.197,203.914 343.452,204.146 L 344.442,203.3 C 344.911,203.712 345.416,204.083 345.957,204.404 L 345.46,205.603 C 345.759,205.775 346.066,205.931 346.38,206.074 L 347.06,204.965 C 347.629,205.213 348.226,205.406 348.843,205.543 L 348.739,206.844 C 349.075,206.912 349.415,206.965 349.761,207.002 L 350.064,205.738 C 350.372,205.765 350.684,205.783 351.002,205.783 C 351.32,205.783 351.632,205.765 351.94,205.738 L 352.244,207.002 C 352.589,206.965 352.932,206.912 353.265,206.844 L 353.161,205.543 C 353.781,205.406 354.379,205.213 354.948,204.965 L 355.625,206.074 C 355.939,205.931 356.25,205.775 356.547,205.603 L 356.049,204.404 C 356.589,204.084 357.094,203.713 357.563,203.3 L 358.555,204.146 C 358.811,203.914 359.053,203.669 359.287,203.416 L 358.439,202.426 C 358.851,201.957 359.222,201.449 359.542,200.91 L 360.742,201.408 C 360.912,201.109 361.071,200.801 361.213,200.486 L 360.105,199.808 C 360.354,199.24 360.547,198.642 360.684,198.023 L 361.983,198.127 C 362.052,197.791 362.102,197.451 362.141,197.104 L 360.875,196.801 C 360.906,196.494 360.922,196.18 360.922,195.865 z M 353.623,190.02 C 355.339,190.79 356.684,192.299 357.194,194.221 L 354,194.605 C 353.737,193.978 353.288,193.462 352.731,193.113 L 353.623,190.02 z M 353.086,195.865 C 353.086,197.015 352.152,197.947 351.003,197.947 C 349.855,197.947 348.92,197.015 348.92,195.865 C 348.92,194.715 349.855,193.783 351.003,193.783 C 352.152,193.783 353.086,194.715 353.086,195.865 z M 349.844,189.564 C 350.815,189.384 351.775,189.443 352.668,189.683 L 351.41,192.634 C 351.084,192.591 350.744,192.597 350.401,192.659 C 350.065,192.72 349.753,192.833 349.464,192.983 L 347.247,190.68 C 347.998,190.137 348.871,189.742 349.844,189.564 z M 346.475,191.332 L 348.396,193.893 C 347.993,194.424 347.751,195.073 347.727,195.76 L 344.629,196.53 C 344.422,194.553 345.146,192.662 346.475,191.332 z M 344.694,197.031 L 344.694,197.031 L 344.697,197.033 C 344.697,197.033 344.694,197.033 344.694,197.031 z M 348.386,201.719 L 348.386,201.725 C 348.411,201.736 348.359,201.709 348.386,201.719 C 346.674,200.949 345.324,199.446 344.813,197.524 L 347.98,197.141 C 348.25,197.778 348.706,198.297 349.271,198.647 L 348.386,201.719 z M 354.76,201.062 C 353.913,201.646 353.305,202.011 352.161,202.181 C 351.068,202.341 350.375,202.308 349.34,202.058 L 350.594,199.117 C 350.916,199.156 351.247,199.15 351.582,199.088 C 351.926,199.026 352.244,198.91 352.533,198.754 L 354.758,201.061 C 354.789,201.039 354.822,201.016 354.76,201.062 z M 355.529,200.406 L 355.531,200.41 C 355.512,200.43 355.549,200.387 355.529,200.406 L 353.6,197.836 C 353.995,197.311 354.23,196.67 354.254,195.99 L 357.376,195.215 L 357.376,195.207 C 357.376,195.209 357.376,195.211 357.376,195.215 L 357.376,195.215 C 357.584,197.191 356.855,199.076 355.529,200.406 z" />
			</g>
		</g>
	</g><polygon
   id="polygon11662"
   points="384.021,159.547 377.696,159.547 380.858,153.221 384.021,159.547 "
   transform="translate(-1.1361557e-6,39.366641)" /><path
   style="fill:none;stroke:#000000;stroke-width:2"
   id="path11664"
   d="M 371.527,235.22972 L 376.358,235.22972 C 378.844,235.22972 380.858,233.21472 380.858,230.72972 L 380.858,197.19572" /><polygon
   id="polygon11666"
   points="374.685,192.7 374.685,199.025 368.358,195.863 374.685,192.7 "
   transform="translate(-1.1361557e-6,39.366641)" /><polygon
   id="polygon11668"
   points="317.984,159.547 324.31,159.547 321.147,153.221 317.984,159.547 "
   transform="translate(-1.1361557e-6,39.366641)" /><path
   style="fill:none;stroke:#000000;stroke-width:2"
   id="path11670"
   d="M 330.479,235.22972 L 325.648,235.22972 C 323.162,235.22972 321.148,233.21472 321.148,230.72972 L 321.148,197.19572" /><polygon
   id="polygon11672"
   points="327.321,192.7 327.321,199.025 333.647,195.863 327.321,192.7 "
   transform="translate(-1.1361557e-6,39.366641)" /><polygon
   id="polygon11706"
   points="347.841,219.555 354.166,219.555 351.004,213.229 347.841,219.555 "
   transform="translate(-1.1361557e-6,39.366641)" /><polygon
   id="polygon11708"
   points="347.837,316.81 354.162,316.81 351,323.136 347.837,316.81 "
   transform="translate(-1.1361557e-6,-36.63336)" /><line
   style="fill:none;stroke:#000000;stroke-width:2;stroke-miterlimit:4;stroke-dasharray:none"
   id="line11710"
   y2="255.09836"
   x2="121.61183"
   y1="281.58868"
   x1="121.61183" /><polygon
   id="polygon11712"
   points="125.163,219.555 118.838,219.555 122,213.229 125.163,219.555 "
   transform="translate(-1.1361557e-6,39.366641)" /><polygon
   id="polygon11714"
   points="118.838,316.81 125.163,316.81 122,323.136 118.838,316.81 "
   transform="translate(-1.1361557e-6,-36.63336)" /><path
   style="fill:none;stroke:#c11306;stroke-width:1.54999995"
   id="path11734"
   d="M 134.783,306.00572 L 136.359,303.84372 L 140.109,303.84372 C 140.109,303.84372 141.609,300.60872 141.609,296.39572 C 144.665,296.39572 147.334,306.00572 147.334,306.00572 L 148.91,303.84372 L 152.66,303.84372 C 152.66,303.84372 154.16,300.60872 154.16,296.39572 C 157.216,296.39572 159.885,306.00572 159.885,306.00572 L 161.461,303.84372 L 165.211,303.84372 C 165.211,303.84372 166.711,300.60872 166.711,296.39572 C 169.767,296.39572 172.436,306.00572 172.436,306.00572 L 174.012,303.84372 L 177.762,303.84372 C 177.762,303.84372 179.262,300.60872 179.262,296.39572 C 182.318,296.39572 184.987,306.00572 184.987,306.00572 L 186.563,303.84372 L 190.313,303.84372 C 190.313,303.84372 191.813,300.60872 191.813,296.39572 C 194.869,296.39572 197.538,306.00572 197.538,306.00572 L 199.114,303.84372 L 202.864,303.84372 C 202.864,303.84372 204.364,300.60872 204.364,296.39572 C 207.42,296.39572 210.09,306.00572 210.09,306.00572 L 211.666,303.84372 L 215.416,303.84372 C 215.416,303.84372 216.916,300.60872 216.916,296.39572 C 219.971,296.39572 222.641,306.00572 222.641,306.00572 L 224.217,303.84372 L 227.967,303.84372 C 227.967,303.84372 229.467,300.60872 229.467,296.39572 C 232.523,296.39572 235.192,306.00572 235.192,306.00572 L 236.768,303.84372 L 240.518,303.84372 C 240.518,303.84372 242.018,300.60872 242.018,296.39572 C 245.075,296.39572 247.744,306.00572 247.744,306.00572 L 249.32,303.84372 L 253.07,303.84372 C 253.07,303.84372 254.57,300.60872 254.57,296.39572 C 257.626,296.39572 260.296,306.00572 260.296,306.00572 L 261.872,303.84372 L 265.622,303.84372 C 265.622,303.84372 267.122,300.60872 267.122,296.39572 C 270.177,296.39572 272.847,306.00572 272.847,306.00572 L 274.423,303.84372 L 278.173,303.84372 C 278.173,303.84372 279.673,300.60872 279.673,296.39572 C 282.73,296.39572 285.398,306.00572 285.398,306.00572 L 286.974,303.84372 L 290.724,303.84372 C 290.724,303.84372 292.224,300.60872 292.224,296.39572 C 295.281,296.39572 297.951,306.00572 297.951,306.00572 L 299.527,303.84372 L 303.277,303.84372 C 303.277,303.84372 304.777,300.60872 304.777,296.39572 C 307.832,296.39572 310.502,306.00572 310.502,306.00572 L 312.078,303.84372 L 315.828,303.84372 C 315.828,303.84372 317.328,300.60872 317.328,296.39572 C 320.383,296.39572 323.053,306.00572 323.053,306.00572 L 324.629,303.84372 L 328.379,303.84372 C 328.379,303.84372 329.879,300.60872 329.879,296.39572 C 332.936,296.39572 335.604,306.00572 335.604,306.00572 L 337.18,303.84372" /><g
   id="g11736"
   transform="translate(-1.1361557e-6,-36.63336)">
		<g
   id="g11738">
			<g
   id="g11740">
				<path
   style="fill:#629e1f"
   id="path11742"
   d="M 365.358,340.499 C 365.358,348.433 358.927,354.864 351,354.864 C 343.076,354.864 336.647,348.432 336.647,340.499 C 336.647,332.567 343.076,326.136 351,326.136 C 358.928,326.136 365.358,332.567 365.358,340.499 z" />
			</g>
		</g>
		<g
   id="g11744">
			<g
   id="g11746">
				<path
   style="fill:#ffffff"
   id="path11748"
   d="M 354.76,345.698 L 354.758,345.696 C 354.727,345.718 354.697,345.741 354.76,345.698 z M 360.922,340.501 C 360.922,340.185 360.906,339.872 360.875,339.563 L 362.141,339.26 C 362.102,338.914 362.051,338.572 361.983,338.237 L 360.684,338.341 C 360.547,337.722 360.354,337.126 360.105,336.556 L 361.213,335.88 C 361.071,335.564 360.912,335.255 360.742,334.956 L 359.542,335.456 C 359.223,334.915 358.852,334.407 358.439,333.938 L 359.287,332.95 C 359.053,332.696 358.808,332.45 358.555,332.218 L 357.563,333.066 C 357.094,332.652 356.589,332.283 356.049,331.962 L 356.547,330.761 C 356.25,330.591 355.94,330.433 355.625,330.29 L 354.948,331.399 C 354.379,331.151 353.781,330.958 353.161,330.821 L 353.265,329.52 C 352.931,329.452 352.588,329.399 352.244,329.362 L 351.94,330.626 C 351.632,330.599 351.32,330.581 351.002,330.581 C 350.684,330.581 350.372,330.599 350.064,330.626 L 349.764,329.362 C 349.414,329.399 349.075,329.452 348.739,329.52 L 348.843,330.821 C 348.226,330.958 347.628,331.151 347.06,331.399 L 346.38,330.29 C 346.067,330.433 345.759,330.591 345.46,330.761 L 345.957,331.962 C 345.416,332.282 344.911,332.651 344.442,333.066 L 343.452,332.218 C 343.196,332.45 342.952,332.697 342.721,332.95 L 343.568,333.938 C 343.156,334.407 342.785,334.915 342.463,335.456 L 341.266,334.956 C 341.094,335.255 340.938,335.563 340.793,335.88 L 341.901,336.556 C 341.656,337.126 341.462,337.722 341.322,338.341 L 340.023,338.237 C 339.955,338.573 339.904,338.915 339.865,339.26 L 341.13,339.563 C 341.101,339.872 341.086,340.184 341.086,340.501 C 341.086,340.815 341.101,341.13 341.13,341.437 L 339.865,341.74 C 339.902,342.088 339.955,342.428 340.023,342.763 L 341.322,342.659 C 341.462,343.278 341.656,343.876 341.901,344.444 L 340.792,345.122 C 340.938,345.438 341.094,345.745 341.266,346.044 L 342.463,345.546 C 342.785,346.085 343.156,346.593 343.568,347.062 L 342.721,348.052 C 342.952,348.306 343.197,348.55 343.452,348.782 L 344.442,347.936 C 344.911,348.348 345.416,348.719 345.957,349.04 L 345.46,350.239 C 345.759,350.411 346.066,350.567 346.38,350.71 L 347.06,349.601 C 347.629,349.849 348.226,350.042 348.843,350.179 L 348.739,351.48 C 349.075,351.548 349.415,351.601 349.761,351.638 L 350.064,350.374 C 350.372,350.401 350.684,350.419 351.002,350.419 C 351.32,350.419 351.632,350.401 351.94,350.374 L 352.244,351.638 C 352.589,351.601 352.932,351.548 353.265,351.48 L 353.161,350.179 C 353.781,350.042 354.379,349.849 354.948,349.601 L 355.625,350.71 C 355.939,350.567 356.25,350.411 356.547,350.239 L 356.049,349.04 C 356.589,348.72 357.094,348.349 357.563,347.936 L 358.555,348.782 C 358.811,348.55 359.053,348.305 359.287,348.052 L 358.439,347.062 C 358.851,346.593 359.222,346.085 359.542,345.546 L 360.742,346.044 C 360.912,345.745 361.071,345.437 361.213,345.122 L 360.105,344.444 C 360.354,343.876 360.547,343.278 360.684,342.659 L 361.983,342.763 C 362.052,342.427 362.102,342.087 362.141,341.74 L 360.875,341.437 C 360.906,341.13 360.922,340.815 360.922,340.501 z M 353.623,334.655 C 355.339,335.425 356.684,336.934 357.194,338.856 L 354,339.241 C 353.737,338.614 353.288,338.098 352.731,337.749 L 353.623,334.655 z M 353.086,340.501 C 353.086,341.651 352.152,342.583 351.003,342.583 C 349.855,342.583 348.92,341.651 348.92,340.501 C 348.92,339.351 349.855,338.419 351.003,338.419 C 352.152,338.419 353.086,339.351 353.086,340.501 z M 349.844,334.2 C 350.815,334.02 351.775,334.079 352.668,334.319 L 351.41,337.27 C 351.084,337.227 350.744,337.233 350.401,337.295 C 350.065,337.356 349.753,337.469 349.464,337.619 L 347.247,335.316 C 347.998,334.772 348.871,334.378 349.844,334.2 z M 346.475,335.968 L 348.396,338.529 C 347.993,339.06 347.751,339.709 347.727,340.396 L 344.629,341.166 C 344.422,339.188 345.146,337.298 346.475,335.968 z M 344.694,341.667 L 344.694,341.667 L 344.697,341.669 C 344.697,341.669 344.694,341.669 344.694,341.667 z M 348.386,346.354 L 348.386,346.36 C 348.411,346.372 348.359,346.345 348.386,346.354 C 346.674,345.584 345.324,344.081 344.813,342.159 L 347.98,341.776 C 348.25,342.413 348.706,342.932 349.271,343.282 L 348.386,346.354 z M 354.76,345.698 C 353.913,346.282 353.305,346.647 352.161,346.817 C 351.068,346.977 350.375,346.944 349.34,346.694 L 350.594,343.753 C 350.916,343.792 351.247,343.786 351.582,343.724 C 351.926,343.662 352.244,343.546 352.533,343.39 L 354.758,345.697 C 354.789,345.675 354.822,345.651 354.76,345.698 z M 355.529,345.042 L 355.531,345.046 C 355.512,345.065 355.549,345.022 355.529,345.042 L 353.6,342.472 C 353.995,341.947 354.23,341.306 354.254,340.626 L 357.376,339.851 L 357.376,339.843 C 357.376,339.845 357.376,339.847 357.376,339.851 L 357.376,339.851 C 357.584,341.827 356.855,343.712 355.529,345.042 z" />
			</g>
		</g>
	</g><g
   id="g11750"
   transform="translate(-1.1361557e-6,-36.63336)">
		<g
   id="g11752">
			<g
   id="g11754">
				<path
   style="fill:#629e1f"
   id="path11756"
   d="M 136.358,340.499 C 136.358,348.433 129.927,354.864 122,354.864 C 114.076,354.864 107.647,348.432 107.647,340.499 C 107.647,332.567 114.076,326.136 122,326.136 C 129.928,326.136 136.358,332.567 136.358,340.499 z" />
			</g>
		</g>
		<g
   id="g11758">
			<g
   id="g11760">
				<path
   style="fill:#ffffff"
   id="path11762"
   d="M 125.76,345.698 L 125.758,345.696 C 125.727,345.718 125.697,345.741 125.76,345.698 z M 131.922,340.501 C 131.922,340.185 131.906,339.872 131.875,339.563 L 133.141,339.26 C 133.102,338.914 133.051,338.572 132.983,338.237 L 131.684,338.341 C 131.547,337.722 131.354,337.126 131.105,336.556 L 132.213,335.88 C 132.071,335.564 131.912,335.255 131.742,334.956 L 130.542,335.456 C 130.223,334.915 129.852,334.407 129.439,333.938 L 130.287,332.95 C 130.053,332.696 129.808,332.45 129.555,332.218 L 128.563,333.066 C 128.094,332.652 127.589,332.283 127.049,331.962 L 127.547,330.761 C 127.25,330.591 126.94,330.433 126.625,330.29 L 125.948,331.399 C 125.379,331.151 124.781,330.958 124.161,330.821 L 124.265,329.52 C 123.931,329.452 123.588,329.399 123.244,329.362 L 122.94,330.626 C 122.632,330.599 122.32,330.581 122.002,330.581 C 121.684,330.581 121.372,330.599 121.064,330.626 L 120.764,329.362 C 120.414,329.399 120.075,329.452 119.739,329.52 L 119.843,330.821 C 119.226,330.958 118.628,331.151 118.06,331.399 L 117.38,330.29 C 117.067,330.433 116.759,330.591 116.46,330.761 L 116.957,331.962 C 116.416,332.282 115.911,332.651 115.442,333.066 L 114.452,332.218 C 114.196,332.45 113.952,332.697 113.721,332.95 L 114.568,333.938 C 114.156,334.407 113.785,334.915 113.463,335.456 L 112.266,334.956 C 112.094,335.255 111.938,335.563 111.793,335.88 L 112.901,336.556 C 112.656,337.126 112.462,337.722 112.322,338.341 L 111.023,338.237 C 110.955,338.573 110.904,338.915 110.865,339.26 L 112.13,339.563 C 112.101,339.872 112.086,340.184 112.086,340.501 C 112.086,340.815 112.101,341.13 112.13,341.437 L 110.865,341.74 C 110.902,342.088 110.955,342.428 111.023,342.763 L 112.322,342.659 C 112.462,343.278 112.656,343.876 112.901,344.444 L 111.792,345.122 C 111.938,345.438 112.094,345.745 112.266,346.044 L 113.463,345.546 C 113.785,346.085 114.156,346.593 114.568,347.062 L 113.721,348.052 C 113.952,348.306 114.197,348.55 114.452,348.782 L 115.442,347.936 C 115.911,348.348 116.416,348.719 116.957,349.04 L 116.46,350.239 C 116.759,350.411 117.066,350.567 117.38,350.71 L 118.06,349.601 C 118.629,349.849 119.226,350.042 119.843,350.179 L 119.739,351.48 C 120.075,351.548 120.415,351.601 120.761,351.638 L 121.064,350.374 C 121.372,350.401 121.684,350.419 122.002,350.419 C 122.32,350.419 122.632,350.401 122.94,350.374 L 123.244,351.638 C 123.589,351.601 123.932,351.548 124.265,351.48 L 124.161,350.179 C 124.781,350.042 125.379,349.849 125.948,349.601 L 126.625,350.71 C 126.939,350.567 127.25,350.411 127.547,350.239 L 127.049,349.04 C 127.589,348.72 128.094,348.349 128.563,347.936 L 129.555,348.782 C 129.811,348.55 130.053,348.305 130.287,348.052 L 129.439,347.062 C 129.851,346.593 130.222,346.085 130.542,345.546 L 131.742,346.044 C 131.912,345.745 132.071,345.437 132.213,345.122 L 131.105,344.444 C 131.354,343.876 131.547,343.278 131.684,342.659 L 132.983,342.763 C 133.052,342.427 133.102,342.087 133.141,341.74 L 131.875,341.437 C 131.906,341.13 131.922,340.815 131.922,340.501 z M 124.623,334.655 C 126.339,335.425 127.684,336.934 128.194,338.856 L 125,339.241 C 124.737,338.614 124.288,338.098 123.731,337.749 L 124.623,334.655 z M 124.086,340.501 C 124.086,341.651 123.152,342.583 122.003,342.583 C 120.855,342.583 119.92,341.651 119.92,340.501 C 119.92,339.351 120.855,338.419 122.003,338.419 C 123.152,338.419 124.086,339.351 124.086,340.501 z M 120.844,334.2 C 121.815,334.02 122.775,334.079 123.668,334.319 L 122.41,337.27 C 122.084,337.227 121.744,337.233 121.401,337.295 C 121.065,337.356 120.753,337.469 120.464,337.619 L 118.247,335.316 C 118.998,334.772 119.871,334.378 120.844,334.2 z M 117.475,335.968 L 119.396,338.529 C 118.993,339.06 118.751,339.709 118.727,340.396 L 115.629,341.166 C 115.422,339.188 116.146,337.298 117.475,335.968 z M 115.694,341.667 L 115.694,341.667 L 115.697,341.669 C 115.697,341.669 115.694,341.669 115.694,341.667 z M 119.386,346.354 L 119.386,346.36 C 119.411,346.372 119.359,346.345 119.386,346.354 C 117.674,345.584 116.324,344.081 115.813,342.159 L 118.98,341.776 C 119.25,342.413 119.706,342.932 120.271,343.282 L 119.386,346.354 z M 125.76,345.698 C 124.913,346.282 124.305,346.647 123.161,346.817 C 122.068,346.977 121.375,346.944 120.34,346.694 L 121.594,343.753 C 121.916,343.792 122.247,343.786 122.582,343.724 C 122.926,343.662 123.244,343.546 123.533,343.39 L 125.758,345.697 C 125.789,345.675 125.822,345.651 125.76,345.698 z M 126.529,345.042 L 126.531,345.046 C 126.512,345.065 126.549,345.022 126.529,345.042 L 124.6,342.472 C 124.995,341.947 125.23,341.306 125.254,340.626 L 128.376,339.851 L 128.376,339.843 C 128.376,339.845 128.376,339.847 128.376,339.851 L 128.376,339.851 C 128.584,341.827 127.855,343.712 126.529,345.042 z" />
			</g>
		</g>
	</g><g
   id="g11764"
   transform="translate(-1.1361557e-6,-36.63336)">
		<path
   style="fill:none;stroke:#c8c7c8;stroke-width:2.06130004;stroke-linecap:round;stroke-linejoin:round"
   id="path11766"
   d="M 162.032,369.918 L 148.395,365.903 C 148.395,365.903 138.815,375.665 138.262,376.217 C 138.047,376.432 137.955,376.698 137.967,376.96 L 137.967,381.078 L 137.967,381.722 L 137.967,384.708 L 137.967,385.353 L 137.967,388.257 L 137.967,388.902 L 137.967,391.918 L 137.967,392.563 C 137.967,392.563 137.979,392.566 137.979,392.567 L 137.967,392.581 C 137.967,392.581 137.967,399.797 137.967,399.925 C 137.967,400.424 138.461,400.767 138.625,400.827 C 138.51,400.937 138.385,401.146 138.361,401.21 C 138.236,401.533 138.535,401.873 139.043,402.022 C 141.381,402.71 148.018,404.663 148.92,404.931 C 150.016,405.257 150.998,405.156 151.928,404.227 L 152.092,404.062 C 153.807,402.348 161.766,394.208 161.766,394.208 L 161.471,393.414 C 161.825,393.06 162.032,392.852 162.032,392.852 L 162.032,384.725 L 161.528,384.587 L 162.032,384.08 L 162.032,381.066 L 161.536,380.921 L 162.032,380.421 L 162.032,377.516 L 161.536,377.37 L 162.032,376.871 L 162.032,373.886 L 161.567,373.707 L 162.032,373.241 L 162.032,369.918 z" />
		<path
   style="fill:#828990"
   id="path11768"
   d="M 148.864,403.85 C 147.944,403.575 138.626,400.827 138.626,400.827 C 138.626,400.827 138.386,401.146 138.362,401.21 C 138.237,401.533 138.536,401.873 139.044,402.022 C 141.382,402.71 148.019,404.663 148.921,404.931 C 150.017,405.257 150.999,405.156 151.929,404.227 L 152.093,404.062 C 153.808,402.348 161.767,394.208 161.767,394.208 L 161.47,393.413 L 151.931,403.132 C 150.985,404.078 149.985,404.184 148.864,403.85 z" />
		<linearGradient
   y2="403.54901"
   x2="148.1227"
   y1="379.00491"
   x1="142.5088"
   gradientUnits="userSpaceOnUse"
   id="SVGID_1_">
			<stop
   id="stop11771"
   style="stop-color:#888892"
   offset="0" />
			<stop
   id="stop11773"
   style="stop-color:#5A5A64"
   offset="0.5169" />
			<stop
   id="stop11775"
   style="stop-color:#37373D"
   offset="1" />
		</linearGradient>
		<path
   style="fill:url(#SVGID_1_)"
   id="path11777"
   d="M 151.661,380.468 C 151.47,380.66 151.112,380.825 150.681,380.93 C 150.126,381.063 149.451,381.087 148.824,380.903 C 145.619,379.961 139.338,378.11 138.756,377.94 C 138.272,377.797 137.985,377.386 137.969,376.961 L 137.969,381.08 L 137.969,381.724 L 137.969,384.71 L 137.969,385.355 L 137.969,388.259 L 137.969,388.904 L 137.969,391.92 L 137.969,392.582 C 137.969,392.582 137.969,399.798 137.969,399.926 C 137.969,400.451 138.28,400.733 138.795,400.885 C 141.178,401.586 147.945,403.576 148.865,403.852 C 149.986,404.186 150.986,404.081 151.931,403.133 C 151.97,403.097 152.031,403.037 152.099,402.965 L 152.099,380.031 C 151.856,380.273 151.702,380.428 151.661,380.468 z" />
		<path
   style="fill:#c8c7c8"
   id="path11779"
   d="M 162.032,369.918 C 162.032,369.918 154.471,377.656 152.098,380.029 L 152.098,402.963 C 153.846,401.215 162.032,392.852 162.032,392.852 L 162.032,384.725 L 161.528,384.587 L 162.032,384.08 L 162.032,381.066 L 161.536,380.921 L 162.032,380.421 L 162.032,377.516 L 161.536,377.37 L 162.032,376.871 L 162.032,373.886 L 161.567,373.707 L 162.032,373.241 L 162.032,369.918 z" />
		<path
   style="fill:#e0e1e2"
   id="path11781"
   d="M 154.106,381.398 L 154.106,382.034 C 157.93,378.195 162.032,373.887 162.032,373.887 L 161.567,373.708 C 161.567,373.708 158.001,377.489 154.106,381.398 z" />
		<polygon
   style="fill:#ffffff"
   id="polygon11783"
   points="149.12,402.906 148.218,402.641 148.218,401.736 149.12,402.004 149.12,402.906 " />
		<polygon
   style="fill:#ffffff"
   id="polygon11785"
   points="147.583,402.453 146.679,402.187 146.679,401.282 147.583,401.549 147.583,402.453 " />
		<polygon
   style="fill:#ffffff"
   id="polygon11787"
   points="146.042,402 145.138,401.733 145.138,400.829 146.042,401.096 146.042,402 " />
		<path
   style="fill:#ffffff"
   id="path11789"
   d="M 148.396,365.903 C 148.396,365.903 138.816,375.665 138.263,376.217 C 137.701,376.779 137.974,377.706 138.755,377.939 C 139.337,378.109 145.618,379.96 148.823,380.902 C 149.938,381.231 151.223,380.906 151.661,380.467 C 152.099,380.028 162.032,369.917 162.032,369.917 L 148.396,365.903 z" />
		<path
   style="fill:#e0e1e2"
   id="path11791"
   d="M 154.106,385.027 L 154.106,385.665 C 157.93,381.826 162.032,377.517 162.032,377.517 L 161.536,377.371 C 161.536,377.371 158.001,381.12 154.106,385.027 z" />
		<path
   style="fill:#e0e1e2"
   id="path11793"
   d="M 154.106,388.576 L 154.106,389.213 C 157.93,385.375 162.032,381.067 162.032,381.067 L 161.536,380.922 C 161.536,380.922 158.001,384.668 154.106,388.576 z" />
		<path
   style="fill:#e0e1e2"
   id="path11795"
   d="M 154.106,392.234 L 154.106,392.873 C 157.93,389.035 162.032,384.725 162.032,384.725 L 161.528,384.587 C 161.528,384.587 158.001,388.328 154.106,392.234 z" />
		<line
   style="fill:none;stroke:#aab8c3;stroke-width:0.14669999"
   id="line11797"
   y2="376.021"
   x2="138.46001"
   y1="380.02899"
   x1="152.099" />
		<g
   id="g11799">
			<path
   style="fill:#ffffff"
   id="path11801"
   d="M 140.411,391.615 L 140.411,383.648 L 141.975,384.103 L 145.237,390.373 L 145.237,385.052 L 146.731,385.487 L 146.731,393.456 L 145.118,392.986 L 141.907,386.854 L 141.907,392.05 L 140.411,391.615 z" />
		</g>
	</g><rect
   style="fill:none"
   id="rect11803"
   height="39.194"
   width="24.063999"
   y="329.26871"
   x="338.96799" /><g
   id="g11805"
   transform="translate(-1.1361557e-6,-36.63336)">
		<path
   style="fill:none;stroke:#c8c7c8;stroke-width:2.06130004;stroke-linecap:round;stroke-linejoin:round"
   id="path11807"
   d="M 363.032,369.917 L 349.395,365.902 C 349.395,365.902 339.815,375.664 339.262,376.216 C 339.047,376.431 338.955,376.697 338.967,376.959 L 338.967,381.077 L 338.967,381.721 L 338.967,384.707 L 338.967,385.352 L 338.967,388.256 L 338.967,388.901 L 338.967,391.917 L 338.967,392.562 C 338.967,392.562 338.979,392.565 338.979,392.566 L 338.967,392.58 C 338.967,392.58 338.967,399.796 338.967,399.924 C 338.967,400.423 339.461,400.766 339.625,400.826 C 339.51,400.936 339.385,401.145 339.361,401.209 C 339.236,401.532 339.535,401.872 340.043,402.021 C 342.381,402.709 349.018,404.662 349.92,404.93 C 351.016,405.256 351.998,405.155 352.928,404.226 L 353.092,404.061 C 354.807,402.347 362.766,394.207 362.766,394.207 L 362.471,393.413 C 362.825,393.059 363.032,392.851 363.032,392.851 L 363.032,384.724 L 362.528,384.586 L 363.032,384.079 L 363.032,381.065 L 362.536,380.92 L 363.032,380.42 L 363.032,377.515 L 362.536,377.369 L 363.032,376.87 L 363.032,373.885 L 362.567,373.706 L 363.032,373.24 L 363.032,369.917 L 363.032,369.917 z" />
		<path
   style="fill:#828990"
   id="path11809"
   d="M 349.864,403.849 C 348.944,403.574 339.626,400.826 339.626,400.826 C 339.626,400.826 339.386,401.145 339.362,401.209 C 339.237,401.532 339.536,401.872 340.044,402.021 C 342.382,402.709 349.019,404.662 349.921,404.93 C 351.017,405.256 351.999,405.155 352.929,404.226 L 353.093,404.061 C 354.808,402.347 362.767,394.207 362.767,394.207 L 362.47,393.412 L 352.931,403.131 C 351.985,404.077 350.985,404.183 349.864,403.849 z" />
		<linearGradient
   y2="403.54819"
   x2="349.12341"
   y1="379.00491"
   x1="343.5098"
   gradientUnits="userSpaceOnUse"
   id="SVGID_2_">
			<stop
   id="stop11812"
   style="stop-color:#888892"
   offset="0" />
			<stop
   id="stop11814"
   style="stop-color:#5A5A64"
   offset="0.5169" />
			<stop
   id="stop11816"
   style="stop-color:#37373D"
   offset="1" />
		</linearGradient>
		<path
   style="fill:url(#SVGID_2_)"
   id="path11818"
   d="M 352.661,380.467 C 352.47,380.659 352.112,380.824 351.681,380.929 C 351.126,381.062 350.451,381.086 349.824,380.902 C 346.619,379.96 340.338,378.109 339.756,377.939 C 339.272,377.796 338.985,377.385 338.969,376.96 L 338.969,381.079 L 338.969,381.723 L 338.969,384.709 L 338.969,385.354 L 338.969,388.258 L 338.969,388.903 L 338.969,391.919 L 338.969,392.581 C 338.969,392.581 338.969,399.797 338.969,399.925 C 338.969,400.45 339.28,400.732 339.795,400.884 C 342.178,401.585 348.945,403.575 349.865,403.851 C 350.986,404.185 351.986,404.08 352.931,403.132 C 352.97,403.096 353.031,403.036 353.099,402.964 L 353.099,380.03 C 352.856,380.272 352.702,380.427 352.661,380.467 z" />
		<path
   style="fill:#c8c7c8"
   id="path11820"
   d="M 363.032,369.917 C 363.032,369.917 355.471,377.655 353.098,380.028 L 353.098,402.962 C 354.846,401.214 363.032,392.851 363.032,392.851 L 363.032,384.724 L 362.528,384.586 L 363.032,384.079 L 363.032,381.065 L 362.536,380.92 L 363.032,380.42 L 363.032,377.515 L 362.536,377.369 L 363.032,376.87 L 363.032,373.885 L 362.567,373.706 L 363.032,373.24 L 363.032,369.917 z" />
		<path
   style="fill:#e0e1e2"
   id="path11822"
   d="M 355.106,381.397 L 355.106,382.033 C 358.93,378.194 363.032,373.886 363.032,373.886 L 362.567,373.707 C 362.567,373.707 359.001,377.488 355.106,381.397 z" />
		<polygon
   style="fill:#ffffff"
   id="polygon11824"
   points="350.12,402.905 349.218,402.64 349.218,401.735 350.12,402.003 350.12,402.905 " />
		<polygon
   style="fill:#ffffff"
   id="polygon11826"
   points="348.583,402.452 347.679,402.186 347.679,401.281 348.583,401.548 348.583,402.452 " />
		<polygon
   style="fill:#ffffff"
   id="polygon11828"
   points="347.042,401.999 346.138,401.732 346.138,400.828 347.042,401.095 347.042,401.999 " />
		<path
   style="fill:#ffffff"
   id="path11830"
   d="M 349.396,365.902 C 349.396,365.902 339.816,375.664 339.263,376.216 C 338.701,376.778 338.974,377.705 339.755,377.938 C 340.337,378.108 346.618,379.959 349.823,380.901 C 350.938,381.23 352.223,380.905 352.661,380.466 C 353.099,380.027 363.032,369.916 363.032,369.916 L 349.396,365.902 z" />
		<path
   style="fill:#e0e1e2"
   id="path11832"
   d="M 355.106,385.026 L 355.106,385.664 C 358.93,381.825 363.032,377.516 363.032,377.516 L 362.536,377.37 C 362.536,377.37 359.001,381.119 355.106,385.026 z" />
		<path
   style="fill:#e0e1e2"
   id="path11834"
   d="M 355.106,388.575 L 355.106,389.212 C 358.93,385.374 363.032,381.066 363.032,381.066 L 362.536,380.921 C 362.536,380.921 359.001,384.667 355.106,388.575 z" />
		<path
   style="fill:#e0e1e2"
   id="path11836"
   d="M 355.106,392.233 L 355.106,392.872 C 358.93,389.034 363.032,384.724 363.032,384.724 L 362.528,384.586 C 362.528,384.586 359.001,388.327 355.106,392.233 z" />
		<line
   style="fill:none;stroke:#aab8c3;stroke-width:0.14669999"
   id="line11838"
   y2="376.01999"
   x2="339.45999"
   y1="380.02802"
   x1="353.099" />
		<g
   id="g11840">
			<path
   style="fill:#ffffff"
   id="path11842"
   d="M 341.411,391.614 L 341.411,383.647 L 342.975,384.102 L 346.237,390.372 L 346.237,385.051 L 347.731,385.486 L 347.731,393.455 L 346.118,392.985 L 342.907,386.853 L 342.907,392.049 L 341.411,391.614 z" />
		</g>
	</g>
<text
   id="text11845"
   x="52.4375"
   y="135.86671"
   style="font-size:12px"><tspan
     style="font-size:8px;font-family:ArialMT"
     id="tspan11847"
     font-size="8"
     y="135.86671"
     x="52.4375">Local</tspan><tspan
     style="font-size:8px;font-family:ArialMT"
     id="tspan11849"
     font-size="8"
     y="145.3667"
     x="44.880501">Resource</tspan><tspan
     style="font-size:8px;font-family:ArialMT"
     id="tspan11851"
     font-size="8"
     y="154.8667"
     x="46.212502">Manager</tspan></text>






<text
   id="text11859"
   x="133.33009"
   y="145.3667"
   style="font-size:12px"><tspan
     style="font-size:8px;font-family:ArialMT"
     id="tspan11861"
     font-size="8"
     y="145.3667"
     x="133.33009">Policy</tspan><tspan
     style="font-size:8px;font-family:ArialMT"
     id="tspan11863"
     font-size="8"
     y="154.8667"
     x="129.9881">Engine*</tspan></text>





<text
   id="text11865"
   x="229.33009"
   y="135.86671"
   style="font-size:12px"><tspan
     style="font-size:8px;font-family:ArialMT"
     id="tspan11867"
     font-size="8"
     y="135.86671"
     x="229.33009">Cluster</tspan><tspan
     style="font-size:8px;font-family:ArialMT"
     id="tspan11869"
     font-size="8"
     y="145.3667"
     x="221.9901">Information</tspan><tspan
     style="font-size:8px;font-family:ArialMT"
     id="tspan11871"
     font-size="8"
     y="154.8667"
     x="232.8831">Base</tspan></text>





<text
   style="font-size:8px;font-family:ArialMT"
   id="text11873"
   font-size="8"
   x="312.69629"
   y="154.8667">LRM</text>





<text
   id="text11875"
   x="374.1846"
   y="145.3667"
   style="font-size:12px"><tspan
     style="font-size:8px;font-family:ArialMT"
     id="tspan11877"
     font-size="8"
     y="145.3667"
     x="374.1846">CIB</tspan><tspan
     style="font-size:8px;font-family:ArialMT"
     id="tspan11879"
     font-size="8"
     y="154.8667"
     x="364.8486">(Replica)</tspan></text>





<text
   id="text11881"
   x="41.346699"
   y="228.23"
   style="font-size:12px"><tspan
     style="font-size:8px;font-family:ArialMT"
     id="tspan11883"
     font-size="8"
     y="228.23"
     x="41.346699">Cluster Resource</tspan><tspan
     style="font-size:8px;font-family:ArialMT"
     id="tspan11885"
     font-size="8"
     y="237.73"
     x="71.5737">Manager</tspan><tspan
     style="font-size:8px;fill:#e67814;font-family:ArialMT"
     id="tspan11887"
     font-size="8"
     y="247.23"
     x="62.674698">Designated</tspan><tspan
     style="font-size:8px;fill:#e67814;font-family:ArialMT"
     id="tspan11889"
     font-size="8"
     y="256.72998"
     x="58.2337">Coordinator*</tspan></text>





<text
   style="font-size:8px;fill:#ffffff;font-family:Arial-BoldMT"
   id="text11891"
   font-size="8"
   x="229.71091"
   y="332.1167">Messaging/Infrastructure</text>





<text
   style="font-size:8px;font-family:ArialMT"
   id="text11893"
   font-size="8"
   x="106.877"
   y="65.888138">Apache*</text>





<text
   id="text11895"
   x="146"
   y="78.116661"
   style="font-size:12px"><tspan
     style="font-size:8px;font-family:ArialMT"
     id="tspan11897"
     font-size="8"
     y="78.116661"
     x="146">Resource</tspan><tspan
     style="font-size:8px;font-family:ArialMT"
     id="tspan11899"
     font-size="8"
     y="87.616676"
     x="146">Agent</tspan></text>





<text
   id="text11901"
   x="333.88089"
   y="78.116661"
   style="font-size:12px"><tspan
     style="font-size:8px;font-family:ArialMT"
     id="tspan11903"
     font-size="8"
     y="78.116661"
     x="333.88089">Resource</tspan><tspan
     style="font-size:8px;font-family:ArialMT"
     id="tspan11905"
     font-size="8"
     y="87.616676"
     x="340.54691">Agent</tspan></text>





<text
   style="font-size:8px;fill:#ffffff;font-family:Arial-BoldMT"
   id="text11907"
   font-size="8"
   x="257.02539"
   y="104.1167">Resources</text>





<text
   style="font-size:8px;fill:#ffffff;font-family:Arial-BoldMT"
   id="text11909"
   font-size="8"
   x="238.9048"
   y="255.1167">Resource Allocation</text>





<text
   style="font-size:8px;font-family:ArialMT"
   id="text11911"
   font-size="8"
   x="341.89059"
   y="214.8667">CRM</text>





<text
   style="font-size:8px;font-family:ArialMT"
   id="text11925"
   font-size="8"
   x="65.627899"
   y="305.86569">OpenAIS</text>






<line
   style="fill:none;stroke:#000000;stroke-width:2;stroke-miterlimit:4;stroke-dasharray:none"
   id="line2561"
   y2="255.8802"
   x2="350.97653"
   y1="282.37051"
   x1="350.97653" /></svg>