<?xml version="1.0" encoding="UTF-8" standalone="no"?>
<!-- Generator: Adobe Illustrator 13.0.2, SVG Export Plug-In . SVG Version: 6.00 Build 14948)  -->

<svg
   xmlns:dc="http://purl.org/dc/elements/1.1/"
   xmlns:cc="http://creativecommons.org/ns#"
   xmlns:rdf="http://www.w3.org/1999/02/22-rdf-syntax-ns#"
   xmlns:svg="http://www.w3.org/2000/svg"
   xmlns="http://www.w3.org/2000/svg"
   xmlns:sodipodi="http://sodipodi.sourceforge.net/DTD/sodipodi-0.dtd"
   xmlns:inkscape="http://www.inkscape.org/namespaces/inkscape"
   version="1.1"
   x="0px"
   y="0px"
   width="575.5863"
   height="320.51624"
   viewBox="0 0 539.61214 300.48396"
   enable-background="new 0 0 320.016 188.505"
   xml:space="preserve"
   id="svg7498"
   sodipodi:version="0.32"
   inkscape:version="0.92.2 5c3e80d, 2017-08-06"
   inkscape:output_extension="org.inkscape.output.svg.inkscape"
   sodipodi:docname="ha_cluster_example2.svg"><metadata
     id="metadata8334"><rdf:RDF><cc:Work
         rdf:about=""><dc:format>image/svg+xml</dc:format><dc:type
           rdf:resource="http://purl.org/dc/dcmitype/StillImage" /><dc:title /></cc:Work></rdf:RDF></metadata><defs
     id="defs8332"><inkscape:perspective
       sodipodi:type="inkscape:persp3d"
       inkscape:vp_x="0 : 94.2525 : 1"
       inkscape:vp_y="0 : 999.99997 : 0"
       inkscape:vp_z="320.01598 : 94.2525 : 1"
       inkscape:persp3d-origin="160.00799 : 62.835002 : 1"
       id="perspective8336" /></defs><sodipodi:namedview
     inkscape:window-height="801"
     inkscape:window-width="1641"
     inkscape:pageshadow="2"
     inkscape:pageopacity="0.0"
     guidetolerance="10.0"
     gridtolerance="10.0"
     objecttolerance="10.0"
     borderopacity="1.0"
     bordercolor="#666666"
     pagecolor="#ffffff"
     id="base"
     showgrid="false"
     inkscape:zoom="1.28"
     inkscape:cx="237.74534"
     inkscape:cy="166.56284"
     inkscape:window-x="68"
     inkscape:window-y="95"
     inkscape:current-layer="Text"
     fit-margin-top="0"
     fit-margin-left="0"
     fit-margin-right="0"
     fit-margin-bottom="0"
     inkscape:window-maximized="0" /><g
     id="Layer_1"
     transform="matrix(1.5712869,0,0,1.5712869,7.7145906,15.340752)"><radialGradient
       id="SVGID_1_"
       cx="15.5854"
       cy="19.332001"
       r="32.139999"
       fx="14.9737"
       fy="14.1323"
       gradientTransform="matrix(0.6983,0,0,0.6983,13.4567,15.2146)"
       gradientUnits="userSpaceOnUse"><stop
         offset="0.19"
         style="stop-color:#FFF200"
         id="stop7502" /><stop
         offset="0.4782"
         style="stop-color:#FFCE17"
         id="stop7504" /><stop
         offset="1"
         style="stop-color:#F68B33"
         id="stop7506" /></radialGradient><path
       d="m 12.332,41.423 c 7.306,-2.856 6.406,-1.238 1.318,4.615 7.036,-6.183 9.895,-8.404 2.078,6.167 4.914,-5.033 9.068,-11.617 6.885,-2.737 2.578,-5.272 2.907,-3.325 3.876,2.932 0,0 -0.676,-9.822 4.536,-3.998 0,0 -2.058,-9.884 2.864,-1.895 -0.967,-2.841 -0.37,-6.968 4.296,-2.881 -3.158,-5.643 -4.107,-8.27 1.073,-6.264 -3.761,-3.928 4.211,-1.357 6.382,-0.855 -6.132,-2.655 -8.555,-3.657 -8.638,-5.413 -0.045,-0.932 0.752,-2.255 8.389,-0.938 -0.031,-0.284 -6.606,-2.194 -6.634,-3.239 -0.032,-1.234 1.755,-0.668 5.13,-0.438 0.296,0.02 -3.804,-0.555 -3.876,-1.651 -0.084,-1.254 1.838,-1.421 4.262,-2.59 -1.838,0.25 -3.187,0.7 -3.76,-0.25 -0.531,-0.879 0.835,-3.26 3.76,-8.022 -6.185,6.936 -7.352,6.931 -7.823,6.247 -1.344,-1.949 0.19,-7.933 0.351,-8.293 -2.167,4.366 -2.569,1.926 -2.354,1.115 -5.945,9.228 -2.996,-1.904 -2.996,-1.904 -5.314,5.365 -5.016,-4.85 -5.016,-4.85 -1.047,3.676 -1.214,7.352 -5.226,-1.088 2.758,10.196 1.089,10.434 -3.656,5.256 2.845,7.581 3.521,11.062 -6.094,0.425 8.253,13.341 4.467,11.518 -3.292,8.97 3.9,2.379 -1.163,1.33 -4.967,-0.078 4.326,2.121 15.698,7.313 5.133,8.92 9.707,2.221 10.24,2.658 -4.191,7.413 6.37,-0.412 15.581,-2.634 7.071,2.519 6.711,-1.921 3.673,1.259 1.119,2.805 z"
       id="path7508"
       inkscape:connector-curvature="0"
       style="fill:url(#SVGID_1_)" /><rect
       x="201.185"
       y="145.854"
       width="0.62900001"
       height="0.62900001"
       id="rect7510"
       style="fill:#00a651" /><rect
       x="201.185"
       y="147.40601"
       width="0.62900001"
       height="0.62900001"
       id="rect7512"
       style="fill:#00a651" /><line
       x1="202.48199"
       y1="146.933"
       x2="262.48199"
       y2="146.933"
       id="line7514"
       style="fill:none;stroke:#000000" /><g
       id="g7516"><g
         id="g7518"><g
           id="g7520"><polygon
             points="14.353,47.016 14.353,45.377 17.05,46.055 17.05,47.689 "
             id="polygon7522"
             style="fill:#2182b9" /><polygon
             points="21.945,48.844 21.945,47.203 24.646,47.879 24.646,49.516 "
             id="polygon7524"
             style="fill:#2182b9" /><polygon
             points="24.667,49.42 24.667,47.779 25.468,46.641 25.468,48.277 "
             id="polygon7526"
             style="fill:#cdcccd" /><polygon
             points="17.079,47.604 17.079,45.967 17.88,44.828 17.88,46.461 "
             id="polygon7528"
             style="fill:#cdcccd" /><polyline
             points="13.229,20.607 13.229,45.072 25.793,48.266 25.793,23.799 13.229,20.607     "
             id="polyline7530"
             style="fill:#2182b9" /><polygon
             points="25.793,48.266 35.679,38.379 35.679,13.92 25.793,23.799 "
             id="polygon7532"
             style="fill:#cdcccd" /><path
             d="m 23.183,40.678 c 0,0.039 -0.026,0.064 -0.065,0.055 l -2.946,-0.746 c -0.037,-0.01 -0.068,-0.051 -0.068,-0.09 v -0.842 c 0,-0.039 0.031,-0.064 0.068,-0.053 l 2.946,0.748 c 0.039,0.006 0.065,0.047 0.065,0.084 v 0.844"
             id="path7534"
             inkscape:connector-curvature="0"
             style="fill:#cdcccd" /><path
             d="m 20.988,26.951 c 0,0.039 -0.029,0.066 -0.068,0.055 L 17.976,26.258 C 17.937,26.25 17.908,26.211 17.908,26.17 v -0.842 c 0,-0.037 0.029,-0.061 0.068,-0.049 l 2.944,0.744 c 0.039,0.008 0.068,0.047 0.068,0.086 v 0.842"
             id="path7536"
             inkscape:connector-curvature="0"
             style="fill:#ffffff" /><path
             d="m 23.183,42.582 c 0,0.035 -0.026,0.064 -0.065,0.055 L 20.172,41.891 C 20.135,41.879 20.104,41.84 20.104,41.803 v -0.842 c 0,-0.039 0.031,-0.064 0.068,-0.053 l 2.946,0.742 c 0.039,0.014 0.065,0.053 0.065,0.09 v 0.842"
             id="path7538"
             inkscape:connector-curvature="0"
             style="fill:#ffffff" /><path
             d="m 18.718,38.881 c 0,-0.037 -0.031,-0.078 -0.07,-0.092 l -2.942,-0.742 c -0.039,-0.012 -0.071,0.014 -0.071,0.053 v 0.844 c 0,0.035 0.032,0.076 0.071,0.086 l 2.942,0.744 c 0.039,0.012 0.07,-0.014 0.07,-0.051 v -0.842"
             id="path7540"
             inkscape:connector-curvature="0"
             style="fill:#ffffff" /><path
             d="m 23.183,44.521 c 0,0.037 -0.026,0.064 -0.065,0.055 L 20.172,43.83 c -0.037,-0.008 -0.068,-0.051 -0.068,-0.088 v -0.844 c 0,-0.037 0.031,-0.062 0.068,-0.053 l 2.946,0.748 c 0.039,0.008 0.065,0.047 0.065,0.084 v 0.844"
             id="path7542"
             inkscape:connector-curvature="0"
             style="fill:#ffffff" /><path
             d="m 18.718,42.725 c 0,-0.039 -0.031,-0.078 -0.07,-0.09 l -2.942,-0.744 c -0.039,-0.012 -0.071,0.016 -0.071,0.053 v 0.846 c 0,0.033 0.032,0.074 0.071,0.084 l 2.942,0.744 c 0.039,0.012 0.07,-0.014 0.07,-0.049 v -0.844"
             id="path7544"
             inkscape:connector-curvature="0"
             style="fill:#cdcccd" /><path
             d="m 18.718,40.785 c 0,-0.041 -0.031,-0.08 -0.07,-0.092 l -2.942,-0.746 c -0.039,-0.006 -0.071,0.018 -0.071,0.057 v 0.842 c 0,0.039 0.032,0.078 0.071,0.088 l 2.942,0.742 c 0.039,0.01 0.07,-0.01 0.07,-0.049 v -0.842"
             id="path7546"
             inkscape:connector-curvature="0"
             style="fill:#ffffff" /></g><polygon
           points="23.349,11.365 13.244,20.66 25.747,23.805 35.666,14.047 "
           id="polygon7548"
           style="fill:#ffffff" /></g><g
         id="g7550"><path
           d="m 27.897,43.793 c 0,-0.27 -0.142,-0.354 -0.312,-0.184 -0.17,0.17 -0.311,0.525 -0.311,0.795 0,0.27 0.14,0.352 0.311,0.182 0.171,-0.168 0.312,-0.524 0.312,-0.793 z"
           id="path7552"
           inkscape:connector-curvature="0"
           style="fill:#ffffff" /><path
           d="m 28.794,42.914 c 0,-0.271 -0.14,-0.354 -0.311,-0.184 -0.174,0.168 -0.312,0.523 -0.312,0.793 0,0.27 0.139,0.354 0.312,0.184 0.171,-0.168 0.311,-0.523 0.311,-0.793 z"
           id="path7554"
           inkscape:connector-curvature="0"
           style="fill:#ffffff" /><path
           d="m 29.692,42.031 c 0,-0.27 -0.14,-0.35 -0.311,-0.182 -0.174,0.168 -0.312,0.523 -0.312,0.793 0,0.271 0.139,0.352 0.312,0.186 0.172,-0.17 0.311,-0.525 0.311,-0.797 z"
           id="path7556"
           inkscape:connector-curvature="0"
           style="fill:#ffffff" /><path
           d="m 30.591,41.152 c 0,-0.27 -0.14,-0.352 -0.312,-0.182 -0.172,0.168 -0.311,0.523 -0.311,0.791 0,0.273 0.139,0.354 0.311,0.186 0.172,-0.17 0.312,-0.525 0.312,-0.795 z"
           id="path7558"
           inkscape:connector-curvature="0"
           style="fill:#ffffff" /><path
           d="m 31.489,40.273 c 0,-0.271 -0.143,-0.354 -0.312,-0.186 -0.174,0.17 -0.311,0.525 -0.311,0.795 0,0.27 0.137,0.352 0.311,0.182 0.17,-0.166 0.312,-0.521 0.312,-0.791 z"
           id="path7560"
           inkscape:connector-curvature="0"
           style="fill:#ffffff" /><path
           d="m 32.385,39.393 c 0,-0.27 -0.14,-0.354 -0.31,-0.184 -0.174,0.17 -0.312,0.523 -0.312,0.795 0,0.27 0.139,0.352 0.312,0.182 0.17,-0.168 0.31,-0.524 0.31,-0.793 z"
           id="path7562"
           inkscape:connector-curvature="0"
           style="fill:#ffffff" /><path
           d="m 33.283,38.512 c 0,-0.268 -0.14,-0.352 -0.312,-0.184 -0.171,0.168 -0.31,0.525 -0.31,0.795 0,0.27 0.139,0.354 0.31,0.182 0.173,-0.168 0.312,-0.522 0.312,-0.793 z"
           id="path7564"
           inkscape:connector-curvature="0"
           style="fill:#ffffff" /><path
           d="m 34.181,37.631 c 0,-0.268 -0.141,-0.35 -0.312,-0.182 -0.171,0.168 -0.312,0.523 -0.312,0.795 0,0.268 0.14,0.35 0.312,0.182 0.172,-0.168 0.312,-0.524 0.312,-0.795 z"
           id="path7566"
           inkscape:connector-curvature="0"
           style="fill:#ffffff" /><path
           d="m 27.897,42.5 c 0,-0.27 -0.142,-0.352 -0.312,-0.182 -0.171,0.166 -0.311,0.521 -0.311,0.793 0,0.27 0.14,0.35 0.311,0.184 0.171,-0.17 0.312,-0.525 0.312,-0.795 z"
           id="path7568"
           inkscape:connector-curvature="0"
           style="fill:#ffffff" /><path
           d="m 28.794,41.621 c 0,-0.271 -0.14,-0.354 -0.311,-0.184 -0.174,0.168 -0.312,0.523 -0.312,0.793 0,0.271 0.139,0.352 0.312,0.184 0.171,-0.168 0.311,-0.523 0.311,-0.793 z"
           id="path7570"
           inkscape:connector-curvature="0"
           style="fill:#ffffff" /><path
           d="m 29.692,40.738 c 0,-0.27 -0.14,-0.352 -0.311,-0.182 -0.174,0.168 -0.312,0.523 -0.312,0.795 0,0.27 0.139,0.352 0.312,0.182 0.172,-0.168 0.311,-0.523 0.311,-0.795 z"
           id="path7572"
           inkscape:connector-curvature="0"
           style="fill:#ffffff" /><path
           d="m 30.591,39.859 c 0,-0.27 -0.14,-0.352 -0.312,-0.184 -0.172,0.168 -0.311,0.523 -0.311,0.793 0,0.271 0.139,0.352 0.311,0.184 0.172,-0.168 0.312,-0.521 0.312,-0.793 z"
           id="path7574"
           inkscape:connector-curvature="0"
           style="fill:#ffffff" /><path
           d="m 31.489,38.979 c 0,-0.27 -0.143,-0.352 -0.312,-0.184 -0.174,0.17 -0.311,0.525 -0.311,0.795 0,0.27 0.137,0.352 0.311,0.184 0.17,-0.169 0.312,-0.526 0.312,-0.795 z"
           id="path7576"
           inkscape:connector-curvature="0"
           style="fill:#ffffff" /><path
           d="m 32.385,38.1 c 0,-0.271 -0.14,-0.352 -0.31,-0.184 -0.174,0.168 -0.312,0.523 -0.312,0.795 0,0.27 0.139,0.352 0.312,0.182 0.17,-0.168 0.31,-0.524 0.31,-0.793 z"
           id="path7578"
           inkscape:connector-curvature="0"
           style="fill:#ffffff" /><path
           d="m 33.283,37.219 c 0,-0.27 -0.14,-0.354 -0.312,-0.182 -0.171,0.168 -0.31,0.523 -0.31,0.791 0,0.271 0.139,0.354 0.31,0.184 0.173,-0.166 0.312,-0.524 0.312,-0.793 z"
           id="path7580"
           inkscape:connector-curvature="0"
           style="fill:#ffffff" /><path
           d="m 34.181,36.34 c 0,-0.271 -0.141,-0.354 -0.312,-0.184 -0.172,0.168 -0.312,0.523 -0.312,0.793 0,0.271 0.14,0.354 0.312,0.184 0.172,-0.17 0.312,-0.526 0.312,-0.793 z"
           id="path7582"
           inkscape:connector-curvature="0"
           style="fill:#ffffff" /><path
           d="m 27.897,41.207 c 0,-0.27 -0.142,-0.352 -0.312,-0.184 -0.171,0.17 -0.311,0.525 -0.311,0.793 0,0.27 0.14,0.354 0.311,0.186 0.171,-0.17 0.312,-0.525 0.312,-0.795 z"
           id="path7584"
           inkscape:connector-curvature="0"
           style="fill:#ffffff" /><path
           d="m 28.794,40.328 c 0,-0.271 -0.14,-0.354 -0.311,-0.186 -0.174,0.17 -0.312,0.525 -0.312,0.795 0,0.27 0.139,0.352 0.312,0.184 0.171,-0.17 0.311,-0.523 0.311,-0.793 z"
           id="path7586"
           inkscape:connector-curvature="0"
           style="fill:#ffffff" /><path
           d="m 29.692,39.447 c 0,-0.271 -0.14,-0.352 -0.311,-0.184 -0.174,0.168 -0.312,0.525 -0.312,0.793 0,0.271 0.139,0.352 0.312,0.184 0.172,-0.168 0.311,-0.523 0.311,-0.793 z"
           id="path7588"
           inkscape:connector-curvature="0"
           style="fill:#ffffff" /><path
           d="m 30.591,38.566 c 0,-0.271 -0.14,-0.352 -0.312,-0.184 -0.172,0.168 -0.311,0.523 -0.311,0.793 0,0.271 0.139,0.354 0.311,0.184 0.172,-0.168 0.312,-0.523 0.312,-0.793 z"
           id="path7590"
           inkscape:connector-curvature="0"
           style="fill:#ffffff" /><path
           d="m 31.489,37.686 c 0,-0.27 -0.143,-0.35 -0.312,-0.182 -0.174,0.168 -0.311,0.523 -0.311,0.793 0,0.271 0.137,0.352 0.311,0.184 0.17,-0.169 0.312,-0.524 0.312,-0.795 z"
           id="path7592"
           inkscape:connector-curvature="0"
           style="fill:#ffffff" /><path
           d="m 32.385,36.807 c 0,-0.271 -0.14,-0.352 -0.31,-0.186 -0.174,0.17 -0.312,0.527 -0.312,0.797 0,0.268 0.139,0.352 0.312,0.184 0.17,-0.17 0.31,-0.526 0.31,-0.795 z"
           id="path7594"
           inkscape:connector-curvature="0"
           style="fill:#ffffff" /><path
           d="m 33.283,35.926 c 0,-0.27 -0.14,-0.352 -0.312,-0.184 -0.171,0.17 -0.31,0.523 -0.31,0.795 0,0.27 0.139,0.352 0.31,0.182 0.173,-0.168 0.312,-0.522 0.312,-0.793 z"
           id="path7596"
           inkscape:connector-curvature="0"
           style="fill:#ffffff" /><path
           d="m 34.181,35.045 c 0,-0.27 -0.141,-0.352 -0.312,-0.182 -0.172,0.168 -0.312,0.523 -0.312,0.793 0,0.27 0.14,0.354 0.312,0.184 0.172,-0.17 0.312,-0.524 0.312,-0.795 z"
           id="path7598"
           inkscape:connector-curvature="0"
           style="fill:#ffffff" /></g></g><rect
       x="13.229"
       y="11.365"
       width="22.450001"
       height="38.150002"
       id="rect7600"
       style="fill:none" /><g
       id="g7602"><g
         id="g7604"><g
           id="g7606"><polygon
             points="144.589,47.016 144.589,45.377 147.287,46.055 147.287,47.689 "
             id="polygon7608"
             style="fill:#2182b9" /><polygon
             points="152.182,48.844 152.182,47.203 154.882,47.879 154.882,49.516 "
             id="polygon7610"
             style="fill:#2182b9" /><polygon
             points="154.904,49.42 154.904,47.779 155.705,46.641 155.705,48.277 "
             id="polygon7612"
             style="fill:#cdcccd" /><polygon
             points="147.316,47.604 147.316,45.967 148.117,44.828 148.117,46.461 "
             id="polygon7614"
             style="fill:#cdcccd" /><polyline
             points="143.466,20.607 143.466,45.072 156.03,48.266 156.03,23.799 143.466,20.607     "
             id="polyline7616"
             style="fill:#2182b9" /><polygon
             points="156.03,48.266 165.916,38.379 165.916,13.92 156.03,23.799 "
             id="polygon7618"
             style="fill:#cdcccd" /><path
             d="m 153.419,40.678 c 0,0.039 -0.026,0.064 -0.065,0.055 l -2.946,-0.746 c -0.037,-0.01 -0.068,-0.051 -0.068,-0.09 v -0.842 c 0,-0.039 0.031,-0.064 0.068,-0.053 l 2.946,0.748 c 0.039,0.006 0.065,0.047 0.065,0.084 v 0.844"
             id="path7620"
             inkscape:connector-curvature="0"
             style="fill:#cdcccd" /><path
             d="m 151.225,26.951 c 0,0.039 -0.029,0.066 -0.068,0.055 l -2.944,-0.748 c -0.039,-0.008 -0.068,-0.047 -0.068,-0.088 v -0.842 c 0,-0.037 0.029,-0.061 0.068,-0.049 l 2.944,0.744 c 0.039,0.008 0.068,0.047 0.068,0.086 v 0.842"
             id="path7622"
             inkscape:connector-curvature="0"
             style="fill:#ffffff" /><path
             d="m 153.419,42.582 c 0,0.035 -0.026,0.064 -0.065,0.055 l -2.946,-0.746 c -0.037,-0.012 -0.068,-0.051 -0.068,-0.088 v -0.842 c 0,-0.039 0.031,-0.064 0.068,-0.053 l 2.946,0.742 c 0.039,0.014 0.065,0.053 0.065,0.09 v 0.842"
             id="path7624"
             inkscape:connector-curvature="0"
             style="fill:#ffffff" /><path
             d="m 148.955,38.881 c 0,-0.037 -0.031,-0.078 -0.07,-0.092 l -2.942,-0.742 c -0.039,-0.012 -0.071,0.014 -0.071,0.053 v 0.844 c 0,0.035 0.032,0.076 0.071,0.086 l 2.942,0.744 c 0.039,0.012 0.07,-0.014 0.07,-0.051 v -0.842"
             id="path7626"
             inkscape:connector-curvature="0"
             style="fill:#ffffff" /><path
             d="m 153.419,44.521 c 0,0.037 -0.026,0.064 -0.065,0.055 l -2.946,-0.746 c -0.037,-0.008 -0.068,-0.051 -0.068,-0.088 v -0.844 c 0,-0.037 0.031,-0.062 0.068,-0.053 l 2.946,0.748 c 0.039,0.008 0.065,0.047 0.065,0.084 v 0.844"
             id="path7628"
             inkscape:connector-curvature="0"
             style="fill:#ffffff" /><path
             d="m 148.955,42.725 c 0,-0.039 -0.031,-0.078 -0.07,-0.09 l -2.942,-0.744 c -0.039,-0.012 -0.071,0.016 -0.071,0.053 v 0.846 c 0,0.033 0.032,0.074 0.071,0.084 l 2.942,0.744 c 0.039,0.012 0.07,-0.014 0.07,-0.049 v -0.844"
             id="path7630"
             inkscape:connector-curvature="0"
             style="fill:#cdcccd" /><path
             d="m 148.955,40.785 c 0,-0.041 -0.031,-0.08 -0.07,-0.092 l -2.942,-0.746 c -0.039,-0.006 -0.071,0.018 -0.071,0.057 v 0.842 c 0,0.039 0.032,0.078 0.071,0.088 l 2.942,0.742 c 0.039,0.01 0.07,-0.01 0.07,-0.049 v -0.842"
             id="path7632"
             inkscape:connector-curvature="0"
             style="fill:#ffffff" /></g><polygon
           points="153.585,11.365 143.481,20.66 155.984,23.805 165.903,14.047 "
           id="polygon7634"
           style="fill:#ffffff" /></g><g
         id="g7636"><path
           d="m 158.134,43.793 c 0,-0.27 -0.142,-0.354 -0.312,-0.184 -0.17,0.17 -0.311,0.525 -0.311,0.795 0,0.27 0.14,0.352 0.311,0.182 0.171,-0.168 0.312,-0.524 0.312,-0.793 z"
           id="path7638"
           inkscape:connector-curvature="0"
           style="fill:#ffffff" /><path
           d="m 159.031,42.914 c 0,-0.271 -0.14,-0.354 -0.311,-0.184 -0.174,0.168 -0.312,0.523 -0.312,0.793 0,0.27 0.139,0.354 0.312,0.184 0.171,-0.168 0.311,-0.523 0.311,-0.793 z"
           id="path7640"
           inkscape:connector-curvature="0"
           style="fill:#ffffff" /><path
           d="m 159.929,42.031 c 0,-0.27 -0.14,-0.35 -0.311,-0.182 -0.174,0.168 -0.312,0.523 -0.312,0.793 0,0.271 0.139,0.352 0.312,0.186 0.172,-0.17 0.311,-0.525 0.311,-0.797 z"
           id="path7642"
           inkscape:connector-curvature="0"
           style="fill:#ffffff" /><path
           d="m 160.828,41.152 c 0,-0.27 -0.14,-0.352 -0.312,-0.182 -0.172,0.168 -0.311,0.523 -0.311,0.791 0,0.273 0.139,0.354 0.311,0.186 0.172,-0.17 0.312,-0.525 0.312,-0.795 z"
           id="path7644"
           inkscape:connector-curvature="0"
           style="fill:#ffffff" /><path
           d="m 161.726,40.273 c 0,-0.271 -0.143,-0.354 -0.312,-0.186 -0.174,0.17 -0.311,0.525 -0.311,0.795 0,0.27 0.137,0.352 0.311,0.182 0.169,-0.166 0.312,-0.521 0.312,-0.791 z"
           id="path7646"
           inkscape:connector-curvature="0"
           style="fill:#ffffff" /><path
           d="m 162.622,39.393 c 0,-0.27 -0.14,-0.354 -0.31,-0.184 -0.174,0.17 -0.312,0.523 -0.312,0.795 0,0.27 0.139,0.352 0.312,0.182 0.17,-0.168 0.31,-0.524 0.31,-0.793 z"
           id="path7648"
           inkscape:connector-curvature="0"
           style="fill:#ffffff" /><path
           d="m 163.52,38.512 c 0,-0.268 -0.14,-0.352 -0.312,-0.184 -0.171,0.168 -0.31,0.525 -0.31,0.795 0,0.27 0.139,0.354 0.31,0.182 0.172,-0.168 0.312,-0.522 0.312,-0.793 z"
           id="path7650"
           inkscape:connector-curvature="0"
           style="fill:#ffffff" /><path
           d="m 164.418,37.631 c 0,-0.268 -0.142,-0.35 -0.312,-0.182 -0.173,0.168 -0.312,0.523 -0.312,0.795 0,0.268 0.14,0.35 0.312,0.182 0.171,-0.168 0.312,-0.524 0.312,-0.795 z"
           id="path7652"
           inkscape:connector-curvature="0"
           style="fill:#ffffff" /><path
           d="m 158.134,42.5 c 0,-0.27 -0.142,-0.352 -0.312,-0.182 -0.171,0.166 -0.311,0.521 -0.311,0.793 0,0.27 0.14,0.35 0.311,0.184 0.171,-0.17 0.312,-0.525 0.312,-0.795 z"
           id="path7654"
           inkscape:connector-curvature="0"
           style="fill:#ffffff" /><path
           d="m 159.031,41.621 c 0,-0.271 -0.14,-0.354 -0.311,-0.184 -0.174,0.168 -0.312,0.523 -0.312,0.793 0,0.271 0.139,0.352 0.312,0.184 0.171,-0.168 0.311,-0.523 0.311,-0.793 z"
           id="path7656"
           inkscape:connector-curvature="0"
           style="fill:#ffffff" /><path
           d="m 159.929,40.738 c 0,-0.27 -0.14,-0.352 -0.311,-0.182 -0.174,0.168 -0.312,0.523 -0.312,0.795 0,0.27 0.139,0.352 0.312,0.182 0.172,-0.168 0.311,-0.523 0.311,-0.795 z"
           id="path7658"
           inkscape:connector-curvature="0"
           style="fill:#ffffff" /><path
           d="m 160.828,39.859 c 0,-0.27 -0.14,-0.352 -0.312,-0.184 -0.172,0.168 -0.311,0.523 -0.311,0.793 0,0.271 0.139,0.352 0.311,0.184 0.172,-0.168 0.312,-0.521 0.312,-0.793 z"
           id="path7660"
           inkscape:connector-curvature="0"
           style="fill:#ffffff" /><path
           d="m 161.726,38.979 c 0,-0.27 -0.143,-0.352 -0.312,-0.184 -0.174,0.17 -0.311,0.525 -0.311,0.795 0,0.27 0.137,0.352 0.311,0.184 0.169,-0.169 0.312,-0.526 0.312,-0.795 z"
           id="path7662"
           inkscape:connector-curvature="0"
           style="fill:#ffffff" /><path
           d="m 162.622,38.1 c 0,-0.271 -0.14,-0.352 -0.31,-0.184 -0.174,0.168 -0.312,0.523 -0.312,0.795 0,0.27 0.139,0.352 0.312,0.182 0.17,-0.168 0.31,-0.524 0.31,-0.793 z"
           id="path7664"
           inkscape:connector-curvature="0"
           style="fill:#ffffff" /><path
           d="m 163.52,37.219 c 0,-0.27 -0.14,-0.354 -0.312,-0.182 -0.171,0.168 -0.31,0.523 -0.31,0.791 0,0.271 0.139,0.354 0.31,0.184 0.172,-0.166 0.312,-0.524 0.312,-0.793 z"
           id="path7666"
           inkscape:connector-curvature="0"
           style="fill:#ffffff" /><path
           d="m 164.418,36.34 c 0,-0.271 -0.142,-0.354 -0.312,-0.184 -0.173,0.168 -0.312,0.523 -0.312,0.793 0,0.271 0.14,0.354 0.312,0.184 0.171,-0.17 0.312,-0.526 0.312,-0.793 z"
           id="path7668"
           inkscape:connector-curvature="0"
           style="fill:#ffffff" /><path
           d="m 158.134,41.207 c 0,-0.27 -0.142,-0.352 -0.312,-0.184 -0.171,0.17 -0.311,0.525 -0.311,0.793 0,0.27 0.14,0.354 0.311,0.186 0.171,-0.17 0.312,-0.525 0.312,-0.795 z"
           id="path7670"
           inkscape:connector-curvature="0"
           style="fill:#ffffff" /><path
           d="m 159.031,40.328 c 0,-0.271 -0.14,-0.354 -0.311,-0.186 -0.174,0.17 -0.312,0.525 -0.312,0.795 0,0.27 0.139,0.352 0.312,0.184 0.171,-0.17 0.311,-0.523 0.311,-0.793 z"
           id="path7672"
           inkscape:connector-curvature="0"
           style="fill:#ffffff" /><path
           d="m 159.929,39.447 c 0,-0.271 -0.14,-0.352 -0.311,-0.184 -0.174,0.168 -0.312,0.525 -0.312,0.793 0,0.271 0.139,0.352 0.312,0.184 0.172,-0.168 0.311,-0.523 0.311,-0.793 z"
           id="path7674"
           inkscape:connector-curvature="0"
           style="fill:#ffffff" /><path
           d="m 160.828,38.566 c 0,-0.271 -0.14,-0.352 -0.312,-0.184 -0.172,0.168 -0.311,0.523 -0.311,0.793 0,0.271 0.139,0.354 0.311,0.184 0.172,-0.168 0.312,-0.523 0.312,-0.793 z"
           id="path7676"
           inkscape:connector-curvature="0"
           style="fill:#ffffff" /><path
           d="m 161.726,37.686 c 0,-0.27 -0.143,-0.35 -0.312,-0.182 -0.174,0.168 -0.311,0.523 -0.311,0.793 0,0.271 0.137,0.352 0.311,0.184 0.169,-0.169 0.312,-0.524 0.312,-0.795 z"
           id="path7678"
           inkscape:connector-curvature="0"
           style="fill:#ffffff" /><path
           d="m 162.622,36.807 c 0,-0.271 -0.14,-0.352 -0.31,-0.186 -0.174,0.17 -0.312,0.527 -0.312,0.797 0,0.268 0.139,0.352 0.312,0.184 0.17,-0.17 0.31,-0.526 0.31,-0.795 z"
           id="path7680"
           inkscape:connector-curvature="0"
           style="fill:#ffffff" /><path
           d="m 163.52,35.926 c 0,-0.27 -0.14,-0.352 -0.312,-0.184 -0.171,0.17 -0.31,0.523 -0.31,0.795 0,0.27 0.139,0.352 0.31,0.182 0.172,-0.168 0.312,-0.522 0.312,-0.793 z"
           id="path7682"
           inkscape:connector-curvature="0"
           style="fill:#ffffff" /><path
           d="m 164.418,35.045 c 0,-0.27 -0.142,-0.352 -0.312,-0.182 -0.173,0.168 -0.312,0.523 -0.312,0.793 0,0.27 0.14,0.354 0.312,0.184 0.171,-0.17 0.312,-0.524 0.312,-0.795 z"
           id="path7684"
           inkscape:connector-curvature="0"
           style="fill:#ffffff" /></g></g><rect
       x="143.466"
       y="11.365"
       width="22.448999"
       height="38.150002"
       id="rect7686"
       style="fill:none" /><g
       id="g7688"><g
         id="g7690"><g
           id="g7692"><polygon
             points="285.462,47.016 285.462,45.377 288.16,46.055 288.16,47.689 "
             id="polygon7694"
             style="fill:#2182b9" /><polygon
             points="293.055,48.844 293.055,47.203 295.755,47.879 295.755,49.516 "
             id="polygon7696"
             style="fill:#2182b9" /><polygon
             points="295.777,49.42 295.777,47.779 296.578,46.641 296.578,48.277 "
             id="polygon7698"
             style="fill:#cdcccd" /><polygon
             points="288.189,47.604 288.189,45.967 288.99,44.828 288.99,46.461 "
             id="polygon7700"
             style="fill:#cdcccd" /><polyline
             points="284.339,20.607 284.339,45.072 296.903,48.266 296.903,23.799 284.339,20.607     "
             id="polyline7702"
             style="fill:#2182b9" /><polygon
             points="296.903,48.266 306.789,38.379 306.789,13.92 296.903,23.799 "
             id="polygon7704"
             style="fill:#cdcccd" /><path
             d="m 294.292,40.678 c 0,0.039 -0.026,0.064 -0.065,0.055 l -2.946,-0.746 c -0.037,-0.01 -0.068,-0.051 -0.068,-0.09 v -0.842 c 0,-0.039 0.031,-0.064 0.068,-0.053 l 2.946,0.748 c 0.039,0.006 0.065,0.047 0.065,0.084 v 0.844"
             id="path7706"
             inkscape:connector-curvature="0"
             style="fill:#cdcccd" /><path
             d="m 292.098,26.951 c 0,0.039 -0.029,0.066 -0.068,0.055 l -2.944,-0.748 c -0.039,-0.008 -0.068,-0.047 -0.068,-0.088 v -0.842 c 0,-0.037 0.029,-0.061 0.068,-0.049 l 2.944,0.744 c 0.039,0.008 0.068,0.047 0.068,0.086 v 0.842"
             id="path7708"
             inkscape:connector-curvature="0"
             style="fill:#ffffff" /><path
             d="m 294.292,42.582 c 0,0.035 -0.026,0.064 -0.065,0.055 l -2.946,-0.746 c -0.037,-0.012 -0.068,-0.051 -0.068,-0.088 v -0.842 c 0,-0.039 0.031,-0.064 0.068,-0.053 l 2.946,0.742 c 0.039,0.014 0.065,0.053 0.065,0.09 v 0.842"
             id="path7710"
             inkscape:connector-curvature="0"
             style="fill:#ffffff" /><path
             d="m 289.828,38.881 c 0,-0.037 -0.031,-0.078 -0.07,-0.092 l -2.942,-0.742 c -0.039,-0.012 -0.071,0.014 -0.071,0.053 v 0.844 c 0,0.035 0.032,0.076 0.071,0.086 l 2.942,0.744 c 0.039,0.012 0.07,-0.014 0.07,-0.051 v -0.842"
             id="path7712"
             inkscape:connector-curvature="0"
             style="fill:#ffffff" /><path
             d="m 294.292,44.521 c 0,0.037 -0.026,0.064 -0.065,0.055 l -2.946,-0.746 c -0.037,-0.008 -0.068,-0.051 -0.068,-0.088 v -0.844 c 0,-0.037 0.031,-0.062 0.068,-0.053 l 2.946,0.748 c 0.039,0.008 0.065,0.047 0.065,0.084 v 0.844"
             id="path7714"
             inkscape:connector-curvature="0"
             style="fill:#ffffff" /><path
             d="m 289.828,42.725 c 0,-0.039 -0.031,-0.078 -0.07,-0.09 l -2.942,-0.744 c -0.039,-0.012 -0.071,0.016 -0.071,0.053 v 0.846 c 0,0.033 0.032,0.074 0.071,0.084 l 2.942,0.744 c 0.039,0.012 0.07,-0.014 0.07,-0.049 v -0.844"
             id="path7716"
             inkscape:connector-curvature="0"
             style="fill:#cdcccd" /><path
             d="m 289.828,40.785 c 0,-0.041 -0.031,-0.08 -0.07,-0.092 l -2.942,-0.746 c -0.039,-0.006 -0.071,0.018 -0.071,0.057 v 0.842 c 0,0.039 0.032,0.078 0.071,0.088 l 2.942,0.742 c 0.039,0.01 0.07,-0.01 0.07,-0.049 v -0.842"
             id="path7718"
             inkscape:connector-curvature="0"
             style="fill:#ffffff" /></g><polygon
           points="294.458,11.365 284.354,20.66 296.857,23.805 306.776,14.047 "
           id="polygon7720"
           style="fill:#ffffff" /></g><g
         id="g7722"><path
           d="m 299.007,43.793 c 0,-0.27 -0.142,-0.354 -0.312,-0.184 -0.17,0.17 -0.311,0.525 -0.311,0.795 0,0.27 0.14,0.352 0.311,0.182 0.171,-0.168 0.312,-0.524 0.312,-0.793 z"
           id="path7724"
           inkscape:connector-curvature="0"
           style="fill:#ffffff" /><path
           d="m 299.904,42.914 c 0,-0.271 -0.14,-0.354 -0.311,-0.184 -0.174,0.168 -0.312,0.523 -0.312,0.793 0,0.27 0.139,0.354 0.312,0.184 0.171,-0.168 0.311,-0.523 0.311,-0.793 z"
           id="path7726"
           inkscape:connector-curvature="0"
           style="fill:#ffffff" /><path
           d="m 300.802,42.031 c 0,-0.27 -0.14,-0.35 -0.311,-0.182 -0.174,0.168 -0.312,0.523 -0.312,0.793 0,0.271 0.139,0.352 0.312,0.186 0.172,-0.17 0.311,-0.525 0.311,-0.797 z"
           id="path7728"
           inkscape:connector-curvature="0"
           style="fill:#ffffff" /><path
           d="m 301.701,41.152 c 0,-0.27 -0.14,-0.352 -0.312,-0.182 -0.172,0.168 -0.311,0.523 -0.311,0.791 0,0.273 0.139,0.354 0.311,0.186 0.172,-0.17 0.312,-0.525 0.312,-0.795 z"
           id="path7730"
           inkscape:connector-curvature="0"
           style="fill:#ffffff" /><path
           d="m 302.599,40.273 c 0,-0.271 -0.143,-0.354 -0.312,-0.186 -0.174,0.17 -0.311,0.525 -0.311,0.795 0,0.27 0.137,0.352 0.311,0.182 0.17,-0.166 0.312,-0.521 0.312,-0.791 z"
           id="path7732"
           inkscape:connector-curvature="0"
           style="fill:#ffffff" /><path
           d="m 303.495,39.393 c 0,-0.27 -0.14,-0.354 -0.31,-0.184 -0.174,0.17 -0.312,0.523 -0.312,0.795 0,0.27 0.139,0.352 0.312,0.182 0.17,-0.168 0.31,-0.524 0.31,-0.793 z"
           id="path7734"
           inkscape:connector-curvature="0"
           style="fill:#ffffff" /><path
           d="m 304.393,38.512 c 0,-0.268 -0.14,-0.352 -0.312,-0.184 -0.171,0.168 -0.31,0.525 -0.31,0.795 0,0.27 0.139,0.354 0.31,0.182 0.172,-0.168 0.312,-0.522 0.312,-0.793 z"
           id="path7736"
           inkscape:connector-curvature="0"
           style="fill:#ffffff" /><path
           d="m 305.292,37.631 c 0,-0.268 -0.142,-0.35 -0.312,-0.182 -0.173,0.168 -0.312,0.523 -0.312,0.795 0,0.268 0.14,0.35 0.312,0.182 0.17,-0.168 0.312,-0.524 0.312,-0.795 z"
           id="path7738"
           inkscape:connector-curvature="0"
           style="fill:#ffffff" /><path
           d="m 299.007,42.5 c 0,-0.27 -0.142,-0.352 -0.312,-0.182 -0.171,0.166 -0.311,0.521 -0.311,0.793 0,0.27 0.14,0.35 0.311,0.184 0.171,-0.17 0.312,-0.525 0.312,-0.795 z"
           id="path7740"
           inkscape:connector-curvature="0"
           style="fill:#ffffff" /><path
           d="m 299.904,41.621 c 0,-0.271 -0.14,-0.354 -0.311,-0.184 -0.174,0.168 -0.312,0.523 -0.312,0.793 0,0.271 0.139,0.352 0.312,0.184 0.171,-0.168 0.311,-0.523 0.311,-0.793 z"
           id="path7742"
           inkscape:connector-curvature="0"
           style="fill:#ffffff" /><path
           d="m 300.802,40.738 c 0,-0.27 -0.14,-0.352 -0.311,-0.182 -0.174,0.168 -0.312,0.523 -0.312,0.795 0,0.27 0.139,0.352 0.312,0.182 0.172,-0.168 0.311,-0.523 0.311,-0.795 z"
           id="path7744"
           inkscape:connector-curvature="0"
           style="fill:#ffffff" /><path
           d="m 301.701,39.859 c 0,-0.27 -0.14,-0.352 -0.312,-0.184 -0.172,0.168 -0.311,0.523 -0.311,0.793 0,0.271 0.139,0.352 0.311,0.184 0.172,-0.168 0.312,-0.521 0.312,-0.793 z"
           id="path7746"
           inkscape:connector-curvature="0"
           style="fill:#ffffff" /><path
           d="m 302.599,38.979 c 0,-0.27 -0.143,-0.352 -0.312,-0.184 -0.174,0.17 -0.311,0.525 -0.311,0.795 0,0.27 0.137,0.352 0.311,0.184 0.17,-0.169 0.312,-0.526 0.312,-0.795 z"
           id="path7748"
           inkscape:connector-curvature="0"
           style="fill:#ffffff" /><path
           d="m 303.495,38.1 c 0,-0.271 -0.14,-0.352 -0.31,-0.184 -0.174,0.168 -0.312,0.523 -0.312,0.795 0,0.27 0.139,0.352 0.312,0.182 0.17,-0.168 0.31,-0.524 0.31,-0.793 z"
           id="path7750"
           inkscape:connector-curvature="0"
           style="fill:#ffffff" /><path
           d="m 304.393,37.219 c 0,-0.27 -0.14,-0.354 -0.312,-0.182 -0.171,0.168 -0.31,0.523 -0.31,0.791 0,0.271 0.139,0.354 0.31,0.184 0.172,-0.166 0.312,-0.524 0.312,-0.793 z"
           id="path7752"
           inkscape:connector-curvature="0"
           style="fill:#ffffff" /><path
           d="m 305.292,36.34 c 0,-0.271 -0.142,-0.354 -0.312,-0.184 -0.173,0.168 -0.312,0.523 -0.312,0.793 0,0.271 0.14,0.354 0.312,0.184 0.17,-0.17 0.312,-0.526 0.312,-0.793 z"
           id="path7754"
           inkscape:connector-curvature="0"
           style="fill:#ffffff" /><path
           d="m 299.007,41.207 c 0,-0.27 -0.142,-0.352 -0.312,-0.184 -0.171,0.17 -0.311,0.525 -0.311,0.793 0,0.27 0.14,0.354 0.311,0.186 0.171,-0.17 0.312,-0.525 0.312,-0.795 z"
           id="path7756"
           inkscape:connector-curvature="0"
           style="fill:#ffffff" /><path
           d="m 299.904,40.328 c 0,-0.271 -0.14,-0.354 -0.311,-0.186 -0.174,0.17 -0.312,0.525 -0.312,0.795 0,0.27 0.139,0.352 0.312,0.184 0.171,-0.17 0.311,-0.523 0.311,-0.793 z"
           id="path7758"
           inkscape:connector-curvature="0"
           style="fill:#ffffff" /><path
           d="m 300.802,39.447 c 0,-0.271 -0.14,-0.352 -0.311,-0.184 -0.174,0.168 -0.312,0.525 -0.312,0.793 0,0.271 0.139,0.352 0.312,0.184 0.172,-0.168 0.311,-0.523 0.311,-0.793 z"
           id="path7760"
           inkscape:connector-curvature="0"
           style="fill:#ffffff" /><path
           d="m 301.701,38.566 c 0,-0.271 -0.14,-0.352 -0.312,-0.184 -0.172,0.168 -0.311,0.523 -0.311,0.793 0,0.271 0.139,0.354 0.311,0.184 0.172,-0.168 0.312,-0.523 0.312,-0.793 z"
           id="path7762"
           inkscape:connector-curvature="0"
           style="fill:#ffffff" /><path
           d="m 302.599,37.686 c 0,-0.27 -0.143,-0.35 -0.312,-0.182 -0.174,0.168 -0.311,0.523 -0.311,0.793 0,0.271 0.137,0.352 0.311,0.184 0.17,-0.169 0.312,-0.524 0.312,-0.795 z"
           id="path7764"
           inkscape:connector-curvature="0"
           style="fill:#ffffff" /><path
           d="m 303.495,36.807 c 0,-0.271 -0.14,-0.352 -0.31,-0.186 -0.174,0.17 -0.312,0.527 -0.312,0.797 0,0.268 0.139,0.352 0.312,0.184 0.17,-0.17 0.31,-0.526 0.31,-0.795 z"
           id="path7766"
           inkscape:connector-curvature="0"
           style="fill:#ffffff" /><path
           d="m 304.393,35.926 c 0,-0.27 -0.14,-0.352 -0.312,-0.184 -0.171,0.17 -0.31,0.523 -0.31,0.795 0,0.27 0.139,0.352 0.31,0.182 0.172,-0.168 0.312,-0.522 0.312,-0.793 z"
           id="path7768"
           inkscape:connector-curvature="0"
           style="fill:#ffffff" /><path
           d="m 305.292,35.045 c 0,-0.27 -0.142,-0.352 -0.312,-0.182 -0.173,0.168 -0.312,0.523 -0.312,0.793 0,0.27 0.14,0.354 0.312,0.184 0.17,-0.17 0.312,-0.524 0.312,-0.795 z"
           id="path7770"
           inkscape:connector-curvature="0"
           style="fill:#ffffff" /></g></g><rect
       x="284.33899"
       y="11.365"
       width="22.448999"
       height="38.150002"
       id="rect7772"
       style="fill:none" /><g
       id="g7774"><g
         id="g7776"><g
           id="g7778"><polygon
             points="263.605,163.508 263.605,161.869 266.302,162.547 266.302,164.182 "
             id="polygon7780"
             style="fill:#2182b9" /><polygon
             points="271.198,165.336 271.198,163.695 273.898,164.371 273.898,166.008 "
             id="polygon7782"
             style="fill:#2182b9" /><polygon
             points="273.919,165.912 273.919,164.271 274.72,163.133 274.72,164.77 "
             id="polygon7784"
             style="fill:#cdcccd" /><polygon
             points="266.332,164.096 266.332,162.459 267.132,161.32 267.132,162.953 "
             id="polygon7786"
             style="fill:#cdcccd" /><polyline
             points="262.482,137.1 262.482,161.564 275.045,164.758 275.045,140.291 262.482,137.1     "
             id="polyline7788"
             style="fill:#2182b9" /><polygon
             points="275.045,164.758 284.931,154.871 284.931,130.412 275.045,140.291 "
             id="polygon7790"
             style="fill:#cdcccd" /><path
             d="m 272.435,157.17 c 0,0.039 -0.026,0.064 -0.065,0.055 l -2.946,-0.746 c -0.037,-0.01 -0.068,-0.051 -0.068,-0.09 v -0.842 c 0,-0.039 0.031,-0.064 0.068,-0.053 l 2.946,0.748 c 0.039,0.006 0.065,0.047 0.065,0.084 v 0.844"
             id="path7792"
             inkscape:connector-curvature="0"
             style="fill:#cdcccd" /><path
             d="m 270.241,143.443 c 0,0.039 -0.029,0.066 -0.068,0.055 l -2.944,-0.748 c -0.039,-0.008 -0.068,-0.047 -0.068,-0.088 v -0.842 c 0,-0.037 0.029,-0.061 0.068,-0.049 l 2.944,0.744 c 0.039,0.008 0.068,0.047 0.068,0.086 v 0.842"
             id="path7794"
             inkscape:connector-curvature="0"
             style="fill:#ffffff" /><path
             d="m 272.435,159.074 c 0,0.035 -0.026,0.064 -0.065,0.055 l -2.946,-0.746 c -0.037,-0.012 -0.068,-0.051 -0.068,-0.088 v -0.842 c 0,-0.039 0.031,-0.064 0.068,-0.053 l 2.946,0.742 c 0.039,0.014 0.065,0.053 0.065,0.09 v 0.842"
             id="path7796"
             inkscape:connector-curvature="0"
             style="fill:#ffffff" /><path
             d="m 267.97,155.373 c 0,-0.037 -0.031,-0.078 -0.07,-0.092 l -2.942,-0.742 c -0.039,-0.012 -0.071,0.014 -0.071,0.053 v 0.844 c 0,0.035 0.032,0.076 0.071,0.086 l 2.942,0.744 c 0.039,0.012 0.07,-0.014 0.07,-0.051 v -0.842"
             id="path7798"
             inkscape:connector-curvature="0"
             style="fill:#ffffff" /><path
             d="m 272.435,161.014 c 0,0.037 -0.026,0.064 -0.065,0.055 l -2.946,-0.746 c -0.037,-0.008 -0.068,-0.051 -0.068,-0.088 v -0.844 c 0,-0.037 0.031,-0.062 0.068,-0.053 l 2.946,0.748 c 0.039,0.008 0.065,0.047 0.065,0.084 v 0.844"
             id="path7800"
             inkscape:connector-curvature="0"
             style="fill:#ffffff" /><path
             d="m 267.97,159.217 c 0,-0.039 -0.031,-0.078 -0.07,-0.09 l -2.942,-0.744 c -0.039,-0.012 -0.071,0.016 -0.071,0.053 v 0.846 c 0,0.033 0.032,0.074 0.071,0.084 l 2.942,0.744 c 0.039,0.012 0.07,-0.014 0.07,-0.049 v -0.844"
             id="path7802"
             inkscape:connector-curvature="0"
             style="fill:#cdcccd" /><path
             d="m 267.97,157.277 c 0,-0.041 -0.031,-0.08 -0.07,-0.092 l -2.942,-0.746 c -0.039,-0.006 -0.071,0.018 -0.071,0.057 v 0.842 c 0,0.039 0.032,0.078 0.071,0.088 l 2.942,0.742 c 0.039,0.01 0.07,-0.01 0.07,-0.049 v -0.842"
             id="path7804"
             inkscape:connector-curvature="0"
             style="fill:#ffffff" /></g><polygon
           points="272.601,127.857 262.497,137.152 275,140.297 284.918,130.539 "
           id="polygon7806"
           style="fill:#ffffff" /></g><g
         id="g7808"><path
           d="m 277.15,160.285 c 0,-0.27 -0.142,-0.354 -0.312,-0.184 -0.17,0.17 -0.311,0.525 -0.311,0.795 0,0.27 0.14,0.352 0.311,0.182 0.17,-0.168 0.312,-0.523 0.312,-0.793 z"
           id="path7810"
           inkscape:connector-curvature="0"
           style="fill:#ffffff" /><path
           d="m 278.046,159.406 c 0,-0.271 -0.14,-0.354 -0.311,-0.184 -0.174,0.168 -0.312,0.523 -0.312,0.793 0,0.27 0.139,0.354 0.312,0.184 0.172,-0.168 0.311,-0.523 0.311,-0.793 z"
           id="path7812"
           inkscape:connector-curvature="0"
           style="fill:#ffffff" /><path
           d="m 278.945,158.523 c 0,-0.27 -0.14,-0.35 -0.311,-0.182 -0.174,0.168 -0.312,0.523 -0.312,0.793 0,0.271 0.139,0.352 0.312,0.186 0.171,-0.17 0.311,-0.525 0.311,-0.797 z"
           id="path7814"
           inkscape:connector-curvature="0"
           style="fill:#ffffff" /><path
           d="m 279.843,157.645 c 0,-0.27 -0.14,-0.352 -0.312,-0.182 -0.172,0.168 -0.311,0.523 -0.311,0.791 0,0.273 0.139,0.354 0.311,0.186 0.173,-0.17 0.312,-0.526 0.312,-0.795 z"
           id="path7816"
           inkscape:connector-curvature="0"
           style="fill:#ffffff" /><path
           d="m 280.742,156.766 c 0,-0.271 -0.143,-0.354 -0.312,-0.186 -0.174,0.17 -0.311,0.525 -0.311,0.795 0,0.27 0.137,0.352 0.311,0.182 0.169,-0.166 0.312,-0.522 0.312,-0.791 z"
           id="path7818"
           inkscape:connector-curvature="0"
           style="fill:#ffffff" /><path
           d="m 281.637,155.885 c 0,-0.27 -0.14,-0.354 -0.31,-0.184 -0.174,0.17 -0.312,0.523 -0.312,0.795 0,0.27 0.139,0.352 0.312,0.182 0.171,-0.168 0.31,-0.524 0.31,-0.793 z"
           id="path7820"
           inkscape:connector-curvature="0"
           style="fill:#ffffff" /><path
           d="m 282.536,155.004 c 0,-0.268 -0.14,-0.352 -0.312,-0.184 -0.171,0.168 -0.31,0.525 -0.31,0.795 0,0.27 0.139,0.354 0.31,0.182 0.172,-0.168 0.312,-0.522 0.312,-0.793 z"
           id="path7822"
           inkscape:connector-curvature="0"
           style="fill:#ffffff" /><path
           d="m 283.434,154.123 c 0,-0.268 -0.142,-0.35 -0.312,-0.182 -0.173,0.168 -0.312,0.523 -0.312,0.795 0,0.268 0.14,0.35 0.312,0.182 0.17,-0.168 0.312,-0.523 0.312,-0.795 z"
           id="path7824"
           inkscape:connector-curvature="0"
           style="fill:#ffffff" /><path
           d="m 277.15,158.992 c 0,-0.27 -0.142,-0.352 -0.312,-0.182 -0.171,0.166 -0.311,0.521 -0.311,0.793 0,0.27 0.14,0.35 0.311,0.184 0.17,-0.17 0.312,-0.525 0.312,-0.795 z"
           id="path7826"
           inkscape:connector-curvature="0"
           style="fill:#ffffff" /><path
           d="m 278.046,158.113 c 0,-0.271 -0.14,-0.354 -0.311,-0.184 -0.174,0.168 -0.312,0.523 -0.312,0.793 0,0.271 0.139,0.352 0.312,0.184 0.172,-0.168 0.311,-0.523 0.311,-0.793 z"
           id="path7828"
           inkscape:connector-curvature="0"
           style="fill:#ffffff" /><path
           d="m 278.945,157.23 c 0,-0.27 -0.14,-0.352 -0.311,-0.182 -0.174,0.168 -0.312,0.523 -0.312,0.795 0,0.27 0.139,0.352 0.312,0.182 0.171,-0.168 0.311,-0.523 0.311,-0.795 z"
           id="path7830"
           inkscape:connector-curvature="0"
           style="fill:#ffffff" /><path
           d="m 279.843,156.352 c 0,-0.27 -0.14,-0.352 -0.312,-0.184 -0.172,0.168 -0.311,0.523 -0.311,0.793 0,0.271 0.139,0.352 0.311,0.184 0.173,-0.168 0.312,-0.522 0.312,-0.793 z"
           id="path7832"
           inkscape:connector-curvature="0"
           style="fill:#ffffff" /><path
           d="m 280.742,155.471 c 0,-0.27 -0.143,-0.352 -0.312,-0.184 -0.174,0.17 -0.311,0.525 -0.311,0.795 0,0.27 0.137,0.352 0.311,0.184 0.169,-0.168 0.312,-0.526 0.312,-0.795 z"
           id="path7834"
           inkscape:connector-curvature="0"
           style="fill:#ffffff" /><path
           d="m 281.637,154.592 c 0,-0.271 -0.14,-0.352 -0.31,-0.184 -0.174,0.168 -0.312,0.523 -0.312,0.795 0,0.27 0.139,0.352 0.312,0.182 0.171,-0.168 0.31,-0.524 0.31,-0.793 z"
           id="path7836"
           inkscape:connector-curvature="0"
           style="fill:#ffffff" /><path
           d="m 282.536,153.711 c 0,-0.27 -0.14,-0.354 -0.312,-0.182 -0.171,0.168 -0.31,0.523 -0.31,0.791 0,0.271 0.139,0.354 0.31,0.184 0.172,-0.166 0.312,-0.524 0.312,-0.793 z"
           id="path7838"
           inkscape:connector-curvature="0"
           style="fill:#ffffff" /><path
           d="m 283.434,152.832 c 0,-0.271 -0.142,-0.354 -0.312,-0.184 -0.173,0.168 -0.312,0.523 -0.312,0.793 0,0.271 0.14,0.354 0.312,0.184 0.17,-0.17 0.312,-0.525 0.312,-0.793 z"
           id="path7840"
           inkscape:connector-curvature="0"
           style="fill:#ffffff" /><path
           d="m 277.15,157.699 c 0,-0.27 -0.142,-0.352 -0.312,-0.184 -0.171,0.17 -0.311,0.525 -0.311,0.793 0,0.27 0.14,0.354 0.311,0.186 0.17,-0.17 0.312,-0.525 0.312,-0.795 z"
           id="path7842"
           inkscape:connector-curvature="0"
           style="fill:#ffffff" /><path
           d="m 278.046,156.82 c 0,-0.271 -0.14,-0.354 -0.311,-0.186 -0.174,0.17 -0.312,0.525 -0.312,0.795 0,0.27 0.139,0.352 0.312,0.184 0.172,-0.17 0.311,-0.523 0.311,-0.793 z"
           id="path7844"
           inkscape:connector-curvature="0"
           style="fill:#ffffff" /><path
           d="m 278.945,155.939 c 0,-0.271 -0.14,-0.352 -0.311,-0.184 -0.174,0.168 -0.312,0.525 -0.312,0.793 0,0.271 0.139,0.352 0.312,0.184 0.171,-0.168 0.311,-0.523 0.311,-0.793 z"
           id="path7846"
           inkscape:connector-curvature="0"
           style="fill:#ffffff" /><path
           d="m 279.843,155.059 c 0,-0.271 -0.14,-0.352 -0.312,-0.184 -0.172,0.168 -0.311,0.523 -0.311,0.793 0,0.271 0.139,0.354 0.311,0.184 0.173,-0.168 0.312,-0.524 0.312,-0.793 z"
           id="path7848"
           inkscape:connector-curvature="0"
           style="fill:#ffffff" /><path
           d="m 280.742,154.178 c 0,-0.27 -0.143,-0.35 -0.312,-0.182 -0.174,0.168 -0.311,0.523 -0.311,0.793 0,0.271 0.137,0.352 0.311,0.184 0.169,-0.168 0.312,-0.524 0.312,-0.795 z"
           id="path7850"
           inkscape:connector-curvature="0"
           style="fill:#ffffff" /><path
           d="m 281.637,153.299 c 0,-0.271 -0.14,-0.352 -0.31,-0.186 -0.174,0.17 -0.312,0.527 -0.312,0.797 0,0.268 0.139,0.352 0.312,0.184 0.171,-0.17 0.31,-0.526 0.31,-0.795 z"
           id="path7852"
           inkscape:connector-curvature="0"
           style="fill:#ffffff" /><path
           d="m 282.536,152.418 c 0,-0.27 -0.14,-0.352 -0.312,-0.184 -0.171,0.17 -0.31,0.523 -0.31,0.795 0,0.27 0.139,0.352 0.31,0.182 0.172,-0.168 0.312,-0.522 0.312,-0.793 z"
           id="path7854"
           inkscape:connector-curvature="0"
           style="fill:#ffffff" /><path
           d="m 283.434,151.537 c 0,-0.27 -0.142,-0.352 -0.312,-0.182 -0.173,0.168 -0.312,0.523 -0.312,0.793 0,0.27 0.14,0.354 0.312,0.184 0.17,-0.17 0.312,-0.523 0.312,-0.795 z"
           id="path7856"
           inkscape:connector-curvature="0"
           style="fill:#ffffff" /></g></g><rect
       x="262.48199"
       y="127.857"
       width="22.448999"
       height="38.150002"
       id="rect7858"
       style="fill:none" /><g
       id="g7860"><g
         id="g7862"><g
           id="g7864"><polygon
             points="43.56,31.08 43.843,31.08 43.843,31.308 44.74,31.308 44.74,23.762 29.294,23.762 29.294,31.08 35.826,31.08 35.826,32.157 38.609,32.157 38.609,31.08 39.363,31.08 39.363,32.157 43.56,32.157 "
             id="polygon7866"
             style="fill:none;stroke:#000000;stroke-width:0.5;stroke-linecap:round;stroke-linejoin:round" /><polygon
             points="43.628,31.08 43.912,31.08 43.912,31.308 44.807,31.308 44.807,23.762 29.362,23.762 29.362,31.08 35.894,31.08 35.894,32.157 38.675,32.157 38.675,31.08 39.431,31.08 39.431,32.157 43.628,32.157 "
             id="polygon7868"
             style="fill:#00a651;stroke:#000000;stroke-width:0.5;stroke-linecap:round;stroke-linejoin:round" /><g
             id="g7870"><rect
               x="44.908001"
               y="26.545"
               width="0.94300002"
               height="0.472"
               id="rect7872"
               style="fill:#ffffff;stroke:#000000;stroke-width:0.25;stroke-linecap:round;stroke-linejoin:round" /><path
               d="M 45.279,26.781"
               id="path7874"
               inkscape:connector-curvature="0"
               style="fill:#ffffff;stroke:#000000;stroke-width:0.25;stroke-linecap:round;stroke-linejoin:round" /></g><line
             x1="36.257"
             y1="31.370001"
             x2="36.257"
             y2="32.137001"
             id="line7876"
             style="stroke:#000000;stroke-width:0.25;stroke-linecap:round;stroke-linejoin:round" /><line
             x1="36.551998"
             y1="31.370001"
             x2="36.551998"
             y2="32.137001"
             id="line7878"
             style="stroke:#000000;stroke-width:0.25;stroke-linecap:round;stroke-linejoin:round" /><line
             x1="36.847"
             y1="31.370001"
             x2="36.847"
             y2="32.137001"
             id="line7880"
             style="stroke:#000000;stroke-width:0.25;stroke-linecap:round;stroke-linejoin:round" /><line
             x1="37.141998"
             y1="31.370001"
             x2="37.141998"
             y2="32.137001"
             id="line7882"
             style="stroke:#000000;stroke-width:0.25;stroke-linecap:round;stroke-linejoin:round" /><line
             x1="37.437"
             y1="31.370001"
             x2="37.437"
             y2="32.137001"
             id="line7884"
             style="stroke:#000000;stroke-width:0.25;stroke-linecap:round;stroke-linejoin:round" /><line
             x1="37.730999"
             y1="31.370001"
             x2="37.730999"
             y2="32.137001"
             id="line7886"
             style="stroke:#000000;stroke-width:0.25;stroke-linecap:round;stroke-linejoin:round" /><line
             x1="38.025002"
             y1="31.370001"
             x2="38.025002"
             y2="32.137001"
             id="line7888"
             style="stroke:#000000;stroke-width:0.25;stroke-linecap:round;stroke-linejoin:round" /><line
             x1="38.32"
             y1="31.370001"
             x2="38.32"
             y2="32.137001"
             id="line7890"
             style="stroke:#000000;stroke-width:0.25;stroke-linecap:round;stroke-linejoin:round" /><line
             x1="39.793999"
             y1="31.370001"
             x2="39.793999"
             y2="32.137001"
             id="line7892"
             style="stroke:#000000;stroke-width:0.25;stroke-linecap:round;stroke-linejoin:round" /><line
             x1="40.089001"
             y1="31.370001"
             x2="40.089001"
             y2="32.137001"
             id="line7894"
             style="stroke:#000000;stroke-width:0.25;stroke-linecap:round;stroke-linejoin:round" /><line
             x1="40.383999"
             y1="31.370001"
             x2="40.383999"
             y2="32.137001"
             id="line7896"
             style="stroke:#000000;stroke-width:0.25;stroke-linecap:round;stroke-linejoin:round" /><line
             x1="40.679001"
             y1="31.370001"
             x2="40.679001"
             y2="32.137001"
             id="line7898"
             style="stroke:#000000;stroke-width:0.25;stroke-linecap:round;stroke-linejoin:round" /><line
             x1="40.973999"
             y1="31.370001"
             x2="40.973999"
             y2="32.137001"
             id="line7900"
             style="stroke:#000000;stroke-width:0.25;stroke-linecap:round;stroke-linejoin:round" /><line
             x1="41.268002"
             y1="31.370001"
             x2="41.268002"
             y2="32.137001"
             id="line7902"
             style="stroke:#000000;stroke-width:0.25;stroke-linecap:round;stroke-linejoin:round" /><line
             x1="41.562"
             y1="31.370001"
             x2="41.562"
             y2="32.137001"
             id="line7904"
             style="stroke:#000000;stroke-width:0.25;stroke-linecap:round;stroke-linejoin:round" /><line
             x1="41.856998"
             y1="31.370001"
             x2="41.856998"
             y2="32.137001"
             id="line7906"
             style="stroke:#000000;stroke-width:0.25;stroke-linecap:round;stroke-linejoin:round" /><line
             x1="42.152"
             y1="31.370001"
             x2="42.152"
             y2="32.137001"
             id="line7908"
             style="stroke:#000000;stroke-width:0.25;stroke-linecap:round;stroke-linejoin:round" /><line
             x1="42.446999"
             y1="31.370001"
             x2="42.446999"
             y2="32.137001"
             id="line7910"
             style="stroke:#000000;stroke-width:0.25;stroke-linecap:round;stroke-linejoin:round" /><line
             x1="42.742001"
             y1="31.370001"
             x2="42.742001"
             y2="32.137001"
             id="line7912"
             style="stroke:#000000;stroke-width:0.25;stroke-linecap:round;stroke-linejoin:round" /><line
             x1="43.036999"
             y1="31.370001"
             x2="43.036999"
             y2="32.137001"
             id="line7914"
             style="stroke:#000000;stroke-width:0.25;stroke-linecap:round;stroke-linejoin:round" /><line
             x1="43.332001"
             y1="31.370001"
             x2="43.332001"
             y2="32.137001"
             id="line7916"
             style="stroke:#000000;stroke-width:0.25;stroke-linecap:round;stroke-linejoin:round" /><polyline
             points="29.852,30.837 29.852,24.234 44.531,24.234     "
             id="polyline7918"
             style="fill:none;stroke:#ffffff;stroke-width:0.5" /><g
             id="g7920"><path
               d="M 43.864,26.781"
               id="path7922"
               inkscape:connector-curvature="0" /><rect
               x="42.921001"
               y="26.309"
               width="1.886"
               height="0.94300002"
               id="rect7924" /></g></g><rect
           x="36.848"
           y="27.743"
           width="0"
           height="0"
           id="rect7926"
           style="fill:none;stroke:#00a651;stroke-width:0.5" /></g><polyline
         points="42.822,28.275 38.753,28.275 38.753,29.69   "
         id="polyline7928"
         style="fill:none;stroke:#006f45;stroke-width:0.25" /><polyline
         points="38.656,25.957 38.656,25.514 39.804,25.514   "
         id="polyline7930"
         style="fill:none;stroke:#006f45;stroke-width:0.25" /><polyline
         points="40.626,25.956 40.626,25.514 41.775,25.514   "
         id="polyline7932"
         style="fill:none;stroke:#006f45;stroke-width:0.25" /><polyline
         points="38.656,26.79 38.656,26.348 39.804,26.348   "
         id="polyline7934"
         style="fill:none;stroke:#006f45;stroke-width:0.25" /><polyline
         points="40.626,26.79 40.626,26.348 41.775,26.348   "
         id="polyline7936"
         style="fill:none;stroke:#006f45;stroke-width:0.25" /><path
         d="M 34.529,27.656"
         id="path7938"
         inkscape:connector-curvature="0"
         style="fill:none;stroke:#00a651;stroke-width:0.25" /><polyline
         points="35.904,26.753 34.685,26.753 34.412,26.988 34.175,26.753     32.917,26.753 32.917,27.342   "
         id="polyline7940"
         style="fill:none;stroke:#006f45;stroke-width:0.25" /><polyline
         points="35.904,25.73 34.685,25.73 34.412,25.966 34.175,25.73     32.917,25.73 32.917,26.32   "
         id="polyline7942"
         style="fill:none;stroke:#006f45;stroke-width:0.25" /><polyline
         points="33.035,29.425 33.035,29.189 33.35,29.189   "
         id="polyline7944"
         style="fill:none;stroke:#006f45;stroke-width:0.25" /><polyline
         points="33.798,29.425 33.798,29.189 34.113,29.189   "
         id="polyline7946"
         style="fill:none;stroke:#006f45;stroke-width:0.25" /><polyline
         points="34.568,29.425 34.568,29.189 34.882,29.189   "
         id="polyline7948"
         style="fill:none;stroke:#006f45;stroke-width:0.25" /><polyline
         points="35.371,29.425 35.371,29.189 35.685,29.189   "
         id="polyline7950"
         style="fill:none;stroke:#006f45;stroke-width:0.25" /><polyline
         points="33.035,28.678 33.035,28.442 33.35,28.442   "
         id="polyline7952"
         style="fill:none;stroke:#006f45;stroke-width:0.25" /><polyline
         points="33.798,28.678 33.798,28.442 34.113,28.442   "
         id="polyline7954"
         style="fill:none;stroke:#006f45;stroke-width:0.25" /><polyline
         points="31.218,26.753 31.218,26.517 31.532,26.517   "
         id="polyline7956"
         style="fill:none;stroke:#006f45;stroke-width:0.25" /><polyline
         points="31.981,26.753 31.981,26.517 32.295,26.517   "
         id="polyline7958"
         style="fill:none;stroke:#006f45;stroke-width:0.25" /><polyline
         points="31.218,26.006 31.218,25.77 31.532,25.77   "
         id="polyline7960"
         style="fill:none;stroke:#006f45;stroke-width:0.25" /><polyline
         points="31.981,26.006 31.981,25.77 32.295,25.77   "
         id="polyline7962"
         style="fill:none;stroke:#006f45;stroke-width:0.25" /><polyline
         points="34.568,28.678 34.568,28.442 34.882,28.442   "
         id="polyline7964"
         style="fill:none;stroke:#006f45;stroke-width:0.25" /><polyline
         points="35.371,28.678 35.371,28.442 35.685,28.442   "
         id="polyline7966"
         style="fill:none;stroke:#006f45;stroke-width:0.25" /></g><g
       id="g7968"><g
         id="g7970"><g
           id="g7972"><polygon
             points="173.286,31.08 173.568,31.08 173.568,31.308 174.464,31.308 174.464,23.762 159.019,23.762 159.019,31.08 165.55,31.08 165.55,32.157 168.333,32.157 168.333,31.08 169.087,31.08 169.087,32.157 173.286,32.157 "
             id="polygon7974"
             style="fill:none;stroke:#000000;stroke-width:0.5;stroke-linecap:round;stroke-linejoin:round" /><polygon
             points="173.352,31.08 173.635,31.08 173.635,31.308 174.532,31.308 174.532,23.762 159.086,23.762 159.086,31.08 165.618,31.08 165.618,32.157 168.401,32.157 168.401,31.08 169.155,31.08 169.155,32.157 173.352,32.157 "
             id="polygon7976"
             style="fill:#00a651;stroke:#000000;stroke-width:0.5;stroke-linecap:round;stroke-linejoin:round" /><g
             id="g7978"><rect
               x="174.632"
               y="26.545"
               width="0.94300002"
               height="0.472"
               id="rect7980"
               style="fill:#ffffff;stroke:#000000;stroke-width:0.25;stroke-linecap:round;stroke-linejoin:round" /><path
               d="M 175.003,26.781"
               id="path7982"
               inkscape:connector-curvature="0"
               style="fill:#ffffff;stroke:#000000;stroke-width:0.25;stroke-linecap:round;stroke-linejoin:round" /></g><line
             x1="165.98199"
             y1="31.370001"
             x2="165.98199"
             y2="32.137001"
             id="line7984"
             style="stroke:#000000;stroke-width:0.25;stroke-linecap:round;stroke-linejoin:round" /><line
             x1="166.276"
             y1="31.370001"
             x2="166.276"
             y2="32.137001"
             id="line7986"
             style="stroke:#000000;stroke-width:0.25;stroke-linecap:round;stroke-linejoin:round" /><line
             x1="166.571"
             y1="31.370001"
             x2="166.571"
             y2="32.137001"
             id="line7988"
             style="stroke:#000000;stroke-width:0.25;stroke-linecap:round;stroke-linejoin:round" /><line
             x1="166.866"
             y1="31.370001"
             x2="166.866"
             y2="32.137001"
             id="line7990"
             style="stroke:#000000;stroke-width:0.25;stroke-linecap:round;stroke-linejoin:round" /><line
             x1="167.161"
             y1="31.370001"
             x2="167.161"
             y2="32.137001"
             id="line7992"
             style="stroke:#000000;stroke-width:0.25;stroke-linecap:round;stroke-linejoin:round" /><line
             x1="167.45599"
             y1="31.370001"
             x2="167.45599"
             y2="32.137001"
             id="line7994"
             style="stroke:#000000;stroke-width:0.25;stroke-linecap:round;stroke-linejoin:round" /><line
             x1="167.75"
             y1="31.370001"
             x2="167.75"
             y2="32.137001"
             id="line7996"
             style="stroke:#000000;stroke-width:0.25;stroke-linecap:round;stroke-linejoin:round" /><line
             x1="168.045"
             y1="31.370001"
             x2="168.045"
             y2="32.137001"
             id="line7998"
             style="stroke:#000000;stroke-width:0.25;stroke-linecap:round;stroke-linejoin:round" /><line
             x1="169.519"
             y1="31.370001"
             x2="169.519"
             y2="32.137001"
             id="line8000"
             style="stroke:#000000;stroke-width:0.25;stroke-linecap:round;stroke-linejoin:round" /><line
             x1="169.813"
             y1="31.370001"
             x2="169.813"
             y2="32.137001"
             id="line8002"
             style="stroke:#000000;stroke-width:0.25;stroke-linecap:round;stroke-linejoin:round" /><line
             x1="170.108"
             y1="31.370001"
             x2="170.108"
             y2="32.137001"
             id="line8004"
             style="stroke:#000000;stroke-width:0.25;stroke-linecap:round;stroke-linejoin:round" /><line
             x1="170.403"
             y1="31.370001"
             x2="170.403"
             y2="32.137001"
             id="line8006"
             style="stroke:#000000;stroke-width:0.25;stroke-linecap:round;stroke-linejoin:round" /><line
             x1="170.698"
             y1="31.370001"
             x2="170.698"
             y2="32.137001"
             id="line8008"
             style="stroke:#000000;stroke-width:0.25;stroke-linecap:round;stroke-linejoin:round" /><line
             x1="170.993"
             y1="31.370001"
             x2="170.993"
             y2="32.137001"
             id="line8010"
             style="stroke:#000000;stroke-width:0.25;stroke-linecap:round;stroke-linejoin:round" /><line
             x1="171.28799"
             y1="31.370001"
             x2="171.28799"
             y2="32.137001"
             id="line8012"
             style="stroke:#000000;stroke-width:0.25;stroke-linecap:round;stroke-linejoin:round" /><line
             x1="171.58299"
             y1="31.370001"
             x2="171.58299"
             y2="32.137001"
             id="line8014"
             style="stroke:#000000;stroke-width:0.25;stroke-linecap:round;stroke-linejoin:round" /><line
             x1="171.87601"
             y1="31.370001"
             x2="171.87601"
             y2="32.137001"
             id="line8016"
             style="stroke:#000000;stroke-width:0.25;stroke-linecap:round;stroke-linejoin:round" /><line
             x1="172.17101"
             y1="31.370001"
             x2="172.17101"
             y2="32.137001"
             id="line8018"
             style="stroke:#000000;stroke-width:0.25;stroke-linecap:round;stroke-linejoin:round" /><line
             x1="172.466"
             y1="31.370001"
             x2="172.466"
             y2="32.137001"
             id="line8020"
             style="stroke:#000000;stroke-width:0.25;stroke-linecap:round;stroke-linejoin:round" /><line
             x1="172.761"
             y1="31.370001"
             x2="172.761"
             y2="32.137001"
             id="line8022"
             style="stroke:#000000;stroke-width:0.25;stroke-linecap:round;stroke-linejoin:round" /><line
             x1="173.05499"
             y1="31.370001"
             x2="173.05499"
             y2="32.137001"
             id="line8024"
             style="stroke:#000000;stroke-width:0.25;stroke-linecap:round;stroke-linejoin:round" /><polyline
             points="159.577,30.837 159.577,24.234 174.255,24.234     "
             id="polyline8026"
             style="fill:none;stroke:#ffffff;stroke-width:0.5" /><g
             id="g8028"><path
               d="M 173.588,26.781"
               id="path8030"
               inkscape:connector-curvature="0" /><rect
               x="172.645"
               y="26.309"
               width="1.887"
               height="0.94300002"
               id="rect8032" /></g></g><rect
           x="166.573"
           y="27.743"
           width="0"
           height="0"
           id="rect8034"
           style="fill:none;stroke:#00a651;stroke-width:0.5" /></g><polyline
         points="172.545,28.275 168.478,28.275 168.478,29.69   "
         id="polyline8036"
         style="fill:none;stroke:#006f45;stroke-width:0.25" /><polyline
         points="168.379,25.957 168.379,25.514 169.53,25.514   "
         id="polyline8038"
         style="fill:none;stroke:#006f45;stroke-width:0.25" /><polyline
         points="170.35,25.956 170.35,25.514 171.5,25.514   "
         id="polyline8040"
         style="fill:none;stroke:#006f45;stroke-width:0.25" /><polyline
         points="168.379,26.79 168.379,26.348 169.53,26.348   "
         id="polyline8042"
         style="fill:none;stroke:#006f45;stroke-width:0.25" /><polyline
         points="170.35,26.79 170.35,26.348 171.5,26.348   "
         id="polyline8044"
         style="fill:none;stroke:#006f45;stroke-width:0.25" /><path
         d="M 164.253,27.656"
         id="path8046"
         inkscape:connector-curvature="0"
         style="fill:none;stroke:#00a651;stroke-width:0.25" /><polyline
         points="165.629,26.753 164.411,26.753 164.135,26.988     163.899,26.753 162.641,26.753 162.641,27.342   "
         id="polyline8048"
         style="fill:none;stroke:#006f45;stroke-width:0.25" /><polyline
         points="165.629,25.73 164.411,25.73 164.135,25.966 163.899,25.73     162.641,25.73 162.641,26.32   "
         id="polyline8050"
         style="fill:none;stroke:#006f45;stroke-width:0.25" /><polyline
         points="162.759,29.425 162.759,29.189 163.074,29.189   "
         id="polyline8052"
         style="fill:none;stroke:#006f45;stroke-width:0.25" /><polyline
         points="163.523,29.425 163.523,29.189 163.837,29.189   "
         id="polyline8054"
         style="fill:none;stroke:#006f45;stroke-width:0.25" /><polyline
         points="164.292,29.425 164.292,29.189 164.607,29.189   "
         id="polyline8056"
         style="fill:none;stroke:#006f45;stroke-width:0.25" /><polyline
         points="165.095,29.425 165.095,29.189 165.41,29.189   "
         id="polyline8058"
         style="fill:none;stroke:#006f45;stroke-width:0.25" /><polyline
         points="162.759,28.678 162.759,28.442 163.074,28.442   "
         id="polyline8060"
         style="fill:none;stroke:#006f45;stroke-width:0.25" /><polyline
         points="163.523,28.678 163.523,28.442 163.837,28.442   "
         id="polyline8062"
         style="fill:none;stroke:#006f45;stroke-width:0.25" /><polyline
         points="160.942,26.753 160.942,26.517 161.256,26.517   "
         id="polyline8064"
         style="fill:none;stroke:#006f45;stroke-width:0.25" /><polyline
         points="161.706,26.753 161.706,26.517 162.02,26.517   "
         id="polyline8066"
         style="fill:none;stroke:#006f45;stroke-width:0.25" /><polyline
         points="160.942,26.006 160.942,25.77 161.256,25.77   "
         id="polyline8068"
         style="fill:none;stroke:#006f45;stroke-width:0.25" /><polyline
         points="161.706,26.006 161.706,25.77 162.02,25.77   "
         id="polyline8070"
         style="fill:none;stroke:#006f45;stroke-width:0.25" /><polyline
         points="164.292,28.678 164.292,28.442 164.607,28.442   "
         id="polyline8072"
         style="fill:none;stroke:#006f45;stroke-width:0.25" /><polyline
         points="165.095,28.678 165.095,28.442 165.41,28.442   "
         id="polyline8074"
         style="fill:none;stroke:#006f45;stroke-width:0.25" /></g><g
       id="g8076"><g
         id="g8078"><g
           id="g8080"><polygon
             points="313.889,31.08 314.172,31.08 314.172,31.308 315.069,31.308 315.069,23.762 299.624,23.762 299.624,31.08 306.155,31.08 306.155,32.157 308.938,32.157 308.938,31.08 309.692,31.08 309.692,32.157 313.889,32.157 "
             id="polygon8082"
             style="fill:none;stroke:#000000;stroke-width:0.5;stroke-linecap:round;stroke-linejoin:round" /><polygon
             points="313.957,31.08 314.24,31.08 314.24,31.308 315.136,31.308 315.136,23.762 299.691,23.762 299.691,31.08 306.222,31.08 306.222,32.157 309.005,32.157 309.005,31.08 309.759,31.08 309.759,32.157 313.957,32.157 "
             id="polygon8084"
             style="fill:#00a651;stroke:#000000;stroke-width:0.5;stroke-linecap:round;stroke-linejoin:round" /><g
             id="g8086"><rect
               x="315.237"
               y="26.545"
               width="0.94300002"
               height="0.472"
               id="rect8088"
               style="fill:#ffffff;stroke:#000000;stroke-width:0.25;stroke-linecap:round;stroke-linejoin:round" /><path
               d="M 315.608,26.781"
               id="path8090"
               inkscape:connector-curvature="0"
               style="fill:#ffffff;stroke:#000000;stroke-width:0.25;stroke-linecap:round;stroke-linejoin:round" /></g><line
             x1="306.586"
             y1="31.370001"
             x2="306.586"
             y2="32.137001"
             id="line8092"
             style="stroke:#000000;stroke-width:0.25;stroke-linecap:round;stroke-linejoin:round" /><line
             x1="306.88"
             y1="31.370001"
             x2="306.88"
             y2="32.137001"
             id="line8094"
             style="stroke:#000000;stroke-width:0.25;stroke-linecap:round;stroke-linejoin:round" /><line
             x1="307.17499"
             y1="31.370001"
             x2="307.17499"
             y2="32.137001"
             id="line8096"
             style="stroke:#000000;stroke-width:0.25;stroke-linecap:round;stroke-linejoin:round" /><line
             x1="307.47"
             y1="31.370001"
             x2="307.47"
             y2="32.137001"
             id="line8098"
             style="stroke:#000000;stroke-width:0.25;stroke-linecap:round;stroke-linejoin:round" /><line
             x1="307.76501"
             y1="31.370001"
             x2="307.76501"
             y2="32.137001"
             id="line8100"
             style="stroke:#000000;stroke-width:0.25;stroke-linecap:round;stroke-linejoin:round" /><line
             x1="308.06"
             y1="31.370001"
             x2="308.06"
             y2="32.137001"
             id="line8102"
             style="stroke:#000000;stroke-width:0.25;stroke-linecap:round;stroke-linejoin:round" /><line
             x1="308.35501"
             y1="31.370001"
             x2="308.35501"
             y2="32.137001"
             id="line8104"
             style="stroke:#000000;stroke-width:0.25;stroke-linecap:round;stroke-linejoin:round" /><line
             x1="308.64899"
             y1="31.370001"
             x2="308.64899"
             y2="32.137001"
             id="line8106"
             style="stroke:#000000;stroke-width:0.25;stroke-linecap:round;stroke-linejoin:round" /><line
             x1="310.12399"
             y1="31.370001"
             x2="310.12399"
             y2="32.137001"
             id="line8108"
             style="stroke:#000000;stroke-width:0.25;stroke-linecap:round;stroke-linejoin:round" /><line
             x1="310.41699"
             y1="31.370001"
             x2="310.41699"
             y2="32.137001"
             id="line8110"
             style="stroke:#000000;stroke-width:0.25;stroke-linecap:round;stroke-linejoin:round" /><line
             x1="310.71201"
             y1="31.370001"
             x2="310.71201"
             y2="32.137001"
             id="line8112"
             style="stroke:#000000;stroke-width:0.25;stroke-linecap:round;stroke-linejoin:round" /><line
             x1="311.00699"
             y1="31.370001"
             x2="311.00699"
             y2="32.137001"
             id="line8114"
             style="stroke:#000000;stroke-width:0.25;stroke-linecap:round;stroke-linejoin:round" /><line
             x1="311.302"
             y1="31.370001"
             x2="311.302"
             y2="32.137001"
             id="line8116"
             style="stroke:#000000;stroke-width:0.25;stroke-linecap:round;stroke-linejoin:round" /><line
             x1="311.59698"
             y1="31.370001"
             x2="311.59698"
             y2="32.137001"
             id="line8118"
             style="stroke:#000000;stroke-width:0.25;stroke-linecap:round;stroke-linejoin:round" /><line
             x1="311.892"
             y1="31.370001"
             x2="311.892"
             y2="32.137001"
             id="line8120"
             style="stroke:#000000;stroke-width:0.25;stroke-linecap:round;stroke-linejoin:round" /><line
             x1="312.186"
             y1="31.370001"
             x2="312.186"
             y2="32.137001"
             id="line8122"
             style="stroke:#000000;stroke-width:0.25;stroke-linecap:round;stroke-linejoin:round" /><line
             x1="312.48099"
             y1="31.370001"
             x2="312.48099"
             y2="32.137001"
             id="line8124"
             style="stroke:#000000;stroke-width:0.25;stroke-linecap:round;stroke-linejoin:round" /><line
             x1="312.776"
             y1="31.370001"
             x2="312.776"
             y2="32.137001"
             id="line8126"
             style="stroke:#000000;stroke-width:0.25;stroke-linecap:round;stroke-linejoin:round" /><line
             x1="313.07101"
             y1="31.370001"
             x2="313.07101"
             y2="32.137001"
             id="line8128"
             style="stroke:#000000;stroke-width:0.25;stroke-linecap:round;stroke-linejoin:round" /><line
             x1="313.366"
             y1="31.370001"
             x2="313.366"
             y2="32.137001"
             id="line8130"
             style="stroke:#000000;stroke-width:0.25;stroke-linecap:round;stroke-linejoin:round" /><line
             x1="313.66101"
             y1="31.370001"
             x2="313.66101"
             y2="32.137001"
             id="line8132"
             style="stroke:#000000;stroke-width:0.25;stroke-linecap:round;stroke-linejoin:round" /><polyline
             points="300.181,30.837 300.181,24.234 314.86,24.234     "
             id="polyline8134"
             style="fill:none;stroke:#ffffff;stroke-width:0.5" /><g
             id="g8136"><path
               d="M 314.193,26.781"
               id="path8138"
               inkscape:connector-curvature="0" /><rect
               x="313.25"
               y="26.309"
               width="1.887"
               height="0.94300002"
               id="rect8140" /></g></g><rect
           x="307.177"
           y="27.743"
           width="0"
           height="0"
           id="rect8142"
           style="fill:none;stroke:#00a651;stroke-width:0.5" /></g><polyline
         points="313.15,28.275 309.083,28.275 309.083,29.69   "
         id="polyline8144"
         style="fill:none;stroke:#006f45;stroke-width:0.25" /><polyline
         points="308.984,25.957 308.984,25.514 310.133,25.514   "
         id="polyline8146"
         style="fill:none;stroke:#006f45;stroke-width:0.25" /><polyline
         points="310.955,25.956 310.955,25.514 312.105,25.514   "
         id="polyline8148"
         style="fill:none;stroke:#006f45;stroke-width:0.25" /><polyline
         points="308.984,26.79 308.984,26.348 310.133,26.348   "
         id="polyline8150"
         style="fill:none;stroke:#006f45;stroke-width:0.25" /><polyline
         points="310.955,26.79 310.955,26.348 312.105,26.348   "
         id="polyline8152"
         style="fill:none;stroke:#006f45;stroke-width:0.25" /><path
         d="M 304.858,27.656"
         id="path8154"
         inkscape:connector-curvature="0"
         style="fill:none;stroke:#00a651;stroke-width:0.25" /><polyline
         points="306.233,26.753 305.015,26.753 304.74,26.988 304.503,26.753     303.247,26.753 303.247,27.342   "
         id="polyline8156"
         style="fill:none;stroke:#006f45;stroke-width:0.25" /><polyline
         points="306.233,25.73 305.015,25.73 304.74,25.966 304.503,25.73     303.247,25.73 303.247,26.32   "
         id="polyline8158"
         style="fill:none;stroke:#006f45;stroke-width:0.25" /><polyline
         points="303.365,29.425 303.365,29.189 303.678,29.189   "
         id="polyline8160"
         style="fill:none;stroke:#006f45;stroke-width:0.25" /><polyline
         points="304.127,29.425 304.127,29.189 304.442,29.189   "
         id="polyline8162"
         style="fill:none;stroke:#006f45;stroke-width:0.25" /><polyline
         points="304.897,29.425 304.897,29.189 305.211,29.189   "
         id="polyline8164"
         style="fill:none;stroke:#006f45;stroke-width:0.25" /><polyline
         points="305.7,29.425 305.7,29.189 306.014,29.189   "
         id="polyline8166"
         style="fill:none;stroke:#006f45;stroke-width:0.25" /><polyline
         points="303.364,28.678 303.364,28.442 303.678,28.442   "
         id="polyline8168"
         style="fill:none;stroke:#006f45;stroke-width:0.25" /><polyline
         points="304.127,28.678 304.127,28.442 304.442,28.442   "
         id="polyline8170"
         style="fill:none;stroke:#006f45;stroke-width:0.25" /><polyline
         points="301.546,26.753 301.546,26.517 301.861,26.517   "
         id="polyline8172"
         style="fill:none;stroke:#006f45;stroke-width:0.25" /><polyline
         points="302.31,26.753 302.31,26.517 302.625,26.517   "
         id="polyline8174"
         style="fill:none;stroke:#006f45;stroke-width:0.25" /><polyline
         points="301.546,26.006 301.546,25.77 301.861,25.77   "
         id="polyline8176"
         style="fill:none;stroke:#006f45;stroke-width:0.25" /><polyline
         points="302.31,26.006 302.31,25.77 302.625,25.77   "
         id="polyline8178"
         style="fill:none;stroke:#006f45;stroke-width:0.25" /><polyline
         points="304.897,28.678 304.897,28.442 305.211,28.442   "
         id="polyline8180"
         style="fill:none;stroke:#006f45;stroke-width:0.25" /><polyline
         points="305.7,28.678 305.7,28.442 306.014,28.442   "
         id="polyline8182"
         style="fill:none;stroke:#006f45;stroke-width:0.25" /></g><g
       id="g8184"><polyline
         points="197.422,146.712 197.422,117.265 318.903,117.265 318.903,26.838 316.18,26.838       "
         id="polyline8186"
         style="fill:none;stroke:#000000" /></g><polyline
       points="183.932,146.712 183.867,26.838 175.333,26.838  "
       id="polyline8188"
       style="fill:none;stroke:#000000" /><g
       id="g8190"><polyline
         points="170.421,146.712 170.421,117.234 48.902,117.234 48.902,26.838 45.851,26.838       "
         id="polyline8192"
         style="fill:none;stroke:#000000" /></g><g
       id="g8194"><g
         id="g8196"><polygon
           points="199.518,150.761 199.977,150.12 201.022,149.952 201.022,151.051 "
           id="polygon8198"
           style="fill:#3d3d3d" /><polygon
           points="192.84,156.488 193.146,158.446 194.567,157.02 194.567,155.714 "
           id="polygon8200"
           style="fill:#3d3d42" /><polygon
           points="189.168,157.647 189.149,156.563 193.124,157.366 193.146,158.446 "
           id="polygon8202"
           style="fill:#cdcccd" /><polygon
           points="201.022,151.051 201.022,149.952 202.238,148.7 202.238,149.798 "
           id="polygon8204"
           style="fill:#3d3d42" /><polygon
           points="169.614,153.575 173.387,149.785 169.313,151.616 "
           id="polygon8206"
           style="fill:#3d3d3d" /><polygon
           points="165.639,152.773 165.622,151.692 169.594,152.493 169.614,153.575 "
           id="polygon8208"
           style="fill:#cdcccd" /><polygon
           points="165.363,151.864 165.363,143.14 193.426,148.969 193.426,157.693 "
           id="polygon8210"
           style="fill:#3d3d3d" /><polygon
           points="167.047,146.262 167.047,145.281 171.151,146.131 171.151,147.114 "
           id="polygon8212"
           style="fill:#cdcccd" /><polygon
           points="171.93,148.801 171.93,147.213 173.12,147.461 173.12,149.049 "
           id="polygon8214"
           style="fill:#ffffff" /><polygon
           points="173.934,149.218 173.934,147.631 175.124,147.876 175.124,149.465 "
           id="polygon8216"
           style="fill:#ffffff" /><polygon
           points="175.939,149.635 175.939,148.046 177.13,148.294 177.13,149.88 "
           id="polygon8218"
           style="fill:#ffffff" /><polygon
           points="177.946,150.052 177.946,148.464 179.135,148.71 179.135,150.297 "
           id="polygon8220"
           style="fill:#ffffff" /><polygon
           points="179.95,150.467 179.95,148.879 181.139,149.125 181.139,150.714 "
           id="polygon8222"
           style="fill:#ffffff" /><polygon
           points="181.955,150.885 181.955,149.296 183.146,149.543 183.146,151.131 "
           id="polygon8224"
           style="fill:#ffffff" /><polygon
           points="183.961,151.3 183.961,149.714 185.151,149.96 185.151,151.547 "
           id="polygon8226"
           style="fill:#ffffff" /><polygon
           points="185.968,151.718 185.968,150.129 187.157,150.376 187.157,151.964 "
           id="polygon8228"
           style="fill:#ffffff" /><polygon
           points="187.973,152.134 187.973,150.545 189.162,150.793 189.162,152.382 "
           id="polygon8230"
           style="fill:#ffffff" /><polygon
           points="189.977,152.549 189.977,150.961 191.167,151.21 191.167,152.798 "
           id="polygon8232"
           style="fill:#ffffff" /><polygon
           points="171.93,151.103 171.93,149.515 173.12,149.763 173.12,151.349 "
           id="polygon8234"
           style="fill:#ffffff" /><polygon
           points="173.934,151.518 173.934,149.932 175.124,150.179 175.124,151.767 "
           id="polygon8236"
           style="fill:#ffffff" /><polygon
           points="175.939,151.936 175.939,150.347 177.13,150.595 177.13,152.182 "
           id="polygon8238"
           style="fill:#ffffff" /><polygon
           points="177.946,152.353 177.946,150.763 179.135,151.011 179.135,152.599 "
           id="polygon8240"
           style="fill:#ffffff" /><polygon
           points="179.95,152.769 179.95,151.18 181.139,151.429 181.139,153.016 "
           id="polygon8242"
           style="fill:#ffffff" /><polygon
           points="181.955,153.186 181.955,151.598 183.146,151.844 183.146,153.433 "
           id="polygon8244"
           style="fill:#ffffff" /><polygon
           points="183.961,153.603 183.961,152.013 185.151,152.262 185.151,153.848 "
           id="polygon8246"
           style="fill:#ffffff" /><polygon
           points="185.968,154.017 185.968,152.431 187.157,152.677 187.157,154.265 "
           id="polygon8248"
           style="fill:#ffffff" /><polygon
           points="187.973,154.434 187.973,152.846 189.162,153.095 189.162,154.682 "
           id="polygon8250"
           style="fill:#ffffff" /><polygon
           points="189.977,154.852 189.977,153.263 191.167,153.51 191.167,155.099 "
           id="polygon8252"
           style="fill:#ffffff" /><polygon
           points="202.482,148.942 202.482,140.272 193.426,148.969 193.426,157.693 "
           id="polygon8254"
           style="fill:#cdcccd" /><g
           id="g8256"><rect
             x="198.259"
             y="142.55299"
             transform="matrix(-0.6805,-0.7328,0.7328,-0.6805,225.5833,392.6737)"
             width="0.29899999"
             height="9.1969995"
             id="rect8258"
             style="fill:#ffffff" /><rect
             x="198.25999"
             y="144.42799"
             transform="matrix(-0.6837,-0.7297,0.7297,-0.6837,225.3128,395.7075)"
             width="0.29699999"
             height="9.198"
             id="rect8260"
             style="fill:#ffffff" /><rect
             x="198.258"
             y="146.25301"
             transform="matrix(-0.678,-0.7351,0.7351,-0.678,222.0458,398.9734)"
             width="0.30000001"
             height="9.2010002"
             id="rect8262"
             style="fill:#ffffff" /></g><polygon
           points="193.426,148.969 202.482,140.272 178.295,135.752 165.363,143.14 "
           id="polygon8264"
           style="fill:#ffffff" /></g><rect
         x="165.36301"
         y="135.752"
         width="37.118999"
         height="22.688999"
         id="rect8266"
         style="fill:none" /></g><g
       id="g8268"
       transform="matrix(1.0338239,0,0,1,-9.5159698,0)"><path
         d="m 266.339,6.441 15,21 -15,-15 v 0 c 0,2.486 -2.014,4.5 -4.499,4.5 h -49.502 c -2.484,0 -4.498,-2.014 -4.498,-4.5 v -6 c 0,-2.486 2.014,-4.5 4.498,-4.5 h 49.502 c 2.486,-0.001 4.499,2.014 4.499,4.5 z"
         id="path8270"
         inkscape:connector-curvature="0"
         style="fill:#f89f6d" /></g><g
       id="g8272"
       transform="matrix(1.0338239,0,0,1,-9.5159698,0)"><path
         d="m 266.339,27.441 15,2.999 -15,3 v 0 c 0,2.486 -2.014,4.5 -4.499,4.5 h -49.502 c -2.484,0 -4.498,-2.013 -4.498,-4.5 v -5.999 c 0,-2.485 2.014,-4.501 4.498,-4.501 h 49.502 c 2.486,0 4.499,2.016 4.499,4.501 z"
         id="path8274"
         inkscape:connector-curvature="0"
         style="fill:#b8dad4" /></g><g
       id="g8276"
       transform="matrix(1.0338239,0,0,1,-9.5159698,0)"><path
         d="m 266.339,48.442 15,-15.001 -15,21 v 0 c 0,2.486 -2.014,4.5 -4.499,4.5 h -49.502 c -2.484,0 -4.498,-2.014 -4.498,-4.5 v -5.998 c 0,-2.486 2.014,-4.502 4.498,-4.502 h 49.502 c 2.486,-0.001 4.499,2.015 4.499,4.501 z"
         id="path8278"
         inkscape:connector-curvature="0"
         style="fill:#b8dad4" /></g><g
       id="g8280"
       transform="matrix(1.0270591,0,0,1,-3.8008814,0)"><path
         d="m 125.466,6.441 15,21 -15,-15 v 0 c 0,2.486 -2.014,4.5 -4.499,4.5 H 71.465 c -2.484,0 -4.498,-2.014 -4.498,-4.5 v -6 c 0,-2.486 2.014,-4.5 4.498,-4.5 h 49.502 c 2.486,-0.001 4.499,2.014 4.499,4.5 z"
         id="path8282"
         inkscape:connector-curvature="0"
         style="fill:#f89f6d" /></g><g
       id="g8284"
       transform="matrix(1.0270591,0,0,1,-3.8008814,0)"><path
         d="m 125.466,27.441 15,2.999 -15,3 v 0 c 0,2.486 -2.014,4.5 -4.499,4.5 H 71.465 c -2.484,0 -4.498,-2.013 -4.498,-4.5 v -5.999 c 0,-2.485 2.014,-4.501 4.498,-4.501 h 49.502 c 2.486,0 4.499,2.016 4.499,4.501 z"
         id="path8286"
         inkscape:connector-curvature="0"
         style="fill:#b8dad4" /></g><g
       id="g8288"
       transform="matrix(1.0270591,0,0,1,-3.8008814,0)"><path
         d="m 125.466,48.442 15,-15.001 -15,21 v 0 c 0,2.486 -2.014,4.5 -4.499,4.5 H 71.465 c -2.484,0 -4.498,-2.014 -4.498,-4.5 v -5.998 c 0,-2.486 2.014,-4.502 4.498,-4.502 h 49.502 c 2.486,-0.001 4.499,2.015 4.499,4.501 z"
         id="path8290"
         inkscape:connector-curvature="0"
         style="fill:#b8dad4" /></g></g><g
     id="Text"
     transform="matrix(1.5712869,0,0,1.5712869,7.7145906,15.340752)"><text
       font-size="8"
       id="text8295"
       style="font-size:12px;line-height:0%;font-family:ArialMT"
       x="-5.0913682"
       y="-1.0502861">Web Server 1</text>
<text
       font-size="8"
       id="text8297"
       style="font-size:12px;line-height:0%;font-family:ArialMT"
       x="130.2368"
       y="-1.0502861">Web Server 2</text>
<text
       font-size="8"
       id="text8299"
       style="font-size:12px;line-height:0%;font-family:ArialMT"
       x="266.01859"
       y="-1.0502861">Web Server 3</text>
<g
       id="g8307"
       transform="translate(-6.8614139,1.272842)"><text
         transform="translate(216.7339,12.1914)"
         font-size="8"
         id="text8309"
         style="font-size:12px;line-height:0%;font-family:ArialMT">Web Site B</text>
</g><g
       id="g8311"
       transform="translate(-6.8614139,1.272842)"><text
         transform="translate(216.7339,33.1924)"
         font-size="8"
         id="text8313"
         style="font-size:12px;line-height:0%;font-family:ArialMT">Web Site E</text>
</g><g
       id="g8315"
       transform="translate(-6.8614139,1.272842)"><text
         transform="translate(217.1831,54.1924)"
         font-size="8"
         id="text8317"
         style="font-size:12px;line-height:0%;font-family:ArialMT">Web Site F</text>
</g><g
       id="g8319"
       transform="translate(-6.5272758,1.272842)"><text
         transform="translate(75.8604,12.1914)"
         font-size="8"
         id="text8321"
         style="font-size:12px;line-height:0%;font-family:ArialMT">Web Site A</text>
</g><g
       id="g8323"
       transform="translate(-6.0857758,1.272842)"><text
         transform="translate(75.4189,33.1924)"
         font-size="8"
         id="text8325"
         style="font-size:12px;line-height:0%;font-family:ArialMT">Web Site C</text>
</g><g
       id="g8327"
       transform="translate(-6.0857758,1.272842)"><text
         transform="translate(75.4189,54.1924)"
         font-size="8"
         id="text8329"
         style="font-size:12px;line-height:0%;font-family:ArialMT">Web Site D</text>
</g><g
       transform="matrix(0.80428164,0,0,0.80428151,-9.7697521,34.985606)"
       id="g7288"><text
         y="168.7061"
         x="202.8726"
         style="font-size:12px;line-height:0%;font-family:ArialMT"
         id="text9124"
         font-size="8">Fibre Channel</text>
<text
         y="181.97394"
         x="222.78001"
         style="font-size:12px;line-height:0%;font-family:ArialMT"
         id="text9124-3"
         font-size="8">Switch</text>
</g><text
       style="font-size:9.65137863px;line-height:0%"
       id="text9132"
       x="240.9119"
       y="179.28113"><tspan
         x="240.9119"
         y="179.28113"
         font-size="8"
         id="tspan9134"
         style="font-size:9.65137863px;font-family:ArialMT">Shared Storage</tspan></text>
</g></svg>