<?xml version="1.0" encoding="UTF-8" standalone="no"?>
<!-- Generator: Adobe Illustrator 14.0.0, SVG Export Plug-In . SVG Version: 6.00 Build 43363)  -->

<svg
   xmlns:v="http://schemas.microsoft.com/visio/2003/SVGExtensions/"
   xmlns:dc="http://purl.org/dc/elements/1.1/"
   xmlns:cc="http://creativecommons.org/ns#"
   xmlns:rdf="http://www.w3.org/1999/02/22-rdf-syntax-ns#"
   xmlns:svg="http://www.w3.org/2000/svg"
   xmlns="http://www.w3.org/2000/svg"
   xmlns:sodipodi="http://sodipodi.sourceforge.net/DTD/sodipodi-0.dtd"
   xmlns:inkscape="http://www.inkscape.org/namespaces/inkscape"
   version="1.1"
   id="Layer_1"
   x="0px"
   y="0px"
   width="212px"
   height="227.176px"
   viewBox="0 0 159 170.383"
   enable-background="new 0 0 159 170.383"
   xml:space="preserve"
   inkscape:version="0.48.1 "
   sodipodi:docname="webserver_groupresource_a.svg"><metadata
   id="metadata520"><rdf:RDF><cc:Work
       rdf:about=""><dc:format>image/svg+xml</dc:format><dc:type
         rdf:resource="http://purl.org/dc/dcmitype/StillImage" /></cc:Work></rdf:RDF></metadata><defs
   id="defs518" /><sodipodi:namedview
   pagecolor="#ffffff"
   bordercolor="#666666"
   borderopacity="1"
   objecttolerance="10"
   gridtolerance="10"
   guidetolerance="10"
   inkscape:pageopacity="0"
   inkscape:pageshadow="2"
   inkscape:window-width="1920"
   inkscape:window-height="1033"
   id="namedview516"
   showgrid="false"
   inkscape:zoom="3.2121977"
   inkscape:cx="162.49679"
   inkscape:cy="111.77359"
   inkscape:window-x="-4"
   inkscape:window-y="-4"
   inkscape:window-maximized="1"
   inkscape:current-layer="group23-41" />
<v:documentProperties
   v:metric="true"
   v:langID="1041" />
<g
   id="g3">
	<title
   id="title5">svg2</title>
	<v:pageProperties
   v:pageScale="1"
   v:drawingScale="1"
   v:shadowOffsetY="-8.99998"
   v:shadowOffsetX="8.99998"
   v:drawingUnits="19">
		</v:pageProperties>
	<g
   id="group1-1"
   transform="translate(8.99998,-78.2135)">
		<title
   id="title8">base</title>
		<g
   id="shape2-2"
   transform="translate(27,-38.6248)">
			<title
   id="title11">path5</title>
			<path
   fill="#D2D3D4"
   d="M91.5,167.01c0,1.86-1.51,3.37-3.37,3.37H3.37c-1.86,0-3.37-1.51-3.37-3.37v-46.8     c0-1.86,1.51-3.38,3.37-3.38h84.76c1.86,0,3.37,1.52,3.37,3.38V167.01z"
   id="path13" />
		</g>
		<g
   id="shape3-4"
   transform="translate(33.6958,-45.3181)">
			<title
   id="title16">circle11</title>
			<ellipse
   fill="#629E1F"
   cx="10.769"
   cy="159.614"
   rx="10.769"
   ry="10.769"
   id="ellipse18"
   d="m 21.538,159.614 c 0,5.94755 -4.821445,10.769 -10.769,10.769 C 4.8214456,170.383 0,165.56155 0,159.614 c 0,-5.94756 4.8214456,-10.769 10.769,-10.769 5.947555,0 10.769,4.82144 10.769,10.769 z" />
		</g>
		<g
   id="group4-6"
   transform="translate(36.4325,-52.5673)">
			<title
   id="title21">g13</title>
			<g
   id="shape5-7"
   transform="translate(0,-0.000749998)">
				<title
   id="title24">path15</title>
				<path
   fill="#FFFFFF"
   d="M1.95,168.95l-0.55,1.43H0l2.65-6.96h1.02l2.58,6.96H4.83l-0.52-1.43H1.95z M3.1,165.4H3.08l-0.75,2.47      h1.61L3.1,165.4z"
   id="path26" />
			</g>
			<g
   id="shape6-9"
   transform="translate(6.97498,5.68434E-014)">
				<title
   id="title29">path17</title>
				<path
   fill="#FFFFFF"
   d="M1.32,170.38H0v-6.78H1.8c1.42,0,2.35,0.561,2.35,2.101c0,1.439-0.78,2.14-2.17,2.14H1.32V170.38z       M1.32,166.75H1.59c0.79,0,1.21-0.18,1.21-1.061c0-0.869-0.511-1-1.24-1H1.32V166.75z"
   id="path31" />
			</g>
			<g
   id="shape7-11"
   transform="translate(12.0503,5.68434E-014)">
				<title
   id="title34">path19</title>
				<path
   fill="#FFFFFF"
   d="M1.32,170.38H0v-6.78h1.8c1.42,0,2.35,0.561,2.35,2.101c0,1.439-0.78,2.14-2.17,2.14H1.32V170.38z       M1.32,166.75H1.59c0.79,0,1.21-0.18,1.21-1.061c0-0.869-0.51-1-1.24-1H1.32V166.75z"
   id="path36" />
			</g>
		</g>
		<g
   id="shape8-13"
   transform="translate(61.9821,-45.3181)">
			<title
   id="title39">circle29</title>
			<ellipse
   fill="#E67814"
   cx="10.769"
   cy="159.614"
   rx="10.769"
   ry="10.769"
   id="ellipse41"
   d="m 21.538,159.614 c 0,5.94755 -4.821445,10.769 -10.769,10.769 C 4.8214456,170.383 0,165.56155 0,159.614 c 0,-5.94756 4.8214456,-10.769 10.769,-10.769 5.947555,0 10.769,4.82144 10.769,10.769 z" />
		</g>
		<g
   id="group9-15"
   transform="translate(64.7188,-52.5673)">
			<title
   id="title44">g31</title>
			<g
   id="shape10-16"
   transform="translate(0,-0.000749998)">
				<title
   id="title47">path33</title>
				<path
   fill="#FFFFFF"
   d="M1.95,168.95l-0.55,1.43H0l2.65-6.96h1.02l2.58,6.96H4.83l-0.52-1.43H1.95z M3.1,165.4H3.08l-0.75,2.47      h1.61L3.1,165.4z"
   id="path49" />
			</g>
			<g
   id="shape11-18"
   transform="translate(6.97498,5.68434E-014)">
				<title
   id="title52">path35</title>
				<path
   fill="#FFFFFF"
   d="M1.32,170.38H0v-6.78h1.8c1.42,0,2.35,0.561,2.35,2.101c0,1.439-0.779,2.14-2.17,2.14H1.32V170.38z       M1.32,166.75H1.59c0.79,0,1.21-0.18,1.21-1.061c0-0.869-0.51-1-1.24-1H1.32V166.75z"
   id="path54" />
			</g>
			<g
   id="shape12-20"
   transform="translate(12.051,5.68434E-014)">
				<title
   id="title57">path37</title>
				<path
   fill="#FFFFFF"
   d="M1.32,170.38H0v-6.78h1.8c1.42,0,2.35,0.561,2.35,2.101c0,1.439-0.78,2.14-2.17,2.14H1.32V170.38z       M1.32,166.75H1.59c0.79,0,1.21-0.18,1.21-1.061c0-0.869-0.511-1-1.24-1H1.32V166.75z"
   id="path59" />
			</g>
		</g>
		<g
   id="shape13-22"
   transform="translate(90.2691,-45.3181)">
			<title
   id="title62">circle43</title>
			<ellipse
   fill="#1C82B9"
   cx="10.769"
   cy="159.614"
   rx="10.769"
   ry="10.769"
   id="ellipse64"
   d="m 21.538,159.614 c 0,5.94755 -4.821445,10.769 -10.769,10.769 C 4.8214456,170.383 0,165.56155 0,159.614 c 0,-5.94756 4.8214456,-10.769 10.769,-10.769 5.947555,0 10.769,4.82144 10.769,10.769 z" />
		</g>
		<g
   id="group14-24"
   transform="translate(93.0058,-52.5673)">
			<title
   id="title67">g45</title>
			<g
   id="shape15-25"
   transform="translate(0,-0.000749998)">
				<title
   id="title70">path47</title>
				<path
   fill="#FFFFFF"
   d="M1.95,168.95l-0.55,1.43H0l2.65-6.96h1.02l2.58,6.96H4.83l-0.52-1.43H1.95z M3.1,165.4H3.08l-0.75,2.47      h1.61L3.1,165.4z"
   id="path72" />
			</g>
			<g
   id="shape16-27"
   transform="translate(6.97498,5.68434E-014)">
				<title
   id="title75">path49</title>
				<path
   fill="#FFFFFF"
   d="M1.32,170.38H0v-6.78h1.8c1.42,0,2.35,0.561,2.35,2.101c0,1.439-0.78,2.14-2.17,2.14H1.32V170.38z       M1.32,166.75H1.59c0.79,0,1.21-0.18,1.21-1.061c0-0.869-0.51-1-1.24-1H1.32V166.75z"
   id="path77" />
			</g>
			<g
   id="shape17-29"
   transform="translate(12.051,5.68434E-014)">
				<title
   id="title80">path51</title>
				<path
   fill="#FFFFFF"
   d="M1.32,170.38H0v-6.78H1.8c1.42,0,2.35,0.561,2.35,2.101c0,1.439-0.78,2.14-2.17,2.14H1.32V170.38z       M1.32,166.75H1.59c0.79,0,1.21-0.18,1.21-1.061c0-0.869-0.511-1-1.24-1H1.32V166.75z"
   id="path82" />
			</g>
		</g>
		<g
   id="shape18-31"
   transform="translate(35.6248,4.54747E-013)">
			<title
   id="title85">path53</title>
			<path
   fill="#629E1F"
   fill-opacity="0.5"
   d="M74.25,167.01c0,1.86-1.51,3.37-3.38,3.37H3.37c-1.86,0-3.37-1.51-3.37-3.37v-18.38     c0-1.86,1.51-3.37,3.37-3.37h67.5c1.87,0,3.38,1.51,3.38,3.37V167.01z"
   id="path87" />
		</g>
		<g
   id="group19-33"
   transform="translate(0,-12.5625)">
			<title
   id="title90">line55</title>
			<g
   id="shape20-34">
				<title
   id="title93">Sheet.20</title>
				<path
   fill="none"
   d="M0,170.38h26.5H0z"
   id="path95" />
			</g>
			<g
   id="shape21-36">
				<title
   id="title98">Sheet.21</title>
				<path
   fill="none"
   d="M0,170.38h26.5H0z"
   id="path100" />
				<path
   fill="none"
   stroke="#666666"
   stroke-width="1.5"
   stroke-miterlimit="3"
   d="M0,170.38h26.5"
   id="path102" />
			</g>
		</g>
		<g
   id="shape22-39"
   transform="translate(24.1305,-10.1903)">
			<title
   id="title105">polygon57</title>
			<path
   fill="#666666"
   d="M0,165.64v4.74l4.74-2.37L0,165.64z"
   id="path107" />
		</g>
	</g>
	<g
   id="group23-41"
   transform="translate(0,-0.00524717)">
		<title
   id="title110">text</title>
		<g
   id="shape24-42"
   transform="translate(59.1119,-155.995)">
			<title
   id="title113">text60</title>
			<desc
   id="desc115">Web</desc>
			<v:userDefs />
			<v:textBlock
   v:margins="rect(0,0,0,0)" />
			<v:textRect
   width="42.19"
   height="3"
   cy="168.882"
   cx="21.069" />
			<rect
   x="0"
   y="167.382"
   fill="none"
   width="42.138"
   height="3"
   id="rect117" />
			<g
   enable-background="new    "
   id="g119">
				<path
   d="M4.113,167.13l-1.14-4.295h0.583l0.653,2.815c0.07,0.295,0.131,0.588,0.182,0.879c0.109-0.459,0.174-0.724,0.193-0.794      l0.817-2.9h0.686l0.615,2.174c0.154,0.539,0.266,1.046,0.334,1.521c0.055-0.271,0.126-0.583,0.214-0.935l0.674-2.76h0.571      l-1.178,4.295H6.77l-0.905-3.272c-0.076-0.273-0.121-0.441-0.135-0.504c-0.045,0.197-0.087,0.365-0.126,0.504l-0.911,3.272      H4.113z"
   id="path121" />
				<path
   d="M10.98,166.128l0.545,0.067c-0.086,0.318-0.245,0.565-0.478,0.741s-0.529,0.264-0.891,0.264      c-0.455,0-0.816-0.14-1.083-0.42s-0.4-0.674-0.4-1.18c0-0.523,0.135-0.93,0.404-1.219s0.619-0.434,1.049-0.434      c0.416,0,0.756,0.142,1.02,0.425s0.396,0.682,0.396,1.195c0,0.031-0.001,0.078-0.003,0.141h-2.32      c0.02,0.342,0.116,0.604,0.29,0.785s0.391,0.272,0.65,0.272c0.193,0,0.358-0.051,0.495-0.152S10.9,166.351,10.98,166.128z       M9.249,165.275h1.737c-0.023-0.262-0.09-0.458-0.199-0.589c-0.168-0.203-0.386-0.305-0.653-0.305      c-0.242,0-0.446,0.081-0.611,0.243S9.266,165.004,9.249,165.275z"
   id="path123" />
				<path
   d="M12.673,167.13h-0.489v-4.295h0.527v1.532c0.223-0.279,0.507-0.419,0.853-0.419c0.191,0,0.373,0.039,0.543,0.116      s0.312,0.186,0.422,0.325s0.197,0.308,0.259,0.505s0.094,0.408,0.094,0.633c0,0.533-0.132,0.945-0.396,1.236      s-0.58,0.437-0.949,0.437c-0.367,0-0.655-0.153-0.864-0.46V167.13z M12.668,165.551c0,0.373,0.051,0.643,0.152,0.809      c0.166,0.271,0.391,0.407,0.674,0.407c0.23,0,0.43-0.1,0.598-0.3s0.252-0.499,0.252-0.896c0-0.406-0.081-0.706-0.242-0.899      s-0.356-0.29-0.584-0.29c-0.23,0-0.43,0.101-0.598,0.301S12.668,165.172,12.668,165.551z"
   id="path125" />
			</g>
			<g
   enable-background="new    "
   id="g127">
				<path
   d="M15.568,164.161c0.066,0.074,0.168,0.111,0.305,0.111c0.055,0,0.336-0.035,0.844-0.105      c0.063-0.012,0.133-0.025,0.211-0.041c-0.008-0.652-0.029-1.018-0.064-1.096c-0.027-0.082-0.084-0.135-0.17-0.158v-0.076      c0.227,0,0.373,0.031,0.439,0.094c0.051,0.043,0.076,0.098,0.076,0.164v0.281c-0.012,0.105-0.02,0.355-0.023,0.75      c0.371-0.051,0.883-0.107,1.535-0.17c0.008-0.293,0.012-0.625,0.012-0.996c0-0.223-0.078-0.373-0.234-0.451v-0.064      c0.207,0,0.354,0.025,0.439,0.076c0.07,0.039,0.105,0.113,0.105,0.223c0,0.457-0.006,0.852-0.018,1.184      c0.07-0.008,0.143-0.014,0.217-0.018c0.43-0.059,0.744-0.088,0.943-0.088c0.152,0,0.271,0.031,0.357,0.094      c0.074,0.039,0.111,0.094,0.111,0.164c0,0.051-0.037,0.076-0.111,0.076h-0.469c-0.332,0-0.686,0.014-1.061,0.041      c-0.016,0.285-0.035,0.518-0.059,0.697c-0.039,0.379-0.109,0.711-0.211,0.996c-0.102,0.305-0.225,0.559-0.369,0.762      c-0.23,0.313-0.516,0.619-0.855,0.92l-0.053-0.047c0.379-0.402,0.646-0.752,0.803-1.049c0.125-0.242,0.219-0.51,0.281-0.803      c0.074-0.289,0.117-0.553,0.129-0.791c0.016-0.18,0.027-0.4,0.035-0.662c-0.09,0.008-0.182,0.016-0.275,0.023      c-0.512,0.051-0.93,0.1-1.254,0.146c0,0.082,0,0.166,0,0.252c0,0.254,0.002,0.455,0.006,0.604      c0.012,0.082,0.018,0.193,0.018,0.334c0,0.098-0.018,0.172-0.053,0.223c-0.027,0.039-0.055,0.059-0.082,0.059      c-0.039,0-0.08-0.027-0.123-0.082c-0.047-0.094-0.07-0.176-0.07-0.246c0-0.035,0.004-0.102,0.012-0.199      c0.016-0.082,0.027-0.313,0.035-0.691c0-0.07,0-0.137,0-0.199c-0.105,0.02-0.197,0.039-0.275,0.059      c-0.387,0.094-0.623,0.141-0.709,0.141c-0.078,0-0.15-0.02-0.217-0.059c-0.066-0.051-0.143-0.17-0.229-0.357L15.568,164.161z"
   id="path129" />
				<path
   d="M21.638,164.788c0.07,0.098,0.197,0.146,0.381,0.146c0.23,0,0.49-0.02,0.779-0.059c0.395-0.055,1.164-0.127,2.309-0.217      c0.324-0.02,0.598-0.029,0.82-0.029c0.246,0,0.414,0.025,0.504,0.076c0.105,0.059,0.158,0.119,0.158,0.182      c0,0.059-0.078,0.088-0.234,0.088c-0.078,0-0.16-0.004-0.246-0.012c-0.105-0.008-0.281-0.012-0.527-0.012      c-1.031,0.008-1.904,0.074-2.619,0.199c-0.508,0.086-0.814,0.129-0.92,0.129c-0.148,0-0.256-0.039-0.322-0.117      c-0.07-0.074-0.121-0.174-0.152-0.299L21.638,164.788z"
   id="path131" />
				<path
   d="M29.161,163.622c0.328,0.129,0.492,0.252,0.492,0.369c0,0.082-0.045,0.191-0.135,0.328      c-0.191,0.32-0.479,0.688-0.861,1.102c-0.328,0.363-0.66,0.652-0.996,0.867l-0.023-0.047c0.512-0.469,0.979-1.09,1.4-1.863      c0.129-0.23,0.193-0.396,0.193-0.498c0-0.07-0.039-0.135-0.117-0.193L29.161,163.622z M31.019,163.622      c0.344,0.336,0.666,0.732,0.967,1.189c0.355,0.492,0.533,0.898,0.533,1.219c0,0.188-0.055,0.281-0.164,0.281      c-0.098,0-0.164-0.07-0.199-0.211c-0.141-0.527-0.307-0.967-0.498-1.318c-0.203-0.398-0.441-0.77-0.715-1.113L31.019,163.622z       M31.089,162.515c0.219,0.031,0.426,0.121,0.621,0.27c0.16,0.133,0.24,0.264,0.24,0.393c0,0.043-0.014,0.082-0.041,0.117      c-0.027,0.047-0.066,0.07-0.117,0.07c-0.059,0-0.107-0.051-0.146-0.152c-0.145-0.273-0.338-0.49-0.58-0.65L31.089,162.515z       M31.622,162.38c0.234,0.027,0.455,0.107,0.662,0.24c0.172,0.113,0.258,0.227,0.258,0.34c0,0.047-0.016,0.088-0.047,0.123      c-0.027,0.047-0.068,0.07-0.123,0.07s-0.105-0.047-0.152-0.141c-0.152-0.246-0.357-0.443-0.615-0.592L31.622,162.38z"
   id="path133" />
				<path
   d="M35.261,162.468c0.309,0.121,0.463,0.238,0.463,0.352c0,0.09-0.049,0.219-0.146,0.387      c0.078,0.023,0.182,0.035,0.311,0.035c0.18,0,0.34-0.016,0.48-0.047c0.234-0.051,0.43-0.104,0.586-0.158      c0.066-0.02,0.125-0.029,0.176-0.029c0.047,0,0.125,0.051,0.234,0.152c0.113,0.078,0.17,0.146,0.17,0.205      c0,0.008-0.016,0.039-0.047,0.094c-0.082,0.07-0.223,0.283-0.422,0.639c-0.453,0.777-0.871,1.393-1.254,1.846      c-0.43,0.492-1.02,1-1.77,1.523l-0.023-0.047c0.559-0.496,1.045-1.006,1.459-1.529c0.43-0.516,0.779-1.02,1.049-1.512      c0.328-0.602,0.492-0.932,0.492-0.99c0-0.051-0.025-0.076-0.076-0.076c-0.18,0.016-0.404,0.055-0.674,0.117      c-0.223,0.047-0.404,0.07-0.545,0.07c-0.113,0-0.201-0.041-0.264-0.123c-0.039,0.059-0.082,0.117-0.129,0.176      c-0.355,0.477-0.803,0.951-1.342,1.424l-0.047-0.023c0.441-0.492,0.793-0.955,1.055-1.389c0.234-0.383,0.352-0.654,0.352-0.814      c0-0.086-0.047-0.156-0.141-0.211L35.261,162.468z M37.323,162.444c0.211,0.035,0.412,0.129,0.604,0.281      c0.156,0.137,0.234,0.271,0.234,0.404c0,0.043-0.014,0.082-0.041,0.117c-0.023,0.043-0.064,0.064-0.123,0.064      c-0.051,0-0.096-0.049-0.135-0.146c-0.141-0.285-0.328-0.51-0.563-0.674L37.323,162.444z M37.862,162.304      c0.223,0.027,0.438,0.107,0.645,0.24c0.16,0.121,0.24,0.238,0.24,0.352c0,0.043-0.014,0.082-0.041,0.117      c-0.027,0.043-0.066,0.064-0.117,0.064c-0.055,0-0.105-0.045-0.152-0.135c-0.148-0.25-0.348-0.447-0.598-0.592L37.862,162.304z"
   id="path135" />
			</g>
			<g
   enable-background="new    "
   id="g137">
				<path
   d="M1.635,170.893c0.344,0.035,0.516,0.121,0.516,0.258c0,0.191-0.09,0.561-0.27,1.107c-0.203,0.59-0.629,1.25-1.277,1.98      l-0.07-0.041c0.23-0.305,0.438-0.652,0.621-1.043c0.203-0.387,0.361-0.797,0.475-1.23c0.086-0.301,0.129-0.529,0.129-0.686      c0-0.148-0.057-0.242-0.17-0.281L1.635,170.893z M2.83,170.207c0.375,0.055,0.563,0.18,0.563,0.375      c0,0.078-0.006,0.166-0.018,0.264L3.311,173.4c-0.008,0.082-0.012,0.135-0.012,0.158c0,0.066,0.023,0.1,0.07,0.1      c0.023,0,0.094-0.039,0.211-0.117c0.703-0.434,1.367-0.967,1.992-1.6l0.047,0.047c-0.578,0.734-1.209,1.35-1.893,1.846      c-0.098,0.074-0.184,0.162-0.258,0.264c-0.066,0.078-0.123,0.117-0.17,0.117c-0.051,0-0.102-0.031-0.152-0.094l-0.129-0.205      c-0.043-0.066-0.064-0.123-0.064-0.17c0-0.031,0.008-0.074,0.023-0.129c0.031-0.105,0.047-0.789,0.047-2.051      c0-0.633-0.012-0.994-0.035-1.084c-0.035-0.121-0.104-0.189-0.205-0.205L2.83,170.207z"
   id="path139" />
				<path
   d="M6.58,172.035c0.07,0.098,0.197,0.146,0.381,0.146c0.23,0,0.49-0.02,0.779-0.059c0.395-0.055,1.164-0.127,2.309-0.217      c0.324-0.02,0.598-0.029,0.82-0.029c0.246,0,0.414,0.025,0.504,0.076c0.105,0.059,0.158,0.119,0.158,0.182      c0,0.059-0.078,0.088-0.234,0.088c-0.078,0-0.16-0.004-0.246-0.012c-0.105-0.008-0.281-0.012-0.527-0.012      c-1.031,0.008-1.904,0.074-2.619,0.199c-0.508,0.086-0.814,0.129-0.92,0.129c-0.148,0-0.256-0.039-0.322-0.117      c-0.07-0.074-0.121-0.174-0.152-0.299L6.58,172.035z"
   id="path141" />
				<path
   d="M12.393,170.535c0.055,0.082,0.195,0.123,0.422,0.123c0.305,0,1.207-0.092,2.707-0.275      c0.277-0.035,0.488-0.08,0.633-0.135c0.055-0.027,0.092-0.041,0.111-0.041c0.039,0,0.107,0.051,0.205,0.152      c0.109,0.113,0.164,0.188,0.164,0.223c0,0.023-0.02,0.051-0.059,0.082c-0.035,0.039-0.088,0.117-0.158,0.234      c-0.359,0.668-0.686,1.18-0.979,1.535c-0.289,0.375-0.588,0.693-0.896,0.955c-0.535,0.492-1.08,0.893-1.635,1.201l-0.047-0.047      c0.633-0.453,1.197-0.965,1.693-1.535c0.57-0.637,1.035-1.311,1.395-2.021c0.098-0.18,0.146-0.289,0.146-0.328      c0-0.066-0.029-0.1-0.088-0.1c-0.086,0-0.244,0.021-0.475,0.064c-0.453,0.051-1.174,0.16-2.162,0.328      c-0.27,0.051-0.447,0.076-0.533,0.076c-0.16,0-0.279-0.043-0.357-0.129c-0.063-0.074-0.115-0.188-0.158-0.34L12.393,170.535z       M17.227,169.34c0.113,0,0.217,0.047,0.311,0.141c0.086,0.094,0.129,0.203,0.129,0.328c0,0.129-0.043,0.246-0.129,0.352      c-0.094,0.094-0.197,0.141-0.311,0.141c-0.129,0-0.242-0.045-0.34-0.135c-0.086-0.098-0.129-0.209-0.129-0.334      c0-0.129,0.043-0.244,0.129-0.346C16.984,169.389,17.098,169.34,17.227,169.34z M17.227,170.166      c0.078,0,0.152-0.037,0.223-0.111c0.055-0.07,0.082-0.152,0.082-0.246c0-0.086-0.033-0.164-0.1-0.234      c-0.059-0.063-0.127-0.094-0.205-0.094c-0.09,0-0.168,0.033-0.234,0.1c-0.066,0.074-0.1,0.158-0.1,0.252      c0,0.09,0.033,0.166,0.1,0.229C17.059,170.131,17.137,170.166,17.227,170.166z"
   id="path143" />
				<path
   d="M19.757,169.908c0.188,0,0.314,0.008,0.381,0.023c0.09,0.035,0.135,0.119,0.135,0.252c0,0.082-0.008,0.203-0.023,0.363      c-0.016,0.176-0.023,0.486-0.023,0.932v0.99c0,0.211-0.049,0.316-0.146,0.316c-0.055,0-0.107-0.033-0.158-0.1      c-0.035-0.063-0.053-0.123-0.053-0.182c0-0.121,0.012-0.25,0.035-0.387c0.023-0.227,0.035-0.627,0.035-1.201      c0-0.371-0.004-0.615-0.012-0.732c-0.012-0.141-0.084-0.211-0.217-0.211L19.757,169.908z M21.702,169.715h0.275      c0.219,0,0.328,0.094,0.328,0.281c0,0.078-0.004,0.164-0.012,0.258c-0.008,0.074-0.018,0.564-0.029,1.471      c0,0.617-0.08,1.109-0.24,1.477c-0.199,0.477-0.605,0.98-1.218,1.512l-0.064-0.047c0.542-0.609,0.894-1.172,1.054-1.688      c0.109-0.313,0.164-0.893,0.164-1.74c0-0.738-0.012-1.152-0.035-1.242c-0.016-0.129-0.09-0.199-0.223-0.211V169.715z"
   id="path145" />
				<path
   d="M25.071,170.4c0.359,0.223,0.635,0.451,0.826,0.686c0.137,0.168,0.205,0.32,0.205,0.457      c0,0.047-0.016,0.096-0.047,0.146c-0.039,0.043-0.078,0.064-0.117,0.064c-0.086,0-0.148-0.053-0.188-0.158      c-0.121-0.297-0.23-0.516-0.328-0.656c-0.102-0.188-0.227-0.346-0.375-0.475L25.071,170.4z M28.476,169.996      c0.254,0.078,0.412,0.143,0.475,0.193c0.043,0.047,0.064,0.1,0.064,0.158c0,0.066-0.102,0.285-0.305,0.656      c-0.262,0.48-0.504,0.889-0.727,1.225c-0.242,0.344-0.453,0.615-0.633,0.814c-0.543,0.617-1.176,1.15-1.898,1.6l-0.029-0.053      c0.598-0.465,1.139-0.992,1.623-1.582c0.441-0.543,0.822-1.127,1.143-1.752c0.281-0.543,0.422-0.854,0.422-0.932      c0-0.094-0.053-0.18-0.158-0.258L28.476,169.996z"
   id="path147" />
				<path
   d="M30.579,172.035c0.07,0.098,0.197,0.146,0.381,0.146c0.23,0,0.49-0.02,0.779-0.059c0.395-0.055,1.164-0.127,2.309-0.217      c0.324-0.02,0.598-0.029,0.82-0.029c0.246,0,0.414,0.025,0.504,0.076c0.105,0.059,0.158,0.119,0.158,0.182      c0,0.059-0.078,0.088-0.234,0.088c-0.078,0-0.16-0.004-0.246-0.012c-0.105-0.008-0.281-0.012-0.527-0.012      c-1.031,0.008-1.904,0.074-2.619,0.199c-0.508,0.086-0.814,0.129-0.92,0.129c-0.148,0-0.256-0.039-0.322-0.117      c-0.07-0.074-0.121-0.174-0.152-0.299L30.579,172.035z"
   id="path149" />
				<path
   d="M37.452,170.4c0.063,0.074,0.186,0.111,0.369,0.111c0.16,0,0.486-0.049,0.979-0.146c0.473-0.105,0.779-0.184,0.92-0.234      c0.266-0.105,0.414-0.158,0.445-0.158c0.063,0,0.158,0.053,0.287,0.158c0.105,0.09,0.158,0.162,0.158,0.217      c0,0.023-0.033,0.063-0.1,0.117c-0.09,0.07-0.254,0.316-0.492,0.738c-0.188,0.324-0.391,0.631-0.609,0.92      c0.699,0.504,1.182,0.922,1.447,1.254c0.293,0.34,0.439,0.59,0.439,0.75c0,0.105-0.049,0.158-0.146,0.158      c-0.09,0-0.172-0.064-0.246-0.193c-0.227-0.387-0.43-0.688-0.609-0.902c-0.211-0.281-0.52-0.619-0.926-1.014      c-0.168,0.219-0.342,0.426-0.521,0.621c-0.422,0.473-1.1,1.031-2.033,1.676l-0.023-0.064c0.816-0.664,1.418-1.236,1.805-1.717      c0.43-0.527,0.801-1.074,1.113-1.641c0.227-0.391,0.34-0.615,0.34-0.674c0-0.051-0.021-0.076-0.064-0.076      c-0.051,0-0.379,0.096-0.984,0.287c-0.59,0.188-0.99,0.281-1.201,0.281c-0.086,0-0.15-0.023-0.193-0.07      c-0.055-0.043-0.131-0.168-0.229-0.375L37.452,170.4z"
   id="path151" />
			</g>
			<v:paragraph
   v:horizAlign="1" />
			<v:tabList />
		</g>
		<g
   id="shape25-47"
   transform="translate(59.3881,-89.9949)">
			<title
   id="title154">text66</title>
			<desc
   id="desc156">IP(192.68.1.1.180)</desc>
			<v:userDefs />
			<v:textBlock
   v:margins="rect(0,0,0,0)" />
			<v:textRect
   width="47.78"
   height="3"
   cy="168.882"
   cx="23.8618" />
			<rect
   x="0"
   y="167.383"
   fill="none"
   width="47.723"
   height="3"
   id="rect158" />
			<g
   enable-background="new    "
   id="g160">
				<path
   d="M9.59,167.13v-4.295h0.568v4.295H9.59z"
   id="path162" />
				<path
   d="M11.16,167.13v-4.295h1.62c0.285,0,0.503,0.014,0.653,0.041c0.211,0.035,0.388,0.103,0.53,0.201      s0.257,0.236,0.344,0.414s0.13,0.373,0.13,0.586c0,0.365-0.116,0.675-0.349,0.928s-0.652,0.379-1.26,0.379h-1.102v1.746H11.16z       M11.728,164.877h1.11c0.367,0,0.628-0.068,0.782-0.205s0.231-0.329,0.231-0.577c0-0.18-0.045-0.333-0.136-0.461      s-0.21-0.213-0.359-0.254c-0.096-0.025-0.272-0.038-0.53-0.038h-1.099V164.877z"
   id="path164" />
			</g>
			<g
   enable-background="new    "
   id="g166">
				<path
   d="M15.654,162.895c0.059,0.105,0.176,0.158,0.352,0.158c0.098,0,0.451-0.051,1.061-0.152      c0.848-0.121,1.422-0.193,1.723-0.217c0.387-0.027,0.619-0.055,0.697-0.082c0.055-0.012,0.107-0.018,0.158-0.018      s0.127,0.053,0.229,0.158c0.078,0.102,0.117,0.174,0.117,0.217c0,0.031-0.037,0.066-0.111,0.105      c-0.078,0.031-0.324,0.223-0.738,0.574c-0.41,0.301-0.811,0.563-1.201,0.785c-0.055,0.281-0.242,0.703-0.563,1.266      c-0.34,0.582-0.813,1.133-1.418,1.652l-0.047-0.047c0.555-0.656,0.955-1.238,1.201-1.746c0.293-0.598,0.439-1.016,0.439-1.254      c0-0.082-0.061-0.184-0.182-0.305l0.041-0.064c0.328,0.09,0.506,0.193,0.533,0.311c0.359-0.238,0.695-0.504,1.008-0.797      c0.348-0.305,0.521-0.479,0.521-0.521c0-0.051-0.021-0.076-0.064-0.076c-0.148,0-0.461,0.037-0.938,0.111      c-0.73,0.109-1.299,0.209-1.705,0.299c-0.348,0.09-0.576,0.135-0.686,0.135c-0.203,0-0.367-0.15-0.492-0.451L15.654,162.895z"
   id="path168" />
				<path
   d="M22.832,162.38h0.164c0.293,0,0.439,0.131,0.439,0.393c0,0.211-0.008,0.408-0.023,0.592      c-0.008,0.137-0.014,0.375-0.018,0.715c0.281,0.074,0.561,0.178,0.838,0.311c0.336,0.164,0.592,0.336,0.768,0.516      c0.176,0.176,0.264,0.324,0.264,0.445c0,0.109-0.045,0.164-0.135,0.164c-0.094,0-0.18-0.043-0.258-0.129      c-0.348-0.391-0.637-0.67-0.867-0.838c-0.191-0.141-0.395-0.252-0.609-0.334c0,0.254,0,0.557,0,0.908      c0,1.141,0.004,1.748,0.012,1.822c0.004,0.121,0.006,0.223,0.006,0.305c0,0.063-0.021,0.135-0.064,0.217      c-0.035,0.059-0.076,0.088-0.123,0.088s-0.09-0.041-0.129-0.123c-0.039-0.086-0.059-0.184-0.059-0.293      c0-0.105,0.014-0.232,0.041-0.381c0.023-0.324,0.035-1.533,0.035-3.627c0-0.281-0.023-0.465-0.07-0.551      c-0.039-0.09-0.109-0.135-0.211-0.135V162.38z M24.59,162.515c0.215,0.031,0.416,0.125,0.604,0.281      c0.16,0.137,0.24,0.27,0.24,0.398c0,0.047-0.014,0.088-0.041,0.123c-0.027,0.047-0.07,0.07-0.129,0.07      c-0.051,0-0.096-0.051-0.135-0.152c-0.141-0.285-0.33-0.51-0.568-0.674L24.59,162.515z M25.176,162.38      c0.223,0.027,0.436,0.107,0.639,0.24c0.164,0.113,0.246,0.227,0.246,0.34c0,0.047-0.014,0.088-0.041,0.123      c-0.027,0.047-0.066,0.07-0.117,0.07c-0.059,0-0.109-0.047-0.152-0.141c-0.148-0.246-0.348-0.443-0.598-0.592L25.176,162.38z"
   id="path170" />
				<path
   d="M27.795,162.796c0.406,0.016,0.609,0.127,0.609,0.334c0,0.09-0.006,0.223-0.018,0.398      c-0.016,0.215-0.023,1.191-0.023,2.93c0,0.125,0.029,0.188,0.088,0.188c0.027,0,0.184-0.07,0.469-0.211      c0.637-0.301,1.266-0.672,1.887-1.113c0.578-0.418,1.006-0.76,1.283-1.025l0.07,0.076c-0.551,0.555-1.146,1.066-1.787,1.535      c-0.641,0.477-1.168,0.803-1.582,0.979c-0.117,0.051-0.227,0.119-0.328,0.205c-0.059,0.063-0.109,0.094-0.152,0.094      c-0.066,0-0.143-0.053-0.229-0.158c-0.066-0.086-0.1-0.152-0.1-0.199c0-0.039,0.008-0.096,0.023-0.17      c0.051-0.16,0.076-0.346,0.076-0.557c0-1.633-0.014-2.564-0.041-2.795c-0.023-0.258-0.113-0.402-0.27-0.434L27.795,162.796z"
   id="path172" />
				<path
   d="M34.081,163.153c0.063,0.074,0.186,0.111,0.369,0.111c0.16,0,0.486-0.049,0.979-0.146      c0.473-0.105,0.779-0.184,0.92-0.234c0.266-0.105,0.414-0.158,0.445-0.158c0.063,0,0.158,0.053,0.287,0.158      c0.105,0.09,0.158,0.162,0.158,0.217c0,0.023-0.033,0.063-0.1,0.117c-0.09,0.07-0.254,0.316-0.492,0.738      c-0.188,0.324-0.391,0.631-0.609,0.92c0.699,0.504,1.182,0.922,1.447,1.254c0.293,0.34,0.439,0.59,0.439,0.75      c0,0.105-0.049,0.158-0.146,0.158c-0.09,0-0.172-0.064-0.246-0.193c-0.227-0.387-0.43-0.688-0.609-0.902      c-0.211-0.281-0.52-0.619-0.926-1.014c-0.168,0.219-0.342,0.426-0.521,0.621c-0.422,0.473-1.1,1.031-2.033,1.676l-0.023-0.064      c0.816-0.664,1.418-1.236,1.805-1.717c0.43-0.527,0.801-1.074,1.113-1.641c0.227-0.391,0.34-0.615,0.34-0.674      c0-0.051-0.021-0.076-0.064-0.076c-0.051,0-0.379,0.096-0.984,0.287c-0.59,0.188-0.99,0.281-1.201,0.281      c-0.086,0-0.15-0.023-0.193-0.07c-0.055-0.043-0.131-0.168-0.229-0.375L34.081,163.153z"
   id="path174" />
			</g>
			<g
   transform="matrix(1 0 0 1 1.8504 174.3778)"
   style="font-size:5.99989986px;font-family:ArialMT"
   id="text176"><path
     d="M 1.4032969,1.2626742 C 1.112285,0.89549197 0.86619561,0.46581207 0.66502796,-0.02636675 0.46385898,-0.51854551 0.36327482,-1.0283021 0.36327519,-1.5556381 c -3.7e-7,-0.464834 0.0751936,-0.9101386 0.22558217,-1.3359152 0.17577755,-0.494129 0.44725714,-0.9863078 0.81443954,-1.4765379 l 0.3779234,0 c -0.2363258,0.4062472 -0.392573,0.6962812 -0.4687422,0.8701027 -0.1191398,0.26953 -0.2128882,0.550775 -0.2812453,0.8437359 -0.0839839,0.3652306 -0.12597538,0.7324116 -0.12597447,1.1015441 -9.1e-7,0.9394381 0.29198607,1.87789806 0.87596197,2.8153827 z"
     style="font-size:5.99989986px;font-family:ArialMT"
     id="path3274" /></g>

			<g
   id="g178">
				<path
   d="M6.084,174.378H5.556v-3.36c-0.127,0.121-0.293,0.242-0.5,0.363s-0.391,0.212-0.555,0.272v-0.51      c0.295-0.139,0.553-0.307,0.773-0.504s0.377-0.389,0.469-0.574h0.34V174.378z"
   id="path180" />
				<path
   d="M7.513,173.385l0.507-0.047c0.043,0.238,0.125,0.411,0.246,0.519s0.276,0.161,0.466,0.161      c0.162,0,0.304-0.037,0.426-0.111s0.222-0.173,0.3-0.297s0.144-0.292,0.196-0.503s0.079-0.426,0.079-0.645      c0-0.023-0.001-0.059-0.003-0.105c-0.105,0.168-0.25,0.305-0.432,0.409s-0.38,0.156-0.593,0.156      c-0.355,0-0.656-0.129-0.902-0.387s-0.369-0.598-0.369-1.02c0-0.436,0.128-0.786,0.385-1.052s0.579-0.398,0.965-0.398      c0.279,0,0.535,0.075,0.766,0.226s0.407,0.365,0.527,0.644s0.18,0.681,0.18,1.208c0,0.549-0.06,0.986-0.179,1.312      s-0.296,0.572-0.532,0.742s-0.511,0.255-0.828,0.255c-0.336,0-0.61-0.093-0.823-0.279S7.556,173.723,7.513,173.385z       M9.673,171.489c0-0.303-0.081-0.543-0.242-0.721s-0.355-0.267-0.582-0.267c-0.234,0-0.438,0.096-0.612,0.287      s-0.261,0.439-0.261,0.744c0,0.273,0.083,0.496,0.248,0.667s0.369,0.256,0.611,0.256c0.244,0,0.445-0.085,0.602-0.256      S9.673,171.792,9.673,171.489z"
   id="path182" />
				<path
   d="M13.543,173.871v0.507h-2.839c-0.004-0.127,0.017-0.249,0.062-0.366c0.072-0.193,0.188-0.384,0.347-0.571      s0.389-0.404,0.69-0.65c0.467-0.383,0.782-0.686,0.946-0.909s0.246-0.436,0.246-0.635c0-0.209-0.075-0.385-0.224-0.528      s-0.344-0.216-0.584-0.216c-0.254,0-0.457,0.076-0.609,0.229s-0.229,0.363-0.231,0.633l-0.542-0.056      c0.037-0.404,0.177-0.712,0.419-0.924s0.567-0.318,0.976-0.318c0.412,0,0.738,0.114,0.979,0.343s0.36,0.512,0.36,0.85      c0,0.172-0.035,0.341-0.105,0.507s-0.187,0.341-0.35,0.524s-0.434,0.436-0.813,0.756c-0.316,0.266-0.52,0.446-0.609,0.541      s-0.164,0.189-0.223,0.285H13.543z"
   id="path184" />
				<path
   d="M14.404,174.378v-0.601h0.601v0.601H14.404z"
   id="path186" />
				<path
   d="M18.512,171.135l-0.524,0.041c-0.047-0.207-0.113-0.357-0.199-0.451c-0.143-0.15-0.318-0.226-0.527-0.226      c-0.168,0-0.315,0.047-0.442,0.141c-0.166,0.121-0.297,0.298-0.393,0.53s-0.146,0.563-0.149,0.993      c0.127-0.193,0.282-0.337,0.466-0.431s0.376-0.141,0.577-0.141c0.352,0,0.651,0.13,0.898,0.389s0.371,0.593,0.371,1.003      c0,0.27-0.058,0.521-0.174,0.752s-0.276,0.408-0.479,0.531s-0.434,0.185-0.691,0.185c-0.439,0-0.798-0.161-1.075-0.484      s-0.416-0.856-0.416-1.599c0-0.83,0.153-1.434,0.46-1.811c0.268-0.328,0.628-0.492,1.081-0.492c0.338,0,0.615,0.095,0.831,0.284      S18.469,170.801,18.512,171.135z M16.358,172.986c0,0.182,0.039,0.355,0.116,0.521s0.185,0.293,0.324,0.38      s0.284,0.13,0.437,0.13c0.223,0,0.414-0.09,0.574-0.27s0.24-0.424,0.24-0.732c0-0.297-0.079-0.53-0.237-0.701      s-0.357-0.257-0.598-0.257c-0.238,0-0.44,0.086-0.606,0.257S16.358,172.709,16.358,172.986z"
   id="path188" />
				<path
   d="M19.923,172.049c-0.219-0.08-0.381-0.194-0.486-0.343s-0.158-0.326-0.158-0.533c0-0.313,0.112-0.575,0.337-0.788      s0.523-0.319,0.896-0.319c0.375,0,0.677,0.109,0.905,0.327s0.343,0.482,0.343,0.795c0,0.199-0.053,0.373-0.156,0.521      c-0.105,0.147-0.264,0.261-0.477,0.341c0.264,0.086,0.465,0.225,0.602,0.416c0.139,0.191,0.207,0.42,0.207,0.686      c0,0.367-0.13,0.676-0.39,0.926s-0.602,0.375-1.025,0.375s-0.766-0.125-1.025-0.376s-0.39-0.564-0.39-0.939      c0-0.279,0.071-0.513,0.212-0.701S19.661,172.117,19.923,172.049z M19.648,173.139c0,0.15,0.036,0.296,0.107,0.437      s0.177,0.25,0.318,0.327s0.292,0.115,0.454,0.115c0.252,0,0.46-0.081,0.624-0.243s0.246-0.368,0.246-0.618      c0-0.254-0.084-0.464-0.254-0.63c-0.168-0.166-0.38-0.249-0.634-0.249c-0.248,0-0.454,0.082-0.617,0.246      S19.648,172.892,19.648,173.139z M19.818,171.155c0,0.203,0.065,0.369,0.196,0.498s0.301,0.193,0.51,0.193      c0.203,0,0.369-0.063,0.5-0.191c0.129-0.128,0.194-0.285,0.194-0.471c0-0.193-0.067-0.355-0.2-0.487      c-0.135-0.132-0.301-0.198-0.5-0.198c-0.201,0-0.368,0.064-0.501,0.193S19.818,170.975,19.818,171.155z"
   id="path190" />
				<path
   d="M22.744,174.378v-0.601h0.601v0.601H22.744z"
   id="path192" />
				<path
   d="M26.102,174.378h-0.527v-3.36c-0.127,0.121-0.293,0.242-0.5,0.363c-0.205,0.121-0.391,0.212-0.555,0.272v-0.51      c0.295-0.139,0.553-0.307,0.773-0.504s0.377-0.389,0.469-0.574h0.34V174.378z"
   id="path194" />
				<path
   d="M27.748,174.378v-0.601h0.601v0.601H27.748z"
   id="path196" />
				<path
   d="M31.106,174.378h-0.527v-3.36c-0.127,0.121-0.293,0.242-0.5,0.363c-0.205,0.121-0.391,0.212-0.555,0.272v-0.51      c0.295-0.139,0.553-0.307,0.773-0.504s0.377-0.389,0.469-0.574h0.34V174.378z"
   id="path198" />
				<path
   d="M32.752,174.378v-0.601h0.601v0.601H32.752z"
   id="path200" />
				<path
   d="M36.11,174.378h-0.527v-3.36c-0.127,0.121-0.293,0.242-0.5,0.363c-0.205,0.121-0.391,0.212-0.555,0.272v-0.51      c0.295-0.139,0.553-0.307,0.773-0.504s0.377-0.389,0.469-0.574h0.34V174.378z"
   id="path202" />
				<path
   d="M38.272,172.049c-0.219-0.08-0.381-0.194-0.486-0.343s-0.158-0.326-0.158-0.533c0-0.313,0.112-0.575,0.337-0.788      s0.523-0.319,0.896-0.319c0.375,0,0.677,0.109,0.905,0.327s0.343,0.482,0.343,0.795c0,0.199-0.052,0.373-0.157,0.521      c-0.104,0.147-0.263,0.261-0.476,0.341c0.264,0.086,0.464,0.225,0.603,0.416c0.137,0.191,0.206,0.42,0.206,0.686      c0,0.367-0.13,0.676-0.39,0.926s-0.602,0.375-1.025,0.375s-0.766-0.125-1.025-0.376s-0.39-0.564-0.39-0.939      c0-0.279,0.071-0.513,0.212-0.701C37.809,172.246,38.01,172.117,38.272,172.049z M37.996,173.139      c0,0.15,0.035,0.296,0.107,0.437c0.07,0.141,0.177,0.25,0.317,0.327s0.292,0.115,0.454,0.115c0.252,0,0.46-0.081,0.624-0.243      s0.246-0.368,0.246-0.618c0-0.254-0.085-0.464-0.253-0.63c-0.17-0.166-0.381-0.249-0.635-0.249      c-0.248,0-0.453,0.082-0.617,0.246C38.078,172.687,37.996,172.892,37.996,173.139z M38.166,171.155      c0,0.203,0.065,0.369,0.196,0.498s0.301,0.193,0.51,0.193c0.203,0,0.37-0.063,0.499-0.191c0.131-0.128,0.195-0.285,0.195-0.471      c0-0.193-0.066-0.355-0.201-0.487c-0.133-0.132-0.3-0.198-0.499-0.198c-0.201,0-0.368,0.064-0.501,0.193      S38.166,170.975,38.166,171.155z"
   id="path204" />
				<path
   d="M40.797,172.26c0-0.508,0.053-0.916,0.156-1.226c0.105-0.31,0.26-0.549,0.467-0.717      c0.205-0.168,0.465-0.252,0.777-0.252c0.23,0,0.433,0.047,0.606,0.14s0.317,0.227,0.431,0.401s0.202,0.388,0.267,0.639      s0.097,0.589,0.097,1.015c0,0.504-0.052,0.911-0.155,1.221s-0.259,0.549-0.464,0.718c-0.207,0.169-0.467,0.253-0.781,0.253      c-0.414,0-0.739-0.148-0.976-0.445C40.939,173.648,40.797,173.066,40.797,172.26z M41.339,172.26      c0,0.705,0.083,1.175,0.247,1.408c0.166,0.233,0.369,0.35,0.611,0.35s0.445-0.117,0.611-0.352      c0.164-0.234,0.247-0.703,0.247-1.406c0-0.707-0.083-1.177-0.247-1.409c-0.166-0.232-0.371-0.349-0.617-0.349      c-0.242,0-0.436,0.103-0.58,0.308C41.43,171.071,41.339,171.555,41.339,172.26z"
   id="path206" />
				<path
   d="M44.626,175.641h-0.378c0.584-0.938,0.876-1.876,0.876-2.815c0-0.367-0.042-0.731-0.126-1.093      c-0.066-0.293-0.159-0.574-0.278-0.844c-0.076-0.176-0.233-0.469-0.472-0.879h0.378c0.367,0.49,0.639,0.982,0.814,1.477      c0.15,0.426,0.226,0.871,0.226,1.336c0,0.527-0.102,1.037-0.303,1.529C45.16,174.844,44.915,175.273,44.626,175.641z"
   id="path208" />
			</g>
			<v:paragraph
   v:horizAlign="1" />
			<v:tabList />
		</g>
		<g
   id="shape26-52"
   transform="translate(44.6248,-39.5833)">
			<title
   id="title211">path72</title>
			<path
   fill="#E67814"
   fill-opacity="0.5"
   d="M74.25,167.01c0,1.86-1.51,3.37-3.37,3.37H3.38c-1.87,0-3.38-1.51-3.38-3.37v-18.38     c0-1.86,1.51-3.37,3.38-3.37h67.5c1.86,0,3.37,1.51,3.37,3.37V167.01z"
   id="path213" />
		</g>
		<g
   id="shape27-54"
   transform="translate(49.4999,-50.9949)">
			<title
   id="title216">text74</title>
			<desc
   id="desc218">(Reiser)</desc>
			<v:userDefs />
			<v:textBlock
   v:margins="rect(0,0,0,0)" />
			<v:textRect
   width="67.56"
   height="3"
   cy="168.882"
   cx="33.7499" />
			<rect
   x="0"
   y="167.383"
   fill="none"
   width="67.5"
   height="3"
   id="rect220" />
			<g
   enable-background="new    "
   id="g222">
				<path
   d="M10.641,163.582c0.047,0.082,0.178,0.123,0.393,0.123c0.305,0,1.207-0.092,2.707-0.275      c0.281-0.035,0.49-0.08,0.627-0.135c0.059-0.027,0.098-0.041,0.117-0.041c0.039,0,0.107,0.051,0.205,0.152      c0.109,0.113,0.164,0.188,0.164,0.223c0,0.023-0.02,0.051-0.059,0.082c-0.039,0.039-0.092,0.117-0.158,0.234      c-0.359,0.668-0.684,1.18-0.973,1.535c-0.293,0.375-0.594,0.693-0.902,0.955c-0.535,0.492-1.078,0.893-1.629,1.201l-0.053-0.047      c0.633-0.453,1.197-0.965,1.693-1.535c0.574-0.637,1.039-1.311,1.395-2.021c0.098-0.18,0.146-0.289,0.146-0.328      c0-0.066-0.029-0.1-0.088-0.1c-0.086,0-0.244,0.021-0.475,0.064c-0.453,0.051-1.176,0.16-2.168,0.328      c-0.266,0.051-0.441,0.076-0.527,0.076c-0.156,0-0.27-0.043-0.34-0.129c-0.055-0.074-0.105-0.188-0.152-0.34L10.641,163.582z"
   id="path224" />
				<path
   d="M17.01,164.074c0.047,0.082,0.148,0.123,0.305,0.123c0.078,0,0.369-0.043,0.873-0.129      c0.691-0.094,1.16-0.152,1.406-0.176c0.316-0.023,0.508-0.043,0.574-0.059c0.043-0.012,0.084-0.018,0.123-0.018      c0.043,0,0.109,0.047,0.199,0.141c0.07,0.086,0.105,0.148,0.105,0.188c0,0.027-0.031,0.057-0.094,0.088      c-0.059,0.023-0.26,0.176-0.604,0.457c-0.336,0.246-0.668,0.459-0.996,0.639c-0.043,0.234-0.195,0.584-0.457,1.049      c-0.281,0.477-0.666,0.93-1.154,1.359l-0.047-0.023c0.453-0.547,0.779-1.031,0.979-1.453c0.238-0.496,0.357-0.84,0.357-1.031      c0-0.07-0.053-0.15-0.158-0.24l0.041-0.064c0.254,0.074,0.4,0.158,0.439,0.252c0.293-0.195,0.568-0.412,0.826-0.65      c0.285-0.246,0.428-0.389,0.428-0.428c0-0.031-0.025-0.047-0.076-0.047c-0.117,0-0.369,0.027-0.756,0.082      c-0.59,0.086-1.049,0.166-1.377,0.24c-0.285,0.07-0.471,0.105-0.557,0.105c-0.184,0-0.332-0.127-0.445-0.381L17.01,164.074z"
   id="path226" />
				<path
   d="M25.946,162.621c0.199,0.227,0.299,0.383,0.299,0.469c0,0.211-0.426,0.684-1.277,1.418      c0.035,0.012,0.07,0.029,0.105,0.053c0.066,0.055,0.1,0.143,0.1,0.264v2.789c-0.012,0.098-0.035,0.172-0.07,0.223      c-0.027,0.039-0.053,0.059-0.076,0.059c-0.039,0-0.08-0.039-0.123-0.117c-0.043-0.082-0.064-0.16-0.064-0.234      c0-0.164,0.008-0.285,0.023-0.363c0.02-0.223,0.029-0.467,0.029-0.732v-1.553c0-0.086-0.037-0.164-0.111-0.234      c-0.582,0.465-1.373,0.918-2.373,1.359l-0.023-0.064c1.004-0.559,1.846-1.166,2.525-1.822c0.676-0.652,1.014-1.086,1.014-1.301      c0-0.047-0.018-0.092-0.053-0.135L25.946,162.621z"
   id="path228" />
				<path
   d="M29.314,163.939c0.344,0.035,0.516,0.121,0.516,0.258c0,0.191-0.09,0.561-0.27,1.107c-0.203,0.59-0.629,1.25-1.277,1.98      l-0.07-0.041c0.23-0.305,0.438-0.652,0.621-1.043c0.203-0.387,0.361-0.797,0.475-1.23c0.086-0.301,0.129-0.529,0.129-0.686      c0-0.148-0.057-0.242-0.17-0.281L29.314,163.939z M30.51,163.254c0.375,0.055,0.563,0.18,0.563,0.375      c0,0.078-0.006,0.166-0.018,0.264l-0.064,2.555c-0.008,0.082-0.012,0.135-0.012,0.158c0,0.066,0.023,0.1,0.07,0.1      c0.023,0,0.094-0.039,0.211-0.117c0.703-0.434,1.367-0.967,1.992-1.6l0.047,0.047c-0.578,0.734-1.209,1.35-1.893,1.846      c-0.098,0.074-0.184,0.162-0.258,0.264c-0.066,0.078-0.123,0.117-0.17,0.117c-0.051,0-0.102-0.031-0.152-0.094l-0.129-0.205      c-0.043-0.066-0.064-0.123-0.064-0.17c0-0.031,0.008-0.074,0.023-0.129c0.031-0.105,0.047-0.789,0.047-2.051      c0-0.633-0.012-0.994-0.035-1.084c-0.035-0.121-0.104-0.189-0.205-0.205L30.51,163.254z"
   id="path230" />
				<path
   d="M34.517,164.262c0.414,0.102,0.754,0.254,1.02,0.457c0.262,0.195,0.393,0.371,0.393,0.527      c0,0.051-0.014,0.096-0.041,0.135c-0.031,0.039-0.066,0.059-0.105,0.059c-0.094,0-0.178-0.068-0.252-0.205      c-0.125-0.215-0.268-0.385-0.428-0.51c-0.16-0.152-0.363-0.291-0.609-0.416L34.517,164.262z M34.799,166.916      c0.086,0.09,0.18,0.135,0.281,0.135c0.129,0,0.492-0.172,1.09-0.516c0.59-0.355,1.104-0.707,1.541-1.055      c0.57-0.473,1.078-0.957,1.523-1.453l0.064,0.023c-0.523,0.66-1.016,1.189-1.477,1.588c-0.453,0.422-1.012,0.852-1.676,1.289      c-0.512,0.367-0.826,0.551-0.943,0.551c-0.086,0-0.174-0.064-0.264-0.193c-0.141-0.199-0.211-0.314-0.211-0.346L34.799,166.916z       M35.103,162.972c0.414,0.098,0.756,0.25,1.025,0.457c0.254,0.195,0.381,0.373,0.381,0.533c0,0.047-0.014,0.09-0.041,0.129      c-0.027,0.035-0.061,0.053-0.1,0.053c-0.094,0-0.178-0.066-0.252-0.199c-0.121-0.219-0.264-0.389-0.428-0.51      c-0.156-0.152-0.359-0.291-0.609-0.416L35.103,162.972z"
   id="path232" />
				<path
   d="M41.133,163.447c0.063,0.074,0.186,0.111,0.369,0.111c0.16,0,0.486-0.049,0.979-0.146      c0.473-0.105,0.779-0.184,0.92-0.234c0.266-0.105,0.414-0.158,0.445-0.158c0.063,0,0.158,0.053,0.287,0.158      c0.105,0.09,0.158,0.162,0.158,0.217c0,0.023-0.033,0.063-0.1,0.117c-0.09,0.07-0.254,0.316-0.492,0.738      c-0.188,0.324-0.391,0.631-0.609,0.92c0.699,0.504,1.182,0.922,1.447,1.254c0.293,0.34,0.439,0.59,0.439,0.75      c0,0.105-0.049,0.158-0.146,0.158c-0.09,0-0.172-0.064-0.246-0.193c-0.227-0.387-0.43-0.688-0.609-0.902      c-0.211-0.281-0.52-0.619-0.926-1.014c-0.168,0.219-0.342,0.426-0.521,0.621c-0.422,0.473-1.1,1.031-2.033,1.676l-0.023-0.064      c0.816-0.664,1.418-1.236,1.805-1.717c0.43-0.527,0.801-1.074,1.113-1.641c0.227-0.391,0.34-0.615,0.34-0.674      c0-0.051-0.021-0.076-0.064-0.076c-0.051,0-0.379,0.096-0.984,0.287c-0.59,0.188-0.99,0.281-1.201,0.281      c-0.086,0-0.15-0.023-0.193-0.07c-0.055-0.043-0.131-0.168-0.229-0.375L41.133,163.447z"
   id="path234" />
				<path
   d="M46.541,164.332c0.07,0.066,0.18,0.1,0.328,0.1c0.113,0,0.295-0.02,0.545-0.059l2.742-0.299      c0.102-0.016,0.195-0.023,0.281-0.023c0.098,0,0.197,0.021,0.299,0.064c0.129,0.055,0.193,0.111,0.193,0.17      c0,0.063-0.078,0.094-0.234,0.094c-0.625,0-1.188,0.02-1.688,0.059c0.074,0.059,0.111,0.125,0.111,0.199      c0,0.035-0.033,0.137-0.1,0.305c-0.266,0.691-0.568,1.258-0.908,1.699c-0.344,0.438-0.711,0.803-1.102,1.096l-0.064-0.047      c0.344-0.32,0.668-0.711,0.973-1.172c0.277-0.422,0.5-0.865,0.668-1.33c0.09-0.238,0.135-0.422,0.135-0.551      c0-0.063-0.018-0.119-0.053-0.17c-0.563,0.051-1.01,0.119-1.342,0.205c-0.164,0.043-0.291,0.064-0.381,0.064      c-0.203,0-0.361-0.119-0.475-0.357L46.541,164.332z M47.502,162.972c0.031,0.094,0.133,0.141,0.305,0.141      c0.164,0,0.398-0.029,0.703-0.088l0.82-0.164c0.18-0.035,0.291-0.053,0.334-0.053c0.063,0,0.125,0.014,0.188,0.041      c0.09,0.039,0.135,0.08,0.135,0.123c0,0.082-0.098,0.135-0.293,0.158l-1.307,0.176c-0.207,0.027-0.359,0.041-0.457,0.041      c-0.281,0-0.445-0.109-0.492-0.328L47.502,162.972z"
   id="path236" />
				<path
   d="M54.58,162.879c0.379,0.121,0.568,0.262,0.568,0.422c0,0.074-0.063,0.221-0.188,0.439      c-0.57,1.043-1.195,2.006-1.875,2.889c-0.066,0.094-0.1,0.148-0.1,0.164c0,0.047,0.031,0.07,0.094,0.07      c0.102,0,0.467-0.045,1.096-0.135c0.73-0.105,1.387-0.23,1.969-0.375c-0.277-0.43-0.58-0.828-0.908-1.195l0.07-0.053      c0.398,0.301,0.748,0.615,1.049,0.943c0.227,0.262,0.396,0.506,0.51,0.732c0.086,0.156,0.129,0.287,0.129,0.393      c0,0.137-0.055,0.205-0.164,0.205c-0.078,0-0.143-0.049-0.193-0.146c-0.129-0.258-0.266-0.506-0.41-0.744      c-0.625,0.199-1.369,0.387-2.232,0.563c-0.477,0.082-0.832,0.189-1.066,0.322c-0.066,0.039-0.109,0.059-0.129,0.059      c-0.055,0-0.105-0.061-0.152-0.182c-0.055-0.133-0.082-0.236-0.082-0.311c0-0.063,0.031-0.107,0.094-0.135      c0.094-0.059,0.266-0.285,0.516-0.68c0.582-0.895,1.043-1.717,1.383-2.467c0.098-0.199,0.146-0.355,0.146-0.469      c0-0.105-0.064-0.184-0.193-0.234L54.58,162.879z"
   id="path238" />
			</g>
			
			
			
			<v:paragraph
   v:horizAlign="1" />
			<v:tabList />
			<v:newlineChar />
		<g
   style="font-size:30.00017738px;font-style:normal;font-weight:normal;line-height:125%;letter-spacing:0px;word-spacing:0px;fill:#000000;fill-opacity:1;stroke:none;font-family:Sans"
   id="text3497"><path
     d="m 27.288059,175.71508 c -0.291018,-0.36719 -0.537113,-0.79688 -0.738285,-1.28907 -0.201174,-0.49219 -0.30176,-1.00196 -0.30176,-1.52931 0,-0.46484 0.0752,-0.91016 0.225588,-1.33594 0.175781,-0.49414 0.447267,-0.98633 0.814457,-1.47657 l 0.377932,0 c -0.236331,0.40625 -0.392581,0.69629 -0.468752,0.87012 -0.119143,0.26954 -0.212893,0.55079 -0.281252,0.84375 -0.08399,0.36524 -0.125978,0.73243 -0.125977,1.10157 -10e-7,0.93946 0.291992,1.87794 0.875981,2.81545 z"
     style="font-size:6.00003529px;text-align:center;text-anchor:middle"
     id="path3502" /><path
     d="m 27.915016,174.45238 1.661143,-2.2383 -1.464853,-2.05665 0.676762,0 0.779302,1.10157 c 0.162108,0.22852 0.277343,0.4043 0.345705,0.52735 0.0957,-0.15625 0.208983,-0.31934 0.339846,-0.48926 l 0.864262,-1.13966 0.618168,0 -1.508798,2.02443 1.625986,2.27052 -0.703129,0 -1.081061,-1.53224 c -0.06055,-0.0879 -0.123049,-0.18359 -0.187501,-0.28711 -0.09571,0.15625 -0.164065,0.26368 -0.205079,0.32227 l -1.078132,1.49708 z"
     style="font-size:6.00003529px;text-align:center;text-anchor:middle"
     id="path3504" /><path
     d="m 32.388675,174.45238 0,-4.29495 2.897478,0 0,0.50684 -2.329115,0 0,1.33009 2.015637,0 0,0.50683 -2.015637,0 0,1.95119 z"
     style="font-size:6.00003529px;text-align:center;text-anchor:middle"
     id="path3506" /><path
     d="m 35.834008,173.07249 0.536135,-0.0469 c 0.02539,0.21485 0.08447,0.39112 0.177248,0.52881 0.09277,0.1377 0.236816,0.24903 0.432131,0.33399 0.195312,0.085 0.41504,0.12744 0.659184,0.12744 0.216796,0 0.408203,-0.0322 0.574222,-0.0967 0.166014,-0.0645 0.289549,-0.15283 0.370607,-0.26514 0.08105,-0.1123 0.12158,-0.23486 0.121583,-0.36768 -3e-6,-0.13476 -0.03907,-0.25244 -0.117188,-0.35302 -0.07813,-0.10059 -0.207035,-0.18506 -0.386721,-0.25342 -0.115238,-0.0449 -0.370122,-0.11475 -0.764653,-0.20948 -0.394535,-0.0947 -0.670904,-0.18408 -0.829106,-0.26807 -0.205081,-0.10742 -0.357913,-0.24072 -0.458499,-0.3999 -0.100587,-0.15918 -0.15088,-0.3374 -0.15088,-0.53467 0,-0.2168 0.06152,-0.41943 0.184571,-0.60792 0.123047,-0.18847 0.302736,-0.33154 0.539066,-0.4292 0.236328,-0.0977 0.499025,-0.14648 0.788091,-0.14648 0.318359,0 0.599122,0.0513 0.84229,0.15381 0.243162,0.10254 0.430175,0.25342 0.561038,0.45264 0.130857,0.19922 0.20117,0.42481 0.210939,0.67676 l -0.544925,0.041 c -0.0293,-0.27148 -0.128422,-0.47656 -0.297365,-0.61523 -0.168949,-0.13867 -0.418462,-0.20801 -0.74854,-0.20801 -0.343753,0 -0.594243,0.063 -0.751469,0.18896 -0.157229,0.12598 -0.235842,0.27784 -0.235841,0.45557 -1e-6,0.1543 0.05566,0.28126 0.166993,0.38086 0.109374,0.0996 0.39502,0.20167 0.856939,0.30616 0.461914,0.10449 0.77881,0.1958 0.950689,0.27393 0.249998,0.11523 0.434569,0.26123 0.553714,0.43799 0.119138,0.17676 0.178708,0.38037 0.178712,0.61084 -4e-6,0.22852 -0.06543,0.44385 -0.19629,0.646 -0.130864,0.20215 -0.318853,0.35938 -0.563968,0.47168 -0.245122,0.11231 -0.521002,0.16846 -0.827642,0.16846 -0.388676,0 -0.714361,-0.0566 -0.977057,-0.16992 -0.262697,-0.11328 -0.468753,-0.2837 -0.618167,-0.51124 -0.149416,-0.22754 -0.228029,-0.48486 -0.235841,-0.77197 z"
     style="font-size:6.00003529px;text-align:center;text-anchor:middle"
     id="path3508" /><path
     d="m 40.313526,175.71508 -0.377932,0 c 0.583987,-0.93751 0.875981,-1.87599 0.875982,-2.81545 -1e-6,-0.36718 -0.04199,-0.73144 -0.125977,-1.09278 -0.06641,-0.29296 -0.159182,-0.57421 -0.278322,-0.84375 -0.07617,-0.17578 -0.233401,-0.46875 -0.471683,-0.87891 l 0.377932,0 c 0.367189,0.49024 0.638675,0.98243 0.814458,1.47657 0.15039,0.42578 0.225586,0.8711 0.225588,1.33594 -2e-6,0.52735 -0.101077,1.03712 -0.303225,1.52931 -0.202151,0.49219 -0.447757,0.92188 -0.736821,1.28907 z"
     style="font-size:6.00003529px;text-align:center;text-anchor:middle"
     id="path3510" /></g></g>
		<g
   id="shape28-60"
   transform="translate(44.6248,-0.959248)">
			<title
   id="title259">path80</title>
			<path
   fill="#1C82B9"
   fill-opacity="0.5"
   d="M74.25,167.01c0,1.86-1.51,3.37-3.37,3.37H3.38c-1.87,0-3.38-1.51-3.38-3.37v-18.38     c0-1.86,1.51-3.37,3.38-3.37h67.5c1.86,0,3.37,1.51,3.37,3.37V167.01z"
   id="path261" />
		</g>
		<g
   id="shape29-62"
   transform="translate(49.4999,-11.995)">
			<title
   id="title264">text82</title>
			<desc
   id="desc266">Web(Apache)</desc>
			<v:userDefs />
			<v:textBlock
   v:margins="rect(0,0,0,0)" />
			<v:textRect
   width="68.37"
   height="3"
   cy="168.882"
   cx="34.1551" />
			<rect
   x="0"
   y="167.382"
   fill="none"
   width="68.311"
   height="3"
   id="rect268" />
			<g
   enable-background="new    "
   id="g270">
				<path
   d="M2.203,167.13l-1.14-4.295h0.583L2.3,165.65c0.07,0.295,0.131,0.588,0.182,0.879c0.109-0.459,0.174-0.724,0.193-0.794      l0.817-2.9h0.686l0.615,2.174c0.154,0.539,0.266,1.046,0.334,1.521c0.055-0.271,0.126-0.583,0.214-0.935l0.674-2.76h0.571      l-1.178,4.295H4.86l-0.905-3.272c-0.076-0.273-0.121-0.441-0.135-0.504c-0.045,0.197-0.087,0.365-0.126,0.504l-0.911,3.272      H2.203z"
   id="path272" />
				<path
   d="M9.07,166.128l0.545,0.067c-0.086,0.318-0.245,0.565-0.478,0.741S8.608,167.2,8.247,167.2      c-0.455,0-0.816-0.14-1.083-0.42s-0.4-0.674-0.4-1.18c0-0.523,0.135-0.93,0.404-1.219s0.619-0.434,1.049-0.434      c0.416,0,0.756,0.142,1.02,0.425s0.396,0.682,0.396,1.195c0,0.031-0.001,0.078-0.003,0.141h-2.32      c0.02,0.342,0.116,0.604,0.29,0.785s0.391,0.272,0.65,0.272c0.193,0,0.358-0.051,0.495-0.152S8.99,166.351,9.07,166.128z       M7.339,165.275h1.737c-0.023-0.262-0.09-0.458-0.199-0.589c-0.168-0.203-0.386-0.305-0.653-0.305      c-0.242,0-0.446,0.081-0.611,0.243S7.356,165.004,7.339,165.275z"
   id="path274" />
				<path
   d="M10.764,167.13h-0.489v-4.295h0.527v1.532c0.223-0.279,0.507-0.419,0.853-0.419c0.191,0,0.373,0.039,0.543,0.116      s0.312,0.186,0.422,0.325s0.197,0.308,0.259,0.505s0.094,0.408,0.094,0.633c0,0.533-0.132,0.945-0.396,1.236      s-0.58,0.437-0.949,0.437c-0.367,0-0.655-0.153-0.864-0.46V167.13z M10.758,165.551c0,0.373,0.051,0.643,0.152,0.809      c0.166,0.271,0.391,0.407,0.674,0.407c0.23,0,0.43-0.1,0.598-0.3s0.252-0.499,0.252-0.896c0-0.406-0.081-0.706-0.242-0.899      s-0.356-0.29-0.584-0.29c-0.23,0-0.43,0.101-0.598,0.301S10.758,165.172,10.758,165.551z"
   id="path276" />
			</g>
			<g
   enable-background="new    "
   id="g278">
				<path
   d="M13.658,164.161c0.066,0.074,0.168,0.111,0.305,0.111c0.055,0,0.336-0.035,0.844-0.105      c0.063-0.012,0.133-0.025,0.211-0.041c-0.008-0.652-0.029-1.018-0.064-1.096c-0.027-0.082-0.084-0.135-0.17-0.158v-0.076      c0.227,0,0.373,0.031,0.439,0.094c0.051,0.043,0.076,0.098,0.076,0.164v0.281c-0.012,0.105-0.02,0.355-0.023,0.75      c0.371-0.051,0.883-0.107,1.535-0.17c0.008-0.293,0.012-0.625,0.012-0.996c0-0.223-0.078-0.373-0.234-0.451v-0.064      c0.207,0,0.354,0.025,0.439,0.076c0.07,0.039,0.105,0.113,0.105,0.223c0,0.457-0.006,0.852-0.018,1.184      c0.07-0.008,0.143-0.014,0.217-0.018c0.43-0.059,0.744-0.088,0.943-0.088c0.152,0,0.271,0.031,0.357,0.094      c0.074,0.039,0.111,0.094,0.111,0.164c0,0.051-0.037,0.076-0.111,0.076h-0.469c-0.332,0-0.686,0.014-1.061,0.041      c-0.016,0.285-0.035,0.518-0.059,0.697c-0.039,0.379-0.109,0.711-0.211,0.996c-0.102,0.305-0.225,0.559-0.369,0.762      c-0.23,0.313-0.516,0.619-0.855,0.92l-0.053-0.047c0.379-0.402,0.646-0.752,0.803-1.049c0.125-0.242,0.219-0.51,0.281-0.803      c0.074-0.289,0.117-0.553,0.129-0.791c0.016-0.18,0.027-0.4,0.035-0.662c-0.09,0.008-0.182,0.016-0.275,0.023      c-0.512,0.051-0.93,0.1-1.254,0.146c0,0.082,0,0.166,0,0.252c0,0.254,0.002,0.455,0.006,0.604      c0.012,0.082,0.018,0.193,0.018,0.334c0,0.098-0.018,0.172-0.053,0.223c-0.027,0.039-0.055,0.059-0.082,0.059      c-0.039,0-0.08-0.027-0.123-0.082c-0.047-0.094-0.07-0.176-0.07-0.246c0-0.035,0.004-0.102,0.012-0.199      c0.016-0.082,0.027-0.313,0.035-0.691c0-0.07,0-0.137,0-0.199c-0.105,0.02-0.197,0.039-0.275,0.059      c-0.387,0.094-0.623,0.141-0.709,0.141c-0.078,0-0.15-0.02-0.217-0.059c-0.066-0.051-0.143-0.17-0.229-0.357L13.658,164.161z"
   id="path280" />
				<path
   d="M19.728,164.788c0.07,0.098,0.197,0.146,0.381,0.146c0.23,0,0.49-0.02,0.779-0.059c0.395-0.055,1.164-0.127,2.309-0.217      c0.324-0.02,0.598-0.029,0.82-0.029c0.246,0,0.414,0.025,0.504,0.076c0.105,0.059,0.158,0.119,0.158,0.182      c0,0.059-0.078,0.088-0.234,0.088c-0.078,0-0.16-0.004-0.246-0.012c-0.105-0.008-0.281-0.012-0.527-0.012      c-1.031,0.008-1.904,0.074-2.619,0.199c-0.508,0.086-0.814,0.129-0.92,0.129c-0.148,0-0.256-0.039-0.322-0.117      c-0.07-0.074-0.121-0.174-0.152-0.299L19.728,164.788z"
   id="path282" />
				<path
   d="M27.252,163.622c0.328,0.129,0.492,0.252,0.492,0.369c0,0.082-0.045,0.191-0.135,0.328      c-0.191,0.32-0.479,0.688-0.861,1.102c-0.328,0.363-0.66,0.652-0.996,0.867l-0.023-0.047c0.512-0.469,0.979-1.09,1.4-1.863      c0.129-0.23,0.193-0.396,0.193-0.498c0-0.07-0.039-0.135-0.117-0.193L27.252,163.622z M29.109,163.622      c0.344,0.336,0.666,0.732,0.967,1.189c0.355,0.492,0.533,0.898,0.533,1.219c0,0.188-0.055,0.281-0.164,0.281      c-0.098,0-0.164-0.07-0.199-0.211c-0.141-0.527-0.307-0.967-0.498-1.318c-0.203-0.398-0.441-0.77-0.715-1.113L29.109,163.622z       M29.18,162.515c0.219,0.031,0.426,0.121,0.621,0.27c0.16,0.133,0.24,0.264,0.24,0.393c0,0.043-0.014,0.082-0.041,0.117      c-0.027,0.047-0.066,0.07-0.117,0.07c-0.059,0-0.107-0.051-0.146-0.152c-0.145-0.273-0.338-0.49-0.58-0.65L29.18,162.515z       M29.713,162.38c0.234,0.027,0.455,0.107,0.662,0.24c0.172,0.113,0.258,0.227,0.258,0.34c0,0.047-0.016,0.088-0.047,0.123      c-0.027,0.047-0.068,0.07-0.123,0.07s-0.105-0.047-0.152-0.141c-0.152-0.246-0.357-0.443-0.615-0.592L29.713,162.38z"
   id="path284" />
				<path
   d="M32.221,163.153c0.359,0.223,0.635,0.451,0.826,0.686c0.137,0.168,0.205,0.32,0.205,0.457      c0,0.047-0.016,0.096-0.047,0.146c-0.039,0.043-0.078,0.064-0.117,0.064c-0.086,0-0.148-0.053-0.188-0.158      c-0.121-0.297-0.23-0.516-0.328-0.656c-0.102-0.188-0.227-0.346-0.375-0.475L32.221,163.153z M35.625,162.749      c0.254,0.078,0.412,0.143,0.475,0.193c0.043,0.047,0.064,0.1,0.064,0.158c0,0.066-0.102,0.285-0.305,0.656      c-0.262,0.48-0.504,0.889-0.727,1.225c-0.242,0.344-0.453,0.615-0.633,0.814c-0.543,0.617-1.176,1.15-1.898,1.6l-0.029-0.053      c0.598-0.465,1.139-0.992,1.623-1.582c0.441-0.543,0.822-1.127,1.143-1.752c0.281-0.543,0.422-0.854,0.422-0.932      c0-0.094-0.053-0.18-0.158-0.258L35.625,162.749z"
   id="path286" />
				<path
   d="M38.109,163.288c0.047,0.082,0.178,0.123,0.393,0.123c0.305,0,1.207-0.092,2.707-0.275      c0.281-0.035,0.49-0.08,0.627-0.135c0.059-0.027,0.098-0.041,0.117-0.041c0.039,0,0.107,0.051,0.205,0.152      c0.109,0.113,0.164,0.188,0.164,0.223c0,0.023-0.02,0.051-0.059,0.082c-0.039,0.039-0.092,0.117-0.158,0.234      c-0.359,0.668-0.684,1.18-0.973,1.535c-0.293,0.375-0.594,0.693-0.902,0.955c-0.535,0.492-1.078,0.893-1.629,1.201l-0.053-0.047      c0.633-0.453,1.197-0.965,1.693-1.535c0.574-0.637,1.039-1.311,1.395-2.021c0.098-0.18,0.146-0.289,0.146-0.328      c0-0.066-0.029-0.1-0.088-0.1c-0.086,0-0.244,0.021-0.475,0.064c-0.453,0.051-1.176,0.16-2.168,0.328      c-0.266,0.051-0.441,0.076-0.527,0.076c-0.156,0-0.27-0.043-0.34-0.129c-0.055-0.074-0.105-0.188-0.152-0.34L38.109,163.288z"
   id="path288" />
				<path
   d="M45.299,162.38h0.17c0.297,0,0.445,0.131,0.445,0.393c0,0.211-0.008,0.408-0.023,0.592      c-0.012,0.137-0.018,0.373-0.018,0.709c0.289,0.078,0.578,0.184,0.867,0.316c0.344,0.164,0.604,0.336,0.779,0.516      c0.176,0.176,0.264,0.324,0.264,0.445c0,0.109-0.045,0.164-0.135,0.164c-0.094,0-0.18-0.043-0.258-0.129      c-0.355-0.391-0.648-0.67-0.879-0.838c-0.203-0.148-0.418-0.262-0.645-0.34c0,0.254,0,0.559,0,0.914      c0,1.141,0.004,1.748,0.012,1.822c0.008,0.121,0.012,0.223,0.012,0.305c0,0.063-0.025,0.135-0.076,0.217      c-0.031,0.059-0.07,0.088-0.117,0.088s-0.092-0.041-0.135-0.123c-0.035-0.086-0.053-0.184-0.053-0.293      c0-0.105,0.012-0.232,0.035-0.381c0.023-0.324,0.035-1.533,0.035-3.627c0-0.281-0.021-0.465-0.064-0.551      c-0.039-0.09-0.111-0.135-0.217-0.135V162.38z"
   id="path290" />
				<path
   d="M51.721,162.444c0.344,0.043,0.516,0.145,0.516,0.305c0,0.117-0.004,0.203-0.012,0.258      c-0.008,0.035-0.012,0.199-0.012,0.492c0.418-0.063,0.766-0.105,1.043-0.129c0.27-0.031,0.459-0.063,0.568-0.094      c0.055-0.023,0.111-0.035,0.17-0.035c0.047,0.008,0.115,0.063,0.205,0.164c0.074,0.074,0.115,0.146,0.123,0.217      c0,0.02-0.021,0.049-0.064,0.088c-0.066,0.078-0.166,0.279-0.299,0.604c-0.313,0.707-0.695,1.313-1.148,1.816      c-0.473,0.523-1.078,0.975-1.816,1.354l-0.023-0.064c0.52-0.348,0.9-0.652,1.143-0.914c0.301-0.301,0.557-0.611,0.768-0.932      c0.254-0.383,0.471-0.762,0.65-1.137c0.199-0.418,0.299-0.66,0.299-0.727c-0.004-0.035-0.025-0.064-0.064-0.088      c-0.027-0.02-0.066-0.029-0.117-0.029c-0.207,0-0.527,0.029-0.961,0.088c-0.457,0.047-0.814,0.098-1.072,0.152      c-0.457,0.09-0.734,0.135-0.832,0.135c-0.082,0-0.193-0.047-0.334-0.141c0.031,0.078,0.053,0.16,0.064,0.246      c0.059,0.297,0.088,0.621,0.088,0.973c0,0.188-0.021,0.313-0.064,0.375c-0.023,0.047-0.051,0.07-0.082,0.07      c-0.039,0-0.08-0.027-0.123-0.082c-0.043-0.09-0.064-0.17-0.064-0.24c-0.012-0.195-0.012-0.373,0-0.533      c0-0.148-0.004-0.332-0.012-0.551c-0.027-0.25-0.094-0.461-0.199-0.633l0.023-0.041c0.09,0.047,0.164,0.105,0.223,0.176      c0.113,0.055,0.242,0.082,0.387,0.082c0.141,0,0.547-0.039,1.219-0.117h0.006v-0.586c0-0.227-0.072-0.369-0.217-0.428      L51.721,162.444z"
   id="path292" />
				<path
   d="M56.83,164.226c0.047,0.078,0.15,0.117,0.311,0.117c0.094,0,0.338-0.029,0.732-0.088      c0.383-0.063,0.717-0.129,1.002-0.199c0.188-0.043,0.334-0.064,0.439-0.064c0.059,0,0.113,0.012,0.164,0.035      c0.047,0.031,0.07,0.068,0.07,0.111c0,0.063-0.066,0.102-0.199,0.117c-0.434,0.047-0.801,0.096-1.102,0.146      c0.074,0.051,0.111,0.129,0.111,0.234v0.668c0,0.406-0.004,0.701-0.012,0.885c0.582-0.074,1.053-0.111,1.412-0.111      c0.152,0,0.275,0.031,0.369,0.094c0.082,0.051,0.123,0.105,0.123,0.164c0,0.035-0.029,0.053-0.088,0.053      c-0.09,0-0.193-0.004-0.311-0.012s-0.406-0.012-0.867-0.012c-0.316,0-0.686,0.027-1.107,0.082      c-0.426,0.051-0.734,0.111-0.926,0.182c-0.191,0.059-0.309,0.088-0.352,0.088c-0.125,0-0.252-0.109-0.381-0.328l0.07-0.023      c0.051,0.047,0.137,0.07,0.258,0.07c0.07,0,0.217-0.02,0.439-0.059c0.344-0.066,0.701-0.119,1.072-0.158      c0.027-0.273,0.041-0.578,0.041-0.914v-0.217c0-0.309-0.029-0.525-0.088-0.65c-0.242,0.039-0.434,0.078-0.574,0.117      c-0.125,0.031-0.217,0.047-0.275,0.047c-0.191,0-0.326-0.117-0.404-0.352L56.83,164.226z"
   id="path294" />
				<path
   d="M62.174,162.895c0.059,0.105,0.176,0.158,0.352,0.158c0.098,0,0.451-0.051,1.061-0.152      c0.848-0.121,1.422-0.193,1.723-0.217c0.387-0.027,0.619-0.055,0.697-0.082c0.055-0.012,0.107-0.018,0.158-0.018      s0.127,0.053,0.229,0.158c0.078,0.102,0.117,0.174,0.117,0.217c0,0.031-0.037,0.066-0.111,0.105      c-0.078,0.031-0.324,0.223-0.738,0.574c-0.41,0.301-0.811,0.563-1.201,0.785c-0.055,0.281-0.242,0.703-0.563,1.266      c-0.34,0.582-0.813,1.133-1.418,1.652l-0.047-0.047c0.555-0.656,0.955-1.238,1.201-1.746c0.293-0.598,0.439-1.016,0.439-1.254      c0-0.082-0.061-0.184-0.182-0.305l0.041-0.064c0.328,0.09,0.506,0.193,0.533,0.311c0.359-0.238,0.695-0.504,1.008-0.797      c0.348-0.305,0.521-0.479,0.521-0.521c0-0.051-0.021-0.076-0.064-0.076c-0.148,0-0.461,0.037-0.938,0.111      c-0.73,0.109-1.299,0.209-1.705,0.299c-0.348,0.09-0.576,0.135-0.686,0.135c-0.203,0-0.367-0.15-0.492-0.451L62.174,162.895z"
   id="path296" />
			</g>
			<g
   transform="matrix(1 0 0 1 21.9803 174.3779)"
   style="font-size:5.99989986px;font-family:ArialMT"
   id="text298"><path
     d="M 1.4032969,1.2626742 C 1.112285,0.89549197 0.86619561,0.46581207 0.66502796,-0.02636675 0.46385898,-0.51854551 0.36327482,-1.0283021 0.36327519,-1.5556381 c -3.7e-7,-0.464834 0.0751936,-0.9101386 0.22558217,-1.3359152 0.17577755,-0.494129 0.44725714,-0.9863078 0.81443954,-1.4765379 l 0.3779234,0 c -0.2363258,0.4062472 -0.392573,0.6962812 -0.4687422,0.8701027 -0.1191398,0.26953 -0.2128882,0.550775 -0.2812453,0.8437359 -0.0839839,0.3652306 -0.12597538,0.7324116 -0.12597447,1.1015441 -9.1e-7,0.9394381 0.29198607,1.87789806 0.87596197,2.8153827 z"
     style="font-size:5.99989986px;font-family:ArialMT"
     id="path3277" /></g>

			<g
   id="g300">
				<path
   d="M23.97,174.378l1.649-4.295h0.612l1.758,4.295h-0.647l-0.501-1.301h-1.796l-0.472,1.301H23.97z M25.209,172.614h1.456      l-0.448-1.189c-0.137-0.361-0.238-0.658-0.305-0.891c-0.055,0.275-0.132,0.549-0.231,0.82L25.209,172.614z"
   id="path302" />
				<path
   d="M28.376,175.57v-4.304h0.48v0.404c0.113-0.158,0.241-0.276,0.384-0.355s0.315-0.119,0.519-0.119      c0.266,0,0.5,0.068,0.703,0.205s0.356,0.33,0.46,0.579s0.155,0.521,0.155,0.818c0,0.318-0.058,0.605-0.171,0.86      c-0.115,0.255-0.281,0.45-0.499,0.586c-0.218,0.135-0.447,0.203-0.687,0.203c-0.176,0-0.333-0.037-0.473-0.111      s-0.254-0.168-0.344-0.281v1.515H28.376z M28.853,172.84c0,0.4,0.081,0.696,0.243,0.888s0.358,0.287,0.589,0.287      c0.234,0,0.435-0.099,0.602-0.297s0.25-0.506,0.25-0.922c0-0.396-0.082-0.693-0.245-0.891s-0.358-0.296-0.584-0.296      c-0.225,0-0.423,0.105-0.596,0.315S28.853,172.439,28.853,172.84z"
   id="path304" />
				<path
   d="M33.743,173.994c-0.195,0.166-0.384,0.283-0.563,0.352c-0.182,0.068-0.375,0.103-0.582,0.103      c-0.342,0-0.604-0.083-0.788-0.25s-0.275-0.381-0.275-0.641c0-0.152,0.034-0.291,0.104-0.417      c0.068-0.126,0.16-0.228,0.271-0.304c0.113-0.076,0.239-0.134,0.38-0.173c0.104-0.027,0.26-0.054,0.469-0.079      c0.426-0.051,0.739-0.111,0.94-0.182c0.002-0.072,0.003-0.118,0.003-0.138c0-0.215-0.05-0.366-0.149-0.454      c-0.135-0.119-0.335-0.179-0.601-0.179c-0.248,0-0.431,0.044-0.55,0.131c-0.117,0.087-0.205,0.24-0.262,0.461l-0.516-0.07      c0.047-0.221,0.124-0.398,0.231-0.534s0.263-0.24,0.466-0.313s0.438-0.11,0.706-0.11c0.266,0,0.481,0.031,0.647,0.094      s0.288,0.142,0.366,0.236s0.133,0.214,0.164,0.358c0.018,0.09,0.026,0.252,0.026,0.486v0.703c0,0.49,0.012,0.801,0.033,0.931      c0.023,0.13,0.067,0.254,0.134,0.373h-0.551C33.794,174.268,33.759,174.141,33.743,173.994z M33.699,172.816      c-0.191,0.078-0.479,0.145-0.861,0.199c-0.217,0.031-0.37,0.066-0.46,0.105s-0.159,0.097-0.208,0.172s-0.073,0.158-0.073,0.25      c0,0.141,0.054,0.258,0.159,0.352c0.107,0.094,0.263,0.141,0.468,0.141c0.203,0,0.384-0.044,0.542-0.133      s0.274-0.211,0.349-0.365c0.057-0.119,0.085-0.295,0.085-0.527V172.816z"
   id="path306" />
				<path
   d="M37.08,173.238l0.519,0.067c-0.057,0.357-0.202,0.638-0.435,0.84c-0.234,0.202-0.521,0.303-0.86,0.303      c-0.426,0-0.769-0.139-1.026-0.417c-0.26-0.278-0.389-0.678-0.389-1.197c0-0.336,0.056-0.63,0.167-0.882s0.28-0.44,0.509-0.566      c0.227-0.126,0.475-0.189,0.742-0.189c0.338,0,0.614,0.086,0.829,0.257s0.353,0.413,0.413,0.728l-0.513,0.079      c-0.049-0.209-0.136-0.366-0.259-0.472c-0.125-0.105-0.274-0.158-0.45-0.158c-0.266,0-0.481,0.096-0.647,0.286      s-0.249,0.491-0.249,0.903c0,0.418,0.08,0.722,0.24,0.911s0.369,0.284,0.627,0.284c0.207,0,0.38-0.063,0.519-0.19      S37.043,173.502,37.08,173.238z"
   id="path308" />
				<path
   d="M38.049,174.378v-4.295h0.527v1.541c0.246-0.285,0.557-0.428,0.932-0.428c0.23,0,0.432,0.046,0.602,0.137      s0.291,0.216,0.364,0.376s0.11,0.393,0.11,0.697v1.972h-0.527v-1.972c0-0.264-0.058-0.455-0.172-0.575s-0.275-0.181-0.484-0.181      c-0.156,0-0.304,0.041-0.441,0.122s-0.236,0.19-0.295,0.329s-0.088,0.33-0.088,0.574v1.702H38.049z"
   id="path310" />
				<path
   d="M43.515,173.376l0.545,0.067c-0.086,0.318-0.244,0.565-0.477,0.741s-0.529,0.264-0.891,0.264      c-0.455,0-0.816-0.14-1.083-0.42s-0.399-0.674-0.399-1.18c0-0.523,0.135-0.93,0.404-1.219s0.619-0.434,1.049-0.434      c0.416,0,0.756,0.142,1.02,0.425s0.395,0.682,0.395,1.195c0,0.031,0,0.078-0.002,0.141h-2.32      c0.02,0.342,0.115,0.604,0.289,0.785s0.391,0.272,0.65,0.272c0.193,0,0.359-0.051,0.496-0.152S43.435,173.599,43.515,173.376z       M41.785,172.523h1.736c-0.023-0.262-0.09-0.458-0.199-0.589c-0.168-0.203-0.385-0.305-0.652-0.305      c-0.242,0-0.446,0.081-0.611,0.243S41.803,172.252,41.785,172.523z"
   id="path312" />
				<path
   d="M45.068,175.641h-0.377c0.584-0.938,0.875-1.876,0.875-2.815c0-0.367-0.041-0.731-0.125-1.093      c-0.066-0.293-0.16-0.574-0.279-0.844c-0.076-0.176-0.232-0.469-0.471-0.879h0.377c0.367,0.49,0.639,0.982,0.814,1.477      c0.15,0.426,0.227,0.871,0.227,1.336c0,0.527-0.102,1.037-0.304,1.529S45.357,175.273,45.068,175.641z"
   id="path314" />
			</g>
			<v:paragraph
   v:horizAlign="1" />
			<v:tabList />
		</g>
		<g
   id="shape30-67">
			<title
   id="title317">path88</title>
			<path
   fill="#666666"
   d="M4.5,66.88c2.49,0,4.5,2.021,4.5,4.5v94.5c0,2.49-2.01,4.5-4.5,4.5s-4.5-2.01-4.5-4.5v-94.5     C0,68.9,2.01,66.88,4.5,66.88z"
   id="path319" />
		</g>
		<g
   id="shape31-69"
   transform="translate(-163.819,135.342) rotate(-90)">
			<title
   id="title322">text90</title>
			<desc
   id="desc324" />
			<v:userDefs />
			<v:textBlock
   v:margins="rect(0,0,0,0)" />
			<v:textRect
   width="60.15"
   height="3"
   cy="168.882"
   cx="30.05" />
			
				<rect
   x="28.55"
   y="138.832"
   transform="matrix(-2.547107e-006 -1 1 -2.547107e-006 -138.8322 198.9326)"
   fill="none"
   width="3"
   height="60.1"
   id="rect326" />
			<g
   enable-background="new    "
   id="g328">
				<path
   fill="#FFFFFF"
   d="M0.995,167.305c0.262,0,0.436,0.063,0.521,0.188c0.035,0.016,0.074,0.023,0.117,0.023      c0.387,0,1.152-0.096,2.297-0.287c0.207-0.023,0.357-0.059,0.451-0.105c0.051-0.023,0.094-0.035,0.129-0.035      c0.059,0,0.133,0.039,0.223,0.117c0.137,0.113,0.205,0.199,0.205,0.258c0,0.012-0.02,0.047-0.059,0.105      c-0.086,0.113-0.156,0.324-0.211,0.633c-0.094,0.563-0.199,1.146-0.316,1.752c0.016,0.008,0.029,0.016,0.041,0.023      c0.078,0.055,0.117,0.123,0.117,0.205c0,0.066-0.063,0.1-0.188,0.1c-0.098,0-0.164-0.004-0.199-0.012      c-0.07-0.008-0.221-0.012-0.451-0.012c-0.664,0-1.213,0.023-1.646,0.07c-0.137,0.016-0.215,0.023-0.234,0.023      c-0.035,0-0.068-0.006-0.1-0.018c-0.008,0.043-0.018,0.08-0.029,0.111c-0.051,0.109-0.109,0.164-0.176,0.164      c-0.039,0-0.068-0.021-0.088-0.064l-0.047-0.082c-0.02-0.043-0.029-0.074-0.029-0.094c0-0.027,0.002-0.08,0.006-0.158      c0.016-0.082,0.023-0.207,0.023-0.375c0-0.914-0.037-1.615-0.111-2.104c-0.031-0.215-0.129-0.336-0.293-0.363L0.995,167.305z       M1.816,170.071c0.137,0,0.26-0.006,0.369-0.018c0.359-0.047,0.865-0.072,1.518-0.076c0.102,0,0.197-0.01,0.287-0.029      c0.027-0.004,0.053-0.008,0.076-0.012c0.199-1.344,0.299-2.02,0.299-2.027c0.023-0.129,0.035-0.215,0.035-0.258      c0-0.07-0.021-0.115-0.064-0.135c-0.055-0.02-0.111-0.029-0.17-0.029c-0.188,0-0.457,0.027-0.809,0.082      c-0.445,0.047-0.893,0.115-1.342,0.205c-0.105,0.031-0.211,0.047-0.316,0.047c-0.035,0-0.072-0.004-0.111-0.012l0.059,1.875      c0,0.168,0.01,0.283,0.029,0.346c0,0.008,0,0.014,0,0.018C1.718,170.063,1.765,170.071,1.816,170.071z"
   id="path330" />
				<path
   fill="#FFFFFF"
   d="M6.48,168.682c0.07,0.098,0.197,0.146,0.381,0.146c0.23,0,0.49-0.02,0.779-0.059      c0.395-0.055,1.164-0.127,2.309-0.217c0.324-0.02,0.598-0.029,0.82-0.029c0.246,0,0.414,0.025,0.504,0.076      c0.105,0.059,0.158,0.119,0.158,0.182c0,0.059-0.078,0.088-0.234,0.088c-0.078,0-0.16-0.004-0.246-0.012      c-0.105-0.008-0.281-0.012-0.527-0.012c-1.031,0.008-1.904,0.074-2.619,0.199c-0.508,0.086-0.814,0.129-0.92,0.129      c-0.148,0-0.256-0.039-0.322-0.117c-0.07-0.074-0.121-0.174-0.152-0.299L6.48,168.682z"
   id="path332" />
				<path
   fill="#FFFFFF"
   d="M16.446,166.274c0.223,0.027,0.436,0.107,0.639,0.24c0.164,0.113,0.246,0.227,0.246,0.34      c0,0.047-0.014,0.088-0.041,0.123c-0.027,0.047-0.066,0.07-0.117,0.07c-0.059,0-0.109-0.047-0.152-0.141      c-0.148-0.246-0.348-0.443-0.598-0.592L16.446,166.274z M14.103,166.274h0.164c0.293,0,0.439,0.131,0.439,0.393      c0,0.211-0.008,0.408-0.023,0.592c-0.008,0.137-0.014,0.375-0.018,0.715c0.281,0.074,0.561,0.178,0.838,0.311      c0.336,0.164,0.592,0.336,0.768,0.516c0.176,0.176,0.264,0.324,0.264,0.445c0,0.109-0.045,0.164-0.135,0.164      c-0.094,0-0.18-0.043-0.258-0.129c-0.348-0.391-0.637-0.67-0.867-0.838c-0.191-0.141-0.395-0.252-0.609-0.334      c0,0.254,0,0.557,0,0.908c0,1.141,0.004,1.748,0.012,1.822c0.004,0.121,0.006,0.223,0.006,0.305      c0,0.063-0.021,0.135-0.064,0.217c-0.035,0.059-0.076,0.088-0.123,0.088s-0.09-0.041-0.129-0.123      c-0.039-0.086-0.059-0.184-0.059-0.293c0-0.105,0.014-0.232,0.041-0.381c0.023-0.324,0.035-1.533,0.035-3.627      c0-0.281-0.023-0.465-0.07-0.551c-0.039-0.09-0.109-0.135-0.211-0.135V166.274z M15.86,166.409      c0.215,0.031,0.416,0.125,0.604,0.281c0.16,0.137,0.24,0.27,0.24,0.398c0,0.047-0.014,0.088-0.041,0.123      c-0.027,0.047-0.07,0.07-0.129,0.07c-0.051,0-0.096-0.051-0.135-0.152c-0.141-0.285-0.33-0.51-0.568-0.674L15.86,166.409z"
   id="path334" />
				<path
   fill="#FFFFFF"
   d="M18.948,167.797c0.043,0.074,0.16,0.111,0.352,0.111c0.25,0,0.93-0.092,2.039-0.275v-0.475      c0-0.418-0.117-0.684-0.352-0.797l0.023-0.064c0.441,0,0.662,0.1,0.662,0.299c0,0.066-0.008,0.17-0.023,0.311      c0,0.109,0,0.334,0,0.674c0.527-0.094,0.941-0.141,1.242-0.141c0.16,0,0.283,0.025,0.369,0.076      c0.082,0.039,0.123,0.084,0.123,0.135c0,0.082-0.07,0.123-0.211,0.123c-0.438,0-0.945,0.029-1.523,0.088      c0,1.691,0.004,2.602,0.012,2.73c0.008,0.133,0.012,0.254,0.012,0.363c0,0.102-0.043,0.207-0.129,0.316      c-0.086,0.102-0.154,0.152-0.205,0.152c-0.063,0-0.123-0.047-0.182-0.141c-0.094-0.141-0.344-0.381-0.75-0.721l0.023-0.047      c0.438,0.203,0.701,0.305,0.791,0.305c0.078,0,0.117-0.07,0.117-0.211v-2.525c-0.383,0.555-0.748,1.012-1.096,1.371      c-0.387,0.387-0.84,0.723-1.359,1.008l-0.023-0.023c0.422-0.348,0.842-0.752,1.26-1.213c0.297-0.355,0.623-0.791,0.979-1.307      c-0.191,0.023-0.387,0.049-0.586,0.076c-0.707,0.16-1.119,0.24-1.236,0.24c-0.156,0-0.287-0.139-0.393-0.416L18.948,167.797z"
   id="path336" />
				<path
   fill="#FFFFFF"
   d="M24.48,168.682c0.07,0.098,0.197,0.146,0.381,0.146c0.23,0,0.49-0.02,0.779-0.059      c0.395-0.055,1.164-0.127,2.309-0.217c0.324-0.02,0.598-0.029,0.82-0.029c0.246,0,0.414,0.025,0.504,0.076      c0.105,0.059,0.158,0.119,0.158,0.182c0,0.059-0.078,0.088-0.234,0.088c-0.078,0-0.16-0.004-0.246-0.012      c-0.105-0.008-0.281-0.012-0.527-0.012c-1.031,0.008-1.904,0.074-2.619,0.199c-0.508,0.086-0.814,0.129-0.92,0.129      c-0.148,0-0.256-0.039-0.322-0.117c-0.07-0.074-0.121-0.174-0.152-0.299L24.48,168.682z"
   id="path338" />
				<path
   fill="#FFFFFF"
   d="M34.581,166.151c0.23,0.027,0.445,0.105,0.645,0.234c0.164,0.113,0.246,0.223,0.246,0.328      c0,0.051-0.012,0.094-0.035,0.129c-0.027,0.039-0.07,0.059-0.129,0.059c-0.055,0-0.102-0.043-0.141-0.129      c-0.148-0.242-0.352-0.434-0.609-0.574L34.581,166.151z M34.042,166.297c0.219,0.031,0.424,0.121,0.615,0.27      c0.156,0.133,0.234,0.26,0.234,0.381c0,0.051-0.014,0.094-0.041,0.129c-0.031,0.039-0.074,0.059-0.129,0.059      c-0.051,0-0.098-0.049-0.141-0.146c-0.133-0.273-0.32-0.49-0.563-0.65L34.042,166.297z M32.378,169.532      c-0.008,0-0.014,0-0.018,0c-0.117,0-0.229-0.125-0.334-0.375c-0.156-0.391-0.371-0.713-0.645-0.967      c-0.219,0.234-0.449,0.447-0.691,0.639l-0.041-0.023c0.426-0.457,0.783-0.934,1.072-1.43c0.219-0.379,0.328-0.623,0.328-0.732      c0-0.09-0.039-0.176-0.117-0.258l0.047-0.07c0.313,0.137,0.469,0.262,0.469,0.375c0,0.063-0.063,0.186-0.188,0.369      c0.082,0.035,0.176,0.053,0.281,0.053c0.145,0,0.322-0.014,0.533-0.041c0.242-0.035,0.389-0.066,0.439-0.094      c0.16-0.051,0.266-0.076,0.316-0.076c0.043,0,0.117,0.047,0.223,0.141c0.102,0.094,0.152,0.174,0.152,0.24      c0,0.02-0.043,0.072-0.129,0.158c-0.035,0.043-0.1,0.162-0.193,0.357c-0.133,0.254-0.336,0.582-0.609,0.984      c-0.348,0.512-0.695,0.945-1.043,1.301c-0.355,0.375-0.898,0.814-1.629,1.318l-0.029-0.041c0.723-0.598,1.311-1.193,1.764-1.787      C32.353,169.557,32.366,169.543,32.378,169.532z M32.144,167.235c-0.066,0.09-0.139,0.188-0.217,0.293      c-0.156,0.219-0.322,0.424-0.498,0.615c0.375,0.223,0.645,0.443,0.809,0.662c0.164,0.199,0.25,0.385,0.258,0.557      c0.297-0.41,0.566-0.844,0.809-1.301c0.262-0.469,0.393-0.729,0.393-0.779s-0.023-0.076-0.07-0.076      c-0.113,0-0.324,0.037-0.633,0.111c-0.316,0.051-0.504,0.076-0.563,0.076c-0.094,0-0.166-0.016-0.217-0.047      C32.187,167.327,32.163,167.289,32.144,167.235z"
   id="path340" />
				<v:paragraph />
				<v:tabList />
			</g>
		</g>
		<g
   id="shape32-72"
   transform="translate(40.1248,-86.2668)">
			<title
   id="title343">circle92</title>
			<ellipse
   fill="#629E1F"
   cx="4.5"
   cy="165.882"
   rx="4.5"
   ry="4.5"
   id="ellipse345"
   d="m 9,165.882 c 0,2.48529 -2.0147186,4.5 -4.5,4.5 -2.4852814,0 -4.5,-2.01471 -4.5,-4.5 0,-2.48528 2.0147186,-4.5 4.5,-4.5 2.4852814,0 4.5,2.01472 4.5,4.5 z" />
		</g>
		<g
   id="shape33-74"
   transform="translate(42.7188,-88.7039)">
			<title
   id="title348">text94</title>
			<desc
   id="desc350">1</desc>
			<v:userDefs />
			<v:textBlock
   v:margins="rect(0,0,0,0)" />
			<v:textRect
   width="6.17"
   height="3"
   cy="168.882"
   cx="3.05" />
			<rect
   x="0"
   y="167.382"
   fill="none"
   width="6.101"
   height="3"
   id="rect352" />
			
				<g
   transform="matrix(1 0 0 1 -0.0296 170.6796)"
   style="font-size:5.99989986px;fill:#ffffff;font-family:ArialMT"
   id="text354"><path
     d="m 2.2353143,0 -0.527335,0 0,-3.3602955 c -0.1269526,0.121095 -0.2934535,0.2421866 -0.4995034,0.3632752 -0.2060522,0.1210946 -0.39110755,0.2119133 -0.55516649,0.2724564 l 0,-0.5097571 C 0.94822541,-3.3729872 1.2060334,-3.540953 1.426734,-3.7382189 1.6474318,-3.9354773 1.803679,-4.1268801 1.8954762,-4.312428 l 0.3398381,0 z"
     style="font-size:5.99989986px;fill:#ffffff;font-family:ArialMT"
     id="path3265" /></g>

		</g>
		<g
   id="group34-77"
   transform="translate(8.99998,-52.1458)">
			<title
   id="title357">line96</title>
			<g
   id="shape35-78">
				<title
   id="title360">Sheet.35</title>
				<path
   fill="none"
   d="M0,170.38h26.5H0z"
   id="path362" />
			</g>
			<g
   id="shape36-80">
				<title
   id="title365">Sheet.36</title>
				<path
   fill="none"
   d="M0,170.38h26.5H0z"
   id="path367" />
				<path
   fill="none"
   stroke="#666666"
   stroke-width="1.5"
   stroke-miterlimit="3"
   d="M0,170.38h26.5"
   id="path369" />
			</g>
		</g>
		<g
   id="shape37-83"
   transform="translate(33.1303,-49.7736)">
			<title
   id="title372">polygon98</title>
			<path
   fill="#666666"
   d="M0,165.64v4.74l4.739-2.37L0,165.64z"
   id="path374" />
		</g>
		<g
   id="shape38-85"
   transform="translate(40.1248,-47.6418)">
			<title
   id="title377">circle100</title>
			<ellipse
   fill="#E67814"
   cx="4.5"
   cy="165.882"
   rx="4.5"
   ry="4.5"
   id="ellipse379"
   d="m 9,165.882 c 0,2.48529 -2.0147186,4.5 -4.5,4.5 -2.4852814,0 -4.5,-2.01471 -4.5,-4.5 0,-2.48528 2.0147186,-4.5 4.5,-4.5 2.4852814,0 4.5,2.01472 4.5,4.5 z" />
		</g>
		<g
   id="shape39-87"
   transform="translate(42.9064,-50.0789)">
			<title
   id="title382">text102</title>
			<desc
   id="desc384">2</desc>
			<v:userDefs />
			<v:textBlock
   v:margins="rect(0,0,0,0)" />
			<v:textRect
   width="6.17"
   height="3"
   cy="168.882"
   cx="3.05" />
			<rect
   x="0"
   y="167.382"
   fill="none"
   width="6.101"
   height="3"
   id="rect386" />
			
				<g
   transform="matrix(1 0 0 1 -0.0297 170.6796)"
   style="font-size:5.99989986px;fill:#ffffff;font-family:ArialMT"
   id="text388"><path
     d="M 3.0204574,-0.50682748 3.0204574,0 0.18163759,0 C 0.17773123,-0.12695088 0.19823868,-0.24901903 0.24316,-0.36620483 0.31542411,-0.55956041 0.43114472,-0.74998673 0.59032218,-0.93748435 0.74949846,-1.1249801 0.97947486,-1.3417731 1.2802521,-1.5878641 1.7470394,-1.9706683 2.0624635,-2.2738856 2.2265253,-2.4975169 2.3905827,-2.7211433 2.4726125,-2.9325653 2.472615,-3.1317837 2.4726125,-3.3407612 2.3979068,-3.5170276 2.2484976,-3.6605834 2.099084,-3.8041319 1.9042632,-3.875908 1.6640347,-3.8759119 c -0.2539034,3.9e-6 -0.4570248,0.076174 -0.6093648,0.2285118 -0.15234211,0.1523447 -0.22948918,0.3632785 -0.23144145,0.632802 l -0.54198314,-0.055663 c 0.0371084,-0.4042866 0.1767544,-0.7123866 0.41893832,-0.9243009 0.24218251,-0.2119064 0.56737207,-0.3178615 0.97556967,-0.3178658 0.4121004,4.3e-6 0.7382665,0.1142601 0.9784993,0.3427677 0.2402274,0.2285155 0.3603425,0.5117137 0.3603455,0.8495952 -3e-6,0.1718751 -0.035159,0.3408174 -0.105467,0.5068275 -0.070314,0.1660153 -0.1870113,0.3408169 -0.3500918,0.5244053 -0.1630856,0.1835926 -0.4340769,0.4355412 -0.8129747,0.7558467 -0.3164024,0.2656217 -0.5195238,0.44579426 -0.6093648,0.54051836 -0.089843,0.0947257 -0.16406076,0.18993884 -0.22265256,0.28563976 z"
     style="font-size:5.99989986px;fill:#ffffff;font-family:ArialMT"
     id="path3268" /></g>

		</g>
		<g
   id="group40-90"
   transform="translate(8.99998,-13.521)">
			<title
   id="title391">line104</title>
			<g
   id="shape41-91">
				<title
   id="title394">Sheet.41</title>
				<path
   fill="none"
   d="M0,170.381h26.5H0z"
   id="path396" />
			</g>
			<g
   id="shape42-93">
				<title
   id="title399">Sheet.42</title>
				<path
   fill="none"
   d="M0,170.381h26.5H0z"
   id="path401" />
				<path
   fill="none"
   stroke="#666666"
   stroke-width="1.5"
   stroke-miterlimit="3"
   d="M0,170.381h26.5"
   id="path403" />
			</g>
		</g>
		<g
   id="shape43-96"
   transform="translate(33.1303,-11.1488)">
			<title
   id="title406">polygon106</title>
			<path
   fill="#666666"
   d="M0,165.64v4.74l4.739-2.37L0,165.64z"
   id="path408" />
		</g>
		<g
   id="shape44-98"
   transform="translate(40.1248,-9.01699)">
			<title
   id="title411">circle108</title>
			<ellipse
   fill="#1C82B9"
   cx="4.5"
   cy="165.882"
   rx="4.5"
   ry="4.5"
   id="ellipse413"
   d="m 9,165.882 c 0,2.48529 -2.0147186,4.5 -4.5,4.5 -2.4852814,0 -4.5,-2.01471 -4.5,-4.5 0,-2.48528 2.0147186,-4.5 4.5,-4.5 2.4852814,0 4.5,2.01472 4.5,4.5 z" />
		</g>
		<g
   id="shape45-100"
   transform="translate(42.9064,-11.4541)">
			<title
   id="title416">text110</title>
			<desc
   id="desc418">3</desc>
			<v:userDefs />
			<v:textBlock
   v:margins="rect(0,0,0,0)" />
			<v:textRect
   width="6.17"
   height="3"
   cy="168.882"
   cx="3.05" />
			<rect
   x="0"
   y="167.382"
   fill="none"
   width="6.101"
   height="3"
   id="rect420" />
			
				<g
   transform="matrix(1 0 0 1 -0.0297 170.6798)"
   style="font-size:5.99989986px;fill:#ffffff;font-family:ArialMT"
   id="text422"><path
     d="m 0.25194892,-1.1337701 0.52733495,-0.070311 c 0.060545,0.29882408 0.16357055,0.5141523 0.30907683,0.64598535 0.1455042,0.13183416 0.3227472,0.19775096 0.5317294,0.1977506 0.2480409,3.6e-7 0.4575099,-0.0859356 0.6284075,-0.2578082 C 2.4193908,-0.79002509 2.5048385,-1.0029119 2.504841,-1.256815 2.5048385,-1.4989969 2.4257383,-1.6987004 2.2675403,-1.8559261 2.1093377,-2.013148 1.9081694,-2.0917599 1.6640347,-2.091762 c -0.099609,2.1e-6 -0.2236305,0.019533 -0.3720641,0.058593 l 0.058593,-0.4628829 c 0.035154,0.00391 0.063474,0.00586 0.08496,0.00586 0.224604,2.5e-6 0.4267488,-0.05859 0.6064352,-0.1757783 C 2.2216404,-2.7831539 2.3114825,-2.9638148 2.3114849,-3.2079543 2.3114825,-3.401307 2.246054,-3.5614604 2.1151991,-3.688415 1.9843399,-3.8153622 1.8153976,-3.8788376 1.6083716,-3.8788415 c -0.2050761,3.9e-6 -0.3759715,0.064456 -0.5126868,0.1933561 -0.13671739,0.1289077 -0.22460646,0.3222636 -0.26366744,0.5800685 L 0.30468241,-3.1991654 C 0.3691341,-3.5526715 0.51561588,-3.8265925 0.74412821,-4.020929 0.97263904,-4.2152575 1.2568137,-4.3124237 1.596653,-4.312428 c 0.2343693,4.3e-6 0.4501858,0.050296 0.6474502,0.1508764 0.1972599,0.1005883 0.3481361,0.2377929 0.4526291,0.4116142 0.1044877,0.1738288 0.1567328,0.3583958 0.1567357,0.5537017 -2.9e-6,0.1855468 -0.049807,0.3544891 -0.1494116,0.5068275 -0.09961,0.1523437 -0.2470686,0.2734353 -0.4423754,0.3632751 0.2538995,0.058595 0.4511616,0.180175 0.591787,0.3647401 0.1406197,0.184569 0.2109309,0.4155219 0.210934,0.6928595 -3.1e-6,0.37499462 -0.1367194,0.69286009 -0.4101494,0.95359735 C 2.3808173,-0.05419826 2.0351202,0.07617053 1.6171605,0.0761706 1.2402124,0.07617053 0.92722969,-0.03613217 0.67821134,-0.26073784 0.42919163,-0.48534298 0.2871043,-0.77635345 0.25194892,-1.1337701 z"
     style="font-size:5.99989986px;fill:#ffffff;font-family:ArialMT"
     id="path3271" /></g>

		</g>
		<g
   id="group46-103"
   transform="translate(150,250.003) rotate(180)">
			<title
   id="title425">line112</title>
			<g
   id="shape47-104">
				<title
   id="title428">Sheet.47</title>
				<path
   fill="none"
   d="M0,170.38h26.5H0z"
   id="path430" />
			</g>
			<g
   id="shape48-106">
				<title
   id="title433">Sheet.48</title>
				<path
   fill="none"
   d="M0,170.38h26.5H0z"
   id="path435" />
				<path
   fill="none"
   stroke="#666666"
   stroke-width="1.5"
   stroke-miterlimit="3"
   d="M0,170.38h26.5"
   id="path437" />
			</g>
		</g>
		<g
   id="shape49-109"
   transform="translate(121.125,-88.3985)">
			<title
   id="title440">polygon114</title>
			<path
   fill="#666666"
   d="M4.74,165.64v4.74L0,168.01L4.74,165.64z"
   id="path442" />
		</g>
		<g
   id="shape50-111"
   transform="translate(150,0)">
			<title
   id="title445">path116</title>
			<path
   fill="#666666"
   d="M4.5,66.88c2.49,0,4.5,2.021,4.5,4.5v94.5c0,2.49-2.01,4.5-4.5,4.5s-4.5-2.01-4.5-4.5v-94.5     C0,68.901,2.01,66.88,4.5,66.88z"
   id="path447" />
		</g>
		<g
   id="shape51-113"
   transform="translate(-13.8205,138.912) rotate(-90)">
			<title
   id="title450">text118</title>
			<desc
   id="desc452" />
			<v:userDefs />
			<v:textBlock
   v:margins="rect(0,0,0,0)" />
			<v:textRect
   width="104.9"
   height="3"
   cy="168.882"
   cx="52.4224" />
			
				<rect
   x="50.922"
   y="116.459"
   transform="matrix(-2.547107e-006 -1 1 -2.547107e-006 -116.4595 221.3043)"
   fill="none"
   width="3"
   height="104.845"
   id="rect454" />
			<g
   enable-background="new    "
   id="g456">
				<path
   fill="#FFFFFF"
   d="M1.323,166.196c0.195,0.066,0.363,0.135,0.504,0.205c0.027,0.023,0.041,0.049,0.041,0.076      c0,0.031-0.039,0.053-0.117,0.064c-0.086,0.016-0.15,0.023-0.193,0.023c-0.109,0.355-0.232,0.697-0.369,1.025      c-0.039,0.09-0.076,0.17-0.111,0.24c0.148,0.074,0.223,0.129,0.223,0.164c0,0.039-0.061,0.088-0.182,0.146v2.977      c0,0.125,0.01,0.219,0.029,0.281c0.012,0.055,0.018,0.1,0.018,0.135c0,0.121-0.07,0.186-0.211,0.193      c-0.082,0-0.123-0.031-0.123-0.094v-3.328c-0.023,0.047-0.047,0.09-0.07,0.129c-0.156,0.246-0.342,0.5-0.557,0.762l-0.094-0.07      c0.195-0.277,0.359-0.539,0.492-0.785c0.105-0.211,0.211-0.445,0.316-0.703c0.102-0.262,0.189-0.506,0.264-0.732      C1.241,166.686,1.288,166.45,1.323,166.196z M2.003,166.384l0.357,0.258h2.742l0.182-0.258c0.141,0.082,0.242,0.164,0.305,0.246      c0.035,0.031,0.053,0.059,0.053,0.082c0,0.035-0.07,0.098-0.211,0.188v3.727c0,0.289,0.004,0.479,0.012,0.568      c0.008,0.113,0.012,0.205,0.012,0.275c0,0.051-0.021,0.094-0.064,0.129c-0.055,0.023-0.098,0.035-0.129,0.035      c-0.074,0-0.111-0.025-0.111-0.076v-0.234H2.307v0.234c0,0.051-0.037,0.076-0.111,0.076c-0.035,0-0.08-0.012-0.135-0.035      c-0.039-0.035-0.059-0.078-0.059-0.129c0-0.07,0.006-0.162,0.018-0.275c0.02-0.09,0.029-0.279,0.029-0.568v-3.85      C2.05,166.624,2.034,166.493,2.003,166.384z M2.307,171.165h2.842V166.8H2.307V171.165z M2.495,167.831      c0.172,0.051,0.4,0.076,0.686,0.076h0.393v-0.404c0-0.207-0.008-0.363-0.023-0.469c0.176,0.031,0.32,0.064,0.434,0.1      c0.039,0.02,0.059,0.043,0.059,0.07c0,0.02-0.014,0.035-0.041,0.047c-0.043,0.027-0.09,0.049-0.141,0.064v0.592h0.516      l0.234-0.234c0.117,0.082,0.229,0.164,0.334,0.246c0.023,0.016,0.035,0.035,0.035,0.059c0,0.059-0.021,0.088-0.064,0.088H3.86      v0.961h0.369l0.17-0.188c0.203,0.125,0.305,0.211,0.305,0.258c0,0.043-0.057,0.098-0.17,0.164v0.908      c0.055,0.039,0.1,0.074,0.135,0.105c0.023,0.012,0.035,0.025,0.035,0.041c0,0.066-0.016,0.1-0.047,0.1h-1.5v0.111      c0,0.035-0.025,0.064-0.076,0.088c-0.059,0.023-0.104,0.035-0.135,0.035c-0.047,0-0.07-0.025-0.07-0.076v-1.734l0.346,0.188      h0.352v-0.961H3.18c-0.277,0.004-0.465,0.012-0.563,0.023L2.495,167.831z M3.157,170.245h1.096v-1.049H3.157V170.245z"
   id="path458" />
			</g>
			<g
   enable-background="new    "
   id="g460">
				<path
   fill="#FFFFFF"
   d="M8.712,167.462c0.203,0.125,0.305,0.242,0.305,0.352c0,0.047-0.047,0.07-0.141,0.07      c-0.047,0-0.102,0.063-0.164,0.188c-0.047,0.094-0.109,0.211-0.188,0.352c0.438-0.047,0.938-0.102,1.5-0.164l0.164-0.211      l0.422,0.328c0.188,0.141,0.141,0.211-0.141,0.211c-0.094,0-0.172,0.039-0.234,0.117c-0.125,0.156-0.234,0.289-0.328,0.398      c-0.188,0.219-0.414,0.461-0.68,0.727c0.219,0.156,0.367,0.273,0.445,0.352c0.141,0.141,0.195,0.266,0.164,0.375      c-0.047,0.141-0.125,0.156-0.234,0.047c-0.547-0.531-1.102-0.867-1.664-1.008c-0.047-0.031-0.031-0.055,0.047-0.07      c0.375,0.031,0.742,0.117,1.102,0.258c0.406-0.484,0.711-0.93,0.914-1.336c-0.5,0.063-0.82,0.102-0.961,0.117      c-0.234,0.031-0.367,0.07-0.398,0.117c-0.047,0.063-0.094,0.094-0.141,0.094c-0.063,0-0.102-0.047-0.117-0.141      c-0.188,0.25-0.406,0.492-0.656,0.727c-0.328,0.313-0.672,0.57-1.031,0.773c-0.094,0.031-0.117,0.008-0.07-0.07      c0.422-0.328,0.719-0.594,0.891-0.797c0.328-0.375,0.633-0.867,0.914-1.477c0.078-0.172,0.016-0.297-0.188-0.375      c-0.078-0.031-0.07-0.063,0.023-0.094S8.509,167.337,8.712,167.462z"
   id="path462" />
			</g>
			<g
   id="g464">
				<path
   fill="#FFFFFF"
   d="M13.323,170.503c-0.066,0-0.131-0.025-0.193-0.076c-0.078-0.07-0.145-0.164-0.199-0.281      c-0.07-0.125-0.145-0.244-0.223-0.357c-0.152-0.199-0.229-0.42-0.229-0.662c0-0.316,0.111-0.646,0.334-0.99      c0.27-0.398,0.639-0.713,1.107-0.943c0.473-0.23,0.945-0.346,1.418-0.346c0.566,0,1.053,0.164,1.459,0.492      c0.422,0.371,0.633,0.793,0.633,1.266c0,0.414-0.107,0.805-0.322,1.172c-0.188,0.34-0.479,0.631-0.873,0.873      c-0.441,0.266-0.951,0.412-1.529,0.439v-0.07c0.469-0.074,0.9-0.234,1.295-0.48c0.328-0.199,0.6-0.488,0.814-0.867      c0.172-0.281,0.258-0.637,0.258-1.066c0-0.488-0.162-0.873-0.486-1.154c-0.309-0.262-0.725-0.393-1.248-0.393      c-0.117,0-0.236,0.008-0.357,0.023c0.191,0.152,0.287,0.277,0.287,0.375c0,0.207-0.133,0.58-0.398,1.119      c-0.289,0.605-0.568,1.07-0.838,1.395C13.735,170.325,13.499,170.503,13.323,170.503z M14.805,167.122      c-0.242,0.047-0.492,0.131-0.75,0.252c-0.391,0.203-0.719,0.496-0.984,0.879c-0.223,0.324-0.334,0.668-0.334,1.031      c0,0.172,0.057,0.369,0.17,0.592c0.098,0.203,0.221,0.305,0.369,0.305s0.326-0.137,0.533-0.41      c0.246-0.313,0.5-0.736,0.762-1.271c0.246-0.504,0.369-0.852,0.369-1.043C14.94,167.319,14.895,167.208,14.805,167.122z"
   id="path466" />
				<path
   fill="#FFFFFF"
   d="M21.602,166.472h0.275c0.219,0,0.328,0.094,0.328,0.281c0,0.078-0.004,0.164-0.012,0.258      c-0.008,0.074-0.018,0.564-0.029,1.471c0,0.617-0.08,1.109-0.24,1.477c-0.199,0.477-0.605,0.98-1.219,1.512l-0.064-0.047      c0.543-0.609,0.895-1.172,1.055-1.688c0.109-0.313,0.164-0.893,0.164-1.74c0-0.738-0.012-1.152-0.035-1.242      c-0.016-0.129-0.09-0.199-0.223-0.211V166.472z M19.657,166.665c0.188,0,0.314,0.008,0.381,0.023      c0.09,0.035,0.135,0.119,0.135,0.252c0,0.082-0.008,0.203-0.023,0.363c-0.016,0.176-0.023,0.486-0.023,0.932v0.99      c0,0.211-0.049,0.316-0.146,0.316c-0.055,0-0.107-0.033-0.158-0.1c-0.035-0.063-0.053-0.123-0.053-0.182      c0-0.121,0.012-0.25,0.035-0.387c0.023-0.227,0.035-0.627,0.035-1.201c0-0.371-0.004-0.615-0.012-0.732      c-0.012-0.141-0.084-0.211-0.217-0.211L19.657,166.665z"
   id="path468" />
				<path
   fill="#FFFFFF"
   d="M28.376,166.753c0.254,0.078,0.412,0.143,0.475,0.193c0.043,0.047,0.064,0.1,0.064,0.158      c0,0.066-0.102,0.285-0.305,0.656c-0.262,0.48-0.504,0.889-0.727,1.225c-0.242,0.344-0.453,0.615-0.633,0.814      c-0.543,0.617-1.176,1.15-1.898,1.6l-0.029-0.053c0.598-0.465,1.139-0.992,1.623-1.582c0.441-0.543,0.822-1.127,1.143-1.752      c0.281-0.543,0.422-0.854,0.422-0.932c0-0.094-0.053-0.18-0.158-0.258L28.376,166.753z M24.971,167.157      c0.359,0.223,0.635,0.451,0.826,0.686c0.137,0.168,0.205,0.32,0.205,0.457c0,0.047-0.016,0.096-0.047,0.146      c-0.039,0.043-0.078,0.064-0.117,0.064c-0.086,0-0.148-0.053-0.188-0.158c-0.121-0.297-0.23-0.516-0.328-0.656      c-0.102-0.188-0.227-0.346-0.375-0.475L24.971,167.157z"
   id="path470" />
				<path
   fill="#FFFFFF"
   d="M30.479,168.792c0.07,0.098,0.197,0.146,0.381,0.146c0.23,0,0.49-0.02,0.779-0.059      c0.395-0.055,1.164-0.127,2.309-0.217c0.324-0.02,0.598-0.029,0.82-0.029c0.246,0,0.414,0.025,0.504,0.076      c0.105,0.059,0.158,0.119,0.158,0.182c0,0.059-0.078,0.088-0.234,0.088c-0.078,0-0.16-0.004-0.246-0.012      c-0.105-0.008-0.281-0.012-0.527-0.012c-1.031,0.008-1.904,0.074-2.619,0.199c-0.508,0.086-0.814,0.129-0.92,0.129      c-0.148,0-0.256-0.039-0.322-0.117c-0.07-0.074-0.121-0.174-0.152-0.299L30.479,168.792z"
   id="path472" />
				<path
   fill="#FFFFFF"
   d="M37.352,167.157c0.063,0.074,0.186,0.111,0.369,0.111c0.16,0,0.486-0.049,0.979-0.146      c0.473-0.105,0.779-0.184,0.92-0.234c0.266-0.105,0.414-0.158,0.445-0.158c0.063,0,0.158,0.053,0.287,0.158      c0.105,0.09,0.158,0.162,0.158,0.217c0,0.023-0.033,0.063-0.1,0.117c-0.09,0.07-0.254,0.316-0.492,0.738      c-0.188,0.324-0.391,0.631-0.609,0.92c0.699,0.504,1.182,0.922,1.447,1.254c0.293,0.34,0.439,0.59,0.439,0.75      c0,0.105-0.049,0.158-0.146,0.158c-0.09,0-0.172-0.064-0.246-0.193c-0.227-0.387-0.43-0.688-0.609-0.902      c-0.211-0.281-0.52-0.619-0.926-1.014c-0.168,0.219-0.342,0.426-0.521,0.621c-0.422,0.473-1.1,1.031-2.033,1.676l-0.023-0.064      c0.816-0.664,1.418-1.236,1.805-1.717c0.43-0.527,0.801-1.074,1.113-1.641c0.227-0.391,0.34-0.615,0.34-0.674      c0-0.051-0.021-0.076-0.064-0.076c-0.051,0-0.379,0.096-0.984,0.287c-0.59,0.188-0.99,0.281-1.201,0.281      c-0.086,0-0.15-0.023-0.193-0.07c-0.055-0.043-0.131-0.168-0.229-0.375L37.352,167.157z"
   id="path474" />
			</g>
			<v:paragraph />
			<v:tabList />
		</g>
		<g
   id="group52-117"
   transform="translate(150,288.628) rotate(180)">
			<title
   id="title477">line120</title>
			<g
   id="shape53-118">
				<title
   id="title480">Sheet.53</title>
				<path
   fill="none"
   d="M0,170.38h26.5H0z"
   id="path482" />
			</g>
			<g
   id="shape54-120">
				<title
   id="title485">Sheet.54</title>
				<path
   fill="none"
   d="M0,170.38h26.5H0z"
   id="path487" />
				<path
   fill="none"
   stroke="#666666"
   stroke-width="1.5"
   stroke-miterlimit="3"
   d="M0,170.38h26.5"
   id="path489" />
			</g>
		</g>
		<g
   id="shape55-123"
   transform="translate(121.125,-49.7736)">
			<title
   id="title492">polygon122</title>
			<path
   fill="#666666"
   d="M4.74,165.64v4.74L0,168.01L4.74,165.64z"
   id="path494" />
		</g>
		<g
   id="group56-125"
   transform="translate(150,327.253) rotate(180)">
			<title
   id="title497">line124</title>
			<g
   id="shape57-126">
				<title
   id="title500">Sheet.57</title>
				<path
   fill="none"
   d="M0,170.38h26.5H0z"
   id="path502" />
			</g>
			<g
   id="shape58-128">
				<title
   id="title505">Sheet.58</title>
				<path
   fill="none"
   d="M0,170.38h26.5H0z"
   id="path507" />
				<path
   fill="none"
   stroke="#666666"
   stroke-width="1.5"
   stroke-miterlimit="3"
   d="M0,170.38h26.5"
   id="path509" />
			</g>
		</g>
		<g
   id="shape59-131"
   transform="translate(121.125,-11.1488)">
			<title
   id="title512">polygon126</title>
			<path
   fill="#666666"
   d="M4.74,165.64v4.74L0,168.01L4.74,165.64z"
   id="path514" />
		</g>
	</g>
</g>
</svg>